%TF.GenerationSoftware,KiCad,Pcbnew,(5.99.0-10506-gb986797469)*%
%TF.CreationDate,2021-11-30T23:31:34+01:00*%
%TF.ProjectId,Power_Over_Regular_Normal_HUB,506f7765-725f-44f7-9665-725f52656775,rev?*%
%TF.SameCoordinates,Original*%
%TF.FileFunction,Legend,Top*%
%TF.FilePolarity,Positive*%
%FSLAX46Y46*%
G04 Gerber Fmt 4.6, Leading zero omitted, Abs format (unit mm)*
G04 Created by KiCad (PCBNEW (5.99.0-10506-gb986797469)) date 2021-11-30 23:31:34*
%MOMM*%
%LPD*%
G01*
G04 APERTURE LIST*
%ADD10C,0.150000*%
%ADD11C,0.100000*%
%ADD12C,0.120000*%
G04 APERTURE END LIST*
D10*
X153800000Y-89200000D02*
X156200000Y-89200000D01*
X152600000Y-92000000D02*
X153800000Y-92000000D01*
X152487258Y-92182500D02*
X152600000Y-92000000D01*
X153800000Y-92000000D02*
X153800000Y-89200000D01*
D11*
%TO.C,R25*%
X86685714Y-102961904D02*
X86419047Y-102580952D01*
X86228571Y-102961904D02*
X86228571Y-102161904D01*
X86533333Y-102161904D01*
X86609523Y-102200000D01*
X86647619Y-102238095D01*
X86685714Y-102314285D01*
X86685714Y-102428571D01*
X86647619Y-102504761D01*
X86609523Y-102542857D01*
X86533333Y-102580952D01*
X86228571Y-102580952D01*
X86990476Y-102238095D02*
X87028571Y-102200000D01*
X87104761Y-102161904D01*
X87295238Y-102161904D01*
X87371428Y-102200000D01*
X87409523Y-102238095D01*
X87447619Y-102314285D01*
X87447619Y-102390476D01*
X87409523Y-102504761D01*
X86952380Y-102961904D01*
X87447619Y-102961904D01*
X88171428Y-102161904D02*
X87790476Y-102161904D01*
X87752380Y-102542857D01*
X87790476Y-102504761D01*
X87866666Y-102466666D01*
X88057142Y-102466666D01*
X88133333Y-102504761D01*
X88171428Y-102542857D01*
X88209523Y-102619047D01*
X88209523Y-102809523D01*
X88171428Y-102885714D01*
X88133333Y-102923809D01*
X88057142Y-102961904D01*
X87866666Y-102961904D01*
X87790476Y-102923809D01*
X87752380Y-102885714D01*
%TO.C,R12*%
X111885714Y-79761904D02*
X111619047Y-79380952D01*
X111428571Y-79761904D02*
X111428571Y-78961904D01*
X111733333Y-78961904D01*
X111809523Y-79000000D01*
X111847619Y-79038095D01*
X111885714Y-79114285D01*
X111885714Y-79228571D01*
X111847619Y-79304761D01*
X111809523Y-79342857D01*
X111733333Y-79380952D01*
X111428571Y-79380952D01*
X112647619Y-79761904D02*
X112190476Y-79761904D01*
X112419047Y-79761904D02*
X112419047Y-78961904D01*
X112342857Y-79076190D01*
X112266666Y-79152380D01*
X112190476Y-79190476D01*
X112952380Y-79038095D02*
X112990476Y-79000000D01*
X113066666Y-78961904D01*
X113257142Y-78961904D01*
X113333333Y-79000000D01*
X113371428Y-79038095D01*
X113409523Y-79114285D01*
X113409523Y-79190476D01*
X113371428Y-79304761D01*
X112914285Y-79761904D01*
X113409523Y-79761904D01*
%TO.C,C7*%
X82866666Y-79085714D02*
X82828571Y-79123809D01*
X82714285Y-79161904D01*
X82638095Y-79161904D01*
X82523809Y-79123809D01*
X82447619Y-79047619D01*
X82409523Y-78971428D01*
X82371428Y-78819047D01*
X82371428Y-78704761D01*
X82409523Y-78552380D01*
X82447619Y-78476190D01*
X82523809Y-78400000D01*
X82638095Y-78361904D01*
X82714285Y-78361904D01*
X82828571Y-78400000D01*
X82866666Y-78438095D01*
X83133333Y-78361904D02*
X83666666Y-78361904D01*
X83323809Y-79161904D01*
%TO.C,U6*%
X81361904Y-94609523D02*
X82009523Y-94609523D01*
X82085714Y-94571428D01*
X82123809Y-94533333D01*
X82161904Y-94457142D01*
X82161904Y-94304761D01*
X82123809Y-94228571D01*
X82085714Y-94190476D01*
X82009523Y-94152380D01*
X81361904Y-94152380D01*
X81361904Y-93428571D02*
X81361904Y-93580952D01*
X81400000Y-93657142D01*
X81438095Y-93695238D01*
X81552380Y-93771428D01*
X81704761Y-93809523D01*
X82009523Y-93809523D01*
X82085714Y-93771428D01*
X82123809Y-93733333D01*
X82161904Y-93657142D01*
X82161904Y-93504761D01*
X82123809Y-93428571D01*
X82085714Y-93390476D01*
X82009523Y-93352380D01*
X81819047Y-93352380D01*
X81742857Y-93390476D01*
X81704761Y-93428571D01*
X81666666Y-93504761D01*
X81666666Y-93657142D01*
X81704761Y-93733333D01*
X81742857Y-93771428D01*
X81819047Y-93809523D01*
%TO.C,U9*%
X81361904Y-104209523D02*
X82009523Y-104209523D01*
X82085714Y-104171428D01*
X82123809Y-104133333D01*
X82161904Y-104057142D01*
X82161904Y-103904761D01*
X82123809Y-103828571D01*
X82085714Y-103790476D01*
X82009523Y-103752380D01*
X81361904Y-103752380D01*
X82161904Y-103333333D02*
X82161904Y-103180952D01*
X82123809Y-103104761D01*
X82085714Y-103066666D01*
X81971428Y-102990476D01*
X81819047Y-102952380D01*
X81514285Y-102952380D01*
X81438095Y-102990476D01*
X81400000Y-103028571D01*
X81361904Y-103104761D01*
X81361904Y-103257142D01*
X81400000Y-103333333D01*
X81438095Y-103371428D01*
X81514285Y-103409523D01*
X81704761Y-103409523D01*
X81780952Y-103371428D01*
X81819047Y-103333333D01*
X81857142Y-103257142D01*
X81857142Y-103104761D01*
X81819047Y-103028571D01*
X81780952Y-102990476D01*
X81704761Y-102952380D01*
%TO.C,D4*%
X71409523Y-95361904D02*
X71409523Y-94561904D01*
X71600000Y-94561904D01*
X71714285Y-94600000D01*
X71790476Y-94676190D01*
X71828571Y-94752380D01*
X71866666Y-94904761D01*
X71866666Y-95019047D01*
X71828571Y-95171428D01*
X71790476Y-95247619D01*
X71714285Y-95323809D01*
X71600000Y-95361904D01*
X71409523Y-95361904D01*
X72552380Y-94828571D02*
X72552380Y-95361904D01*
X72361904Y-94523809D02*
X72171428Y-95095238D01*
X72666666Y-95095238D01*
%TO.C,P4*%
X157809523Y-65361904D02*
X157809523Y-64561904D01*
X158114285Y-64561904D01*
X158190476Y-64600000D01*
X158228571Y-64638095D01*
X158266666Y-64714285D01*
X158266666Y-64828571D01*
X158228571Y-64904761D01*
X158190476Y-64942857D01*
X158114285Y-64980952D01*
X157809523Y-64980952D01*
X158952380Y-64828571D02*
X158952380Y-65361904D01*
X158761904Y-64523809D02*
X158571428Y-65095238D01*
X159066666Y-65095238D01*
%TO.C,SW1*%
X92723809Y-95466666D02*
X92761904Y-95352380D01*
X92761904Y-95161904D01*
X92723809Y-95085714D01*
X92685714Y-95047619D01*
X92609523Y-95009523D01*
X92533333Y-95009523D01*
X92457142Y-95047619D01*
X92419047Y-95085714D01*
X92380952Y-95161904D01*
X92342857Y-95314285D01*
X92304761Y-95390476D01*
X92266666Y-95428571D01*
X92190476Y-95466666D01*
X92114285Y-95466666D01*
X92038095Y-95428571D01*
X92000000Y-95390476D01*
X91961904Y-95314285D01*
X91961904Y-95123809D01*
X92000000Y-95009523D01*
X91961904Y-94742857D02*
X92761904Y-94552380D01*
X92190476Y-94400000D01*
X92761904Y-94247619D01*
X91961904Y-94057142D01*
X92761904Y-93333333D02*
X92761904Y-93790476D01*
X92761904Y-93561904D02*
X91961904Y-93561904D01*
X92076190Y-93638095D01*
X92152380Y-93714285D01*
X92190476Y-93790476D01*
%TO.C,C27*%
X157885714Y-111714285D02*
X157923809Y-111752380D01*
X157961904Y-111866666D01*
X157961904Y-111942857D01*
X157923809Y-112057142D01*
X157847619Y-112133333D01*
X157771428Y-112171428D01*
X157619047Y-112209523D01*
X157504761Y-112209523D01*
X157352380Y-112171428D01*
X157276190Y-112133333D01*
X157200000Y-112057142D01*
X157161904Y-111942857D01*
X157161904Y-111866666D01*
X157200000Y-111752380D01*
X157238095Y-111714285D01*
X157238095Y-111409523D02*
X157200000Y-111371428D01*
X157161904Y-111295238D01*
X157161904Y-111104761D01*
X157200000Y-111028571D01*
X157238095Y-110990476D01*
X157314285Y-110952380D01*
X157390476Y-110952380D01*
X157504761Y-110990476D01*
X157961904Y-111447619D01*
X157961904Y-110952380D01*
X157161904Y-110685714D02*
X157161904Y-110152380D01*
X157961904Y-110495238D01*
%TO.C,R45*%
X151685714Y-90561904D02*
X151419047Y-90180952D01*
X151228571Y-90561904D02*
X151228571Y-89761904D01*
X151533333Y-89761904D01*
X151609523Y-89800000D01*
X151647619Y-89838095D01*
X151685714Y-89914285D01*
X151685714Y-90028571D01*
X151647619Y-90104761D01*
X151609523Y-90142857D01*
X151533333Y-90180952D01*
X151228571Y-90180952D01*
X152371428Y-90028571D02*
X152371428Y-90561904D01*
X152180952Y-89723809D02*
X151990476Y-90295238D01*
X152485714Y-90295238D01*
X153171428Y-89761904D02*
X152790476Y-89761904D01*
X152752380Y-90142857D01*
X152790476Y-90104761D01*
X152866666Y-90066666D01*
X153057142Y-90066666D01*
X153133333Y-90104761D01*
X153171428Y-90142857D01*
X153209523Y-90219047D01*
X153209523Y-90409523D01*
X153171428Y-90485714D01*
X153133333Y-90523809D01*
X153057142Y-90561904D01*
X152866666Y-90561904D01*
X152790476Y-90523809D01*
X152752380Y-90485714D01*
%TO.C,R16*%
X122885714Y-106561904D02*
X122619047Y-106180952D01*
X122428571Y-106561904D02*
X122428571Y-105761904D01*
X122733333Y-105761904D01*
X122809523Y-105800000D01*
X122847619Y-105838095D01*
X122885714Y-105914285D01*
X122885714Y-106028571D01*
X122847619Y-106104761D01*
X122809523Y-106142857D01*
X122733333Y-106180952D01*
X122428571Y-106180952D01*
X123647619Y-106561904D02*
X123190476Y-106561904D01*
X123419047Y-106561904D02*
X123419047Y-105761904D01*
X123342857Y-105876190D01*
X123266666Y-105952380D01*
X123190476Y-105990476D01*
X124333333Y-105761904D02*
X124180952Y-105761904D01*
X124104761Y-105800000D01*
X124066666Y-105838095D01*
X123990476Y-105952380D01*
X123952380Y-106104761D01*
X123952380Y-106409523D01*
X123990476Y-106485714D01*
X124028571Y-106523809D01*
X124104761Y-106561904D01*
X124257142Y-106561904D01*
X124333333Y-106523809D01*
X124371428Y-106485714D01*
X124409523Y-106409523D01*
X124409523Y-106219047D01*
X124371428Y-106142857D01*
X124333333Y-106104761D01*
X124257142Y-106066666D01*
X124104761Y-106066666D01*
X124028571Y-106104761D01*
X123990476Y-106142857D01*
X123952380Y-106219047D01*
%TO.C,R47*%
X123885714Y-71961904D02*
X123619047Y-71580952D01*
X123428571Y-71961904D02*
X123428571Y-71161904D01*
X123733333Y-71161904D01*
X123809523Y-71200000D01*
X123847619Y-71238095D01*
X123885714Y-71314285D01*
X123885714Y-71428571D01*
X123847619Y-71504761D01*
X123809523Y-71542857D01*
X123733333Y-71580952D01*
X123428571Y-71580952D01*
X124571428Y-71428571D02*
X124571428Y-71961904D01*
X124380952Y-71123809D02*
X124190476Y-71695238D01*
X124685714Y-71695238D01*
X124914285Y-71161904D02*
X125447619Y-71161904D01*
X125104761Y-71961904D01*
%TO.C,L2*%
X154466666Y-114561904D02*
X154085714Y-114561904D01*
X154085714Y-113761904D01*
X154695238Y-113838095D02*
X154733333Y-113800000D01*
X154809523Y-113761904D01*
X155000000Y-113761904D01*
X155076190Y-113800000D01*
X155114285Y-113838095D01*
X155152380Y-113914285D01*
X155152380Y-113990476D01*
X155114285Y-114104761D01*
X154657142Y-114561904D01*
X155152380Y-114561904D01*
%TO.C,R22*%
X86685714Y-74361904D02*
X86419047Y-73980952D01*
X86228571Y-74361904D02*
X86228571Y-73561904D01*
X86533333Y-73561904D01*
X86609523Y-73600000D01*
X86647619Y-73638095D01*
X86685714Y-73714285D01*
X86685714Y-73828571D01*
X86647619Y-73904761D01*
X86609523Y-73942857D01*
X86533333Y-73980952D01*
X86228571Y-73980952D01*
X86990476Y-73638095D02*
X87028571Y-73600000D01*
X87104761Y-73561904D01*
X87295238Y-73561904D01*
X87371428Y-73600000D01*
X87409523Y-73638095D01*
X87447619Y-73714285D01*
X87447619Y-73790476D01*
X87409523Y-73904761D01*
X86952380Y-74361904D01*
X87447619Y-74361904D01*
X87752380Y-73638095D02*
X87790476Y-73600000D01*
X87866666Y-73561904D01*
X88057142Y-73561904D01*
X88133333Y-73600000D01*
X88171428Y-73638095D01*
X88209523Y-73714285D01*
X88209523Y-73790476D01*
X88171428Y-73904761D01*
X87714285Y-74361904D01*
X88209523Y-74361904D01*
%TO.C,U7*%
X150190476Y-81961904D02*
X150190476Y-82609523D01*
X150228571Y-82685714D01*
X150266666Y-82723809D01*
X150342857Y-82761904D01*
X150495238Y-82761904D01*
X150571428Y-82723809D01*
X150609523Y-82685714D01*
X150647619Y-82609523D01*
X150647619Y-81961904D01*
X150952380Y-81961904D02*
X151485714Y-81961904D01*
X151142857Y-82761904D01*
%TO.C,C29*%
X80285714Y-79685714D02*
X80247619Y-79723809D01*
X80133333Y-79761904D01*
X80057142Y-79761904D01*
X79942857Y-79723809D01*
X79866666Y-79647619D01*
X79828571Y-79571428D01*
X79790476Y-79419047D01*
X79790476Y-79304761D01*
X79828571Y-79152380D01*
X79866666Y-79076190D01*
X79942857Y-79000000D01*
X80057142Y-78961904D01*
X80133333Y-78961904D01*
X80247619Y-79000000D01*
X80285714Y-79038095D01*
X80590476Y-79038095D02*
X80628571Y-79000000D01*
X80704761Y-78961904D01*
X80895238Y-78961904D01*
X80971428Y-79000000D01*
X81009523Y-79038095D01*
X81047619Y-79114285D01*
X81047619Y-79190476D01*
X81009523Y-79304761D01*
X80552380Y-79761904D01*
X81047619Y-79761904D01*
X81428571Y-79761904D02*
X81580952Y-79761904D01*
X81657142Y-79723809D01*
X81695238Y-79685714D01*
X81771428Y-79571428D01*
X81809523Y-79419047D01*
X81809523Y-79114285D01*
X81771428Y-79038095D01*
X81733333Y-79000000D01*
X81657142Y-78961904D01*
X81504761Y-78961904D01*
X81428571Y-79000000D01*
X81390476Y-79038095D01*
X81352380Y-79114285D01*
X81352380Y-79304761D01*
X81390476Y-79380952D01*
X81428571Y-79419047D01*
X81504761Y-79457142D01*
X81657142Y-79457142D01*
X81733333Y-79419047D01*
X81771428Y-79380952D01*
X81809523Y-79304761D01*
%TO.C,C31*%
X83215714Y-96514285D02*
X83253809Y-96552380D01*
X83291904Y-96666666D01*
X83291904Y-96742857D01*
X83253809Y-96857142D01*
X83177619Y-96933333D01*
X83101428Y-96971428D01*
X82949047Y-97009523D01*
X82834761Y-97009523D01*
X82682380Y-96971428D01*
X82606190Y-96933333D01*
X82530000Y-96857142D01*
X82491904Y-96742857D01*
X82491904Y-96666666D01*
X82530000Y-96552380D01*
X82568095Y-96514285D01*
X82491904Y-96247619D02*
X82491904Y-95752380D01*
X82796666Y-96019047D01*
X82796666Y-95904761D01*
X82834761Y-95828571D01*
X82872857Y-95790476D01*
X82949047Y-95752380D01*
X83139523Y-95752380D01*
X83215714Y-95790476D01*
X83253809Y-95828571D01*
X83291904Y-95904761D01*
X83291904Y-96133333D01*
X83253809Y-96209523D01*
X83215714Y-96247619D01*
X83291904Y-94990476D02*
X83291904Y-95447619D01*
X83291904Y-95219047D02*
X82491904Y-95219047D01*
X82606190Y-95295238D01*
X82682380Y-95371428D01*
X82720476Y-95447619D01*
%TO.C,SW5*%
X132533333Y-83723809D02*
X132647619Y-83761904D01*
X132838095Y-83761904D01*
X132914285Y-83723809D01*
X132952380Y-83685714D01*
X132990476Y-83609523D01*
X132990476Y-83533333D01*
X132952380Y-83457142D01*
X132914285Y-83419047D01*
X132838095Y-83380952D01*
X132685714Y-83342857D01*
X132609523Y-83304761D01*
X132571428Y-83266666D01*
X132533333Y-83190476D01*
X132533333Y-83114285D01*
X132571428Y-83038095D01*
X132609523Y-83000000D01*
X132685714Y-82961904D01*
X132876190Y-82961904D01*
X132990476Y-83000000D01*
X133257142Y-82961904D02*
X133447619Y-83761904D01*
X133600000Y-83190476D01*
X133752380Y-83761904D01*
X133942857Y-82961904D01*
X134628571Y-82961904D02*
X134247619Y-82961904D01*
X134209523Y-83342857D01*
X134247619Y-83304761D01*
X134323809Y-83266666D01*
X134514285Y-83266666D01*
X134590476Y-83304761D01*
X134628571Y-83342857D01*
X134666666Y-83419047D01*
X134666666Y-83609523D01*
X134628571Y-83685714D01*
X134590476Y-83723809D01*
X134514285Y-83761904D01*
X134323809Y-83761904D01*
X134247619Y-83723809D01*
X134209523Y-83685714D01*
%TO.C,C33*%
X80685714Y-117685714D02*
X80647619Y-117723809D01*
X80533333Y-117761904D01*
X80457142Y-117761904D01*
X80342857Y-117723809D01*
X80266666Y-117647619D01*
X80228571Y-117571428D01*
X80190476Y-117419047D01*
X80190476Y-117304761D01*
X80228571Y-117152380D01*
X80266666Y-117076190D01*
X80342857Y-117000000D01*
X80457142Y-116961904D01*
X80533333Y-116961904D01*
X80647619Y-117000000D01*
X80685714Y-117038095D01*
X80952380Y-116961904D02*
X81447619Y-116961904D01*
X81180952Y-117266666D01*
X81295238Y-117266666D01*
X81371428Y-117304761D01*
X81409523Y-117342857D01*
X81447619Y-117419047D01*
X81447619Y-117609523D01*
X81409523Y-117685714D01*
X81371428Y-117723809D01*
X81295238Y-117761904D01*
X81066666Y-117761904D01*
X80990476Y-117723809D01*
X80952380Y-117685714D01*
X81714285Y-116961904D02*
X82209523Y-116961904D01*
X81942857Y-117266666D01*
X82057142Y-117266666D01*
X82133333Y-117304761D01*
X82171428Y-117342857D01*
X82209523Y-117419047D01*
X82209523Y-117609523D01*
X82171428Y-117685714D01*
X82133333Y-117723809D01*
X82057142Y-117761904D01*
X81828571Y-117761904D01*
X81752380Y-117723809D01*
X81714285Y-117685714D01*
%TO.C,R28*%
X86685714Y-103961904D02*
X86419047Y-103580952D01*
X86228571Y-103961904D02*
X86228571Y-103161904D01*
X86533333Y-103161904D01*
X86609523Y-103200000D01*
X86647619Y-103238095D01*
X86685714Y-103314285D01*
X86685714Y-103428571D01*
X86647619Y-103504761D01*
X86609523Y-103542857D01*
X86533333Y-103580952D01*
X86228571Y-103580952D01*
X86990476Y-103238095D02*
X87028571Y-103200000D01*
X87104761Y-103161904D01*
X87295238Y-103161904D01*
X87371428Y-103200000D01*
X87409523Y-103238095D01*
X87447619Y-103314285D01*
X87447619Y-103390476D01*
X87409523Y-103504761D01*
X86952380Y-103961904D01*
X87447619Y-103961904D01*
X87904761Y-103504761D02*
X87828571Y-103466666D01*
X87790476Y-103428571D01*
X87752380Y-103352380D01*
X87752380Y-103314285D01*
X87790476Y-103238095D01*
X87828571Y-103200000D01*
X87904761Y-103161904D01*
X88057142Y-103161904D01*
X88133333Y-103200000D01*
X88171428Y-103238095D01*
X88209523Y-103314285D01*
X88209523Y-103352380D01*
X88171428Y-103428571D01*
X88133333Y-103466666D01*
X88057142Y-103504761D01*
X87904761Y-103504761D01*
X87828571Y-103542857D01*
X87790476Y-103580952D01*
X87752380Y-103657142D01*
X87752380Y-103809523D01*
X87790476Y-103885714D01*
X87828571Y-103923809D01*
X87904761Y-103961904D01*
X88057142Y-103961904D01*
X88133333Y-103923809D01*
X88171428Y-103885714D01*
X88209523Y-103809523D01*
X88209523Y-103657142D01*
X88171428Y-103580952D01*
X88133333Y-103542857D01*
X88057142Y-103504761D01*
%TO.C,C12*%
X157885714Y-84514285D02*
X157923809Y-84552380D01*
X157961904Y-84666666D01*
X157961904Y-84742857D01*
X157923809Y-84857142D01*
X157847619Y-84933333D01*
X157771428Y-84971428D01*
X157619047Y-85009523D01*
X157504761Y-85009523D01*
X157352380Y-84971428D01*
X157276190Y-84933333D01*
X157200000Y-84857142D01*
X157161904Y-84742857D01*
X157161904Y-84666666D01*
X157200000Y-84552380D01*
X157238095Y-84514285D01*
X157961904Y-83752380D02*
X157961904Y-84209523D01*
X157961904Y-83980952D02*
X157161904Y-83980952D01*
X157276190Y-84057142D01*
X157352380Y-84133333D01*
X157390476Y-84209523D01*
X157238095Y-83447619D02*
X157200000Y-83409523D01*
X157161904Y-83333333D01*
X157161904Y-83142857D01*
X157200000Y-83066666D01*
X157238095Y-83028571D01*
X157314285Y-82990476D01*
X157390476Y-82990476D01*
X157504761Y-83028571D01*
X157961904Y-83485714D01*
X157961904Y-82990476D01*
%TO.C,R44*%
X154685714Y-88961904D02*
X154419047Y-88580952D01*
X154228571Y-88961904D02*
X154228571Y-88161904D01*
X154533333Y-88161904D01*
X154609523Y-88200000D01*
X154647619Y-88238095D01*
X154685714Y-88314285D01*
X154685714Y-88428571D01*
X154647619Y-88504761D01*
X154609523Y-88542857D01*
X154533333Y-88580952D01*
X154228571Y-88580952D01*
X155371428Y-88428571D02*
X155371428Y-88961904D01*
X155180952Y-88123809D02*
X154990476Y-88695238D01*
X155485714Y-88695238D01*
X156133333Y-88428571D02*
X156133333Y-88961904D01*
X155942857Y-88123809D02*
X155752380Y-88695238D01*
X156247619Y-88695238D01*
%TO.C,C4*%
X83866666Y-70105714D02*
X83828571Y-70143809D01*
X83714285Y-70181904D01*
X83638095Y-70181904D01*
X83523809Y-70143809D01*
X83447619Y-70067619D01*
X83409523Y-69991428D01*
X83371428Y-69839047D01*
X83371428Y-69724761D01*
X83409523Y-69572380D01*
X83447619Y-69496190D01*
X83523809Y-69420000D01*
X83638095Y-69381904D01*
X83714285Y-69381904D01*
X83828571Y-69420000D01*
X83866666Y-69458095D01*
X84552380Y-69648571D02*
X84552380Y-70181904D01*
X84361904Y-69343809D02*
X84171428Y-69915238D01*
X84666666Y-69915238D01*
%TO.C,C16*%
X142285714Y-113685714D02*
X142247619Y-113723809D01*
X142133333Y-113761904D01*
X142057142Y-113761904D01*
X141942857Y-113723809D01*
X141866666Y-113647619D01*
X141828571Y-113571428D01*
X141790476Y-113419047D01*
X141790476Y-113304761D01*
X141828571Y-113152380D01*
X141866666Y-113076190D01*
X141942857Y-113000000D01*
X142057142Y-112961904D01*
X142133333Y-112961904D01*
X142247619Y-113000000D01*
X142285714Y-113038095D01*
X143047619Y-113761904D02*
X142590476Y-113761904D01*
X142819047Y-113761904D02*
X142819047Y-112961904D01*
X142742857Y-113076190D01*
X142666666Y-113152380D01*
X142590476Y-113190476D01*
X143733333Y-112961904D02*
X143580952Y-112961904D01*
X143504761Y-113000000D01*
X143466666Y-113038095D01*
X143390476Y-113152380D01*
X143352380Y-113304761D01*
X143352380Y-113609523D01*
X143390476Y-113685714D01*
X143428571Y-113723809D01*
X143504761Y-113761904D01*
X143657142Y-113761904D01*
X143733333Y-113723809D01*
X143771428Y-113685714D01*
X143809523Y-113609523D01*
X143809523Y-113419047D01*
X143771428Y-113342857D01*
X143733333Y-113304761D01*
X143657142Y-113266666D01*
X143504761Y-113266666D01*
X143428571Y-113304761D01*
X143390476Y-113342857D01*
X143352380Y-113419047D01*
%TO.C,D1*%
X71409523Y-59431904D02*
X71409523Y-58631904D01*
X71600000Y-58631904D01*
X71714285Y-58670000D01*
X71790476Y-58746190D01*
X71828571Y-58822380D01*
X71866666Y-58974761D01*
X71866666Y-59089047D01*
X71828571Y-59241428D01*
X71790476Y-59317619D01*
X71714285Y-59393809D01*
X71600000Y-59431904D01*
X71409523Y-59431904D01*
X72628571Y-59431904D02*
X72171428Y-59431904D01*
X72400000Y-59431904D02*
X72400000Y-58631904D01*
X72323809Y-58746190D01*
X72247619Y-58822380D01*
X72171428Y-58860476D01*
%TO.C,R23*%
X86685714Y-83961904D02*
X86419047Y-83580952D01*
X86228571Y-83961904D02*
X86228571Y-83161904D01*
X86533333Y-83161904D01*
X86609523Y-83200000D01*
X86647619Y-83238095D01*
X86685714Y-83314285D01*
X86685714Y-83428571D01*
X86647619Y-83504761D01*
X86609523Y-83542857D01*
X86533333Y-83580952D01*
X86228571Y-83580952D01*
X86990476Y-83238095D02*
X87028571Y-83200000D01*
X87104761Y-83161904D01*
X87295238Y-83161904D01*
X87371428Y-83200000D01*
X87409523Y-83238095D01*
X87447619Y-83314285D01*
X87447619Y-83390476D01*
X87409523Y-83504761D01*
X86952380Y-83961904D01*
X87447619Y-83961904D01*
X87714285Y-83161904D02*
X88209523Y-83161904D01*
X87942857Y-83466666D01*
X88057142Y-83466666D01*
X88133333Y-83504761D01*
X88171428Y-83542857D01*
X88209523Y-83619047D01*
X88209523Y-83809523D01*
X88171428Y-83885714D01*
X88133333Y-83923809D01*
X88057142Y-83961904D01*
X87828571Y-83961904D01*
X87752380Y-83923809D01*
X87714285Y-83885714D01*
%TO.C,C9*%
X83866666Y-95105714D02*
X83828571Y-95143809D01*
X83714285Y-95181904D01*
X83638095Y-95181904D01*
X83523809Y-95143809D01*
X83447619Y-95067619D01*
X83409523Y-94991428D01*
X83371428Y-94839047D01*
X83371428Y-94724761D01*
X83409523Y-94572380D01*
X83447619Y-94496190D01*
X83523809Y-94420000D01*
X83638095Y-94381904D01*
X83714285Y-94381904D01*
X83828571Y-94420000D01*
X83866666Y-94458095D01*
X84247619Y-95181904D02*
X84400000Y-95181904D01*
X84476190Y-95143809D01*
X84514285Y-95105714D01*
X84590476Y-94991428D01*
X84628571Y-94839047D01*
X84628571Y-94534285D01*
X84590476Y-94458095D01*
X84552380Y-94420000D01*
X84476190Y-94381904D01*
X84323809Y-94381904D01*
X84247619Y-94420000D01*
X84209523Y-94458095D01*
X84171428Y-94534285D01*
X84171428Y-94724761D01*
X84209523Y-94800952D01*
X84247619Y-94839047D01*
X84323809Y-94877142D01*
X84476190Y-94877142D01*
X84552380Y-94839047D01*
X84590476Y-94800952D01*
X84628571Y-94724761D01*
%TO.C,C13*%
X153885714Y-66085714D02*
X153847619Y-66123809D01*
X153733333Y-66161904D01*
X153657142Y-66161904D01*
X153542857Y-66123809D01*
X153466666Y-66047619D01*
X153428571Y-65971428D01*
X153390476Y-65819047D01*
X153390476Y-65704761D01*
X153428571Y-65552380D01*
X153466666Y-65476190D01*
X153542857Y-65400000D01*
X153657142Y-65361904D01*
X153733333Y-65361904D01*
X153847619Y-65400000D01*
X153885714Y-65438095D01*
X154647619Y-66161904D02*
X154190476Y-66161904D01*
X154419047Y-66161904D02*
X154419047Y-65361904D01*
X154342857Y-65476190D01*
X154266666Y-65552380D01*
X154190476Y-65590476D01*
X154914285Y-65361904D02*
X155409523Y-65361904D01*
X155142857Y-65666666D01*
X155257142Y-65666666D01*
X155333333Y-65704761D01*
X155371428Y-65742857D01*
X155409523Y-65819047D01*
X155409523Y-66009523D01*
X155371428Y-66085714D01*
X155333333Y-66123809D01*
X155257142Y-66161904D01*
X155028571Y-66161904D01*
X154952380Y-66123809D01*
X154914285Y-66085714D01*
%TO.C,U3*%
X79190476Y-89561904D02*
X79190476Y-90209523D01*
X79228571Y-90285714D01*
X79266666Y-90323809D01*
X79342857Y-90361904D01*
X79495238Y-90361904D01*
X79571428Y-90323809D01*
X79609523Y-90285714D01*
X79647619Y-90209523D01*
X79647619Y-89561904D01*
X79952380Y-89561904D02*
X80447619Y-89561904D01*
X80180952Y-89866666D01*
X80295238Y-89866666D01*
X80371428Y-89904761D01*
X80409523Y-89942857D01*
X80447619Y-90019047D01*
X80447619Y-90209523D01*
X80409523Y-90285714D01*
X80371428Y-90323809D01*
X80295238Y-90361904D01*
X80066666Y-90361904D01*
X79990476Y-90323809D01*
X79952380Y-90285714D01*
%TO.C,R48*%
X123885714Y-69961904D02*
X123619047Y-69580952D01*
X123428571Y-69961904D02*
X123428571Y-69161904D01*
X123733333Y-69161904D01*
X123809523Y-69200000D01*
X123847619Y-69238095D01*
X123885714Y-69314285D01*
X123885714Y-69428571D01*
X123847619Y-69504761D01*
X123809523Y-69542857D01*
X123733333Y-69580952D01*
X123428571Y-69580952D01*
X124571428Y-69428571D02*
X124571428Y-69961904D01*
X124380952Y-69123809D02*
X124190476Y-69695238D01*
X124685714Y-69695238D01*
X125104761Y-69504761D02*
X125028571Y-69466666D01*
X124990476Y-69428571D01*
X124952380Y-69352380D01*
X124952380Y-69314285D01*
X124990476Y-69238095D01*
X125028571Y-69200000D01*
X125104761Y-69161904D01*
X125257142Y-69161904D01*
X125333333Y-69200000D01*
X125371428Y-69238095D01*
X125409523Y-69314285D01*
X125409523Y-69352380D01*
X125371428Y-69428571D01*
X125333333Y-69466666D01*
X125257142Y-69504761D01*
X125104761Y-69504761D01*
X125028571Y-69542857D01*
X124990476Y-69580952D01*
X124952380Y-69657142D01*
X124952380Y-69809523D01*
X124990476Y-69885714D01*
X125028571Y-69923809D01*
X125104761Y-69961904D01*
X125257142Y-69961904D01*
X125333333Y-69923809D01*
X125371428Y-69885714D01*
X125409523Y-69809523D01*
X125409523Y-69657142D01*
X125371428Y-69580952D01*
X125333333Y-69542857D01*
X125257142Y-69504761D01*
%TO.C,P7*%
X125009523Y-65361904D02*
X125009523Y-64561904D01*
X125314285Y-64561904D01*
X125390476Y-64600000D01*
X125428571Y-64638095D01*
X125466666Y-64714285D01*
X125466666Y-64828571D01*
X125428571Y-64904761D01*
X125390476Y-64942857D01*
X125314285Y-64980952D01*
X125009523Y-64980952D01*
X125733333Y-64561904D02*
X126266666Y-64561904D01*
X125923809Y-65361904D01*
%TO.C,R38*%
X71485714Y-102861904D02*
X71219047Y-102480952D01*
X71028571Y-102861904D02*
X71028571Y-102061904D01*
X71333333Y-102061904D01*
X71409523Y-102100000D01*
X71447619Y-102138095D01*
X71485714Y-102214285D01*
X71485714Y-102328571D01*
X71447619Y-102404761D01*
X71409523Y-102442857D01*
X71333333Y-102480952D01*
X71028571Y-102480952D01*
X71752380Y-102061904D02*
X72247619Y-102061904D01*
X71980952Y-102366666D01*
X72095238Y-102366666D01*
X72171428Y-102404761D01*
X72209523Y-102442857D01*
X72247619Y-102519047D01*
X72247619Y-102709523D01*
X72209523Y-102785714D01*
X72171428Y-102823809D01*
X72095238Y-102861904D01*
X71866666Y-102861904D01*
X71790476Y-102823809D01*
X71752380Y-102785714D01*
X72704761Y-102404761D02*
X72628571Y-102366666D01*
X72590476Y-102328571D01*
X72552380Y-102252380D01*
X72552380Y-102214285D01*
X72590476Y-102138095D01*
X72628571Y-102100000D01*
X72704761Y-102061904D01*
X72857142Y-102061904D01*
X72933333Y-102100000D01*
X72971428Y-102138095D01*
X73009523Y-102214285D01*
X73009523Y-102252380D01*
X72971428Y-102328571D01*
X72933333Y-102366666D01*
X72857142Y-102404761D01*
X72704761Y-102404761D01*
X72628571Y-102442857D01*
X72590476Y-102480952D01*
X72552380Y-102557142D01*
X72552380Y-102709523D01*
X72590476Y-102785714D01*
X72628571Y-102823809D01*
X72704761Y-102861904D01*
X72857142Y-102861904D01*
X72933333Y-102823809D01*
X72971428Y-102785714D01*
X73009523Y-102709523D01*
X73009523Y-102557142D01*
X72971428Y-102480952D01*
X72933333Y-102442857D01*
X72857142Y-102404761D01*
%TO.C,C17*%
X156485714Y-111714285D02*
X156523809Y-111752380D01*
X156561904Y-111866666D01*
X156561904Y-111942857D01*
X156523809Y-112057142D01*
X156447619Y-112133333D01*
X156371428Y-112171428D01*
X156219047Y-112209523D01*
X156104761Y-112209523D01*
X155952380Y-112171428D01*
X155876190Y-112133333D01*
X155800000Y-112057142D01*
X155761904Y-111942857D01*
X155761904Y-111866666D01*
X155800000Y-111752380D01*
X155838095Y-111714285D01*
X156561904Y-110952380D02*
X156561904Y-111409523D01*
X156561904Y-111180952D02*
X155761904Y-111180952D01*
X155876190Y-111257142D01*
X155952380Y-111333333D01*
X155990476Y-111409523D01*
X155761904Y-110685714D02*
X155761904Y-110152380D01*
X156561904Y-110495238D01*
%TO.C,R36*%
X73985714Y-99861904D02*
X73719047Y-99480952D01*
X73528571Y-99861904D02*
X73528571Y-99061904D01*
X73833333Y-99061904D01*
X73909523Y-99100000D01*
X73947619Y-99138095D01*
X73985714Y-99214285D01*
X73985714Y-99328571D01*
X73947619Y-99404761D01*
X73909523Y-99442857D01*
X73833333Y-99480952D01*
X73528571Y-99480952D01*
X74252380Y-99061904D02*
X74747619Y-99061904D01*
X74480952Y-99366666D01*
X74595238Y-99366666D01*
X74671428Y-99404761D01*
X74709523Y-99442857D01*
X74747619Y-99519047D01*
X74747619Y-99709523D01*
X74709523Y-99785714D01*
X74671428Y-99823809D01*
X74595238Y-99861904D01*
X74366666Y-99861904D01*
X74290476Y-99823809D01*
X74252380Y-99785714D01*
X75433333Y-99061904D02*
X75280952Y-99061904D01*
X75204761Y-99100000D01*
X75166666Y-99138095D01*
X75090476Y-99252380D01*
X75052380Y-99404761D01*
X75052380Y-99709523D01*
X75090476Y-99785714D01*
X75128571Y-99823809D01*
X75204761Y-99861904D01*
X75357142Y-99861904D01*
X75433333Y-99823809D01*
X75471428Y-99785714D01*
X75509523Y-99709523D01*
X75509523Y-99519047D01*
X75471428Y-99442857D01*
X75433333Y-99404761D01*
X75357142Y-99366666D01*
X75204761Y-99366666D01*
X75128571Y-99404761D01*
X75090476Y-99442857D01*
X75052380Y-99519047D01*
%TO.C,R19*%
X151285714Y-77361904D02*
X151019047Y-76980952D01*
X150828571Y-77361904D02*
X150828571Y-76561904D01*
X151133333Y-76561904D01*
X151209523Y-76600000D01*
X151247619Y-76638095D01*
X151285714Y-76714285D01*
X151285714Y-76828571D01*
X151247619Y-76904761D01*
X151209523Y-76942857D01*
X151133333Y-76980952D01*
X150828571Y-76980952D01*
X152047619Y-77361904D02*
X151590476Y-77361904D01*
X151819047Y-77361904D02*
X151819047Y-76561904D01*
X151742857Y-76676190D01*
X151666666Y-76752380D01*
X151590476Y-76790476D01*
X152428571Y-77361904D02*
X152580952Y-77361904D01*
X152657142Y-77323809D01*
X152695238Y-77285714D01*
X152771428Y-77171428D01*
X152809523Y-77019047D01*
X152809523Y-76714285D01*
X152771428Y-76638095D01*
X152733333Y-76600000D01*
X152657142Y-76561904D01*
X152504761Y-76561904D01*
X152428571Y-76600000D01*
X152390476Y-76638095D01*
X152352380Y-76714285D01*
X152352380Y-76904761D01*
X152390476Y-76980952D01*
X152428571Y-77019047D01*
X152504761Y-77057142D01*
X152657142Y-77057142D01*
X152733333Y-77019047D01*
X152771428Y-76980952D01*
X152809523Y-76904761D01*
%TO.C,C5*%
X85266666Y-80085714D02*
X85228571Y-80123809D01*
X85114285Y-80161904D01*
X85038095Y-80161904D01*
X84923809Y-80123809D01*
X84847619Y-80047619D01*
X84809523Y-79971428D01*
X84771428Y-79819047D01*
X84771428Y-79704761D01*
X84809523Y-79552380D01*
X84847619Y-79476190D01*
X84923809Y-79400000D01*
X85038095Y-79361904D01*
X85114285Y-79361904D01*
X85228571Y-79400000D01*
X85266666Y-79438095D01*
X85990476Y-79361904D02*
X85609523Y-79361904D01*
X85571428Y-79742857D01*
X85609523Y-79704761D01*
X85685714Y-79666666D01*
X85876190Y-79666666D01*
X85952380Y-79704761D01*
X85990476Y-79742857D01*
X86028571Y-79819047D01*
X86028571Y-80009523D01*
X85990476Y-80085714D01*
X85952380Y-80123809D01*
X85876190Y-80161904D01*
X85685714Y-80161904D01*
X85609523Y-80123809D01*
X85571428Y-80085714D01*
%TO.C,Q3*%
X144323809Y-93838095D02*
X144247619Y-93800000D01*
X144171428Y-93723809D01*
X144057142Y-93609523D01*
X143980952Y-93571428D01*
X143904761Y-93571428D01*
X143942857Y-93761904D02*
X143866666Y-93723809D01*
X143790476Y-93647619D01*
X143752380Y-93495238D01*
X143752380Y-93228571D01*
X143790476Y-93076190D01*
X143866666Y-93000000D01*
X143942857Y-92961904D01*
X144095238Y-92961904D01*
X144171428Y-93000000D01*
X144247619Y-93076190D01*
X144285714Y-93228571D01*
X144285714Y-93495238D01*
X144247619Y-93647619D01*
X144171428Y-93723809D01*
X144095238Y-93761904D01*
X143942857Y-93761904D01*
X144552380Y-92961904D02*
X145047619Y-92961904D01*
X144780952Y-93266666D01*
X144895238Y-93266666D01*
X144971428Y-93304761D01*
X145009523Y-93342857D01*
X145047619Y-93419047D01*
X145047619Y-93609523D01*
X145009523Y-93685714D01*
X144971428Y-93723809D01*
X144895238Y-93761904D01*
X144666666Y-93761904D01*
X144590476Y-93723809D01*
X144552380Y-93685714D01*
%TO.C,J4*%
X149533333Y-69961904D02*
X149533333Y-70533333D01*
X149495238Y-70647619D01*
X149419047Y-70723809D01*
X149304761Y-70761904D01*
X149228571Y-70761904D01*
X150257142Y-70228571D02*
X150257142Y-70761904D01*
X150066666Y-69923809D02*
X149876190Y-70495238D01*
X150371428Y-70495238D01*
%TO.C,U2*%
X79390476Y-80061904D02*
X79390476Y-80709523D01*
X79428571Y-80785714D01*
X79466666Y-80823809D01*
X79542857Y-80861904D01*
X79695238Y-80861904D01*
X79771428Y-80823809D01*
X79809523Y-80785714D01*
X79847619Y-80709523D01*
X79847619Y-80061904D01*
X80190476Y-80138095D02*
X80228571Y-80100000D01*
X80304761Y-80061904D01*
X80495238Y-80061904D01*
X80571428Y-80100000D01*
X80609523Y-80138095D01*
X80647619Y-80214285D01*
X80647619Y-80290476D01*
X80609523Y-80404761D01*
X80152380Y-80861904D01*
X80647619Y-80861904D01*
%TO.C,R11*%
X111885714Y-77161904D02*
X111619047Y-76780952D01*
X111428571Y-77161904D02*
X111428571Y-76361904D01*
X111733333Y-76361904D01*
X111809523Y-76400000D01*
X111847619Y-76438095D01*
X111885714Y-76514285D01*
X111885714Y-76628571D01*
X111847619Y-76704761D01*
X111809523Y-76742857D01*
X111733333Y-76780952D01*
X111428571Y-76780952D01*
X112647619Y-77161904D02*
X112190476Y-77161904D01*
X112419047Y-77161904D02*
X112419047Y-76361904D01*
X112342857Y-76476190D01*
X112266666Y-76552380D01*
X112190476Y-76590476D01*
X113409523Y-77161904D02*
X112952380Y-77161904D01*
X113180952Y-77161904D02*
X113180952Y-76361904D01*
X113104761Y-76476190D01*
X113028571Y-76552380D01*
X112952380Y-76590476D01*
%TO.C,R10*%
X111885714Y-74361904D02*
X111619047Y-73980952D01*
X111428571Y-74361904D02*
X111428571Y-73561904D01*
X111733333Y-73561904D01*
X111809523Y-73600000D01*
X111847619Y-73638095D01*
X111885714Y-73714285D01*
X111885714Y-73828571D01*
X111847619Y-73904761D01*
X111809523Y-73942857D01*
X111733333Y-73980952D01*
X111428571Y-73980952D01*
X112647619Y-74361904D02*
X112190476Y-74361904D01*
X112419047Y-74361904D02*
X112419047Y-73561904D01*
X112342857Y-73676190D01*
X112266666Y-73752380D01*
X112190476Y-73790476D01*
X113142857Y-73561904D02*
X113219047Y-73561904D01*
X113295238Y-73600000D01*
X113333333Y-73638095D01*
X113371428Y-73714285D01*
X113409523Y-73866666D01*
X113409523Y-74057142D01*
X113371428Y-74209523D01*
X113333333Y-74285714D01*
X113295238Y-74323809D01*
X113219047Y-74361904D01*
X113142857Y-74361904D01*
X113066666Y-74323809D01*
X113028571Y-74285714D01*
X112990476Y-74209523D01*
X112952380Y-74057142D01*
X112952380Y-73866666D01*
X112990476Y-73714285D01*
X113028571Y-73638095D01*
X113066666Y-73600000D01*
X113142857Y-73561904D01*
%TO.C,C32*%
X80285714Y-107885714D02*
X80247619Y-107923809D01*
X80133333Y-107961904D01*
X80057142Y-107961904D01*
X79942857Y-107923809D01*
X79866666Y-107847619D01*
X79828571Y-107771428D01*
X79790476Y-107619047D01*
X79790476Y-107504761D01*
X79828571Y-107352380D01*
X79866666Y-107276190D01*
X79942857Y-107200000D01*
X80057142Y-107161904D01*
X80133333Y-107161904D01*
X80247619Y-107200000D01*
X80285714Y-107238095D01*
X80552380Y-107161904D02*
X81047619Y-107161904D01*
X80780952Y-107466666D01*
X80895238Y-107466666D01*
X80971428Y-107504761D01*
X81009523Y-107542857D01*
X81047619Y-107619047D01*
X81047619Y-107809523D01*
X81009523Y-107885714D01*
X80971428Y-107923809D01*
X80895238Y-107961904D01*
X80666666Y-107961904D01*
X80590476Y-107923809D01*
X80552380Y-107885714D01*
X81352380Y-107238095D02*
X81390476Y-107200000D01*
X81466666Y-107161904D01*
X81657142Y-107161904D01*
X81733333Y-107200000D01*
X81771428Y-107238095D01*
X81809523Y-107314285D01*
X81809523Y-107390476D01*
X81771428Y-107504761D01*
X81314285Y-107961904D01*
X81809523Y-107961904D01*
%TO.C,U10*%
X81361904Y-113590476D02*
X82009523Y-113590476D01*
X82085714Y-113552380D01*
X82123809Y-113514285D01*
X82161904Y-113438095D01*
X82161904Y-113285714D01*
X82123809Y-113209523D01*
X82085714Y-113171428D01*
X82009523Y-113133333D01*
X81361904Y-113133333D01*
X82161904Y-112333333D02*
X82161904Y-112790476D01*
X82161904Y-112561904D02*
X81361904Y-112561904D01*
X81476190Y-112638095D01*
X81552380Y-112714285D01*
X81590476Y-112790476D01*
X81361904Y-111838095D02*
X81361904Y-111761904D01*
X81400000Y-111685714D01*
X81438095Y-111647619D01*
X81514285Y-111609523D01*
X81666666Y-111571428D01*
X81857142Y-111571428D01*
X82009523Y-111609523D01*
X82085714Y-111647619D01*
X82123809Y-111685714D01*
X82161904Y-111761904D01*
X82161904Y-111838095D01*
X82123809Y-111914285D01*
X82085714Y-111952380D01*
X82009523Y-111990476D01*
X81857142Y-112028571D01*
X81666666Y-112028571D01*
X81514285Y-111990476D01*
X81438095Y-111952380D01*
X81400000Y-111914285D01*
X81361904Y-111838095D01*
%TO.C,R4*%
X74366666Y-63861904D02*
X74100000Y-63480952D01*
X73909523Y-63861904D02*
X73909523Y-63061904D01*
X74214285Y-63061904D01*
X74290476Y-63100000D01*
X74328571Y-63138095D01*
X74366666Y-63214285D01*
X74366666Y-63328571D01*
X74328571Y-63404761D01*
X74290476Y-63442857D01*
X74214285Y-63480952D01*
X73909523Y-63480952D01*
X75052380Y-63328571D02*
X75052380Y-63861904D01*
X74861904Y-63023809D02*
X74671428Y-63595238D01*
X75166666Y-63595238D01*
%TO.C,R40*%
X156961904Y-99514285D02*
X156580952Y-99780952D01*
X156961904Y-99971428D02*
X156161904Y-99971428D01*
X156161904Y-99666666D01*
X156200000Y-99590476D01*
X156238095Y-99552380D01*
X156314285Y-99514285D01*
X156428571Y-99514285D01*
X156504761Y-99552380D01*
X156542857Y-99590476D01*
X156580952Y-99666666D01*
X156580952Y-99971428D01*
X156428571Y-98828571D02*
X156961904Y-98828571D01*
X156123809Y-99019047D02*
X156695238Y-99209523D01*
X156695238Y-98714285D01*
X156161904Y-98257142D02*
X156161904Y-98180952D01*
X156200000Y-98104761D01*
X156238095Y-98066666D01*
X156314285Y-98028571D01*
X156466666Y-97990476D01*
X156657142Y-97990476D01*
X156809523Y-98028571D01*
X156885714Y-98066666D01*
X156923809Y-98104761D01*
X156961904Y-98180952D01*
X156961904Y-98257142D01*
X156923809Y-98333333D01*
X156885714Y-98371428D01*
X156809523Y-98409523D01*
X156657142Y-98447619D01*
X156466666Y-98447619D01*
X156314285Y-98409523D01*
X156238095Y-98371428D01*
X156200000Y-98333333D01*
X156161904Y-98257142D01*
%TO.C,J5*%
X100133333Y-87761904D02*
X100133333Y-88333333D01*
X100095238Y-88447619D01*
X100019047Y-88523809D01*
X99904761Y-88561904D01*
X99828571Y-88561904D01*
X100895238Y-87761904D02*
X100514285Y-87761904D01*
X100476190Y-88142857D01*
X100514285Y-88104761D01*
X100590476Y-88066666D01*
X100780952Y-88066666D01*
X100857142Y-88104761D01*
X100895238Y-88142857D01*
X100933333Y-88219047D01*
X100933333Y-88409523D01*
X100895238Y-88485714D01*
X100857142Y-88523809D01*
X100780952Y-88561904D01*
X100590476Y-88561904D01*
X100514285Y-88523809D01*
X100476190Y-88485714D01*
%TO.C,C3*%
X121066666Y-79885714D02*
X121028571Y-79923809D01*
X120914285Y-79961904D01*
X120838095Y-79961904D01*
X120723809Y-79923809D01*
X120647619Y-79847619D01*
X120609523Y-79771428D01*
X120571428Y-79619047D01*
X120571428Y-79504761D01*
X120609523Y-79352380D01*
X120647619Y-79276190D01*
X120723809Y-79200000D01*
X120838095Y-79161904D01*
X120914285Y-79161904D01*
X121028571Y-79200000D01*
X121066666Y-79238095D01*
X121333333Y-79161904D02*
X121828571Y-79161904D01*
X121561904Y-79466666D01*
X121676190Y-79466666D01*
X121752380Y-79504761D01*
X121790476Y-79542857D01*
X121828571Y-79619047D01*
X121828571Y-79809523D01*
X121790476Y-79885714D01*
X121752380Y-79923809D01*
X121676190Y-79961904D01*
X121447619Y-79961904D01*
X121371428Y-79923809D01*
X121333333Y-79885714D01*
%TO.C,SW6*%
X129123809Y-92666666D02*
X129161904Y-92552380D01*
X129161904Y-92361904D01*
X129123809Y-92285714D01*
X129085714Y-92247619D01*
X129009523Y-92209523D01*
X128933333Y-92209523D01*
X128857142Y-92247619D01*
X128819047Y-92285714D01*
X128780952Y-92361904D01*
X128742857Y-92514285D01*
X128704761Y-92590476D01*
X128666666Y-92628571D01*
X128590476Y-92666666D01*
X128514285Y-92666666D01*
X128438095Y-92628571D01*
X128400000Y-92590476D01*
X128361904Y-92514285D01*
X128361904Y-92323809D01*
X128400000Y-92209523D01*
X128361904Y-91942857D02*
X129161904Y-91752380D01*
X128590476Y-91600000D01*
X129161904Y-91447619D01*
X128361904Y-91257142D01*
X128361904Y-90609523D02*
X128361904Y-90761904D01*
X128400000Y-90838095D01*
X128438095Y-90876190D01*
X128552380Y-90952380D01*
X128704761Y-90990476D01*
X129009523Y-90990476D01*
X129085714Y-90952380D01*
X129123809Y-90914285D01*
X129161904Y-90838095D01*
X129161904Y-90685714D01*
X129123809Y-90609523D01*
X129085714Y-90571428D01*
X129009523Y-90533333D01*
X128819047Y-90533333D01*
X128742857Y-90571428D01*
X128704761Y-90609523D01*
X128666666Y-90685714D01*
X128666666Y-90838095D01*
X128704761Y-90914285D01*
X128742857Y-90952380D01*
X128819047Y-90990476D01*
%TO.C,Q1*%
X149123809Y-99638095D02*
X149047619Y-99600000D01*
X148971428Y-99523809D01*
X148857142Y-99409523D01*
X148780952Y-99371428D01*
X148704761Y-99371428D01*
X148742857Y-99561904D02*
X148666666Y-99523809D01*
X148590476Y-99447619D01*
X148552380Y-99295238D01*
X148552380Y-99028571D01*
X148590476Y-98876190D01*
X148666666Y-98800000D01*
X148742857Y-98761904D01*
X148895238Y-98761904D01*
X148971428Y-98800000D01*
X149047619Y-98876190D01*
X149085714Y-99028571D01*
X149085714Y-99295238D01*
X149047619Y-99447619D01*
X148971428Y-99523809D01*
X148895238Y-99561904D01*
X148742857Y-99561904D01*
X149847619Y-99561904D02*
X149390476Y-99561904D01*
X149619047Y-99561904D02*
X149619047Y-98761904D01*
X149542857Y-98876190D01*
X149466666Y-98952380D01*
X149390476Y-98990476D01*
%TO.C,R35*%
X73985714Y-110361904D02*
X73719047Y-109980952D01*
X73528571Y-110361904D02*
X73528571Y-109561904D01*
X73833333Y-109561904D01*
X73909523Y-109600000D01*
X73947619Y-109638095D01*
X73985714Y-109714285D01*
X73985714Y-109828571D01*
X73947619Y-109904761D01*
X73909523Y-109942857D01*
X73833333Y-109980952D01*
X73528571Y-109980952D01*
X74252380Y-109561904D02*
X74747619Y-109561904D01*
X74480952Y-109866666D01*
X74595238Y-109866666D01*
X74671428Y-109904761D01*
X74709523Y-109942857D01*
X74747619Y-110019047D01*
X74747619Y-110209523D01*
X74709523Y-110285714D01*
X74671428Y-110323809D01*
X74595238Y-110361904D01*
X74366666Y-110361904D01*
X74290476Y-110323809D01*
X74252380Y-110285714D01*
X75471428Y-109561904D02*
X75090476Y-109561904D01*
X75052380Y-109942857D01*
X75090476Y-109904761D01*
X75166666Y-109866666D01*
X75357142Y-109866666D01*
X75433333Y-109904761D01*
X75471428Y-109942857D01*
X75509523Y-110019047D01*
X75509523Y-110209523D01*
X75471428Y-110285714D01*
X75433333Y-110323809D01*
X75357142Y-110361904D01*
X75166666Y-110361904D01*
X75090476Y-110323809D01*
X75052380Y-110285714D01*
%TO.C,C8*%
X82866666Y-88685714D02*
X82828571Y-88723809D01*
X82714285Y-88761904D01*
X82638095Y-88761904D01*
X82523809Y-88723809D01*
X82447619Y-88647619D01*
X82409523Y-88571428D01*
X82371428Y-88419047D01*
X82371428Y-88304761D01*
X82409523Y-88152380D01*
X82447619Y-88076190D01*
X82523809Y-88000000D01*
X82638095Y-87961904D01*
X82714285Y-87961904D01*
X82828571Y-88000000D01*
X82866666Y-88038095D01*
X83323809Y-88304761D02*
X83247619Y-88266666D01*
X83209523Y-88228571D01*
X83171428Y-88152380D01*
X83171428Y-88114285D01*
X83209523Y-88038095D01*
X83247619Y-88000000D01*
X83323809Y-87961904D01*
X83476190Y-87961904D01*
X83552380Y-88000000D01*
X83590476Y-88038095D01*
X83628571Y-88114285D01*
X83628571Y-88152380D01*
X83590476Y-88228571D01*
X83552380Y-88266666D01*
X83476190Y-88304761D01*
X83323809Y-88304761D01*
X83247619Y-88342857D01*
X83209523Y-88380952D01*
X83171428Y-88457142D01*
X83171428Y-88609523D01*
X83209523Y-88685714D01*
X83247619Y-88723809D01*
X83323809Y-88761904D01*
X83476190Y-88761904D01*
X83552380Y-88723809D01*
X83590476Y-88685714D01*
X83628571Y-88609523D01*
X83628571Y-88457142D01*
X83590476Y-88380952D01*
X83552380Y-88342857D01*
X83476190Y-88304761D01*
%TO.C,C23*%
X84885714Y-108485714D02*
X84847619Y-108523809D01*
X84733333Y-108561904D01*
X84657142Y-108561904D01*
X84542857Y-108523809D01*
X84466666Y-108447619D01*
X84428571Y-108371428D01*
X84390476Y-108219047D01*
X84390476Y-108104761D01*
X84428571Y-107952380D01*
X84466666Y-107876190D01*
X84542857Y-107800000D01*
X84657142Y-107761904D01*
X84733333Y-107761904D01*
X84847619Y-107800000D01*
X84885714Y-107838095D01*
X85190476Y-107838095D02*
X85228571Y-107800000D01*
X85304761Y-107761904D01*
X85495238Y-107761904D01*
X85571428Y-107800000D01*
X85609523Y-107838095D01*
X85647619Y-107914285D01*
X85647619Y-107990476D01*
X85609523Y-108104761D01*
X85152380Y-108561904D01*
X85647619Y-108561904D01*
X85914285Y-107761904D02*
X86409523Y-107761904D01*
X86142857Y-108066666D01*
X86257142Y-108066666D01*
X86333333Y-108104761D01*
X86371428Y-108142857D01*
X86409523Y-108219047D01*
X86409523Y-108409523D01*
X86371428Y-108485714D01*
X86333333Y-108523809D01*
X86257142Y-108561904D01*
X86028571Y-108561904D01*
X85952380Y-108523809D01*
X85914285Y-108485714D01*
%TO.C,D2*%
X72409523Y-71431904D02*
X72409523Y-70631904D01*
X72600000Y-70631904D01*
X72714285Y-70670000D01*
X72790476Y-70746190D01*
X72828571Y-70822380D01*
X72866666Y-70974761D01*
X72866666Y-71089047D01*
X72828571Y-71241428D01*
X72790476Y-71317619D01*
X72714285Y-71393809D01*
X72600000Y-71431904D01*
X72409523Y-71431904D01*
X73171428Y-70708095D02*
X73209523Y-70670000D01*
X73285714Y-70631904D01*
X73476190Y-70631904D01*
X73552380Y-70670000D01*
X73590476Y-70708095D01*
X73628571Y-70784285D01*
X73628571Y-70860476D01*
X73590476Y-70974761D01*
X73133333Y-71431904D01*
X73628571Y-71431904D01*
%TO.C,R17*%
X155485714Y-73161904D02*
X155219047Y-72780952D01*
X155028571Y-73161904D02*
X155028571Y-72361904D01*
X155333333Y-72361904D01*
X155409523Y-72400000D01*
X155447619Y-72438095D01*
X155485714Y-72514285D01*
X155485714Y-72628571D01*
X155447619Y-72704761D01*
X155409523Y-72742857D01*
X155333333Y-72780952D01*
X155028571Y-72780952D01*
X156247619Y-73161904D02*
X155790476Y-73161904D01*
X156019047Y-73161904D02*
X156019047Y-72361904D01*
X155942857Y-72476190D01*
X155866666Y-72552380D01*
X155790476Y-72590476D01*
X156514285Y-72361904D02*
X157047619Y-72361904D01*
X156704761Y-73161904D01*
%TO.C,R14*%
X86685714Y-84961904D02*
X86419047Y-84580952D01*
X86228571Y-84961904D02*
X86228571Y-84161904D01*
X86533333Y-84161904D01*
X86609523Y-84200000D01*
X86647619Y-84238095D01*
X86685714Y-84314285D01*
X86685714Y-84428571D01*
X86647619Y-84504761D01*
X86609523Y-84542857D01*
X86533333Y-84580952D01*
X86228571Y-84580952D01*
X87447619Y-84961904D02*
X86990476Y-84961904D01*
X87219047Y-84961904D02*
X87219047Y-84161904D01*
X87142857Y-84276190D01*
X87066666Y-84352380D01*
X86990476Y-84390476D01*
X88133333Y-84428571D02*
X88133333Y-84961904D01*
X87942857Y-84123809D02*
X87752380Y-84695238D01*
X88247619Y-84695238D01*
%TO.C,J6*%
X95483333Y-110641904D02*
X95483333Y-111213333D01*
X95445238Y-111327619D01*
X95369047Y-111403809D01*
X95254761Y-111441904D01*
X95178571Y-111441904D01*
X96207142Y-110641904D02*
X96054761Y-110641904D01*
X95978571Y-110680000D01*
X95940476Y-110718095D01*
X95864285Y-110832380D01*
X95826190Y-110984761D01*
X95826190Y-111289523D01*
X95864285Y-111365714D01*
X95902380Y-111403809D01*
X95978571Y-111441904D01*
X96130952Y-111441904D01*
X96207142Y-111403809D01*
X96245238Y-111365714D01*
X96283333Y-111289523D01*
X96283333Y-111099047D01*
X96245238Y-111022857D01*
X96207142Y-110984761D01*
X96130952Y-110946666D01*
X95978571Y-110946666D01*
X95902380Y-110984761D01*
X95864285Y-111022857D01*
X95826190Y-111099047D01*
%TO.C,C11*%
X161885714Y-66085714D02*
X161847619Y-66123809D01*
X161733333Y-66161904D01*
X161657142Y-66161904D01*
X161542857Y-66123809D01*
X161466666Y-66047619D01*
X161428571Y-65971428D01*
X161390476Y-65819047D01*
X161390476Y-65704761D01*
X161428571Y-65552380D01*
X161466666Y-65476190D01*
X161542857Y-65400000D01*
X161657142Y-65361904D01*
X161733333Y-65361904D01*
X161847619Y-65400000D01*
X161885714Y-65438095D01*
X162647619Y-66161904D02*
X162190476Y-66161904D01*
X162419047Y-66161904D02*
X162419047Y-65361904D01*
X162342857Y-65476190D01*
X162266666Y-65552380D01*
X162190476Y-65590476D01*
X163409523Y-66161904D02*
X162952380Y-66161904D01*
X163180952Y-66161904D02*
X163180952Y-65361904D01*
X163104761Y-65476190D01*
X163028571Y-65552380D01*
X162952380Y-65590476D01*
%TO.C,C10*%
X122885714Y-109426294D02*
X122847619Y-109464389D01*
X122733333Y-109502484D01*
X122657142Y-109502484D01*
X122542857Y-109464389D01*
X122466666Y-109388199D01*
X122428571Y-109312008D01*
X122390476Y-109159627D01*
X122390476Y-109045341D01*
X122428571Y-108892960D01*
X122466666Y-108816770D01*
X122542857Y-108740580D01*
X122657142Y-108702484D01*
X122733333Y-108702484D01*
X122847619Y-108740580D01*
X122885714Y-108778675D01*
X123647619Y-109502484D02*
X123190476Y-109502484D01*
X123419047Y-109502484D02*
X123419047Y-108702484D01*
X123342857Y-108816770D01*
X123266666Y-108892960D01*
X123190476Y-108931056D01*
X124142857Y-108702484D02*
X124219047Y-108702484D01*
X124295238Y-108740580D01*
X124333333Y-108778675D01*
X124371428Y-108854865D01*
X124409523Y-109007246D01*
X124409523Y-109197722D01*
X124371428Y-109350103D01*
X124333333Y-109426294D01*
X124295238Y-109464389D01*
X124219047Y-109502484D01*
X124142857Y-109502484D01*
X124066666Y-109464389D01*
X124028571Y-109426294D01*
X123990476Y-109350103D01*
X123952380Y-109197722D01*
X123952380Y-109007246D01*
X123990476Y-108854865D01*
X124028571Y-108778675D01*
X124066666Y-108740580D01*
X124142857Y-108702484D01*
%TO.C,P2*%
X69409523Y-79861904D02*
X69409523Y-79061904D01*
X69714285Y-79061904D01*
X69790476Y-79100000D01*
X69828571Y-79138095D01*
X69866666Y-79214285D01*
X69866666Y-79328571D01*
X69828571Y-79404761D01*
X69790476Y-79442857D01*
X69714285Y-79480952D01*
X69409523Y-79480952D01*
X70171428Y-79138095D02*
X70209523Y-79100000D01*
X70285714Y-79061904D01*
X70476190Y-79061904D01*
X70552380Y-79100000D01*
X70590476Y-79138095D01*
X70628571Y-79214285D01*
X70628571Y-79290476D01*
X70590476Y-79404761D01*
X70133333Y-79861904D01*
X70628571Y-79861904D01*
%TO.C,R21*%
X94685714Y-86561904D02*
X94419047Y-86180952D01*
X94228571Y-86561904D02*
X94228571Y-85761904D01*
X94533333Y-85761904D01*
X94609523Y-85800000D01*
X94647619Y-85838095D01*
X94685714Y-85914285D01*
X94685714Y-86028571D01*
X94647619Y-86104761D01*
X94609523Y-86142857D01*
X94533333Y-86180952D01*
X94228571Y-86180952D01*
X94990476Y-85838095D02*
X95028571Y-85800000D01*
X95104761Y-85761904D01*
X95295238Y-85761904D01*
X95371428Y-85800000D01*
X95409523Y-85838095D01*
X95447619Y-85914285D01*
X95447619Y-85990476D01*
X95409523Y-86104761D01*
X94952380Y-86561904D01*
X95447619Y-86561904D01*
X96209523Y-86561904D02*
X95752380Y-86561904D01*
X95980952Y-86561904D02*
X95980952Y-85761904D01*
X95904761Y-85876190D01*
X95828571Y-85952380D01*
X95752380Y-85990476D01*
%TO.C,R2*%
X74366666Y-77361904D02*
X74100000Y-76980952D01*
X73909523Y-77361904D02*
X73909523Y-76561904D01*
X74214285Y-76561904D01*
X74290476Y-76600000D01*
X74328571Y-76638095D01*
X74366666Y-76714285D01*
X74366666Y-76828571D01*
X74328571Y-76904761D01*
X74290476Y-76942857D01*
X74214285Y-76980952D01*
X73909523Y-76980952D01*
X74671428Y-76638095D02*
X74709523Y-76600000D01*
X74785714Y-76561904D01*
X74976190Y-76561904D01*
X75052380Y-76600000D01*
X75090476Y-76638095D01*
X75128571Y-76714285D01*
X75128571Y-76790476D01*
X75090476Y-76904761D01*
X74633333Y-77361904D01*
X75128571Y-77361904D01*
%TO.C,SW2*%
X136123809Y-92666666D02*
X136161904Y-92552380D01*
X136161904Y-92361904D01*
X136123809Y-92285714D01*
X136085714Y-92247619D01*
X136009523Y-92209523D01*
X135933333Y-92209523D01*
X135857142Y-92247619D01*
X135819047Y-92285714D01*
X135780952Y-92361904D01*
X135742857Y-92514285D01*
X135704761Y-92590476D01*
X135666666Y-92628571D01*
X135590476Y-92666666D01*
X135514285Y-92666666D01*
X135438095Y-92628571D01*
X135400000Y-92590476D01*
X135361904Y-92514285D01*
X135361904Y-92323809D01*
X135400000Y-92209523D01*
X135361904Y-91942857D02*
X136161904Y-91752380D01*
X135590476Y-91600000D01*
X136161904Y-91447619D01*
X135361904Y-91257142D01*
X135438095Y-90990476D02*
X135400000Y-90952380D01*
X135361904Y-90876190D01*
X135361904Y-90685714D01*
X135400000Y-90609523D01*
X135438095Y-90571428D01*
X135514285Y-90533333D01*
X135590476Y-90533333D01*
X135704761Y-90571428D01*
X136161904Y-91028571D01*
X136161904Y-90533333D01*
%TO.C,R39*%
X71485714Y-114861904D02*
X71219047Y-114480952D01*
X71028571Y-114861904D02*
X71028571Y-114061904D01*
X71333333Y-114061904D01*
X71409523Y-114100000D01*
X71447619Y-114138095D01*
X71485714Y-114214285D01*
X71485714Y-114328571D01*
X71447619Y-114404761D01*
X71409523Y-114442857D01*
X71333333Y-114480952D01*
X71028571Y-114480952D01*
X71752380Y-114061904D02*
X72247619Y-114061904D01*
X71980952Y-114366666D01*
X72095238Y-114366666D01*
X72171428Y-114404761D01*
X72209523Y-114442857D01*
X72247619Y-114519047D01*
X72247619Y-114709523D01*
X72209523Y-114785714D01*
X72171428Y-114823809D01*
X72095238Y-114861904D01*
X71866666Y-114861904D01*
X71790476Y-114823809D01*
X71752380Y-114785714D01*
X72628571Y-114861904D02*
X72780952Y-114861904D01*
X72857142Y-114823809D01*
X72895238Y-114785714D01*
X72971428Y-114671428D01*
X73009523Y-114519047D01*
X73009523Y-114214285D01*
X72971428Y-114138095D01*
X72933333Y-114100000D01*
X72857142Y-114061904D01*
X72704761Y-114061904D01*
X72628571Y-114100000D01*
X72590476Y-114138095D01*
X72552380Y-114214285D01*
X72552380Y-114404761D01*
X72590476Y-114480952D01*
X72628571Y-114519047D01*
X72704761Y-114557142D01*
X72857142Y-114557142D01*
X72933333Y-114519047D01*
X72971428Y-114480952D01*
X73009523Y-114404761D01*
%TO.C,R30*%
X154961904Y-99514285D02*
X154580952Y-99780952D01*
X154961904Y-99971428D02*
X154161904Y-99971428D01*
X154161904Y-99666666D01*
X154200000Y-99590476D01*
X154238095Y-99552380D01*
X154314285Y-99514285D01*
X154428571Y-99514285D01*
X154504761Y-99552380D01*
X154542857Y-99590476D01*
X154580952Y-99666666D01*
X154580952Y-99971428D01*
X154161904Y-99247619D02*
X154161904Y-98752380D01*
X154466666Y-99019047D01*
X154466666Y-98904761D01*
X154504761Y-98828571D01*
X154542857Y-98790476D01*
X154619047Y-98752380D01*
X154809523Y-98752380D01*
X154885714Y-98790476D01*
X154923809Y-98828571D01*
X154961904Y-98904761D01*
X154961904Y-99133333D01*
X154923809Y-99209523D01*
X154885714Y-99247619D01*
X154161904Y-98257142D02*
X154161904Y-98180952D01*
X154200000Y-98104761D01*
X154238095Y-98066666D01*
X154314285Y-98028571D01*
X154466666Y-97990476D01*
X154657142Y-97990476D01*
X154809523Y-98028571D01*
X154885714Y-98066666D01*
X154923809Y-98104761D01*
X154961904Y-98180952D01*
X154961904Y-98257142D01*
X154923809Y-98333333D01*
X154885714Y-98371428D01*
X154809523Y-98409523D01*
X154657142Y-98447619D01*
X154466666Y-98447619D01*
X154314285Y-98409523D01*
X154238095Y-98371428D01*
X154200000Y-98333333D01*
X154161904Y-98257142D01*
%TO.C,L1*%
X139111904Y-82133333D02*
X139111904Y-82514285D01*
X138311904Y-82514285D01*
X139111904Y-81447619D02*
X139111904Y-81904761D01*
X139111904Y-81676190D02*
X138311904Y-81676190D01*
X138426190Y-81752380D01*
X138502380Y-81828571D01*
X138540476Y-81904761D01*
%TO.C,R29*%
X86685714Y-113361904D02*
X86419047Y-112980952D01*
X86228571Y-113361904D02*
X86228571Y-112561904D01*
X86533333Y-112561904D01*
X86609523Y-112600000D01*
X86647619Y-112638095D01*
X86685714Y-112714285D01*
X86685714Y-112828571D01*
X86647619Y-112904761D01*
X86609523Y-112942857D01*
X86533333Y-112980952D01*
X86228571Y-112980952D01*
X86990476Y-112638095D02*
X87028571Y-112600000D01*
X87104761Y-112561904D01*
X87295238Y-112561904D01*
X87371428Y-112600000D01*
X87409523Y-112638095D01*
X87447619Y-112714285D01*
X87447619Y-112790476D01*
X87409523Y-112904761D01*
X86952380Y-113361904D01*
X87447619Y-113361904D01*
X87828571Y-113361904D02*
X87980952Y-113361904D01*
X88057142Y-113323809D01*
X88095238Y-113285714D01*
X88171428Y-113171428D01*
X88209523Y-113019047D01*
X88209523Y-112714285D01*
X88171428Y-112638095D01*
X88133333Y-112600000D01*
X88057142Y-112561904D01*
X87904761Y-112561904D01*
X87828571Y-112600000D01*
X87790476Y-112638095D01*
X87752380Y-112714285D01*
X87752380Y-112904761D01*
X87790476Y-112980952D01*
X87828571Y-113019047D01*
X87904761Y-113057142D01*
X88057142Y-113057142D01*
X88133333Y-113019047D01*
X88171428Y-112980952D01*
X88209523Y-112904761D01*
%TO.C,C1*%
X120866666Y-73685714D02*
X120828571Y-73723809D01*
X120714285Y-73761904D01*
X120638095Y-73761904D01*
X120523809Y-73723809D01*
X120447619Y-73647619D01*
X120409523Y-73571428D01*
X120371428Y-73419047D01*
X120371428Y-73304761D01*
X120409523Y-73152380D01*
X120447619Y-73076190D01*
X120523809Y-73000000D01*
X120638095Y-72961904D01*
X120714285Y-72961904D01*
X120828571Y-73000000D01*
X120866666Y-73038095D01*
X121628571Y-73761904D02*
X121171428Y-73761904D01*
X121400000Y-73761904D02*
X121400000Y-72961904D01*
X121323809Y-73076190D01*
X121247619Y-73152380D01*
X121171428Y-73190476D01*
%TO.C,R5*%
X74366666Y-75861904D02*
X74100000Y-75480952D01*
X73909523Y-75861904D02*
X73909523Y-75061904D01*
X74214285Y-75061904D01*
X74290476Y-75100000D01*
X74328571Y-75138095D01*
X74366666Y-75214285D01*
X74366666Y-75328571D01*
X74328571Y-75404761D01*
X74290476Y-75442857D01*
X74214285Y-75480952D01*
X73909523Y-75480952D01*
X75090476Y-75061904D02*
X74709523Y-75061904D01*
X74671428Y-75442857D01*
X74709523Y-75404761D01*
X74785714Y-75366666D01*
X74976190Y-75366666D01*
X75052380Y-75404761D01*
X75090476Y-75442857D01*
X75128571Y-75519047D01*
X75128571Y-75709523D01*
X75090476Y-75785714D01*
X75052380Y-75823809D01*
X74976190Y-75861904D01*
X74785714Y-75861904D01*
X74709523Y-75823809D01*
X74671428Y-75785714D01*
%TO.C,U4*%
X81311904Y-75359523D02*
X81959523Y-75359523D01*
X82035714Y-75321428D01*
X82073809Y-75283333D01*
X82111904Y-75207142D01*
X82111904Y-75054761D01*
X82073809Y-74978571D01*
X82035714Y-74940476D01*
X81959523Y-74902380D01*
X81311904Y-74902380D01*
X81578571Y-74178571D02*
X82111904Y-74178571D01*
X81273809Y-74369047D02*
X81845238Y-74559523D01*
X81845238Y-74064285D01*
%TO.C,R6*%
X74366666Y-87861904D02*
X74100000Y-87480952D01*
X73909523Y-87861904D02*
X73909523Y-87061904D01*
X74214285Y-87061904D01*
X74290476Y-87100000D01*
X74328571Y-87138095D01*
X74366666Y-87214285D01*
X74366666Y-87328571D01*
X74328571Y-87404761D01*
X74290476Y-87442857D01*
X74214285Y-87480952D01*
X73909523Y-87480952D01*
X75052380Y-87061904D02*
X74900000Y-87061904D01*
X74823809Y-87100000D01*
X74785714Y-87138095D01*
X74709523Y-87252380D01*
X74671428Y-87404761D01*
X74671428Y-87709523D01*
X74709523Y-87785714D01*
X74747619Y-87823809D01*
X74823809Y-87861904D01*
X74976190Y-87861904D01*
X75052380Y-87823809D01*
X75090476Y-87785714D01*
X75128571Y-87709523D01*
X75128571Y-87519047D01*
X75090476Y-87442857D01*
X75052380Y-87404761D01*
X74976190Y-87366666D01*
X74823809Y-87366666D01*
X74747619Y-87404761D01*
X74709523Y-87442857D01*
X74671428Y-87519047D01*
%TO.C,R37*%
X73985714Y-111861904D02*
X73719047Y-111480952D01*
X73528571Y-111861904D02*
X73528571Y-111061904D01*
X73833333Y-111061904D01*
X73909523Y-111100000D01*
X73947619Y-111138095D01*
X73985714Y-111214285D01*
X73985714Y-111328571D01*
X73947619Y-111404761D01*
X73909523Y-111442857D01*
X73833333Y-111480952D01*
X73528571Y-111480952D01*
X74252380Y-111061904D02*
X74747619Y-111061904D01*
X74480952Y-111366666D01*
X74595238Y-111366666D01*
X74671428Y-111404761D01*
X74709523Y-111442857D01*
X74747619Y-111519047D01*
X74747619Y-111709523D01*
X74709523Y-111785714D01*
X74671428Y-111823809D01*
X74595238Y-111861904D01*
X74366666Y-111861904D01*
X74290476Y-111823809D01*
X74252380Y-111785714D01*
X75014285Y-111061904D02*
X75547619Y-111061904D01*
X75204761Y-111861904D01*
%TO.C,J7*%
X104133333Y-87561904D02*
X104133333Y-88133333D01*
X104095238Y-88247619D01*
X104019047Y-88323809D01*
X103904761Y-88361904D01*
X103828571Y-88361904D01*
X104438095Y-87561904D02*
X104971428Y-87561904D01*
X104628571Y-88361904D01*
%TO.C,R13*%
X86685714Y-75361904D02*
X86419047Y-74980952D01*
X86228571Y-75361904D02*
X86228571Y-74561904D01*
X86533333Y-74561904D01*
X86609523Y-74600000D01*
X86647619Y-74638095D01*
X86685714Y-74714285D01*
X86685714Y-74828571D01*
X86647619Y-74904761D01*
X86609523Y-74942857D01*
X86533333Y-74980952D01*
X86228571Y-74980952D01*
X87447619Y-75361904D02*
X86990476Y-75361904D01*
X87219047Y-75361904D02*
X87219047Y-74561904D01*
X87142857Y-74676190D01*
X87066666Y-74752380D01*
X86990476Y-74790476D01*
X87714285Y-74561904D02*
X88209523Y-74561904D01*
X87942857Y-74866666D01*
X88057142Y-74866666D01*
X88133333Y-74904761D01*
X88171428Y-74942857D01*
X88209523Y-75019047D01*
X88209523Y-75209523D01*
X88171428Y-75285714D01*
X88133333Y-75323809D01*
X88057142Y-75361904D01*
X87828571Y-75361904D01*
X87752380Y-75323809D01*
X87714285Y-75285714D01*
%TO.C,R46*%
X122885714Y-103561904D02*
X122619047Y-103180952D01*
X122428571Y-103561904D02*
X122428571Y-102761904D01*
X122733333Y-102761904D01*
X122809523Y-102800000D01*
X122847619Y-102838095D01*
X122885714Y-102914285D01*
X122885714Y-103028571D01*
X122847619Y-103104761D01*
X122809523Y-103142857D01*
X122733333Y-103180952D01*
X122428571Y-103180952D01*
X123571428Y-103028571D02*
X123571428Y-103561904D01*
X123380952Y-102723809D02*
X123190476Y-103295238D01*
X123685714Y-103295238D01*
X124333333Y-102761904D02*
X124180952Y-102761904D01*
X124104761Y-102800000D01*
X124066666Y-102838095D01*
X123990476Y-102952380D01*
X123952380Y-103104761D01*
X123952380Y-103409523D01*
X123990476Y-103485714D01*
X124028571Y-103523809D01*
X124104761Y-103561904D01*
X124257142Y-103561904D01*
X124333333Y-103523809D01*
X124371428Y-103485714D01*
X124409523Y-103409523D01*
X124409523Y-103219047D01*
X124371428Y-103142857D01*
X124333333Y-103104761D01*
X124257142Y-103066666D01*
X124104761Y-103066666D01*
X124028571Y-103104761D01*
X123990476Y-103142857D01*
X123952380Y-103219047D01*
%TO.C,U11*%
X148961904Y-104990476D02*
X149609523Y-104990476D01*
X149685714Y-104952380D01*
X149723809Y-104914285D01*
X149761904Y-104838095D01*
X149761904Y-104685714D01*
X149723809Y-104609523D01*
X149685714Y-104571428D01*
X149609523Y-104533333D01*
X148961904Y-104533333D01*
X149761904Y-103733333D02*
X149761904Y-104190476D01*
X149761904Y-103961904D02*
X148961904Y-103961904D01*
X149076190Y-104038095D01*
X149152380Y-104114285D01*
X149190476Y-104190476D01*
X149761904Y-102971428D02*
X149761904Y-103428571D01*
X149761904Y-103200000D02*
X148961904Y-103200000D01*
X149076190Y-103276190D01*
X149152380Y-103352380D01*
X149190476Y-103428571D01*
%TO.C,P6*%
X68443095Y-111409523D02*
X69243095Y-111409523D01*
X69243095Y-111714285D01*
X69205000Y-111790476D01*
X69166904Y-111828571D01*
X69090714Y-111866666D01*
X68976428Y-111866666D01*
X68900238Y-111828571D01*
X68862142Y-111790476D01*
X68824047Y-111714285D01*
X68824047Y-111409523D01*
X69243095Y-112552380D02*
X69243095Y-112400000D01*
X69205000Y-112323809D01*
X69166904Y-112285714D01*
X69052619Y-112209523D01*
X68900238Y-112171428D01*
X68595476Y-112171428D01*
X68519285Y-112209523D01*
X68481190Y-112247619D01*
X68443095Y-112323809D01*
X68443095Y-112476190D01*
X68481190Y-112552380D01*
X68519285Y-112590476D01*
X68595476Y-112628571D01*
X68785952Y-112628571D01*
X68862142Y-112590476D01*
X68900238Y-112552380D01*
X68938333Y-112476190D01*
X68938333Y-112323809D01*
X68900238Y-112247619D01*
X68862142Y-112209523D01*
X68785952Y-112171428D01*
%TO.C,C19*%
X82885714Y-107685714D02*
X82847619Y-107723809D01*
X82733333Y-107761904D01*
X82657142Y-107761904D01*
X82542857Y-107723809D01*
X82466666Y-107647619D01*
X82428571Y-107571428D01*
X82390476Y-107419047D01*
X82390476Y-107304761D01*
X82428571Y-107152380D01*
X82466666Y-107076190D01*
X82542857Y-107000000D01*
X82657142Y-106961904D01*
X82733333Y-106961904D01*
X82847619Y-107000000D01*
X82885714Y-107038095D01*
X83647619Y-107761904D02*
X83190476Y-107761904D01*
X83419047Y-107761904D02*
X83419047Y-106961904D01*
X83342857Y-107076190D01*
X83266666Y-107152380D01*
X83190476Y-107190476D01*
X84028571Y-107761904D02*
X84180952Y-107761904D01*
X84257142Y-107723809D01*
X84295238Y-107685714D01*
X84371428Y-107571428D01*
X84409523Y-107419047D01*
X84409523Y-107114285D01*
X84371428Y-107038095D01*
X84333333Y-107000000D01*
X84257142Y-106961904D01*
X84104761Y-106961904D01*
X84028571Y-107000000D01*
X83990476Y-107038095D01*
X83952380Y-107114285D01*
X83952380Y-107304761D01*
X83990476Y-107380952D01*
X84028571Y-107419047D01*
X84104761Y-107457142D01*
X84257142Y-107457142D01*
X84333333Y-107419047D01*
X84371428Y-107380952D01*
X84409523Y-107304761D01*
%TO.C,R15*%
X86685714Y-94561904D02*
X86419047Y-94180952D01*
X86228571Y-94561904D02*
X86228571Y-93761904D01*
X86533333Y-93761904D01*
X86609523Y-93800000D01*
X86647619Y-93838095D01*
X86685714Y-93914285D01*
X86685714Y-94028571D01*
X86647619Y-94104761D01*
X86609523Y-94142857D01*
X86533333Y-94180952D01*
X86228571Y-94180952D01*
X87447619Y-94561904D02*
X86990476Y-94561904D01*
X87219047Y-94561904D02*
X87219047Y-93761904D01*
X87142857Y-93876190D01*
X87066666Y-93952380D01*
X86990476Y-93990476D01*
X88171428Y-93761904D02*
X87790476Y-93761904D01*
X87752380Y-94142857D01*
X87790476Y-94104761D01*
X87866666Y-94066666D01*
X88057142Y-94066666D01*
X88133333Y-94104761D01*
X88171428Y-94142857D01*
X88209523Y-94219047D01*
X88209523Y-94409523D01*
X88171428Y-94485714D01*
X88133333Y-94523809D01*
X88057142Y-94561904D01*
X87866666Y-94561904D01*
X87790476Y-94523809D01*
X87752380Y-94485714D01*
%TO.C,D3*%
X71409523Y-83361904D02*
X71409523Y-82561904D01*
X71600000Y-82561904D01*
X71714285Y-82600000D01*
X71790476Y-82676190D01*
X71828571Y-82752380D01*
X71866666Y-82904761D01*
X71866666Y-83019047D01*
X71828571Y-83171428D01*
X71790476Y-83247619D01*
X71714285Y-83323809D01*
X71600000Y-83361904D01*
X71409523Y-83361904D01*
X72133333Y-82561904D02*
X72628571Y-82561904D01*
X72361904Y-82866666D01*
X72476190Y-82866666D01*
X72552380Y-82904761D01*
X72590476Y-82942857D01*
X72628571Y-83019047D01*
X72628571Y-83209523D01*
X72590476Y-83285714D01*
X72552380Y-83323809D01*
X72476190Y-83361904D01*
X72247619Y-83361904D01*
X72171428Y-83323809D01*
X72133333Y-83285714D01*
%TO.C,U1*%
X79190476Y-70561904D02*
X79190476Y-71209523D01*
X79228571Y-71285714D01*
X79266666Y-71323809D01*
X79342857Y-71361904D01*
X79495238Y-71361904D01*
X79571428Y-71323809D01*
X79609523Y-71285714D01*
X79647619Y-71209523D01*
X79647619Y-70561904D01*
X80447619Y-71361904D02*
X79990476Y-71361904D01*
X80219047Y-71361904D02*
X80219047Y-70561904D01*
X80142857Y-70676190D01*
X80066666Y-70752380D01*
X79990476Y-70790476D01*
%TO.C,R33*%
X111785714Y-83961904D02*
X111519047Y-83580952D01*
X111328571Y-83961904D02*
X111328571Y-83161904D01*
X111633333Y-83161904D01*
X111709523Y-83200000D01*
X111747619Y-83238095D01*
X111785714Y-83314285D01*
X111785714Y-83428571D01*
X111747619Y-83504761D01*
X111709523Y-83542857D01*
X111633333Y-83580952D01*
X111328571Y-83580952D01*
X112052380Y-83161904D02*
X112547619Y-83161904D01*
X112280952Y-83466666D01*
X112395238Y-83466666D01*
X112471428Y-83504761D01*
X112509523Y-83542857D01*
X112547619Y-83619047D01*
X112547619Y-83809523D01*
X112509523Y-83885714D01*
X112471428Y-83923809D01*
X112395238Y-83961904D01*
X112166666Y-83961904D01*
X112090476Y-83923809D01*
X112052380Y-83885714D01*
X112814285Y-83161904D02*
X113309523Y-83161904D01*
X113042857Y-83466666D01*
X113157142Y-83466666D01*
X113233333Y-83504761D01*
X113271428Y-83542857D01*
X113309523Y-83619047D01*
X113309523Y-83809523D01*
X113271428Y-83885714D01*
X113233333Y-83923809D01*
X113157142Y-83961904D01*
X112928571Y-83961904D01*
X112852380Y-83923809D01*
X112814285Y-83885714D01*
%TO.C,R3*%
X74366666Y-89361904D02*
X74100000Y-88980952D01*
X73909523Y-89361904D02*
X73909523Y-88561904D01*
X74214285Y-88561904D01*
X74290476Y-88600000D01*
X74328571Y-88638095D01*
X74366666Y-88714285D01*
X74366666Y-88828571D01*
X74328571Y-88904761D01*
X74290476Y-88942857D01*
X74214285Y-88980952D01*
X73909523Y-88980952D01*
X74633333Y-88561904D02*
X75128571Y-88561904D01*
X74861904Y-88866666D01*
X74976190Y-88866666D01*
X75052380Y-88904761D01*
X75090476Y-88942857D01*
X75128571Y-89019047D01*
X75128571Y-89209523D01*
X75090476Y-89285714D01*
X75052380Y-89323809D01*
X74976190Y-89361904D01*
X74747619Y-89361904D01*
X74671428Y-89323809D01*
X74633333Y-89285714D01*
%TO.C,C18*%
X145485714Y-101685714D02*
X145447619Y-101723809D01*
X145333333Y-101761904D01*
X145257142Y-101761904D01*
X145142857Y-101723809D01*
X145066666Y-101647619D01*
X145028571Y-101571428D01*
X144990476Y-101419047D01*
X144990476Y-101304761D01*
X145028571Y-101152380D01*
X145066666Y-101076190D01*
X145142857Y-101000000D01*
X145257142Y-100961904D01*
X145333333Y-100961904D01*
X145447619Y-101000000D01*
X145485714Y-101038095D01*
X146247619Y-101761904D02*
X145790476Y-101761904D01*
X146019047Y-101761904D02*
X146019047Y-100961904D01*
X145942857Y-101076190D01*
X145866666Y-101152380D01*
X145790476Y-101190476D01*
X146704761Y-101304761D02*
X146628571Y-101266666D01*
X146590476Y-101228571D01*
X146552380Y-101152380D01*
X146552380Y-101114285D01*
X146590476Y-101038095D01*
X146628571Y-101000000D01*
X146704761Y-100961904D01*
X146857142Y-100961904D01*
X146933333Y-101000000D01*
X146971428Y-101038095D01*
X147009523Y-101114285D01*
X147009523Y-101152380D01*
X146971428Y-101228571D01*
X146933333Y-101266666D01*
X146857142Y-101304761D01*
X146704761Y-101304761D01*
X146628571Y-101342857D01*
X146590476Y-101380952D01*
X146552380Y-101457142D01*
X146552380Y-101609523D01*
X146590476Y-101685714D01*
X146628571Y-101723809D01*
X146704761Y-101761904D01*
X146857142Y-101761904D01*
X146933333Y-101723809D01*
X146971428Y-101685714D01*
X147009523Y-101609523D01*
X147009523Y-101457142D01*
X146971428Y-101380952D01*
X146933333Y-101342857D01*
X146857142Y-101304761D01*
%TO.C,D5*%
X71409523Y-107361904D02*
X71409523Y-106561904D01*
X71600000Y-106561904D01*
X71714285Y-106600000D01*
X71790476Y-106676190D01*
X71828571Y-106752380D01*
X71866666Y-106904761D01*
X71866666Y-107019047D01*
X71828571Y-107171428D01*
X71790476Y-107247619D01*
X71714285Y-107323809D01*
X71600000Y-107361904D01*
X71409523Y-107361904D01*
X72590476Y-106561904D02*
X72209523Y-106561904D01*
X72171428Y-106942857D01*
X72209523Y-106904761D01*
X72285714Y-106866666D01*
X72476190Y-106866666D01*
X72552380Y-106904761D01*
X72590476Y-106942857D01*
X72628571Y-107019047D01*
X72628571Y-107209523D01*
X72590476Y-107285714D01*
X72552380Y-107323809D01*
X72476190Y-107361904D01*
X72285714Y-107361904D01*
X72209523Y-107323809D01*
X72171428Y-107285714D01*
%TO.C,C2*%
X120866666Y-76285714D02*
X120828571Y-76323809D01*
X120714285Y-76361904D01*
X120638095Y-76361904D01*
X120523809Y-76323809D01*
X120447619Y-76247619D01*
X120409523Y-76171428D01*
X120371428Y-76019047D01*
X120371428Y-75904761D01*
X120409523Y-75752380D01*
X120447619Y-75676190D01*
X120523809Y-75600000D01*
X120638095Y-75561904D01*
X120714285Y-75561904D01*
X120828571Y-75600000D01*
X120866666Y-75638095D01*
X121171428Y-75638095D02*
X121209523Y-75600000D01*
X121285714Y-75561904D01*
X121476190Y-75561904D01*
X121552380Y-75600000D01*
X121590476Y-75638095D01*
X121628571Y-75714285D01*
X121628571Y-75790476D01*
X121590476Y-75904761D01*
X121133333Y-76361904D01*
X121628571Y-76361904D01*
%TO.C,C6*%
X84866666Y-89485714D02*
X84828571Y-89523809D01*
X84714285Y-89561904D01*
X84638095Y-89561904D01*
X84523809Y-89523809D01*
X84447619Y-89447619D01*
X84409523Y-89371428D01*
X84371428Y-89219047D01*
X84371428Y-89104761D01*
X84409523Y-88952380D01*
X84447619Y-88876190D01*
X84523809Y-88800000D01*
X84638095Y-88761904D01*
X84714285Y-88761904D01*
X84828571Y-88800000D01*
X84866666Y-88838095D01*
X85552380Y-88761904D02*
X85400000Y-88761904D01*
X85323809Y-88800000D01*
X85285714Y-88838095D01*
X85209523Y-88952380D01*
X85171428Y-89104761D01*
X85171428Y-89409523D01*
X85209523Y-89485714D01*
X85247619Y-89523809D01*
X85323809Y-89561904D01*
X85476190Y-89561904D01*
X85552380Y-89523809D01*
X85590476Y-89485714D01*
X85628571Y-89409523D01*
X85628571Y-89219047D01*
X85590476Y-89142857D01*
X85552380Y-89104761D01*
X85476190Y-89066666D01*
X85323809Y-89066666D01*
X85247619Y-89104761D01*
X85209523Y-89142857D01*
X85171428Y-89219047D01*
%TO.C,R41*%
X157161904Y-91314285D02*
X156780952Y-91580952D01*
X157161904Y-91771428D02*
X156361904Y-91771428D01*
X156361904Y-91466666D01*
X156400000Y-91390476D01*
X156438095Y-91352380D01*
X156514285Y-91314285D01*
X156628571Y-91314285D01*
X156704761Y-91352380D01*
X156742857Y-91390476D01*
X156780952Y-91466666D01*
X156780952Y-91771428D01*
X156628571Y-90628571D02*
X157161904Y-90628571D01*
X156323809Y-90819047D02*
X156895238Y-91009523D01*
X156895238Y-90514285D01*
X157161904Y-89790476D02*
X157161904Y-90247619D01*
X157161904Y-90019047D02*
X156361904Y-90019047D01*
X156476190Y-90095238D01*
X156552380Y-90171428D01*
X156590476Y-90247619D01*
%TO.C,U12*%
X78409523Y-99161904D02*
X78409523Y-99809523D01*
X78447619Y-99885714D01*
X78485714Y-99923809D01*
X78561904Y-99961904D01*
X78714285Y-99961904D01*
X78790476Y-99923809D01*
X78828571Y-99885714D01*
X78866666Y-99809523D01*
X78866666Y-99161904D01*
X79666666Y-99961904D02*
X79209523Y-99961904D01*
X79438095Y-99961904D02*
X79438095Y-99161904D01*
X79361904Y-99276190D01*
X79285714Y-99352380D01*
X79209523Y-99390476D01*
X79971428Y-99238095D02*
X80009523Y-99200000D01*
X80085714Y-99161904D01*
X80276190Y-99161904D01*
X80352380Y-99200000D01*
X80390476Y-99238095D01*
X80428571Y-99314285D01*
X80428571Y-99390476D01*
X80390476Y-99504761D01*
X79933333Y-99961904D01*
X80428571Y-99961904D01*
%TO.C,R26*%
X86685714Y-112361904D02*
X86419047Y-111980952D01*
X86228571Y-112361904D02*
X86228571Y-111561904D01*
X86533333Y-111561904D01*
X86609523Y-111600000D01*
X86647619Y-111638095D01*
X86685714Y-111714285D01*
X86685714Y-111828571D01*
X86647619Y-111904761D01*
X86609523Y-111942857D01*
X86533333Y-111980952D01*
X86228571Y-111980952D01*
X86990476Y-111638095D02*
X87028571Y-111600000D01*
X87104761Y-111561904D01*
X87295238Y-111561904D01*
X87371428Y-111600000D01*
X87409523Y-111638095D01*
X87447619Y-111714285D01*
X87447619Y-111790476D01*
X87409523Y-111904761D01*
X86952380Y-112361904D01*
X87447619Y-112361904D01*
X88133333Y-111561904D02*
X87980952Y-111561904D01*
X87904761Y-111600000D01*
X87866666Y-111638095D01*
X87790476Y-111752380D01*
X87752380Y-111904761D01*
X87752380Y-112209523D01*
X87790476Y-112285714D01*
X87828571Y-112323809D01*
X87904761Y-112361904D01*
X88057142Y-112361904D01*
X88133333Y-112323809D01*
X88171428Y-112285714D01*
X88209523Y-112209523D01*
X88209523Y-112019047D01*
X88171428Y-111942857D01*
X88133333Y-111904761D01*
X88057142Y-111866666D01*
X87904761Y-111866666D01*
X87828571Y-111904761D01*
X87790476Y-111942857D01*
X87752380Y-112019047D01*
%TO.C,C35*%
X123685714Y-67285714D02*
X123647619Y-67323809D01*
X123533333Y-67361904D01*
X123457142Y-67361904D01*
X123342857Y-67323809D01*
X123266666Y-67247619D01*
X123228571Y-67171428D01*
X123190476Y-67019047D01*
X123190476Y-66904761D01*
X123228571Y-66752380D01*
X123266666Y-66676190D01*
X123342857Y-66600000D01*
X123457142Y-66561904D01*
X123533333Y-66561904D01*
X123647619Y-66600000D01*
X123685714Y-66638095D01*
X123952380Y-66561904D02*
X124447619Y-66561904D01*
X124180952Y-66866666D01*
X124295238Y-66866666D01*
X124371428Y-66904761D01*
X124409523Y-66942857D01*
X124447619Y-67019047D01*
X124447619Y-67209523D01*
X124409523Y-67285714D01*
X124371428Y-67323809D01*
X124295238Y-67361904D01*
X124066666Y-67361904D01*
X123990476Y-67323809D01*
X123952380Y-67285714D01*
X125171428Y-66561904D02*
X124790476Y-66561904D01*
X124752380Y-66942857D01*
X124790476Y-66904761D01*
X124866666Y-66866666D01*
X125057142Y-66866666D01*
X125133333Y-66904761D01*
X125171428Y-66942857D01*
X125209523Y-67019047D01*
X125209523Y-67209523D01*
X125171428Y-67285714D01*
X125133333Y-67323809D01*
X125057142Y-67361904D01*
X124866666Y-67361904D01*
X124790476Y-67323809D01*
X124752380Y-67285714D01*
%TO.C,R24*%
X86685714Y-93361904D02*
X86419047Y-92980952D01*
X86228571Y-93361904D02*
X86228571Y-92561904D01*
X86533333Y-92561904D01*
X86609523Y-92600000D01*
X86647619Y-92638095D01*
X86685714Y-92714285D01*
X86685714Y-92828571D01*
X86647619Y-92904761D01*
X86609523Y-92942857D01*
X86533333Y-92980952D01*
X86228571Y-92980952D01*
X86990476Y-92638095D02*
X87028571Y-92600000D01*
X87104761Y-92561904D01*
X87295238Y-92561904D01*
X87371428Y-92600000D01*
X87409523Y-92638095D01*
X87447619Y-92714285D01*
X87447619Y-92790476D01*
X87409523Y-92904761D01*
X86952380Y-93361904D01*
X87447619Y-93361904D01*
X88133333Y-92828571D02*
X88133333Y-93361904D01*
X87942857Y-92523809D02*
X87752380Y-93095238D01*
X88247619Y-93095238D01*
%TO.C,C14*%
X162085714Y-71085714D02*
X162047619Y-71123809D01*
X161933333Y-71161904D01*
X161857142Y-71161904D01*
X161742857Y-71123809D01*
X161666666Y-71047619D01*
X161628571Y-70971428D01*
X161590476Y-70819047D01*
X161590476Y-70704761D01*
X161628571Y-70552380D01*
X161666666Y-70476190D01*
X161742857Y-70400000D01*
X161857142Y-70361904D01*
X161933333Y-70361904D01*
X162047619Y-70400000D01*
X162085714Y-70438095D01*
X162847619Y-71161904D02*
X162390476Y-71161904D01*
X162619047Y-71161904D02*
X162619047Y-70361904D01*
X162542857Y-70476190D01*
X162466666Y-70552380D01*
X162390476Y-70590476D01*
X163533333Y-70628571D02*
X163533333Y-71161904D01*
X163342857Y-70323809D02*
X163152380Y-70895238D01*
X163647619Y-70895238D01*
%TO.C,SW3*%
X122323809Y-92866666D02*
X122361904Y-92752380D01*
X122361904Y-92561904D01*
X122323809Y-92485714D01*
X122285714Y-92447619D01*
X122209523Y-92409523D01*
X122133333Y-92409523D01*
X122057142Y-92447619D01*
X122019047Y-92485714D01*
X121980952Y-92561904D01*
X121942857Y-92714285D01*
X121904761Y-92790476D01*
X121866666Y-92828571D01*
X121790476Y-92866666D01*
X121714285Y-92866666D01*
X121638095Y-92828571D01*
X121600000Y-92790476D01*
X121561904Y-92714285D01*
X121561904Y-92523809D01*
X121600000Y-92409523D01*
X121561904Y-92142857D02*
X122361904Y-91952380D01*
X121790476Y-91800000D01*
X122361904Y-91647619D01*
X121561904Y-91457142D01*
X121561904Y-91228571D02*
X121561904Y-90733333D01*
X121866666Y-91000000D01*
X121866666Y-90885714D01*
X121904761Y-90809523D01*
X121942857Y-90771428D01*
X122019047Y-90733333D01*
X122209523Y-90733333D01*
X122285714Y-90771428D01*
X122323809Y-90809523D01*
X122361904Y-90885714D01*
X122361904Y-91114285D01*
X122323809Y-91190476D01*
X122285714Y-91228571D01*
%TO.C,Q4*%
X147323809Y-89638095D02*
X147247619Y-89600000D01*
X147171428Y-89523809D01*
X147057142Y-89409523D01*
X146980952Y-89371428D01*
X146904761Y-89371428D01*
X146942857Y-89561904D02*
X146866666Y-89523809D01*
X146790476Y-89447619D01*
X146752380Y-89295238D01*
X146752380Y-89028571D01*
X146790476Y-88876190D01*
X146866666Y-88800000D01*
X146942857Y-88761904D01*
X147095238Y-88761904D01*
X147171428Y-88800000D01*
X147247619Y-88876190D01*
X147285714Y-89028571D01*
X147285714Y-89295238D01*
X147247619Y-89447619D01*
X147171428Y-89523809D01*
X147095238Y-89561904D01*
X146942857Y-89561904D01*
X147971428Y-89028571D02*
X147971428Y-89561904D01*
X147780952Y-88723809D02*
X147590476Y-89295238D01*
X148085714Y-89295238D01*
%TO.C,C34*%
X133085714Y-65885714D02*
X133047619Y-65923809D01*
X132933333Y-65961904D01*
X132857142Y-65961904D01*
X132742857Y-65923809D01*
X132666666Y-65847619D01*
X132628571Y-65771428D01*
X132590476Y-65619047D01*
X132590476Y-65504761D01*
X132628571Y-65352380D01*
X132666666Y-65276190D01*
X132742857Y-65200000D01*
X132857142Y-65161904D01*
X132933333Y-65161904D01*
X133047619Y-65200000D01*
X133085714Y-65238095D01*
X133352380Y-65161904D02*
X133847619Y-65161904D01*
X133580952Y-65466666D01*
X133695238Y-65466666D01*
X133771428Y-65504761D01*
X133809523Y-65542857D01*
X133847619Y-65619047D01*
X133847619Y-65809523D01*
X133809523Y-65885714D01*
X133771428Y-65923809D01*
X133695238Y-65961904D01*
X133466666Y-65961904D01*
X133390476Y-65923809D01*
X133352380Y-65885714D01*
X134533333Y-65428571D02*
X134533333Y-65961904D01*
X134342857Y-65123809D02*
X134152380Y-65695238D01*
X134647619Y-65695238D01*
%TO.C,C20*%
X83485714Y-117285714D02*
X83447619Y-117323809D01*
X83333333Y-117361904D01*
X83257142Y-117361904D01*
X83142857Y-117323809D01*
X83066666Y-117247619D01*
X83028571Y-117171428D01*
X82990476Y-117019047D01*
X82990476Y-116904761D01*
X83028571Y-116752380D01*
X83066666Y-116676190D01*
X83142857Y-116600000D01*
X83257142Y-116561904D01*
X83333333Y-116561904D01*
X83447619Y-116600000D01*
X83485714Y-116638095D01*
X83790476Y-116638095D02*
X83828571Y-116600000D01*
X83904761Y-116561904D01*
X84095238Y-116561904D01*
X84171428Y-116600000D01*
X84209523Y-116638095D01*
X84247619Y-116714285D01*
X84247619Y-116790476D01*
X84209523Y-116904761D01*
X83752380Y-117361904D01*
X84247619Y-117361904D01*
X84742857Y-116561904D02*
X84819047Y-116561904D01*
X84895238Y-116600000D01*
X84933333Y-116638095D01*
X84971428Y-116714285D01*
X85009523Y-116866666D01*
X85009523Y-117057142D01*
X84971428Y-117209523D01*
X84933333Y-117285714D01*
X84895238Y-117323809D01*
X84819047Y-117361904D01*
X84742857Y-117361904D01*
X84666666Y-117323809D01*
X84628571Y-117285714D01*
X84590476Y-117209523D01*
X84552380Y-117057142D01*
X84552380Y-116866666D01*
X84590476Y-116714285D01*
X84628571Y-116638095D01*
X84666666Y-116600000D01*
X84742857Y-116561904D01*
%TO.C,R31*%
X151685714Y-98761904D02*
X151419047Y-98380952D01*
X151228571Y-98761904D02*
X151228571Y-97961904D01*
X151533333Y-97961904D01*
X151609523Y-98000000D01*
X151647619Y-98038095D01*
X151685714Y-98114285D01*
X151685714Y-98228571D01*
X151647619Y-98304761D01*
X151609523Y-98342857D01*
X151533333Y-98380952D01*
X151228571Y-98380952D01*
X151952380Y-97961904D02*
X152447619Y-97961904D01*
X152180952Y-98266666D01*
X152295238Y-98266666D01*
X152371428Y-98304761D01*
X152409523Y-98342857D01*
X152447619Y-98419047D01*
X152447619Y-98609523D01*
X152409523Y-98685714D01*
X152371428Y-98723809D01*
X152295238Y-98761904D01*
X152066666Y-98761904D01*
X151990476Y-98723809D01*
X151952380Y-98685714D01*
X153209523Y-98761904D02*
X152752380Y-98761904D01*
X152980952Y-98761904D02*
X152980952Y-97961904D01*
X152904761Y-98076190D01*
X152828571Y-98152380D01*
X152752380Y-98190476D01*
%TO.C,C30*%
X80485714Y-89285714D02*
X80447619Y-89323809D01*
X80333333Y-89361904D01*
X80257142Y-89361904D01*
X80142857Y-89323809D01*
X80066666Y-89247619D01*
X80028571Y-89171428D01*
X79990476Y-89019047D01*
X79990476Y-88904761D01*
X80028571Y-88752380D01*
X80066666Y-88676190D01*
X80142857Y-88600000D01*
X80257142Y-88561904D01*
X80333333Y-88561904D01*
X80447619Y-88600000D01*
X80485714Y-88638095D01*
X80752380Y-88561904D02*
X81247619Y-88561904D01*
X80980952Y-88866666D01*
X81095238Y-88866666D01*
X81171428Y-88904761D01*
X81209523Y-88942857D01*
X81247619Y-89019047D01*
X81247619Y-89209523D01*
X81209523Y-89285714D01*
X81171428Y-89323809D01*
X81095238Y-89361904D01*
X80866666Y-89361904D01*
X80790476Y-89323809D01*
X80752380Y-89285714D01*
X81742857Y-88561904D02*
X81819047Y-88561904D01*
X81895238Y-88600000D01*
X81933333Y-88638095D01*
X81971428Y-88714285D01*
X82009523Y-88866666D01*
X82009523Y-89057142D01*
X81971428Y-89209523D01*
X81933333Y-89285714D01*
X81895238Y-89323809D01*
X81819047Y-89361904D01*
X81742857Y-89361904D01*
X81666666Y-89323809D01*
X81628571Y-89285714D01*
X81590476Y-89209523D01*
X81552380Y-89057142D01*
X81552380Y-88866666D01*
X81590476Y-88714285D01*
X81628571Y-88638095D01*
X81666666Y-88600000D01*
X81742857Y-88561904D01*
%TO.C,R32*%
X111885714Y-81961904D02*
X111619047Y-81580952D01*
X111428571Y-81961904D02*
X111428571Y-81161904D01*
X111733333Y-81161904D01*
X111809523Y-81200000D01*
X111847619Y-81238095D01*
X111885714Y-81314285D01*
X111885714Y-81428571D01*
X111847619Y-81504761D01*
X111809523Y-81542857D01*
X111733333Y-81580952D01*
X111428571Y-81580952D01*
X112152380Y-81161904D02*
X112647619Y-81161904D01*
X112380952Y-81466666D01*
X112495238Y-81466666D01*
X112571428Y-81504761D01*
X112609523Y-81542857D01*
X112647619Y-81619047D01*
X112647619Y-81809523D01*
X112609523Y-81885714D01*
X112571428Y-81923809D01*
X112495238Y-81961904D01*
X112266666Y-81961904D01*
X112190476Y-81923809D01*
X112152380Y-81885714D01*
X112952380Y-81238095D02*
X112990476Y-81200000D01*
X113066666Y-81161904D01*
X113257142Y-81161904D01*
X113333333Y-81200000D01*
X113371428Y-81238095D01*
X113409523Y-81314285D01*
X113409523Y-81390476D01*
X113371428Y-81504761D01*
X112914285Y-81961904D01*
X113409523Y-81961904D01*
%TO.C,Q2*%
X146523809Y-99638095D02*
X146447619Y-99600000D01*
X146371428Y-99523809D01*
X146257142Y-99409523D01*
X146180952Y-99371428D01*
X146104761Y-99371428D01*
X146142857Y-99561904D02*
X146066666Y-99523809D01*
X145990476Y-99447619D01*
X145952380Y-99295238D01*
X145952380Y-99028571D01*
X145990476Y-98876190D01*
X146066666Y-98800000D01*
X146142857Y-98761904D01*
X146295238Y-98761904D01*
X146371428Y-98800000D01*
X146447619Y-98876190D01*
X146485714Y-99028571D01*
X146485714Y-99295238D01*
X146447619Y-99447619D01*
X146371428Y-99523809D01*
X146295238Y-99561904D01*
X146142857Y-99561904D01*
X146790476Y-98838095D02*
X146828571Y-98800000D01*
X146904761Y-98761904D01*
X147095238Y-98761904D01*
X147171428Y-98800000D01*
X147209523Y-98838095D01*
X147247619Y-98914285D01*
X147247619Y-98990476D01*
X147209523Y-99104761D01*
X146752380Y-99561904D01*
X147247619Y-99561904D01*
%TO.C,U8*%
X117990476Y-109761904D02*
X117990476Y-110409523D01*
X118028571Y-110485714D01*
X118066666Y-110523809D01*
X118142857Y-110561904D01*
X118295238Y-110561904D01*
X118371428Y-110523809D01*
X118409523Y-110485714D01*
X118447619Y-110409523D01*
X118447619Y-109761904D01*
X118942857Y-110104761D02*
X118866666Y-110066666D01*
X118828571Y-110028571D01*
X118790476Y-109952380D01*
X118790476Y-109914285D01*
X118828571Y-109838095D01*
X118866666Y-109800000D01*
X118942857Y-109761904D01*
X119095238Y-109761904D01*
X119171428Y-109800000D01*
X119209523Y-109838095D01*
X119247619Y-109914285D01*
X119247619Y-109952380D01*
X119209523Y-110028571D01*
X119171428Y-110066666D01*
X119095238Y-110104761D01*
X118942857Y-110104761D01*
X118866666Y-110142857D01*
X118828571Y-110180952D01*
X118790476Y-110257142D01*
X118790476Y-110409523D01*
X118828571Y-110485714D01*
X118866666Y-110523809D01*
X118942857Y-110561904D01*
X119095238Y-110561904D01*
X119171428Y-110523809D01*
X119209523Y-110485714D01*
X119247619Y-110409523D01*
X119247619Y-110257142D01*
X119209523Y-110180952D01*
X119171428Y-110142857D01*
X119095238Y-110104761D01*
%TO.C,C28*%
X159685714Y-100685714D02*
X159647619Y-100723809D01*
X159533333Y-100761904D01*
X159457142Y-100761904D01*
X159342857Y-100723809D01*
X159266666Y-100647619D01*
X159228571Y-100571428D01*
X159190476Y-100419047D01*
X159190476Y-100304761D01*
X159228571Y-100152380D01*
X159266666Y-100076190D01*
X159342857Y-100000000D01*
X159457142Y-99961904D01*
X159533333Y-99961904D01*
X159647619Y-100000000D01*
X159685714Y-100038095D01*
X159990476Y-100038095D02*
X160028571Y-100000000D01*
X160104761Y-99961904D01*
X160295238Y-99961904D01*
X160371428Y-100000000D01*
X160409523Y-100038095D01*
X160447619Y-100114285D01*
X160447619Y-100190476D01*
X160409523Y-100304761D01*
X159952380Y-100761904D01*
X160447619Y-100761904D01*
X160904761Y-100304761D02*
X160828571Y-100266666D01*
X160790476Y-100228571D01*
X160752380Y-100152380D01*
X160752380Y-100114285D01*
X160790476Y-100038095D01*
X160828571Y-100000000D01*
X160904761Y-99961904D01*
X161057142Y-99961904D01*
X161133333Y-100000000D01*
X161171428Y-100038095D01*
X161209523Y-100114285D01*
X161209523Y-100152380D01*
X161171428Y-100228571D01*
X161133333Y-100266666D01*
X161057142Y-100304761D01*
X160904761Y-100304761D01*
X160828571Y-100342857D01*
X160790476Y-100380952D01*
X160752380Y-100457142D01*
X160752380Y-100609523D01*
X160790476Y-100685714D01*
X160828571Y-100723809D01*
X160904761Y-100761904D01*
X161057142Y-100761904D01*
X161133333Y-100723809D01*
X161171428Y-100685714D01*
X161209523Y-100609523D01*
X161209523Y-100457142D01*
X161171428Y-100380952D01*
X161133333Y-100342857D01*
X161057142Y-100304761D01*
%TO.C,R34*%
X73985714Y-98361904D02*
X73719047Y-97980952D01*
X73528571Y-98361904D02*
X73528571Y-97561904D01*
X73833333Y-97561904D01*
X73909523Y-97600000D01*
X73947619Y-97638095D01*
X73985714Y-97714285D01*
X73985714Y-97828571D01*
X73947619Y-97904761D01*
X73909523Y-97942857D01*
X73833333Y-97980952D01*
X73528571Y-97980952D01*
X74252380Y-97561904D02*
X74747619Y-97561904D01*
X74480952Y-97866666D01*
X74595238Y-97866666D01*
X74671428Y-97904761D01*
X74709523Y-97942857D01*
X74747619Y-98019047D01*
X74747619Y-98209523D01*
X74709523Y-98285714D01*
X74671428Y-98323809D01*
X74595238Y-98361904D01*
X74366666Y-98361904D01*
X74290476Y-98323809D01*
X74252380Y-98285714D01*
X75433333Y-97828571D02*
X75433333Y-98361904D01*
X75242857Y-97523809D02*
X75052380Y-98095238D01*
X75547619Y-98095238D01*
%TO.C,U5*%
X81061904Y-85109523D02*
X81709523Y-85109523D01*
X81785714Y-85071428D01*
X81823809Y-85033333D01*
X81861904Y-84957142D01*
X81861904Y-84804761D01*
X81823809Y-84728571D01*
X81785714Y-84690476D01*
X81709523Y-84652380D01*
X81061904Y-84652380D01*
X81061904Y-83890476D02*
X81061904Y-84271428D01*
X81442857Y-84309523D01*
X81404761Y-84271428D01*
X81366666Y-84195238D01*
X81366666Y-84004761D01*
X81404761Y-83928571D01*
X81442857Y-83890476D01*
X81519047Y-83852380D01*
X81709523Y-83852380D01*
X81785714Y-83890476D01*
X81823809Y-83928571D01*
X81861904Y-84004761D01*
X81861904Y-84195238D01*
X81823809Y-84271428D01*
X81785714Y-84309523D01*
%TO.C,R8*%
X74366666Y-74361904D02*
X74100000Y-73980952D01*
X73909523Y-74361904D02*
X73909523Y-73561904D01*
X74214285Y-73561904D01*
X74290476Y-73600000D01*
X74328571Y-73638095D01*
X74366666Y-73714285D01*
X74366666Y-73828571D01*
X74328571Y-73904761D01*
X74290476Y-73942857D01*
X74214285Y-73980952D01*
X73909523Y-73980952D01*
X74823809Y-73904761D02*
X74747619Y-73866666D01*
X74709523Y-73828571D01*
X74671428Y-73752380D01*
X74671428Y-73714285D01*
X74709523Y-73638095D01*
X74747619Y-73600000D01*
X74823809Y-73561904D01*
X74976190Y-73561904D01*
X75052380Y-73600000D01*
X75090476Y-73638095D01*
X75128571Y-73714285D01*
X75128571Y-73752380D01*
X75090476Y-73828571D01*
X75052380Y-73866666D01*
X74976190Y-73904761D01*
X74823809Y-73904761D01*
X74747619Y-73942857D01*
X74709523Y-73980952D01*
X74671428Y-74057142D01*
X74671428Y-74209523D01*
X74709523Y-74285714D01*
X74747619Y-74323809D01*
X74823809Y-74361904D01*
X74976190Y-74361904D01*
X75052380Y-74323809D01*
X75090476Y-74285714D01*
X75128571Y-74209523D01*
X75128571Y-74057142D01*
X75090476Y-73980952D01*
X75052380Y-73942857D01*
X74976190Y-73904761D01*
%TO.C,R1*%
X74366666Y-65361904D02*
X74100000Y-64980952D01*
X73909523Y-65361904D02*
X73909523Y-64561904D01*
X74214285Y-64561904D01*
X74290476Y-64600000D01*
X74328571Y-64638095D01*
X74366666Y-64714285D01*
X74366666Y-64828571D01*
X74328571Y-64904761D01*
X74290476Y-64942857D01*
X74214285Y-64980952D01*
X73909523Y-64980952D01*
X75128571Y-65361904D02*
X74671428Y-65361904D01*
X74900000Y-65361904D02*
X74900000Y-64561904D01*
X74823809Y-64676190D01*
X74747619Y-64752380D01*
X74671428Y-64790476D01*
%TO.C,P5*%
X69409523Y-104861904D02*
X69409523Y-104061904D01*
X69714285Y-104061904D01*
X69790476Y-104100000D01*
X69828571Y-104138095D01*
X69866666Y-104214285D01*
X69866666Y-104328571D01*
X69828571Y-104404761D01*
X69790476Y-104442857D01*
X69714285Y-104480952D01*
X69409523Y-104480952D01*
X70590476Y-104061904D02*
X70209523Y-104061904D01*
X70171428Y-104442857D01*
X70209523Y-104404761D01*
X70285714Y-104366666D01*
X70476190Y-104366666D01*
X70552380Y-104404761D01*
X70590476Y-104442857D01*
X70628571Y-104519047D01*
X70628571Y-104709523D01*
X70590476Y-104785714D01*
X70552380Y-104823809D01*
X70476190Y-104861904D01*
X70285714Y-104861904D01*
X70209523Y-104823809D01*
X70171428Y-104785714D01*
%TO.C,C15*%
X152885714Y-81085714D02*
X152847619Y-81123809D01*
X152733333Y-81161904D01*
X152657142Y-81161904D01*
X152542857Y-81123809D01*
X152466666Y-81047619D01*
X152428571Y-80971428D01*
X152390476Y-80819047D01*
X152390476Y-80704761D01*
X152428571Y-80552380D01*
X152466666Y-80476190D01*
X152542857Y-80400000D01*
X152657142Y-80361904D01*
X152733333Y-80361904D01*
X152847619Y-80400000D01*
X152885714Y-80438095D01*
X153647619Y-81161904D02*
X153190476Y-81161904D01*
X153419047Y-81161904D02*
X153419047Y-80361904D01*
X153342857Y-80476190D01*
X153266666Y-80552380D01*
X153190476Y-80590476D01*
X154371428Y-80361904D02*
X153990476Y-80361904D01*
X153952380Y-80742857D01*
X153990476Y-80704761D01*
X154066666Y-80666666D01*
X154257142Y-80666666D01*
X154333333Y-80704761D01*
X154371428Y-80742857D01*
X154409523Y-80819047D01*
X154409523Y-81009523D01*
X154371428Y-81085714D01*
X154333333Y-81123809D01*
X154257142Y-81161904D01*
X154066666Y-81161904D01*
X153990476Y-81123809D01*
X153952380Y-81085714D01*
%TO.C,C36*%
X131485714Y-71285714D02*
X131447619Y-71323809D01*
X131333333Y-71361904D01*
X131257142Y-71361904D01*
X131142857Y-71323809D01*
X131066666Y-71247619D01*
X131028571Y-71171428D01*
X130990476Y-71019047D01*
X130990476Y-70904761D01*
X131028571Y-70752380D01*
X131066666Y-70676190D01*
X131142857Y-70600000D01*
X131257142Y-70561904D01*
X131333333Y-70561904D01*
X131447619Y-70600000D01*
X131485714Y-70638095D01*
X131752380Y-70561904D02*
X132247619Y-70561904D01*
X131980952Y-70866666D01*
X132095238Y-70866666D01*
X132171428Y-70904761D01*
X132209523Y-70942857D01*
X132247619Y-71019047D01*
X132247619Y-71209523D01*
X132209523Y-71285714D01*
X132171428Y-71323809D01*
X132095238Y-71361904D01*
X131866666Y-71361904D01*
X131790476Y-71323809D01*
X131752380Y-71285714D01*
X132933333Y-70561904D02*
X132780952Y-70561904D01*
X132704761Y-70600000D01*
X132666666Y-70638095D01*
X132590476Y-70752380D01*
X132552380Y-70904761D01*
X132552380Y-71209523D01*
X132590476Y-71285714D01*
X132628571Y-71323809D01*
X132704761Y-71361904D01*
X132857142Y-71361904D01*
X132933333Y-71323809D01*
X132971428Y-71285714D01*
X133009523Y-71209523D01*
X133009523Y-71019047D01*
X132971428Y-70942857D01*
X132933333Y-70904761D01*
X132857142Y-70866666D01*
X132704761Y-70866666D01*
X132628571Y-70904761D01*
X132590476Y-70942857D01*
X132552380Y-71019047D01*
%TO.C,C26*%
X155285714Y-91314285D02*
X155323809Y-91352380D01*
X155361904Y-91466666D01*
X155361904Y-91542857D01*
X155323809Y-91657142D01*
X155247619Y-91733333D01*
X155171428Y-91771428D01*
X155019047Y-91809523D01*
X154904761Y-91809523D01*
X154752380Y-91771428D01*
X154676190Y-91733333D01*
X154600000Y-91657142D01*
X154561904Y-91542857D01*
X154561904Y-91466666D01*
X154600000Y-91352380D01*
X154638095Y-91314285D01*
X154638095Y-91009523D02*
X154600000Y-90971428D01*
X154561904Y-90895238D01*
X154561904Y-90704761D01*
X154600000Y-90628571D01*
X154638095Y-90590476D01*
X154714285Y-90552380D01*
X154790476Y-90552380D01*
X154904761Y-90590476D01*
X155361904Y-91047619D01*
X155361904Y-90552380D01*
X154561904Y-89866666D02*
X154561904Y-90019047D01*
X154600000Y-90095238D01*
X154638095Y-90133333D01*
X154752380Y-90209523D01*
X154904761Y-90247619D01*
X155209523Y-90247619D01*
X155285714Y-90209523D01*
X155323809Y-90171428D01*
X155361904Y-90095238D01*
X155361904Y-89942857D01*
X155323809Y-89866666D01*
X155285714Y-89828571D01*
X155209523Y-89790476D01*
X155019047Y-89790476D01*
X154942857Y-89828571D01*
X154904761Y-89866666D01*
X154866666Y-89942857D01*
X154866666Y-90095238D01*
X154904761Y-90171428D01*
X154942857Y-90209523D01*
X155019047Y-90247619D01*
%TO.C,U13*%
X78409523Y-108561904D02*
X78409523Y-109209523D01*
X78447619Y-109285714D01*
X78485714Y-109323809D01*
X78561904Y-109361904D01*
X78714285Y-109361904D01*
X78790476Y-109323809D01*
X78828571Y-109285714D01*
X78866666Y-109209523D01*
X78866666Y-108561904D01*
X79666666Y-109361904D02*
X79209523Y-109361904D01*
X79438095Y-109361904D02*
X79438095Y-108561904D01*
X79361904Y-108676190D01*
X79285714Y-108752380D01*
X79209523Y-108790476D01*
X79933333Y-108561904D02*
X80428571Y-108561904D01*
X80161904Y-108866666D01*
X80276190Y-108866666D01*
X80352380Y-108904761D01*
X80390476Y-108942857D01*
X80428571Y-109019047D01*
X80428571Y-109209523D01*
X80390476Y-109285714D01*
X80352380Y-109323809D01*
X80276190Y-109361904D01*
X80047619Y-109361904D01*
X79971428Y-109323809D01*
X79933333Y-109285714D01*
%TO.C,R18*%
X153085714Y-69961904D02*
X152819047Y-69580952D01*
X152628571Y-69961904D02*
X152628571Y-69161904D01*
X152933333Y-69161904D01*
X153009523Y-69200000D01*
X153047619Y-69238095D01*
X153085714Y-69314285D01*
X153085714Y-69428571D01*
X153047619Y-69504761D01*
X153009523Y-69542857D01*
X152933333Y-69580952D01*
X152628571Y-69580952D01*
X153847619Y-69961904D02*
X153390476Y-69961904D01*
X153619047Y-69961904D02*
X153619047Y-69161904D01*
X153542857Y-69276190D01*
X153466666Y-69352380D01*
X153390476Y-69390476D01*
X154304761Y-69504761D02*
X154228571Y-69466666D01*
X154190476Y-69428571D01*
X154152380Y-69352380D01*
X154152380Y-69314285D01*
X154190476Y-69238095D01*
X154228571Y-69200000D01*
X154304761Y-69161904D01*
X154457142Y-69161904D01*
X154533333Y-69200000D01*
X154571428Y-69238095D01*
X154609523Y-69314285D01*
X154609523Y-69352380D01*
X154571428Y-69428571D01*
X154533333Y-69466666D01*
X154457142Y-69504761D01*
X154304761Y-69504761D01*
X154228571Y-69542857D01*
X154190476Y-69580952D01*
X154152380Y-69657142D01*
X154152380Y-69809523D01*
X154190476Y-69885714D01*
X154228571Y-69923809D01*
X154304761Y-69961904D01*
X154457142Y-69961904D01*
X154533333Y-69923809D01*
X154571428Y-69885714D01*
X154609523Y-69809523D01*
X154609523Y-69657142D01*
X154571428Y-69580952D01*
X154533333Y-69542857D01*
X154457142Y-69504761D01*
%TO.C,C21*%
X154885714Y-111714285D02*
X154923809Y-111752380D01*
X154961904Y-111866666D01*
X154961904Y-111942857D01*
X154923809Y-112057142D01*
X154847619Y-112133333D01*
X154771428Y-112171428D01*
X154619047Y-112209523D01*
X154504761Y-112209523D01*
X154352380Y-112171428D01*
X154276190Y-112133333D01*
X154200000Y-112057142D01*
X154161904Y-111942857D01*
X154161904Y-111866666D01*
X154200000Y-111752380D01*
X154238095Y-111714285D01*
X154238095Y-111409523D02*
X154200000Y-111371428D01*
X154161904Y-111295238D01*
X154161904Y-111104761D01*
X154200000Y-111028571D01*
X154238095Y-110990476D01*
X154314285Y-110952380D01*
X154390476Y-110952380D01*
X154504761Y-110990476D01*
X154961904Y-111447619D01*
X154961904Y-110952380D01*
X154961904Y-110190476D02*
X154961904Y-110647619D01*
X154961904Y-110419047D02*
X154161904Y-110419047D01*
X154276190Y-110495238D01*
X154352380Y-110571428D01*
X154390476Y-110647619D01*
%TO.C,R20*%
X154485714Y-77361904D02*
X154219047Y-76980952D01*
X154028571Y-77361904D02*
X154028571Y-76561904D01*
X154333333Y-76561904D01*
X154409523Y-76600000D01*
X154447619Y-76638095D01*
X154485714Y-76714285D01*
X154485714Y-76828571D01*
X154447619Y-76904761D01*
X154409523Y-76942857D01*
X154333333Y-76980952D01*
X154028571Y-76980952D01*
X154790476Y-76638095D02*
X154828571Y-76600000D01*
X154904761Y-76561904D01*
X155095238Y-76561904D01*
X155171428Y-76600000D01*
X155209523Y-76638095D01*
X155247619Y-76714285D01*
X155247619Y-76790476D01*
X155209523Y-76904761D01*
X154752380Y-77361904D01*
X155247619Y-77361904D01*
X155742857Y-76561904D02*
X155819047Y-76561904D01*
X155895238Y-76600000D01*
X155933333Y-76638095D01*
X155971428Y-76714285D01*
X156009523Y-76866666D01*
X156009523Y-77057142D01*
X155971428Y-77209523D01*
X155933333Y-77285714D01*
X155895238Y-77323809D01*
X155819047Y-77361904D01*
X155742857Y-77361904D01*
X155666666Y-77323809D01*
X155628571Y-77285714D01*
X155590476Y-77209523D01*
X155552380Y-77057142D01*
X155552380Y-76866666D01*
X155590476Y-76714285D01*
X155628571Y-76638095D01*
X155666666Y-76600000D01*
X155742857Y-76561904D01*
%TO.C,R9*%
X74366666Y-86361904D02*
X74100000Y-85980952D01*
X73909523Y-86361904D02*
X73909523Y-85561904D01*
X74214285Y-85561904D01*
X74290476Y-85600000D01*
X74328571Y-85638095D01*
X74366666Y-85714285D01*
X74366666Y-85828571D01*
X74328571Y-85904761D01*
X74290476Y-85942857D01*
X74214285Y-85980952D01*
X73909523Y-85980952D01*
X74747619Y-86361904D02*
X74900000Y-86361904D01*
X74976190Y-86323809D01*
X75014285Y-86285714D01*
X75090476Y-86171428D01*
X75128571Y-86019047D01*
X75128571Y-85714285D01*
X75090476Y-85638095D01*
X75052380Y-85600000D01*
X74976190Y-85561904D01*
X74823809Y-85561904D01*
X74747619Y-85600000D01*
X74709523Y-85638095D01*
X74671428Y-85714285D01*
X74671428Y-85904761D01*
X74709523Y-85980952D01*
X74747619Y-86019047D01*
X74823809Y-86057142D01*
X74976190Y-86057142D01*
X75052380Y-86019047D01*
X75090476Y-85980952D01*
X75128571Y-85904761D01*
%TO.C,R42*%
X149285714Y-95761904D02*
X149019047Y-95380952D01*
X148828571Y-95761904D02*
X148828571Y-94961904D01*
X149133333Y-94961904D01*
X149209523Y-95000000D01*
X149247619Y-95038095D01*
X149285714Y-95114285D01*
X149285714Y-95228571D01*
X149247619Y-95304761D01*
X149209523Y-95342857D01*
X149133333Y-95380952D01*
X148828571Y-95380952D01*
X149971428Y-95228571D02*
X149971428Y-95761904D01*
X149780952Y-94923809D02*
X149590476Y-95495238D01*
X150085714Y-95495238D01*
X150352380Y-95038095D02*
X150390476Y-95000000D01*
X150466666Y-94961904D01*
X150657142Y-94961904D01*
X150733333Y-95000000D01*
X150771428Y-95038095D01*
X150809523Y-95114285D01*
X150809523Y-95190476D01*
X150771428Y-95304761D01*
X150314285Y-95761904D01*
X150809523Y-95761904D01*
%TO.C,P3*%
X69409523Y-91861904D02*
X69409523Y-91061904D01*
X69714285Y-91061904D01*
X69790476Y-91100000D01*
X69828571Y-91138095D01*
X69866666Y-91214285D01*
X69866666Y-91328571D01*
X69828571Y-91404761D01*
X69790476Y-91442857D01*
X69714285Y-91480952D01*
X69409523Y-91480952D01*
X70133333Y-91061904D02*
X70628571Y-91061904D01*
X70361904Y-91366666D01*
X70476190Y-91366666D01*
X70552380Y-91404761D01*
X70590476Y-91442857D01*
X70628571Y-91519047D01*
X70628571Y-91709523D01*
X70590476Y-91785714D01*
X70552380Y-91823809D01*
X70476190Y-91861904D01*
X70247619Y-91861904D01*
X70171428Y-91823809D01*
X70133333Y-91785714D01*
%TO.C,R43*%
X149285714Y-94561904D02*
X149019047Y-94180952D01*
X148828571Y-94561904D02*
X148828571Y-93761904D01*
X149133333Y-93761904D01*
X149209523Y-93800000D01*
X149247619Y-93838095D01*
X149285714Y-93914285D01*
X149285714Y-94028571D01*
X149247619Y-94104761D01*
X149209523Y-94142857D01*
X149133333Y-94180952D01*
X148828571Y-94180952D01*
X149971428Y-94028571D02*
X149971428Y-94561904D01*
X149780952Y-93723809D02*
X149590476Y-94295238D01*
X150085714Y-94295238D01*
X150314285Y-93761904D02*
X150809523Y-93761904D01*
X150542857Y-94066666D01*
X150657142Y-94066666D01*
X150733333Y-94104761D01*
X150771428Y-94142857D01*
X150809523Y-94219047D01*
X150809523Y-94409523D01*
X150771428Y-94485714D01*
X150733333Y-94523809D01*
X150657142Y-94561904D01*
X150428571Y-94561904D01*
X150352380Y-94523809D01*
X150314285Y-94485714D01*
%TO.C,J1*%
X120733333Y-69761904D02*
X120733333Y-70333333D01*
X120695238Y-70447619D01*
X120619047Y-70523809D01*
X120504761Y-70561904D01*
X120428571Y-70561904D01*
X121533333Y-70561904D02*
X121076190Y-70561904D01*
X121304761Y-70561904D02*
X121304761Y-69761904D01*
X121228571Y-69876190D01*
X121152380Y-69952380D01*
X121076190Y-69990476D01*
%TO.C,Q5*%
X149923809Y-89638095D02*
X149847619Y-89600000D01*
X149771428Y-89523809D01*
X149657142Y-89409523D01*
X149580952Y-89371428D01*
X149504761Y-89371428D01*
X149542857Y-89561904D02*
X149466666Y-89523809D01*
X149390476Y-89447619D01*
X149352380Y-89295238D01*
X149352380Y-89028571D01*
X149390476Y-88876190D01*
X149466666Y-88800000D01*
X149542857Y-88761904D01*
X149695238Y-88761904D01*
X149771428Y-88800000D01*
X149847619Y-88876190D01*
X149885714Y-89028571D01*
X149885714Y-89295238D01*
X149847619Y-89447619D01*
X149771428Y-89523809D01*
X149695238Y-89561904D01*
X149542857Y-89561904D01*
X150609523Y-88761904D02*
X150228571Y-88761904D01*
X150190476Y-89142857D01*
X150228571Y-89104761D01*
X150304761Y-89066666D01*
X150495238Y-89066666D01*
X150571428Y-89104761D01*
X150609523Y-89142857D01*
X150647619Y-89219047D01*
X150647619Y-89409523D01*
X150609523Y-89485714D01*
X150571428Y-89523809D01*
X150495238Y-89561904D01*
X150304761Y-89561904D01*
X150228571Y-89523809D01*
X150190476Y-89485714D01*
%TO.C,P1*%
X69409523Y-67861904D02*
X69409523Y-67061904D01*
X69714285Y-67061904D01*
X69790476Y-67100000D01*
X69828571Y-67138095D01*
X69866666Y-67214285D01*
X69866666Y-67328571D01*
X69828571Y-67404761D01*
X69790476Y-67442857D01*
X69714285Y-67480952D01*
X69409523Y-67480952D01*
X70628571Y-67861904D02*
X70171428Y-67861904D01*
X70400000Y-67861904D02*
X70400000Y-67061904D01*
X70323809Y-67176190D01*
X70247619Y-67252380D01*
X70171428Y-67290476D01*
%TO.C,R7*%
X74366666Y-62361904D02*
X74100000Y-61980952D01*
X73909523Y-62361904D02*
X73909523Y-61561904D01*
X74214285Y-61561904D01*
X74290476Y-61600000D01*
X74328571Y-61638095D01*
X74366666Y-61714285D01*
X74366666Y-61828571D01*
X74328571Y-61904761D01*
X74290476Y-61942857D01*
X74214285Y-61980952D01*
X73909523Y-61980952D01*
X74633333Y-61561904D02*
X75166666Y-61561904D01*
X74823809Y-62361904D01*
%TO.C,SW4*%
X131333333Y-103923809D02*
X131447619Y-103961904D01*
X131638095Y-103961904D01*
X131714285Y-103923809D01*
X131752380Y-103885714D01*
X131790476Y-103809523D01*
X131790476Y-103733333D01*
X131752380Y-103657142D01*
X131714285Y-103619047D01*
X131638095Y-103580952D01*
X131485714Y-103542857D01*
X131409523Y-103504761D01*
X131371428Y-103466666D01*
X131333333Y-103390476D01*
X131333333Y-103314285D01*
X131371428Y-103238095D01*
X131409523Y-103200000D01*
X131485714Y-103161904D01*
X131676190Y-103161904D01*
X131790476Y-103200000D01*
X132057142Y-103161904D02*
X132247619Y-103961904D01*
X132400000Y-103390476D01*
X132552380Y-103961904D01*
X132742857Y-103161904D01*
X133390476Y-103428571D02*
X133390476Y-103961904D01*
X133200000Y-103123809D02*
X133009523Y-103695238D01*
X133504761Y-103695238D01*
%TO.C,C25*%
X120885714Y-83485714D02*
X120847619Y-83523809D01*
X120733333Y-83561904D01*
X120657142Y-83561904D01*
X120542857Y-83523809D01*
X120466666Y-83447619D01*
X120428571Y-83371428D01*
X120390476Y-83219047D01*
X120390476Y-83104761D01*
X120428571Y-82952380D01*
X120466666Y-82876190D01*
X120542857Y-82800000D01*
X120657142Y-82761904D01*
X120733333Y-82761904D01*
X120847619Y-82800000D01*
X120885714Y-82838095D01*
X121190476Y-82838095D02*
X121228571Y-82800000D01*
X121304761Y-82761904D01*
X121495238Y-82761904D01*
X121571428Y-82800000D01*
X121609523Y-82838095D01*
X121647619Y-82914285D01*
X121647619Y-82990476D01*
X121609523Y-83104761D01*
X121152380Y-83561904D01*
X121647619Y-83561904D01*
X122371428Y-82761904D02*
X121990476Y-82761904D01*
X121952380Y-83142857D01*
X121990476Y-83104761D01*
X122066666Y-83066666D01*
X122257142Y-83066666D01*
X122333333Y-83104761D01*
X122371428Y-83142857D01*
X122409523Y-83219047D01*
X122409523Y-83409523D01*
X122371428Y-83485714D01*
X122333333Y-83523809D01*
X122257142Y-83561904D01*
X122066666Y-83561904D01*
X121990476Y-83523809D01*
X121952380Y-83485714D01*
%TO.C,C24*%
X120885714Y-81685714D02*
X120847619Y-81723809D01*
X120733333Y-81761904D01*
X120657142Y-81761904D01*
X120542857Y-81723809D01*
X120466666Y-81647619D01*
X120428571Y-81571428D01*
X120390476Y-81419047D01*
X120390476Y-81304761D01*
X120428571Y-81152380D01*
X120466666Y-81076190D01*
X120542857Y-81000000D01*
X120657142Y-80961904D01*
X120733333Y-80961904D01*
X120847619Y-81000000D01*
X120885714Y-81038095D01*
X121190476Y-81038095D02*
X121228571Y-81000000D01*
X121304761Y-80961904D01*
X121495238Y-80961904D01*
X121571428Y-81000000D01*
X121609523Y-81038095D01*
X121647619Y-81114285D01*
X121647619Y-81190476D01*
X121609523Y-81304761D01*
X121152380Y-81761904D01*
X121647619Y-81761904D01*
X122333333Y-81228571D02*
X122333333Y-81761904D01*
X122142857Y-80923809D02*
X121952380Y-81495238D01*
X122447619Y-81495238D01*
%TO.C,R27*%
X148685714Y-106361904D02*
X148419047Y-105980952D01*
X148228571Y-106361904D02*
X148228571Y-105561904D01*
X148533333Y-105561904D01*
X148609523Y-105600000D01*
X148647619Y-105638095D01*
X148685714Y-105714285D01*
X148685714Y-105828571D01*
X148647619Y-105904761D01*
X148609523Y-105942857D01*
X148533333Y-105980952D01*
X148228571Y-105980952D01*
X148990476Y-105638095D02*
X149028571Y-105600000D01*
X149104761Y-105561904D01*
X149295238Y-105561904D01*
X149371428Y-105600000D01*
X149409523Y-105638095D01*
X149447619Y-105714285D01*
X149447619Y-105790476D01*
X149409523Y-105904761D01*
X148952380Y-106361904D01*
X149447619Y-106361904D01*
X149714285Y-105561904D02*
X150247619Y-105561904D01*
X149904761Y-106361904D01*
%TO.C,C22*%
X83485714Y-98605714D02*
X83447619Y-98643809D01*
X83333333Y-98681904D01*
X83257142Y-98681904D01*
X83142857Y-98643809D01*
X83066666Y-98567619D01*
X83028571Y-98491428D01*
X82990476Y-98339047D01*
X82990476Y-98224761D01*
X83028571Y-98072380D01*
X83066666Y-97996190D01*
X83142857Y-97920000D01*
X83257142Y-97881904D01*
X83333333Y-97881904D01*
X83447619Y-97920000D01*
X83485714Y-97958095D01*
X83790476Y-97958095D02*
X83828571Y-97920000D01*
X83904761Y-97881904D01*
X84095238Y-97881904D01*
X84171428Y-97920000D01*
X84209523Y-97958095D01*
X84247619Y-98034285D01*
X84247619Y-98110476D01*
X84209523Y-98224761D01*
X83752380Y-98681904D01*
X84247619Y-98681904D01*
X84552380Y-97958095D02*
X84590476Y-97920000D01*
X84666666Y-97881904D01*
X84857142Y-97881904D01*
X84933333Y-97920000D01*
X84971428Y-97958095D01*
X85009523Y-98034285D01*
X85009523Y-98110476D01*
X84971428Y-98224761D01*
X84514285Y-98681904D01*
X85009523Y-98681904D01*
%TO.C,J2*%
X161961904Y-81866666D02*
X162533333Y-81866666D01*
X162647619Y-81904761D01*
X162723809Y-81980952D01*
X162761904Y-82095238D01*
X162761904Y-82171428D01*
X162038095Y-81523809D02*
X162000000Y-81485714D01*
X161961904Y-81409523D01*
X161961904Y-81219047D01*
X162000000Y-81142857D01*
X162038095Y-81104761D01*
X162114285Y-81066666D01*
X162190476Y-81066666D01*
X162304761Y-81104761D01*
X162761904Y-81561904D01*
X162761904Y-81066666D01*
D12*
%TO.C,R25*%
X86477500Y-100262742D02*
X86477500Y-100737258D01*
X87522500Y-100262742D02*
X87522500Y-100737258D01*
%TO.C,R12*%
X114762742Y-78977500D02*
X115237258Y-78977500D01*
X114762742Y-80022500D02*
X115237258Y-80022500D01*
%TO.C,C7*%
X83738748Y-76765000D02*
X84261252Y-76765000D01*
X83738748Y-78235000D02*
X84261252Y-78235000D01*
%TO.C,U6*%
X82390000Y-92600000D02*
X82390000Y-95050000D01*
X85610000Y-94400000D02*
X85610000Y-92600000D01*
%TO.C,U9*%
X85610000Y-103900000D02*
X85610000Y-102100000D01*
X82390000Y-102100000D02*
X82390000Y-104550000D01*
%TO.C,D4*%
X71859420Y-95990000D02*
X72140580Y-95990000D01*
X71859420Y-97010000D02*
X72140580Y-97010000D01*
%TO.C,P4*%
X154053000Y-63700000D02*
X162947000Y-63700000D01*
X162947000Y-57100000D02*
X154053000Y-57100000D01*
X162947000Y-63700000D02*
X162947000Y-57100000D01*
X154053000Y-57100000D02*
X154053000Y-63700000D01*
%TO.C,SW1*%
X93130000Y-92230000D02*
X93130000Y-96970000D01*
X94470000Y-96970000D02*
X96530000Y-96970000D01*
X94470000Y-92230000D02*
X96530000Y-92230000D01*
X93130000Y-96970000D02*
X93530000Y-96970000D01*
X97870000Y-92230000D02*
X97470000Y-92230000D01*
X93130000Y-92230000D02*
X93530000Y-92230000D01*
X97870000Y-92230000D02*
X97870000Y-96970000D01*
X97870000Y-96970000D02*
X97470000Y-96970000D01*
%TO.C,C27*%
X156990000Y-108429420D02*
X156990000Y-108710580D01*
X158010000Y-108429420D02*
X158010000Y-108710580D01*
%TO.C,R45*%
X152012742Y-91727500D02*
X152487258Y-91727500D01*
X152012742Y-90682500D02*
X152487258Y-90682500D01*
%TO.C,R16*%
X122022500Y-105762742D02*
X122022500Y-106237258D01*
X120977500Y-105762742D02*
X120977500Y-106237258D01*
%TO.C,R47*%
X127237258Y-72022500D02*
X126762742Y-72022500D01*
X127237258Y-70977500D02*
X126762742Y-70977500D01*
%TO.C,L2*%
X149100000Y-114870000D02*
X149900000Y-114870000D01*
X149100000Y-107270000D02*
X149950000Y-107270000D01*
%TO.C,R22*%
X87522500Y-71762742D02*
X87522500Y-72237258D01*
X86477500Y-71762742D02*
X86477500Y-72237258D01*
%TO.C,U7*%
X150600000Y-86110000D02*
X152400000Y-86110000D01*
X152400000Y-82890000D02*
X149950000Y-82890000D01*
%TO.C,C29*%
X82010000Y-76859420D02*
X82010000Y-77140580D01*
X80990000Y-76859420D02*
X80990000Y-77140580D01*
%TO.C,C31*%
X82010000Y-95859420D02*
X82010000Y-96140580D01*
X80990000Y-95859420D02*
X80990000Y-96140580D01*
%TO.C,SW5*%
X129630000Y-88870000D02*
X134370000Y-88870000D01*
X134370000Y-84130000D02*
X134370000Y-84530000D01*
X129630000Y-84130000D02*
X134370000Y-84130000D01*
X134370000Y-87530000D02*
X134370000Y-85470000D01*
X129630000Y-88870000D02*
X129630000Y-88470000D01*
X134370000Y-88870000D02*
X134370000Y-88470000D01*
X129630000Y-87530000D02*
X129630000Y-85470000D01*
X129630000Y-84130000D02*
X129630000Y-84530000D01*
%TO.C,C33*%
X82010000Y-114859420D02*
X82010000Y-115140580D01*
X80990000Y-114859420D02*
X80990000Y-115140580D01*
%TO.C,R28*%
X87522500Y-105262742D02*
X87522500Y-105737258D01*
X86477500Y-105262742D02*
X86477500Y-105737258D01*
%TO.C,C12*%
X156735000Y-84761252D02*
X156735000Y-84238748D01*
X155265000Y-84761252D02*
X155265000Y-84238748D01*
%TO.C,R44*%
X152012742Y-93227500D02*
X152487258Y-93227500D01*
X152012742Y-92182500D02*
X152487258Y-92182500D01*
%TO.C,C4*%
X83738748Y-72235000D02*
X84261252Y-72235000D01*
X83738748Y-70765000D02*
X84261252Y-70765000D01*
%TO.C,C16*%
X144360000Y-103640000D02*
X141510000Y-103640000D01*
X144360000Y-111295563D02*
X144360000Y-103640000D01*
X135640000Y-103640000D02*
X138490000Y-103640000D01*
X136704437Y-112360000D02*
X138490000Y-112360000D01*
X136990000Y-113100000D02*
X137990000Y-113100000D01*
X135640000Y-111295563D02*
X135640000Y-103640000D01*
X143295563Y-112360000D02*
X141510000Y-112360000D01*
X136704437Y-112360000D02*
X135640000Y-111295563D01*
X143295563Y-112360000D02*
X144360000Y-111295563D01*
X137490000Y-113600000D02*
X137490000Y-112600000D01*
%TO.C,D1*%
X71859420Y-59990000D02*
X72140580Y-59990000D01*
X71859420Y-61010000D02*
X72140580Y-61010000D01*
%TO.C,R23*%
X87522500Y-81262742D02*
X87522500Y-81737258D01*
X86477500Y-81262742D02*
X86477500Y-81737258D01*
%TO.C,C9*%
X83738748Y-95765000D02*
X84261252Y-95765000D01*
X83738748Y-97235000D02*
X84261252Y-97235000D01*
%TO.C,C13*%
X156211252Y-66265000D02*
X155688748Y-66265000D01*
X156211252Y-67735000D02*
X155688748Y-67735000D01*
%TO.C,U3*%
X75440000Y-94000000D02*
X75440000Y-92050000D01*
X80560000Y-94000000D02*
X80560000Y-90550000D01*
X80560000Y-94000000D02*
X80560000Y-95950000D01*
X75440000Y-94000000D02*
X75440000Y-95950000D01*
%TO.C,R48*%
X127237258Y-70022500D02*
X126762742Y-70022500D01*
X127237258Y-68977500D02*
X126762742Y-68977500D01*
%TO.C,P7*%
X125053000Y-63700000D02*
X133947000Y-63700000D01*
X125053000Y-57100000D02*
X125053000Y-63700000D01*
X133947000Y-63700000D02*
X133947000Y-57100000D01*
X133947000Y-57100000D02*
X125053000Y-57100000D01*
%TO.C,R38*%
X71762742Y-101522500D02*
X72237258Y-101522500D01*
X71762742Y-100477500D02*
X72237258Y-100477500D01*
%TO.C,C17*%
X155490000Y-108429420D02*
X155490000Y-108710580D01*
X156510000Y-108429420D02*
X156510000Y-108710580D01*
%TO.C,R36*%
X71762742Y-98977500D02*
X72237258Y-98977500D01*
X71762742Y-100022500D02*
X72237258Y-100022500D01*
%TO.C,R19*%
X151512742Y-77727500D02*
X151987258Y-77727500D01*
X151512742Y-78772500D02*
X151987258Y-78772500D01*
%TO.C,C5*%
X83738748Y-80265000D02*
X84261252Y-80265000D01*
X83738748Y-81735000D02*
X84261252Y-81735000D01*
%TO.C,Q3*%
X147480000Y-93045000D02*
X147480000Y-93705000D01*
X147480000Y-93045000D02*
X145450000Y-93045000D01*
X146070000Y-95365000D02*
X147480000Y-95365000D01*
X147480000Y-94705000D02*
X147480000Y-95365000D01*
%TO.C,J4*%
X137400000Y-69290000D02*
X150600000Y-69290000D01*
X137400000Y-57220000D02*
X137400000Y-69290000D01*
X150600000Y-57220000D02*
X137400000Y-57220000D01*
X150600000Y-69290000D02*
X150600000Y-57220000D01*
%TO.C,U2*%
X75440000Y-84500000D02*
X75440000Y-82550000D01*
X80560000Y-84500000D02*
X80560000Y-86450000D01*
X75440000Y-84500000D02*
X75440000Y-86450000D01*
X80560000Y-84500000D02*
X80560000Y-81050000D01*
%TO.C,R11*%
X114762742Y-76227500D02*
X115237258Y-76227500D01*
X114762742Y-77272500D02*
X115237258Y-77272500D01*
%TO.C,R10*%
X114762742Y-74522500D02*
X115237258Y-74522500D01*
X114762742Y-73477500D02*
X115237258Y-73477500D01*
%TO.C,C32*%
X82010000Y-105359420D02*
X82010000Y-105640580D01*
X80990000Y-105359420D02*
X80990000Y-105640580D01*
%TO.C,U10*%
X82390000Y-111600000D02*
X82390000Y-114050000D01*
X85610000Y-113400000D02*
X85610000Y-111600000D01*
%TO.C,R4*%
X71762742Y-62977500D02*
X72237258Y-62977500D01*
X71762742Y-64022500D02*
X72237258Y-64022500D01*
%TO.C,R40*%
X155977500Y-96737258D02*
X155977500Y-96262742D01*
X157022500Y-96737258D02*
X157022500Y-96262742D01*
%TO.C,J5*%
X101080000Y-91020000D02*
X101080000Y-91080000D01*
X98420000Y-91020000D02*
X101080000Y-91020000D01*
X98420000Y-89750000D02*
X98420000Y-88420000D01*
X98420000Y-91080000D02*
X101080000Y-91080000D01*
X98420000Y-88420000D02*
X99750000Y-88420000D01*
X98420000Y-91020000D02*
X98420000Y-91080000D01*
%TO.C,C3*%
X118238748Y-80235000D02*
X118761252Y-80235000D01*
X118238748Y-78765000D02*
X118761252Y-78765000D01*
%TO.C,SW6*%
X134370000Y-95870000D02*
X134370000Y-91130000D01*
X134370000Y-95870000D02*
X133970000Y-95870000D01*
X129630000Y-95870000D02*
X130030000Y-95870000D01*
X133030000Y-95870000D02*
X130970000Y-95870000D01*
X134370000Y-91130000D02*
X133970000Y-91130000D01*
X129630000Y-95870000D02*
X129630000Y-91130000D01*
X129630000Y-91130000D02*
X130030000Y-91130000D01*
X133030000Y-91130000D02*
X130970000Y-91130000D01*
%TO.C,Q1*%
X149750000Y-96475000D02*
X150410000Y-96475000D01*
X150410000Y-97885000D02*
X150410000Y-96475000D01*
X148090000Y-96475000D02*
X148090000Y-98505000D01*
X148090000Y-96475000D02*
X148750000Y-96475000D01*
%TO.C,R35*%
X71762742Y-109477500D02*
X72237258Y-109477500D01*
X71762742Y-110522500D02*
X72237258Y-110522500D01*
%TO.C,C8*%
X83738748Y-86265000D02*
X84261252Y-86265000D01*
X83738748Y-87735000D02*
X84261252Y-87735000D01*
%TO.C,C23*%
X83738748Y-110235000D02*
X84261252Y-110235000D01*
X83738748Y-108765000D02*
X84261252Y-108765000D01*
%TO.C,D2*%
X71859420Y-73010000D02*
X72140580Y-73010000D01*
X71859420Y-71990000D02*
X72140580Y-71990000D01*
%TO.C,R17*%
X156237258Y-72022500D02*
X155762742Y-72022500D01*
X156237258Y-70977500D02*
X155762742Y-70977500D01*
%TO.C,R14*%
X86477500Y-86262742D02*
X86477500Y-86737258D01*
X87522500Y-86262742D02*
X87522500Y-86737258D01*
%TO.C,J6*%
X97080000Y-110080000D02*
X95750000Y-110080000D01*
X97080000Y-107480000D02*
X94420000Y-107480000D01*
X97080000Y-107480000D02*
X97080000Y-99800000D01*
X94420000Y-107480000D02*
X94420000Y-99800000D01*
X97080000Y-108750000D02*
X97080000Y-110080000D01*
X97080000Y-99800000D02*
X94420000Y-99800000D01*
%TO.C,C11*%
X160738748Y-66265000D02*
X161261252Y-66265000D01*
X160738748Y-67735000D02*
X161261252Y-67735000D01*
%TO.C,C10*%
X120990000Y-109140580D02*
X120990000Y-108859420D01*
X122010000Y-109140580D02*
X122010000Y-108859420D01*
%TO.C,P2*%
X61905000Y-71553000D02*
X61905000Y-80447000D01*
X68505000Y-71553000D02*
X61905000Y-71553000D01*
X61905000Y-80447000D02*
X68505000Y-80447000D01*
X68505000Y-80447000D02*
X68505000Y-71553000D01*
%TO.C,R21*%
X96477500Y-87762742D02*
X96477500Y-88237258D01*
X97522500Y-87762742D02*
X97522500Y-88237258D01*
%TO.C,R2*%
X71762742Y-77522500D02*
X72237258Y-77522500D01*
X71762742Y-76477500D02*
X72237258Y-76477500D01*
%TO.C,SW2*%
X141370000Y-95870000D02*
X141370000Y-91130000D01*
X141370000Y-95870000D02*
X140970000Y-95870000D01*
X136630000Y-91130000D02*
X137030000Y-91130000D01*
X140030000Y-91130000D02*
X137970000Y-91130000D01*
X136630000Y-95870000D02*
X136630000Y-91130000D01*
X140030000Y-95870000D02*
X137970000Y-95870000D01*
X136630000Y-95870000D02*
X137030000Y-95870000D01*
X141370000Y-91130000D02*
X140970000Y-91130000D01*
%TO.C,R39*%
X71762742Y-112477500D02*
X72237258Y-112477500D01*
X71762742Y-113522500D02*
X72237258Y-113522500D01*
%TO.C,R30*%
X153977500Y-96737258D02*
X153977500Y-96262742D01*
X155022500Y-96737258D02*
X155022500Y-96262742D01*
%TO.C,L1*%
X147300000Y-82400000D02*
X147300000Y-81600000D01*
X139700000Y-82400000D02*
X139700000Y-81550000D01*
%TO.C,R29*%
X87522500Y-114762742D02*
X87522500Y-115237258D01*
X86477500Y-114762742D02*
X86477500Y-115237258D01*
%TO.C,C1*%
X118238748Y-74735000D02*
X118761252Y-74735000D01*
X118238748Y-73265000D02*
X118761252Y-73265000D01*
%TO.C,R5*%
X71762742Y-76022500D02*
X72237258Y-76022500D01*
X71762742Y-74977500D02*
X72237258Y-74977500D01*
%TO.C,U4*%
X82390000Y-73600000D02*
X82390000Y-76050000D01*
X85610000Y-75400000D02*
X85610000Y-73600000D01*
%TO.C,R6*%
X71762742Y-86977500D02*
X72237258Y-86977500D01*
X71762742Y-88022500D02*
X72237258Y-88022500D01*
%TO.C,R37*%
X71762742Y-112022500D02*
X72237258Y-112022500D01*
X71762742Y-110977500D02*
X72237258Y-110977500D01*
%TO.C,J7*%
X105470000Y-90830000D02*
X105470000Y-88170000D01*
X102870000Y-90830000D02*
X102870000Y-89500000D01*
X104200000Y-90830000D02*
X102870000Y-90830000D01*
X105470000Y-90830000D02*
X113150000Y-90830000D01*
X105470000Y-88170000D02*
X113150000Y-88170000D01*
X113150000Y-90830000D02*
X113150000Y-88170000D01*
%TO.C,R13*%
X86477500Y-76762742D02*
X86477500Y-77237258D01*
X87522500Y-76762742D02*
X87522500Y-77237258D01*
%TO.C,R46*%
X122022500Y-103237258D02*
X122022500Y-102762742D01*
X120977500Y-103237258D02*
X120977500Y-102762742D01*
%TO.C,U11*%
X150200000Y-104900000D02*
X150200000Y-104000000D01*
X150200000Y-102000000D02*
X150200000Y-101200000D01*
X154500000Y-104800000D02*
X154800000Y-104800000D01*
X154500000Y-101200000D02*
X154800000Y-101200000D01*
X150200000Y-101200000D02*
X150500000Y-101200000D01*
X154800000Y-102000000D02*
X154800000Y-101200000D01*
X154800000Y-104800000D02*
X154800000Y-104000000D01*
%TO.C,P6*%
X68505000Y-107553000D02*
X61905000Y-107553000D01*
X61905000Y-116447000D02*
X68505000Y-116447000D01*
X68505000Y-116447000D02*
X68505000Y-107553000D01*
X61905000Y-107553000D02*
X61905000Y-116447000D01*
%TO.C,C19*%
X83738748Y-106735000D02*
X84261252Y-106735000D01*
X83738748Y-105265000D02*
X84261252Y-105265000D01*
%TO.C,R15*%
X86477500Y-95762742D02*
X86477500Y-96237258D01*
X87522500Y-95762742D02*
X87522500Y-96237258D01*
%TO.C,D3*%
X71859420Y-83990000D02*
X72140580Y-83990000D01*
X71859420Y-85010000D02*
X72140580Y-85010000D01*
%TO.C,U1*%
X75440000Y-75000000D02*
X75440000Y-73050000D01*
X80560000Y-75000000D02*
X80560000Y-71550000D01*
X80560000Y-75000000D02*
X80560000Y-76950000D01*
X75440000Y-75000000D02*
X75440000Y-76950000D01*
%TO.C,R33*%
X114762742Y-82977500D02*
X115237258Y-82977500D01*
X114762742Y-84022500D02*
X115237258Y-84022500D01*
%TO.C,R3*%
X71762742Y-89522500D02*
X72237258Y-89522500D01*
X71762742Y-88477500D02*
X72237258Y-88477500D01*
%TO.C,C18*%
X145265000Y-103238748D02*
X145265000Y-103761252D01*
X146735000Y-103238748D02*
X146735000Y-103761252D01*
%TO.C,D5*%
X71859420Y-107990000D02*
X72140580Y-107990000D01*
X71859420Y-109010000D02*
X72140580Y-109010000D01*
%TO.C,C2*%
X118238748Y-76015000D02*
X118761252Y-76015000D01*
X118238748Y-77485000D02*
X118761252Y-77485000D01*
%TO.C,C6*%
X83738748Y-91235000D02*
X84261252Y-91235000D01*
X83738748Y-89765000D02*
X84261252Y-89765000D01*
%TO.C,R41*%
X157022500Y-93262742D02*
X157022500Y-93737258D01*
X155977500Y-93262742D02*
X155977500Y-93737258D01*
%TO.C,U12*%
X80560000Y-103500000D02*
X80560000Y-100050000D01*
X75440000Y-103500000D02*
X75440000Y-105450000D01*
X80560000Y-103500000D02*
X80560000Y-105450000D01*
X75440000Y-103500000D02*
X75440000Y-101550000D01*
%TO.C,R26*%
X87522500Y-109937742D02*
X87522500Y-110412258D01*
X86477500Y-109937742D02*
X86477500Y-110412258D01*
%TO.C,C35*%
X127261252Y-67735000D02*
X126738748Y-67735000D01*
X127261252Y-66265000D02*
X126738748Y-66265000D01*
%TO.C,R24*%
X86477500Y-90762742D02*
X86477500Y-91237258D01*
X87522500Y-90762742D02*
X87522500Y-91237258D01*
%TO.C,C14*%
X160738748Y-68765000D02*
X161261252Y-68765000D01*
X160738748Y-70235000D02*
X161261252Y-70235000D01*
%TO.C,SW3*%
X122630000Y-91130000D02*
X123030000Y-91130000D01*
X127370000Y-95870000D02*
X126970000Y-95870000D01*
X122630000Y-95870000D02*
X122630000Y-91130000D01*
X126030000Y-95870000D02*
X123970000Y-95870000D01*
X122630000Y-95870000D02*
X123030000Y-95870000D01*
X127370000Y-91130000D02*
X126970000Y-91130000D01*
X127370000Y-95870000D02*
X127370000Y-91130000D01*
X126030000Y-91130000D02*
X123970000Y-91130000D01*
%TO.C,Q4*%
X147910000Y-91935000D02*
X147910000Y-89905000D01*
X145590000Y-90525000D02*
X145590000Y-91935000D01*
X147910000Y-91935000D02*
X147250000Y-91935000D01*
X146250000Y-91935000D02*
X145590000Y-91935000D01*
%TO.C,C34*%
X131738748Y-66265000D02*
X132261252Y-66265000D01*
X131738748Y-67735000D02*
X132261252Y-67735000D01*
%TO.C,C20*%
X83738748Y-114765000D02*
X84261252Y-114765000D01*
X83738748Y-116235000D02*
X84261252Y-116235000D01*
%TO.C,R31*%
X152012742Y-96682500D02*
X152487258Y-96682500D01*
X152012742Y-97727500D02*
X152487258Y-97727500D01*
%TO.C,C30*%
X82010000Y-86359420D02*
X82010000Y-86640580D01*
X80990000Y-86359420D02*
X80990000Y-86640580D01*
%TO.C,R32*%
X114762742Y-82022500D02*
X115237258Y-82022500D01*
X114762742Y-80977500D02*
X115237258Y-80977500D01*
%TO.C,Q2*%
X145590000Y-96475000D02*
X146250000Y-96475000D01*
X147910000Y-97885000D02*
X147910000Y-96475000D01*
X147250000Y-96475000D02*
X147910000Y-96475000D01*
X145590000Y-96475000D02*
X145590000Y-98505000D01*
%TO.C,U8*%
X98880000Y-117865000D02*
X98880000Y-111445000D01*
X117120000Y-92900000D02*
X117120000Y-92120000D01*
X117120000Y-92120000D02*
X116120000Y-92120000D01*
X98880000Y-92900000D02*
X98880000Y-92120000D01*
X117120000Y-117865000D02*
X98880000Y-117865000D01*
X98880000Y-92120000D02*
X99880000Y-92120000D01*
X117120000Y-117865000D02*
X117120000Y-111445000D01*
X117120000Y-111445000D02*
X117500000Y-111445000D01*
%TO.C,C28*%
X166295563Y-101140000D02*
X167360000Y-102204437D01*
X158640000Y-109860000D02*
X161490000Y-109860000D01*
X158640000Y-102204437D02*
X158640000Y-109860000D01*
X167360000Y-109860000D02*
X164510000Y-109860000D01*
X166295563Y-101140000D02*
X164510000Y-101140000D01*
X159704437Y-101140000D02*
X161490000Y-101140000D01*
X167360000Y-102204437D02*
X167360000Y-109860000D01*
X159704437Y-101140000D02*
X158640000Y-102204437D01*
X166010000Y-100400000D02*
X165010000Y-100400000D01*
X165510000Y-99900000D02*
X165510000Y-100900000D01*
%TO.C,R34*%
X71762742Y-98522500D02*
X72237258Y-98522500D01*
X71762742Y-97477500D02*
X72237258Y-97477500D01*
%TO.C,U5*%
X85610000Y-84900000D02*
X85610000Y-83100000D01*
X82390000Y-83100000D02*
X82390000Y-85550000D01*
%TO.C,R8*%
X71762742Y-74522500D02*
X72237258Y-74522500D01*
X71762742Y-73477500D02*
X72237258Y-73477500D01*
%TO.C,R1*%
X71762742Y-64477500D02*
X72237258Y-64477500D01*
X71762742Y-65522500D02*
X72237258Y-65522500D01*
%TO.C,P5*%
X61905000Y-95553000D02*
X61905000Y-104447000D01*
X68505000Y-104447000D02*
X68505000Y-95553000D01*
X68505000Y-95553000D02*
X61905000Y-95553000D01*
X61905000Y-104447000D02*
X68505000Y-104447000D01*
%TO.C,C15*%
X150238748Y-79515000D02*
X150761252Y-79515000D01*
X150238748Y-80985000D02*
X150761252Y-80985000D01*
%TO.C,C36*%
X131738748Y-70235000D02*
X132261252Y-70235000D01*
X131738748Y-68765000D02*
X132261252Y-68765000D01*
%TO.C,C26*%
X155010000Y-93640580D02*
X155010000Y-93359420D01*
X153990000Y-93640580D02*
X153990000Y-93359420D01*
%TO.C,U13*%
X75440000Y-113000000D02*
X75440000Y-114950000D01*
X75440000Y-113000000D02*
X75440000Y-111050000D01*
X80560000Y-113000000D02*
X80560000Y-114950000D01*
X80560000Y-113000000D02*
X80560000Y-109550000D01*
%TO.C,R18*%
X156237258Y-68977500D02*
X155762742Y-68977500D01*
X156237258Y-70022500D02*
X155762742Y-70022500D01*
%TO.C,C21*%
X155010000Y-108710580D02*
X155010000Y-108429420D01*
X153990000Y-108710580D02*
X153990000Y-108429420D01*
%TO.C,R20*%
X154762742Y-78772500D02*
X155237258Y-78772500D01*
X154762742Y-77727500D02*
X155237258Y-77727500D01*
%TO.C,R9*%
X71762742Y-86522500D02*
X72237258Y-86522500D01*
X71762742Y-85477500D02*
X72237258Y-85477500D01*
%TO.C,R42*%
X152012742Y-95182500D02*
X152487258Y-95182500D01*
X152012742Y-96227500D02*
X152487258Y-96227500D01*
%TO.C,P3*%
X61905000Y-92447000D02*
X68505000Y-92447000D01*
X68505000Y-92447000D02*
X68505000Y-83553000D01*
X61905000Y-83553000D02*
X61905000Y-92447000D01*
X68505000Y-83553000D02*
X61905000Y-83553000D01*
%TO.C,R43*%
X152012742Y-94727500D02*
X152487258Y-94727500D01*
X152012742Y-93682500D02*
X152487258Y-93682500D01*
%TO.C,J1*%
X121600000Y-69290000D02*
X121600000Y-57220000D01*
X108400000Y-57220000D02*
X108400000Y-69290000D01*
X108400000Y-69290000D02*
X121600000Y-69290000D01*
X121600000Y-57220000D02*
X108400000Y-57220000D01*
%TO.C,Q5*%
X150410000Y-91935000D02*
X149750000Y-91935000D01*
X148090000Y-90525000D02*
X148090000Y-91935000D01*
X150410000Y-91935000D02*
X150410000Y-89905000D01*
X148750000Y-91935000D02*
X148090000Y-91935000D01*
%TO.C,P1*%
X68505000Y-68447000D02*
X68505000Y-59553000D01*
X61905000Y-68447000D02*
X68505000Y-68447000D01*
X61905000Y-59553000D02*
X61905000Y-68447000D01*
X68505000Y-59553000D02*
X61905000Y-59553000D01*
%TO.C,R7*%
X71762742Y-61477500D02*
X72237258Y-61477500D01*
X71762742Y-62522500D02*
X72237258Y-62522500D01*
%TO.C,SW4*%
X134370000Y-102870000D02*
X134370000Y-102470000D01*
X134370000Y-99470000D02*
X134370000Y-101530000D01*
X134370000Y-102870000D02*
X129630000Y-102870000D01*
X129630000Y-98130000D02*
X129630000Y-98530000D01*
X134370000Y-98130000D02*
X129630000Y-98130000D01*
X129630000Y-99470000D02*
X129630000Y-101530000D01*
X129630000Y-102870000D02*
X129630000Y-102470000D01*
X134370000Y-98130000D02*
X134370000Y-98530000D01*
%TO.C,C25*%
X118238748Y-82765000D02*
X118761252Y-82765000D01*
X118238748Y-84235000D02*
X118761252Y-84235000D01*
%TO.C,C24*%
X118238748Y-80765000D02*
X118761252Y-80765000D01*
X118238748Y-82235000D02*
X118761252Y-82235000D01*
%TO.C,R27*%
X146262742Y-106522500D02*
X146737258Y-106522500D01*
X146262742Y-105477500D02*
X146737258Y-105477500D01*
%TO.C,C22*%
X83738748Y-99265000D02*
X84261252Y-99265000D01*
X83738748Y-100735000D02*
X84261252Y-100735000D01*
%TO.C,J2*%
X168900000Y-97700000D02*
X168900000Y-84850000D01*
X168900000Y-84850000D02*
X166350000Y-82000000D01*
X160600000Y-84850000D02*
X160600000Y-97700000D01*
X166350000Y-82000000D02*
X163200000Y-82000000D01*
X160600000Y-97700000D02*
X168900000Y-97700000D01*
X163200000Y-82000000D02*
X160600000Y-84850000D01*
%TD*%
M02*
