%TF.GenerationSoftware,KiCad,Pcbnew,(5.99.0-10506-gb986797469)*%
%TF.CreationDate,2021-11-30T23:31:34+01:00*%
%TF.ProjectId,Power_Over_Regular_Normal_HUB,506f7765-725f-44f7-9665-725f52656775,rev?*%
%TF.SameCoordinates,Original*%
%TF.FileFunction,Soldermask,Bot*%
%TF.FilePolarity,Negative*%
%FSLAX46Y46*%
G04 Gerber Fmt 4.6, Leading zero omitted, Abs format (unit mm)*
G04 Created by KiCad (PCBNEW (5.99.0-10506-gb986797469)) date 2021-11-30 23:31:34*
%MOMM*%
%LPD*%
G01*
G04 APERTURE LIST*
G04 Aperture macros list*
%AMRoundRect*
0 Rectangle with rounded corners*
0 $1 Rounding radius*
0 $2 $3 $4 $5 $6 $7 $8 $9 X,Y pos of 4 corners*
0 Add a 4 corners polygon primitive as box body*
4,1,4,$2,$3,$4,$5,$6,$7,$8,$9,$2,$3,0*
0 Add four circle primitives for the rounded corners*
1,1,$1+$1,$2,$3*
1,1,$1+$1,$4,$5*
1,1,$1+$1,$6,$7*
1,1,$1+$1,$8,$9*
0 Add four rect primitives between the rounded corners*
20,1,$1+$1,$2,$3,$4,$5,0*
20,1,$1+$1,$4,$5,$6,$7,0*
20,1,$1+$1,$6,$7,$8,$9,0*
20,1,$1+$1,$8,$9,$2,$3,0*%
G04 Aperture macros list end*
%ADD10O,1.000000X1.700000*%
%ADD11O,1.900000X1.100000*%
%ADD12C,1.100000*%
%ADD13O,1.100000X1.800000*%
%ADD14R,1.700000X1.700000*%
%ADD15O,1.700000X1.700000*%
%ADD16O,1.700000X1.000000*%
%ADD17RoundRect,1.500000X-1.500000X1.500000X-1.500000X-1.500000X1.500000X-1.500000X1.500000X1.500000X0*%
%ADD18C,6.000000*%
G04 APERTURE END LIST*
D10*
%TO.C,P4*%
X154180000Y-59700000D03*
X162820000Y-59700000D03*
X162820000Y-63500000D03*
X154180000Y-63500000D03*
%TD*%
%TO.C,P7*%
X125180000Y-59700000D03*
X125180000Y-63500000D03*
X133820000Y-63500000D03*
X133820000Y-59700000D03*
%TD*%
D11*
%TO.C,J4*%
X148250000Y-69290000D03*
D12*
X145920000Y-69290000D03*
X142080000Y-69290000D03*
D11*
X139750000Y-69290000D03*
D12*
X144000000Y-69290000D03*
D13*
X150400000Y-68410000D03*
X137600000Y-61860000D03*
X150400000Y-61860000D03*
X137600000Y-68410000D03*
%TD*%
D14*
%TO.C,J5*%
X99750000Y-89750000D03*
%TD*%
%TO.C,J6*%
X95750000Y-108750000D03*
D15*
X95750000Y-106210000D03*
X95750000Y-103670000D03*
X95750000Y-101130000D03*
%TD*%
D16*
%TO.C,P2*%
X68305000Y-80320000D03*
X64505000Y-80320000D03*
X68305000Y-71680000D03*
X64505000Y-71680000D03*
%TD*%
D14*
%TO.C,J7*%
X104200000Y-89500000D03*
D15*
X106740000Y-89500000D03*
X109280000Y-89500000D03*
X111820000Y-89500000D03*
%TD*%
D16*
%TO.C,P6*%
X64505000Y-107680000D03*
X68305000Y-116320000D03*
X68305000Y-107680000D03*
X64505000Y-116320000D03*
%TD*%
%TO.C,P5*%
X64505000Y-104320000D03*
X68305000Y-95680000D03*
X64505000Y-95680000D03*
X68305000Y-104320000D03*
%TD*%
%TO.C,P3*%
X64505000Y-92320000D03*
X68305000Y-83680000D03*
X68305000Y-92320000D03*
X64505000Y-83680000D03*
%TD*%
D11*
%TO.C,J1*%
X119250000Y-69290000D03*
D12*
X116920000Y-69290000D03*
X113080000Y-69290000D03*
D11*
X110750000Y-69290000D03*
D13*
X121400000Y-61860000D03*
X108600000Y-68410000D03*
X108600000Y-61860000D03*
X121400000Y-68410000D03*
D12*
X115000000Y-69290000D03*
%TD*%
D16*
%TO.C,P1*%
X64505000Y-68320000D03*
X64505000Y-59680000D03*
X68305000Y-59680000D03*
X68305000Y-68320000D03*
%TD*%
D17*
%TO.C,J2*%
X164750000Y-86250000D03*
D18*
X164750000Y-93450000D03*
%TD*%
G36*
X162517183Y-61268907D02*
G01*
X162528996Y-61278996D01*
X163471004Y-62221004D01*
X163498781Y-62275521D01*
X163500000Y-62291008D01*
X163500000Y-66458992D01*
X163481093Y-66517183D01*
X163471004Y-66528996D01*
X162528996Y-67471004D01*
X162474479Y-67498781D01*
X162458992Y-67500000D01*
X83265680Y-67500000D01*
X83252995Y-67504122D01*
X83250000Y-67508243D01*
X83250000Y-116458992D01*
X83231093Y-116517183D01*
X83221004Y-116528996D01*
X82278996Y-117471004D01*
X82224479Y-117498781D01*
X82208992Y-117500000D01*
X80041008Y-117500000D01*
X79982817Y-117481093D01*
X79971004Y-117471004D01*
X79028996Y-116528996D01*
X79001219Y-116474479D01*
X79000000Y-116458992D01*
X79000000Y-62291008D01*
X79018907Y-62232817D01*
X79028996Y-62221004D01*
X79971004Y-61278996D01*
X80025521Y-61251219D01*
X80041008Y-61250000D01*
X162458992Y-61250000D01*
X162517183Y-61268907D01*
G37*
M02*
