%TF.GenerationSoftware,KiCad,Pcbnew,(5.99.0-10506-gb986797469)*%
%TF.CreationDate,2021-11-30T23:31:34+01:00*%
%TF.ProjectId,Power_Over_Regular_Normal_HUB,506f7765-725f-44f7-9665-725f52656775,rev?*%
%TF.SameCoordinates,Original*%
%TF.FileFunction,Copper,L2,Bot*%
%TF.FilePolarity,Positive*%
%FSLAX46Y46*%
G04 Gerber Fmt 4.6, Leading zero omitted, Abs format (unit mm)*
G04 Created by KiCad (PCBNEW (5.99.0-10506-gb986797469)) date 2021-11-30 23:31:34*
%MOMM*%
%LPD*%
G01*
G04 APERTURE LIST*
G04 Aperture macros list*
%AMRoundRect*
0 Rectangle with rounded corners*
0 $1 Rounding radius*
0 $2 $3 $4 $5 $6 $7 $8 $9 X,Y pos of 4 corners*
0 Add a 4 corners polygon primitive as box body*
4,1,4,$2,$3,$4,$5,$6,$7,$8,$9,$2,$3,0*
0 Add four circle primitives for the rounded corners*
1,1,$1+$1,$2,$3*
1,1,$1+$1,$4,$5*
1,1,$1+$1,$6,$7*
1,1,$1+$1,$8,$9*
0 Add four rect primitives between the rounded corners*
20,1,$1+$1,$2,$3,$4,$5,0*
20,1,$1+$1,$4,$5,$6,$7,0*
20,1,$1+$1,$6,$7,$8,$9,0*
20,1,$1+$1,$8,$9,$2,$3,0*%
G04 Aperture macros list end*
%TA.AperFunction,ComponentPad*%
%ADD10O,1.000000X1.700000*%
%TD*%
%TA.AperFunction,ComponentPad*%
%ADD11O,1.900000X1.100000*%
%TD*%
%TA.AperFunction,ComponentPad*%
%ADD12C,1.100000*%
%TD*%
%TA.AperFunction,ComponentPad*%
%ADD13O,1.100000X1.800000*%
%TD*%
%TA.AperFunction,ComponentPad*%
%ADD14R,1.700000X1.700000*%
%TD*%
%TA.AperFunction,ComponentPad*%
%ADD15O,1.700000X1.700000*%
%TD*%
%TA.AperFunction,ComponentPad*%
%ADD16O,1.700000X1.000000*%
%TD*%
%TA.AperFunction,ComponentPad*%
%ADD17RoundRect,1.500000X-1.500000X1.500000X-1.500000X-1.500000X1.500000X-1.500000X1.500000X1.500000X0*%
%TD*%
%TA.AperFunction,ComponentPad*%
%ADD18C,6.000000*%
%TD*%
%TA.AperFunction,ViaPad*%
%ADD19C,0.800000*%
%TD*%
%TA.AperFunction,Conductor*%
%ADD20C,0.200000*%
%TD*%
%TA.AperFunction,Conductor*%
%ADD21C,0.800000*%
%TD*%
G04 APERTURE END LIST*
D10*
%TO.P,P4,S1,SHIELD*%
%TO.N,GND*%
X154180000Y-59700000D03*
X162820000Y-59700000D03*
X162820000Y-63500000D03*
X154180000Y-63500000D03*
%TD*%
%TO.P,P7,S1,SHIELD*%
%TO.N,GND*%
X125180000Y-59700000D03*
X125180000Y-63500000D03*
X133820000Y-63500000D03*
X133820000Y-59700000D03*
%TD*%
D11*
%TO.P,J4,1,VBUS*%
%TO.N,+5V*%
X148250000Y-69290000D03*
D12*
%TO.P,J4,2,D-*%
%TO.N,unconnected-(J4-Pad2)*%
X145920000Y-69290000D03*
%TO.P,J4,3,D+*%
%TO.N,unconnected-(J4-Pad3)*%
X142080000Y-69290000D03*
D11*
%TO.P,J4,4,GND*%
%TO.N,GND*%
X139750000Y-69290000D03*
D12*
%TO.P,J4,5,Shield*%
X144000000Y-69290000D03*
D13*
X150400000Y-68410000D03*
X137600000Y-61860000D03*
X150400000Y-61860000D03*
X137600000Y-68410000D03*
%TD*%
D14*
%TO.P,J5,1,Pin_1*%
%TO.N,Net-(J5-Pad1)*%
X99750000Y-89750000D03*
%TD*%
%TO.P,J6,1,Pin_1*%
%TO.N,GND*%
X95750000Y-108750000D03*
D15*
%TO.P,J6,2,Pin_2*%
%TO.N,+3V3*%
X95750000Y-106210000D03*
%TO.P,J6,3,Pin_3*%
%TO.N,Net-(J6-Pad3)*%
X95750000Y-103670000D03*
%TO.P,J6,4,Pin_4*%
%TO.N,Net-(J6-Pad4)*%
X95750000Y-101130000D03*
%TD*%
D16*
%TO.P,P2,S1,SHIELD*%
%TO.N,GND*%
X68305000Y-80320000D03*
X64505000Y-80320000D03*
X68305000Y-71680000D03*
X64505000Y-71680000D03*
%TD*%
D14*
%TO.P,J7,1,Pin_1*%
%TO.N,GND*%
X104200000Y-89500000D03*
D15*
%TO.P,J7,2,Pin_2*%
%TO.N,+3V3*%
X106740000Y-89500000D03*
%TO.P,J7,3,Pin_3*%
%TO.N,/SCL*%
X109280000Y-89500000D03*
%TO.P,J7,4,Pin_4*%
%TO.N,/SDA*%
X111820000Y-89500000D03*
%TD*%
D16*
%TO.P,P6,S1,SHIELD*%
%TO.N,GND*%
X64505000Y-107680000D03*
X68305000Y-116320000D03*
X68305000Y-107680000D03*
X64505000Y-116320000D03*
%TD*%
%TO.P,P5,S1,SHIELD*%
%TO.N,GND*%
X64505000Y-104320000D03*
X68305000Y-95680000D03*
X64505000Y-95680000D03*
X68305000Y-104320000D03*
%TD*%
%TO.P,P3,S1,SHIELD*%
%TO.N,GND*%
X64505000Y-92320000D03*
X68305000Y-83680000D03*
X68305000Y-92320000D03*
X64505000Y-83680000D03*
%TD*%
D11*
%TO.P,J1,1,VBUS*%
%TO.N,+5V*%
X119250000Y-69290000D03*
D12*
%TO.P,J1,2,D-*%
%TO.N,unconnected-(J1-Pad2)*%
X116920000Y-69290000D03*
%TO.P,J1,3,D+*%
%TO.N,unconnected-(J1-Pad3)*%
X113080000Y-69290000D03*
D11*
%TO.P,J1,4,GND*%
%TO.N,GND*%
X110750000Y-69290000D03*
D13*
%TO.P,J1,5,Shield*%
X121400000Y-61860000D03*
X108600000Y-68410000D03*
X108600000Y-61860000D03*
X121400000Y-68410000D03*
D12*
X115000000Y-69290000D03*
%TD*%
D16*
%TO.P,P1,S1,SHIELD*%
%TO.N,GND*%
X64505000Y-68320000D03*
X64505000Y-59680000D03*
X68305000Y-59680000D03*
X68305000Y-68320000D03*
%TD*%
D17*
%TO.P,J2,1,Pin_1*%
%TO.N,GND*%
X164750000Y-86250000D03*
D18*
%TO.P,J2,2,Pin_2*%
%TO.N,Net-(C28-Pad1)*%
X164750000Y-93450000D03*
%TD*%
D19*
%TO.N,/C1*%
X114750000Y-101250000D03*
X115400980Y-85750000D03*
X114500497Y-90300500D03*
X116500000Y-74000000D03*
%TO.N,GND*%
X151470498Y-84750000D03*
X119500000Y-89500000D03*
X84000000Y-102750000D03*
X118250000Y-111000000D03*
X88500000Y-110250000D03*
X69500000Y-117250000D03*
X90250000Y-73750000D03*
X160500000Y-87500000D03*
X96750000Y-60250000D03*
X123500000Y-105250000D03*
X93250000Y-111250000D03*
X128000000Y-86500000D03*
X164250000Y-68750000D03*
X153750000Y-80000000D03*
X114250000Y-111000000D03*
X135250000Y-77750000D03*
X114250000Y-95000000D03*
X135750000Y-68500000D03*
X112500000Y-108250000D03*
X148250000Y-92000000D03*
X98500000Y-92500000D03*
X143750000Y-92500000D03*
X123250000Y-117250000D03*
X91500000Y-106500000D03*
X143500000Y-90250000D03*
X71750000Y-71250000D03*
X150400000Y-93200000D03*
X102250000Y-111000000D03*
X84000000Y-88000000D03*
X88250000Y-100500000D03*
X154000000Y-70500000D03*
X127500000Y-60000000D03*
X119500000Y-99750000D03*
X121750000Y-97250000D03*
X91250000Y-78750000D03*
X120250000Y-109750000D03*
X123500000Y-88500000D03*
X121500000Y-86750000D03*
X130000000Y-83000000D03*
X76000000Y-70500000D03*
X75000000Y-97750000D03*
X169000000Y-60000000D03*
X128250000Y-91750000D03*
X81500000Y-90500000D03*
X161000000Y-60000000D03*
X120750000Y-74250000D03*
X103750000Y-94750000D03*
X120750000Y-76750000D03*
X158750000Y-71000000D03*
X98750000Y-87250000D03*
X113750000Y-102000000D03*
X117750000Y-60000000D03*
X121250000Y-95500000D03*
X114500000Y-85250000D03*
X155500000Y-95000000D03*
X157750000Y-95000000D03*
X148250000Y-77750000D03*
X136000000Y-97000000D03*
X74750000Y-107500000D03*
X118500000Y-102250000D03*
X90750000Y-103750000D03*
X88250000Y-82500000D03*
X139250000Y-91500000D03*
X160250000Y-84500000D03*
X74000000Y-109500000D03*
X105250000Y-105000000D03*
X161250000Y-106000000D03*
X121500000Y-84000000D03*
X64000000Y-115000000D03*
X164500000Y-106000000D03*
X129000000Y-69250000D03*
X84000000Y-78500000D03*
X94250000Y-102000000D03*
X140500000Y-82000000D03*
X139000000Y-86750000D03*
X100250000Y-68500000D03*
X96750000Y-94500000D03*
X128250000Y-89750000D03*
X93250000Y-78000000D03*
X161750000Y-82500000D03*
X156500000Y-60000000D03*
X164250000Y-80250000D03*
X118500000Y-93000000D03*
X71000000Y-66750000D03*
X149750000Y-82000000D03*
X126500000Y-98750000D03*
X146750000Y-94750000D03*
X159250000Y-106000000D03*
X124000000Y-68500000D03*
X84000000Y-83500000D03*
X149500000Y-108000000D03*
X91250000Y-111000000D03*
X149500000Y-114250000D03*
X84000000Y-112000000D03*
X149750000Y-99750000D03*
X94000000Y-87000000D03*
X78000000Y-117250000D03*
X148500000Y-102750000D03*
X119000000Y-86000000D03*
X78500000Y-61000000D03*
X145000000Y-99250000D03*
X148250000Y-81750000D03*
X151500000Y-83000000D03*
X166000000Y-60000000D03*
X123250000Y-112500000D03*
X84250000Y-68500000D03*
X132000000Y-91500000D03*
X147000000Y-97250000D03*
X88500000Y-115500000D03*
X160750000Y-89750000D03*
X76250000Y-112250000D03*
X93250000Y-117250000D03*
X90250000Y-97750000D03*
X89250000Y-91000000D03*
X88250000Y-106750000D03*
X124750000Y-84000000D03*
X128250000Y-97500000D03*
X91250000Y-90000000D03*
X158500000Y-68500000D03*
X150250000Y-94750000D03*
X93750000Y-94750000D03*
X123500000Y-98750000D03*
X109750000Y-77750000D03*
X74000000Y-99750000D03*
X115000000Y-92000000D03*
X144750000Y-94500000D03*
X113500000Y-89500000D03*
X135000000Y-91500000D03*
X142250000Y-95500000D03*
X126000000Y-87250000D03*
X91250000Y-109250000D03*
X162750000Y-90250000D03*
X131500000Y-60000000D03*
X119000000Y-97500000D03*
%TO.N,/C2*%
X117669132Y-86070112D03*
X116500000Y-76750000D03*
X118499503Y-90300500D03*
X118250000Y-100000000D03*
%TO.N,/C3*%
X117500000Y-90300500D03*
X118069304Y-103272870D03*
%TO.N,+5V*%
X156580378Y-106669622D03*
X80750000Y-97500000D03*
X80500000Y-77500000D03*
X80500000Y-106000000D03*
X156000000Y-65250000D03*
X157000000Y-65250000D03*
X160050000Y-68200000D03*
X80525000Y-96475000D03*
X127000000Y-65250000D03*
X161000000Y-65250000D03*
X80725000Y-107025000D03*
X136500000Y-111750000D03*
X149750000Y-104750000D03*
X82225000Y-115525000D03*
X80725000Y-116525000D03*
X132000000Y-68200000D03*
X131000000Y-65250000D03*
X160000000Y-65250000D03*
X161000000Y-68250000D03*
X128000000Y-65250000D03*
X82225000Y-106025000D03*
X81975000Y-107025000D03*
X136500000Y-110500000D03*
X136500000Y-109250000D03*
X81975000Y-116525000D03*
X156000000Y-68250000D03*
X149000000Y-86500000D03*
X81975000Y-78525000D03*
X80725000Y-78525000D03*
X132000000Y-65250000D03*
X82225000Y-77525000D03*
X82250000Y-96500000D03*
X80725000Y-88025000D03*
X136500000Y-113000000D03*
X127950000Y-68200000D03*
X80500000Y-87000000D03*
X157000000Y-68250000D03*
X157500000Y-85500000D03*
X136500000Y-114250000D03*
X127000000Y-68250000D03*
X81975000Y-88025000D03*
X131050000Y-68200000D03*
X80500000Y-115500000D03*
X82000000Y-97500000D03*
X82225000Y-87025000D03*
X136500000Y-108000000D03*
X149000000Y-83500000D03*
%TO.N,+3V3*%
X97000000Y-86000000D03*
X125000000Y-91250000D03*
X125000000Y-96000000D03*
%TO.N,/C4*%
X114750000Y-102750000D03*
X115500000Y-90300500D03*
%TO.N,/C5*%
X116500000Y-90300500D03*
X118075779Y-104521976D03*
%TO.N,/USB2*%
X121250000Y-94000000D03*
X123500000Y-94250000D03*
%TO.N,/USB3*%
X120602431Y-91750000D03*
X124500500Y-93250000D03*
%TO.N,/USB4*%
X96250000Y-96500000D03*
X97750000Y-96500000D03*
X90000000Y-99500000D03*
X123199990Y-92250000D03*
X93750000Y-96500000D03*
%TO.N,/USB5*%
X123199500Y-93296740D03*
X93250000Y-108500000D03*
X90000000Y-108500000D03*
X101099502Y-103205500D03*
%TO.N,/SCL*%
X102500000Y-87750000D03*
X102800500Y-100000000D03*
%TO.N,/SDA*%
X101250000Y-87500000D03*
X101800997Y-100000000D03*
%TO.N,/PWR4*%
X93750000Y-99750000D03*
X90000000Y-101000000D03*
%TO.N,/PWR5*%
X90000000Y-110000000D03*
X97750000Y-101500000D03*
%TO.N,/RES1*%
X122750000Y-102250000D03*
X140500000Y-92000000D03*
X140500000Y-95199500D03*
X134449500Y-103250000D03*
%TO.N,/RES2*%
X126750000Y-92000000D03*
X101250000Y-98250000D03*
X126750000Y-95199500D03*
X119500000Y-101000000D03*
%TO.N,/RES3*%
X133000000Y-106500000D03*
X102500000Y-107000000D03*
%TO.N,/RES4*%
X126250500Y-88418246D03*
X118500000Y-92000000D03*
%TO.N,/RES5*%
X133500000Y-95250000D03*
X101750000Y-109000000D03*
X133750000Y-109000000D03*
X133500000Y-92000000D03*
%TD*%
D20*
%TO.N,/C1*%
X115500000Y-85750000D02*
X115400980Y-85750000D01*
X115700960Y-100299040D02*
X114750000Y-101250000D01*
X115700960Y-91500963D02*
X115700960Y-100299040D01*
X115800489Y-85449511D02*
X115500000Y-85750000D01*
X115800489Y-74699511D02*
X115800489Y-85449511D01*
X114500497Y-90300500D02*
X115700960Y-91500963D01*
X116500000Y-74000000D02*
X115800489Y-74699511D01*
%TO.N,/C2*%
X117299040Y-99049040D02*
X118250000Y-100000000D01*
X116500000Y-84900980D02*
X117669132Y-86070112D01*
X116500000Y-76750000D02*
X116500000Y-84900980D01*
X118499503Y-90300500D02*
X117299040Y-91500963D01*
X117299040Y-91500963D02*
X117299040Y-99049040D01*
%TO.N,/C3*%
X116899520Y-90900980D02*
X117500000Y-90300500D01*
X116899520Y-102103086D02*
X116899520Y-90900980D01*
X118069304Y-103272870D02*
X116899520Y-102103086D01*
%TO.N,+5V*%
X149000000Y-83500000D02*
X149000000Y-86500000D01*
D21*
X127950000Y-67200000D02*
X127050000Y-67200000D01*
X131100000Y-67000000D02*
X132000000Y-67000000D01*
X127950000Y-68200000D02*
X127000000Y-67250000D01*
X131050000Y-67050000D02*
X131100000Y-67000000D01*
X156000000Y-68250000D02*
X157000000Y-68250000D01*
X127000000Y-68250000D02*
X127000000Y-67250000D01*
X157000000Y-68250000D02*
X157000000Y-67500000D01*
X131050000Y-68200000D02*
X132000000Y-68200000D01*
D20*
X154660756Y-104750000D02*
X149750000Y-104750000D01*
D21*
X127900000Y-68250000D02*
X127950000Y-68200000D01*
X127050000Y-67200000D02*
X127000000Y-67250000D01*
X127000000Y-68250000D02*
X127900000Y-68250000D01*
X160050000Y-68200000D02*
X160950000Y-68200000D01*
X161000000Y-68250000D02*
X161000000Y-67500000D01*
X157500000Y-68750000D02*
X157000000Y-68250000D01*
X157500000Y-85500000D02*
X157500000Y-68750000D01*
X131050000Y-68200000D02*
X131050000Y-67050000D01*
X156000000Y-67500000D02*
X156750000Y-67500000D01*
X132000000Y-68200000D02*
X132000000Y-68000000D01*
X160000000Y-68150000D02*
X160050000Y-68200000D01*
X131050000Y-68200000D02*
X131050000Y-67950000D01*
D20*
X156580378Y-106669622D02*
X156580378Y-107919622D01*
X156580378Y-106669622D02*
X154660756Y-104750000D01*
D21*
X160000000Y-67500000D02*
X160000000Y-68150000D01*
D20*
X156580378Y-107919622D02*
X156500000Y-108000000D01*
D21*
X156000000Y-68250000D02*
X156000000Y-67500000D01*
X132000000Y-68000000D02*
X131050000Y-67050000D01*
X156750000Y-67500000D02*
X156000000Y-68250000D01*
X131050000Y-67950000D02*
X132000000Y-67000000D01*
X161000000Y-67500000D02*
X160000000Y-67500000D01*
X127950000Y-68200000D02*
X127950000Y-67200000D01*
X157000000Y-67500000D02*
X156750000Y-67500000D01*
X132000000Y-68200000D02*
X132000000Y-67000000D01*
X160950000Y-68200000D02*
X161000000Y-68250000D01*
%TO.N,+3V3*%
X127000489Y-86750489D02*
X127000489Y-87688958D01*
X94750000Y-88250000D02*
X97000000Y-86000000D01*
X106740000Y-87490000D02*
X106740000Y-89500000D01*
X98749511Y-101020234D02*
X98229766Y-100500489D01*
X126730266Y-89417757D02*
X125832243Y-89417757D01*
X125000000Y-96000000D02*
X125500000Y-95500000D01*
X98749511Y-103210489D02*
X98749511Y-101020234D01*
X97000000Y-86000000D02*
X105250000Y-86000000D01*
X98229766Y-100500489D02*
X98000489Y-100500489D01*
X108576255Y-87750000D02*
X109000000Y-87750000D01*
X125500000Y-95500000D02*
X125500000Y-91750000D01*
X105250000Y-86000000D02*
X106740000Y-87490000D01*
X118687500Y-87750000D02*
X120937500Y-85500000D01*
X120937500Y-85500000D02*
X125750000Y-85500000D01*
X109000000Y-87750000D02*
X107000000Y-87750000D01*
X107000000Y-87750000D02*
X106740000Y-87490000D01*
X127250011Y-87938480D02*
X127250011Y-88898012D01*
X98000489Y-100500489D02*
X94750000Y-97250000D01*
X125750000Y-85500000D02*
X127000489Y-86750489D01*
X109000000Y-87750000D02*
X118687500Y-87750000D01*
X125832243Y-89417757D02*
X125000000Y-90250000D01*
X95750000Y-106210000D02*
X98749511Y-103210489D01*
X127000489Y-87688958D02*
X127250011Y-87938480D01*
X94750000Y-97250000D02*
X94750000Y-88250000D01*
X127250011Y-88898012D02*
X126730266Y-89417757D01*
X125500000Y-91750000D02*
X125000000Y-91250000D01*
X125000000Y-90250000D02*
X125000000Y-91250000D01*
D20*
%TO.N,/C4*%
X116100480Y-90900980D02*
X116100480Y-101399520D01*
X116100480Y-101399520D02*
X114750000Y-102750000D01*
X115500000Y-90300500D02*
X116100480Y-90900980D01*
X115500000Y-90300500D02*
X115500000Y-90302274D01*
%TO.N,/C5*%
X116750000Y-103065006D02*
X116500000Y-102815006D01*
X118075779Y-104521976D02*
X116750000Y-103196197D01*
X116750000Y-103196197D02*
X116750000Y-103065006D01*
X116500000Y-102815006D02*
X116500000Y-90300500D01*
%TO.N,/USB2*%
X123500000Y-94250000D02*
X123250000Y-94000000D01*
X123250000Y-94000000D02*
X121250000Y-94000000D01*
%TO.N,/USB3*%
X123750000Y-91250000D02*
X124500500Y-92000500D01*
X120602431Y-91750000D02*
X121102431Y-91250000D01*
X124500500Y-92000500D02*
X124500500Y-93250000D01*
X121102431Y-91250000D02*
X123750000Y-91250000D01*
%TO.N,/USB4*%
X105634779Y-106500000D02*
X100067390Y-100932610D01*
X93750000Y-96500000D02*
X93000000Y-96500000D01*
X97750000Y-97500000D02*
X97750000Y-96500000D01*
X96250000Y-96500000D02*
X97750000Y-96500000D01*
X120199511Y-105800489D02*
X119500000Y-106500000D01*
X120199511Y-98199511D02*
X120199511Y-105800489D01*
X100067390Y-100932610D02*
X100067390Y-99817390D01*
X93000000Y-96500000D02*
X90000000Y-99500000D01*
X123199990Y-92250000D02*
X121399717Y-92250000D01*
X121399717Y-92250000D02*
X120000000Y-93649717D01*
X120000000Y-93649717D02*
X120000000Y-98000000D01*
X100067390Y-99817390D02*
X97750000Y-97500000D01*
X119500000Y-106500000D02*
X105634779Y-106500000D01*
X120000000Y-98000000D02*
X120199511Y-98199511D01*
%TO.N,/USB5*%
X120500000Y-107000000D02*
X121000000Y-106500000D01*
X121000000Y-106500000D02*
X121000000Y-98434994D01*
X101099502Y-103205500D02*
X101305002Y-103205500D01*
X120399520Y-97834514D02*
X120399520Y-93815203D01*
X120399520Y-93815203D02*
X120917983Y-93296740D01*
X90000000Y-108500000D02*
X93250000Y-108500000D01*
X120917983Y-93296740D02*
X123199500Y-93296740D01*
X121000000Y-98434994D02*
X120399520Y-97834514D01*
X105099502Y-107000000D02*
X120500000Y-107000000D01*
X101305002Y-103205500D02*
X105099502Y-107000000D01*
%TO.N,/SCL*%
X102800500Y-100000000D02*
X102500000Y-99699500D01*
X102500000Y-99699500D02*
X102500000Y-87750000D01*
%TO.N,/SDA*%
X102000000Y-88250000D02*
X101250000Y-87500000D01*
X101800997Y-100000000D02*
X102000000Y-99800997D01*
X102000000Y-99800997D02*
X102000000Y-88250000D01*
%TO.N,/PWR4*%
X93750000Y-99750000D02*
X92500000Y-101000000D01*
X92500000Y-101000000D02*
X90000000Y-101000000D01*
%TO.N,/PWR5*%
X93949511Y-103769212D02*
X93949511Y-108835766D01*
X96729511Y-102520489D02*
X95198234Y-102520489D01*
X95198234Y-102520489D02*
X93949511Y-103769212D01*
X97750000Y-101500000D02*
X96729511Y-102520489D01*
X92785277Y-110000000D02*
X90000000Y-110000000D01*
X93949511Y-108835766D02*
X92785277Y-110000000D01*
%TO.N,/RES1*%
X140500000Y-95199500D02*
X140500000Y-92000000D01*
X134412000Y-103212500D02*
X134449500Y-103250000D01*
X122750000Y-102250000D02*
X123712500Y-103212500D01*
X123712500Y-103212500D02*
X134412000Y-103212500D01*
%TO.N,/RES2*%
X118649520Y-106100480D02*
X119500000Y-105250000D01*
X101949511Y-100699511D02*
X107350480Y-106100480D01*
X101250000Y-98250000D02*
X101101486Y-98398514D01*
X126750000Y-95199500D02*
X126750000Y-92000000D01*
X101101486Y-98398514D02*
X101101486Y-100335766D01*
X101465231Y-100699511D02*
X101949511Y-100699511D01*
X119500000Y-105250000D02*
X119500000Y-101000000D01*
X107350480Y-106100480D02*
X118649520Y-106100480D01*
X101101486Y-100335766D02*
X101465231Y-100699511D01*
%TO.N,/RES3*%
X132000000Y-107500000D02*
X133000000Y-106500000D01*
X102500000Y-107000000D02*
X103000000Y-107500000D01*
X103000000Y-107500000D02*
X132000000Y-107500000D01*
%TO.N,/RES4*%
X122699511Y-87800489D02*
X118500000Y-92000000D01*
X126250500Y-88418246D02*
X125168246Y-88418246D01*
X125168246Y-88418246D02*
X124550489Y-87800489D01*
X124550489Y-87800489D02*
X122699511Y-87800489D01*
%TO.N,/RES5*%
X101750000Y-109000000D02*
X133750000Y-109000000D01*
X133500000Y-95250000D02*
X133500000Y-92000000D01*
%TD*%
%TA.AperFunction,Conductor*%
%TO.N,GND*%
G36*
X170259191Y-58218907D02*
G01*
X170295155Y-58268407D01*
X170300000Y-58299000D01*
X170300000Y-60701000D01*
X170281093Y-60759191D01*
X170231593Y-60795155D01*
X170201000Y-60800000D01*
X151146238Y-60800000D01*
X151144603Y-60800109D01*
X151144601Y-60800109D01*
X151141665Y-60800305D01*
X151119702Y-60801768D01*
X151093661Y-60805254D01*
X151010537Y-60836230D01*
X150959369Y-60869778D01*
X150957628Y-60871157D01*
X150957619Y-60871164D01*
X150939787Y-60885294D01*
X150931266Y-60892046D01*
X150882001Y-60966177D01*
X150860324Y-61023394D01*
X150859731Y-61025517D01*
X150859728Y-61025526D01*
X150857726Y-61032695D01*
X150850678Y-61057926D01*
X150854394Y-61146857D01*
X150870487Y-61205886D01*
X150872084Y-61209431D01*
X150872085Y-61209434D01*
X150893057Y-61255989D01*
X150895852Y-61262871D01*
X150935081Y-61370940D01*
X150935330Y-61371625D01*
X150940620Y-61393983D01*
X150949834Y-61473017D01*
X150950500Y-61484481D01*
X150950500Y-62264089D01*
X150947663Y-62287619D01*
X150922135Y-62391946D01*
X150914142Y-62413439D01*
X150894492Y-62451920D01*
X150866271Y-62507187D01*
X150853549Y-62526263D01*
X150785404Y-62606475D01*
X150768636Y-62622112D01*
X150730918Y-62649870D01*
X150690743Y-62679436D01*
X150683848Y-62684510D01*
X150663936Y-62695868D01*
X150610026Y-62718806D01*
X150567075Y-62737082D01*
X150545083Y-62743554D01*
X150441344Y-62761380D01*
X150418446Y-62762620D01*
X150410421Y-62762122D01*
X150313387Y-62756102D01*
X150290827Y-62752043D01*
X150240453Y-62736786D01*
X150240451Y-62736785D01*
X150240447Y-62736784D01*
X150240442Y-62736782D01*
X150210196Y-62727622D01*
X150190079Y-62721529D01*
X150169052Y-62712386D01*
X150130340Y-62689900D01*
X150078034Y-62659518D01*
X150059675Y-62645784D01*
X150033250Y-62620752D01*
X150033249Y-62620751D01*
X149983259Y-62573394D01*
X149968552Y-62555805D01*
X149949183Y-62526263D01*
X149910833Y-62467770D01*
X149900572Y-62447279D01*
X149890854Y-62420508D01*
X149864654Y-62348329D01*
X149859380Y-62326017D01*
X149854904Y-62287619D01*
X149850166Y-62246983D01*
X149849500Y-62235519D01*
X149849500Y-61455910D01*
X149852337Y-61432379D01*
X149865564Y-61378326D01*
X149865567Y-61378314D01*
X149867372Y-61370940D01*
X149877867Y-61328050D01*
X149885859Y-61306559D01*
X149908269Y-61262673D01*
X149908275Y-61262662D01*
X149911682Y-61255989D01*
X149922413Y-61234974D01*
X149929028Y-61220650D01*
X149935013Y-61206221D01*
X149950275Y-61129593D01*
X149950275Y-61068407D01*
X149947061Y-61032695D01*
X149943086Y-61023394D01*
X149932213Y-60997958D01*
X149912078Y-60950850D01*
X149876114Y-60901350D01*
X149852523Y-60874347D01*
X149842831Y-60868556D01*
X149780883Y-60831545D01*
X149780884Y-60831545D01*
X149776113Y-60828695D01*
X149770834Y-60826980D01*
X149770830Y-60826978D01*
X149721625Y-60810991D01*
X149721623Y-60810991D01*
X149717922Y-60809788D01*
X149714078Y-60809179D01*
X149714073Y-60809178D01*
X149659968Y-60800609D01*
X149659963Y-60800609D01*
X149656120Y-60800000D01*
X138346238Y-60800000D01*
X138344603Y-60800109D01*
X138344601Y-60800109D01*
X138341665Y-60800305D01*
X138319702Y-60801768D01*
X138293661Y-60805254D01*
X138210537Y-60836230D01*
X138159369Y-60869778D01*
X138157628Y-60871157D01*
X138157619Y-60871164D01*
X138139787Y-60885294D01*
X138131266Y-60892046D01*
X138082001Y-60966177D01*
X138060324Y-61023394D01*
X138059731Y-61025517D01*
X138059728Y-61025526D01*
X138057726Y-61032695D01*
X138050678Y-61057926D01*
X138054394Y-61146857D01*
X138070487Y-61205886D01*
X138072084Y-61209431D01*
X138072085Y-61209434D01*
X138093057Y-61255989D01*
X138095852Y-61262871D01*
X138135081Y-61370940D01*
X138135330Y-61371625D01*
X138140620Y-61393983D01*
X138149834Y-61473017D01*
X138150500Y-61484481D01*
X138150500Y-62264089D01*
X138147663Y-62287619D01*
X138122135Y-62391946D01*
X138114142Y-62413439D01*
X138094492Y-62451920D01*
X138066271Y-62507187D01*
X138053549Y-62526263D01*
X137985404Y-62606475D01*
X137968636Y-62622112D01*
X137930918Y-62649870D01*
X137890743Y-62679436D01*
X137883848Y-62684510D01*
X137863936Y-62695868D01*
X137810026Y-62718806D01*
X137767075Y-62737082D01*
X137745083Y-62743554D01*
X137641344Y-62761380D01*
X137618446Y-62762620D01*
X137610421Y-62762122D01*
X137513387Y-62756102D01*
X137490827Y-62752043D01*
X137440453Y-62736786D01*
X137440451Y-62736785D01*
X137440447Y-62736784D01*
X137440442Y-62736782D01*
X137410196Y-62727622D01*
X137390079Y-62721529D01*
X137369052Y-62712386D01*
X137330340Y-62689900D01*
X137278034Y-62659518D01*
X137259675Y-62645784D01*
X137233250Y-62620752D01*
X137233249Y-62620751D01*
X137183259Y-62573394D01*
X137168552Y-62555805D01*
X137149183Y-62526263D01*
X137110833Y-62467770D01*
X137100572Y-62447279D01*
X137090854Y-62420508D01*
X137064654Y-62348329D01*
X137059380Y-62326017D01*
X137054904Y-62287619D01*
X137050166Y-62246983D01*
X137049500Y-62235519D01*
X137049500Y-61455910D01*
X137052337Y-61432379D01*
X137065564Y-61378326D01*
X137065567Y-61378314D01*
X137067372Y-61370940D01*
X137077867Y-61328050D01*
X137085859Y-61306559D01*
X137108269Y-61262673D01*
X137108275Y-61262662D01*
X137111682Y-61255989D01*
X137122413Y-61234974D01*
X137129028Y-61220650D01*
X137135013Y-61206221D01*
X137150275Y-61129593D01*
X137150275Y-61068407D01*
X137147061Y-61032695D01*
X137143086Y-61023394D01*
X137132213Y-60997958D01*
X137112078Y-60950850D01*
X137076114Y-60901350D01*
X137052523Y-60874347D01*
X137042831Y-60868556D01*
X136980883Y-60831545D01*
X136980884Y-60831545D01*
X136976113Y-60828695D01*
X136970834Y-60826980D01*
X136970830Y-60826978D01*
X136921625Y-60810991D01*
X136921623Y-60810991D01*
X136917922Y-60809788D01*
X136914078Y-60809179D01*
X136914073Y-60809178D01*
X136859968Y-60800609D01*
X136859963Y-60800609D01*
X136856120Y-60800000D01*
X122146238Y-60800000D01*
X122144603Y-60800109D01*
X122144601Y-60800109D01*
X122141665Y-60800305D01*
X122119702Y-60801768D01*
X122093661Y-60805254D01*
X122010537Y-60836230D01*
X121959369Y-60869778D01*
X121957628Y-60871157D01*
X121957619Y-60871164D01*
X121939787Y-60885294D01*
X121931266Y-60892046D01*
X121882001Y-60966177D01*
X121860324Y-61023394D01*
X121859731Y-61025517D01*
X121859728Y-61025526D01*
X121857726Y-61032695D01*
X121850678Y-61057926D01*
X121854394Y-61146857D01*
X121870487Y-61205886D01*
X121872084Y-61209431D01*
X121872085Y-61209434D01*
X121893057Y-61255989D01*
X121895852Y-61262871D01*
X121935081Y-61370940D01*
X121935330Y-61371625D01*
X121940620Y-61393983D01*
X121949834Y-61473017D01*
X121950500Y-61484481D01*
X121950500Y-62264089D01*
X121947663Y-62287619D01*
X121922135Y-62391946D01*
X121914142Y-62413439D01*
X121894492Y-62451920D01*
X121866271Y-62507187D01*
X121853549Y-62526263D01*
X121785404Y-62606475D01*
X121768636Y-62622112D01*
X121730918Y-62649870D01*
X121690743Y-62679436D01*
X121683848Y-62684510D01*
X121663936Y-62695868D01*
X121610026Y-62718806D01*
X121567075Y-62737082D01*
X121545083Y-62743554D01*
X121441344Y-62761380D01*
X121418446Y-62762620D01*
X121410421Y-62762122D01*
X121313387Y-62756102D01*
X121290827Y-62752043D01*
X121240453Y-62736786D01*
X121240451Y-62736785D01*
X121240447Y-62736784D01*
X121240442Y-62736782D01*
X121210196Y-62727622D01*
X121190079Y-62721529D01*
X121169052Y-62712386D01*
X121130340Y-62689900D01*
X121078034Y-62659518D01*
X121059675Y-62645784D01*
X121033250Y-62620752D01*
X121033249Y-62620751D01*
X120983259Y-62573394D01*
X120968552Y-62555805D01*
X120949183Y-62526263D01*
X120910833Y-62467770D01*
X120900572Y-62447279D01*
X120890854Y-62420508D01*
X120864654Y-62348329D01*
X120859380Y-62326017D01*
X120854904Y-62287619D01*
X120850166Y-62246983D01*
X120849500Y-62235519D01*
X120849500Y-61455910D01*
X120852337Y-61432379D01*
X120865564Y-61378326D01*
X120865567Y-61378314D01*
X120867372Y-61370940D01*
X120877867Y-61328050D01*
X120885859Y-61306559D01*
X120908269Y-61262673D01*
X120908275Y-61262662D01*
X120911682Y-61255989D01*
X120922413Y-61234974D01*
X120929028Y-61220650D01*
X120935013Y-61206221D01*
X120950275Y-61129593D01*
X120950275Y-61068407D01*
X120947061Y-61032695D01*
X120943086Y-61023394D01*
X120932213Y-60997958D01*
X120912078Y-60950850D01*
X120876114Y-60901350D01*
X120852523Y-60874347D01*
X120842831Y-60868556D01*
X120780883Y-60831545D01*
X120780884Y-60831545D01*
X120776113Y-60828695D01*
X120770834Y-60826980D01*
X120770830Y-60826978D01*
X120721625Y-60810991D01*
X120721623Y-60810991D01*
X120717922Y-60809788D01*
X120714078Y-60809179D01*
X120714073Y-60809178D01*
X120659968Y-60800609D01*
X120659963Y-60800609D01*
X120656120Y-60800000D01*
X109346238Y-60800000D01*
X109344603Y-60800109D01*
X109344601Y-60800109D01*
X109341665Y-60800305D01*
X109319702Y-60801768D01*
X109293661Y-60805254D01*
X109210537Y-60836230D01*
X109159369Y-60869778D01*
X109157628Y-60871157D01*
X109157619Y-60871164D01*
X109139787Y-60885294D01*
X109131266Y-60892046D01*
X109082001Y-60966177D01*
X109060324Y-61023394D01*
X109059731Y-61025517D01*
X109059728Y-61025526D01*
X109057726Y-61032695D01*
X109050678Y-61057926D01*
X109054394Y-61146857D01*
X109070487Y-61205886D01*
X109072084Y-61209431D01*
X109072085Y-61209434D01*
X109093057Y-61255989D01*
X109095852Y-61262871D01*
X109135081Y-61370940D01*
X109135330Y-61371625D01*
X109140620Y-61393983D01*
X109149834Y-61473017D01*
X109150500Y-61484481D01*
X109150500Y-62264089D01*
X109147663Y-62287619D01*
X109122135Y-62391946D01*
X109114142Y-62413439D01*
X109094492Y-62451920D01*
X109066271Y-62507187D01*
X109053549Y-62526263D01*
X108985404Y-62606475D01*
X108968636Y-62622112D01*
X108930918Y-62649870D01*
X108890743Y-62679436D01*
X108883848Y-62684510D01*
X108863936Y-62695868D01*
X108810026Y-62718806D01*
X108767075Y-62737082D01*
X108745083Y-62743554D01*
X108641344Y-62761380D01*
X108618446Y-62762620D01*
X108610421Y-62762122D01*
X108513387Y-62756102D01*
X108490827Y-62752043D01*
X108440453Y-62736786D01*
X108440451Y-62736785D01*
X108440447Y-62736784D01*
X108440442Y-62736782D01*
X108410196Y-62727622D01*
X108390079Y-62721529D01*
X108369052Y-62712386D01*
X108330340Y-62689900D01*
X108278034Y-62659518D01*
X108259675Y-62645784D01*
X108233250Y-62620752D01*
X108233249Y-62620751D01*
X108183259Y-62573394D01*
X108168552Y-62555805D01*
X108149183Y-62526263D01*
X108110833Y-62467770D01*
X108100572Y-62447279D01*
X108090854Y-62420508D01*
X108064654Y-62348329D01*
X108059380Y-62326017D01*
X108054904Y-62287619D01*
X108050166Y-62246983D01*
X108049500Y-62235519D01*
X108049500Y-61455910D01*
X108052337Y-61432379D01*
X108065564Y-61378326D01*
X108065567Y-61378314D01*
X108067372Y-61370940D01*
X108077867Y-61328050D01*
X108085859Y-61306559D01*
X108108269Y-61262673D01*
X108108275Y-61262662D01*
X108111682Y-61255989D01*
X108122413Y-61234974D01*
X108129028Y-61220650D01*
X108135013Y-61206221D01*
X108150275Y-61129593D01*
X108150275Y-61068407D01*
X108147061Y-61032695D01*
X108143086Y-61023394D01*
X108132213Y-60997958D01*
X108112078Y-60950850D01*
X108076114Y-60901350D01*
X108052523Y-60874347D01*
X108042831Y-60868556D01*
X107980883Y-60831545D01*
X107980884Y-60831545D01*
X107976113Y-60828695D01*
X107970834Y-60826980D01*
X107970830Y-60826978D01*
X107921625Y-60810991D01*
X107921623Y-60810991D01*
X107917922Y-60809788D01*
X107914078Y-60809179D01*
X107914073Y-60809178D01*
X107859968Y-60800609D01*
X107859963Y-60800609D01*
X107856120Y-60800000D01*
X79791008Y-60800000D01*
X79790076Y-60800037D01*
X79790057Y-60800037D01*
X79776269Y-60800579D01*
X79776246Y-60800580D01*
X79775314Y-60800617D01*
X79774374Y-60800691D01*
X79774357Y-60800692D01*
X79770591Y-60800989D01*
X79759827Y-60801836D01*
X79755146Y-60803156D01*
X79755147Y-60803156D01*
X79689404Y-60821697D01*
X79689401Y-60821698D01*
X79684725Y-60823017D01*
X79630208Y-60850794D01*
X79627059Y-60853082D01*
X79582722Y-60885294D01*
X79582719Y-60885297D01*
X79579583Y-60887575D01*
X78637575Y-61829583D01*
X78626913Y-61841116D01*
X78616824Y-61852929D01*
X78578695Y-61921015D01*
X78559788Y-61979206D01*
X78550000Y-62041008D01*
X78550000Y-116708992D01*
X78550617Y-116724686D01*
X78551836Y-116740173D01*
X78553156Y-116744853D01*
X78559387Y-116766945D01*
X78573017Y-116815275D01*
X78600794Y-116869792D01*
X78603082Y-116872941D01*
X78628657Y-116908142D01*
X78637575Y-116920417D01*
X78829583Y-117112425D01*
X78830265Y-117113055D01*
X78830278Y-117113068D01*
X78832050Y-117114706D01*
X78841116Y-117123087D01*
X78852929Y-117133176D01*
X78921015Y-117171305D01*
X78979206Y-117190212D01*
X78983050Y-117190821D01*
X78983055Y-117190822D01*
X79037160Y-117199391D01*
X79037165Y-117199391D01*
X79041008Y-117200000D01*
X83208992Y-117200000D01*
X83209924Y-117199963D01*
X83209943Y-117199963D01*
X83223731Y-117199421D01*
X83223754Y-117199420D01*
X83224686Y-117199383D01*
X83225626Y-117199309D01*
X83225643Y-117199308D01*
X83229409Y-117199011D01*
X83240173Y-117198164D01*
X83272634Y-117189009D01*
X83310596Y-117178303D01*
X83310599Y-117178302D01*
X83315275Y-117176983D01*
X83369792Y-117149206D01*
X83396201Y-117130019D01*
X83417278Y-117114706D01*
X83417281Y-117114703D01*
X83420417Y-117112425D01*
X83612425Y-116920417D01*
X83623087Y-116908884D01*
X83633176Y-116897071D01*
X83671305Y-116828985D01*
X83690212Y-116770794D01*
X83690822Y-116766945D01*
X83699391Y-116712840D01*
X83699391Y-116712835D01*
X83700000Y-116708992D01*
X83700000Y-112368126D01*
X83689387Y-112303841D01*
X83671072Y-112249884D01*
X83669728Y-112250340D01*
X83663757Y-112238594D01*
X83659990Y-112226382D01*
X83660002Y-112226377D01*
X83660381Y-112226260D01*
X83660366Y-112226226D01*
X83660398Y-112226213D01*
X83658596Y-112221862D01*
X83656021Y-112213515D01*
X83653245Y-112208707D01*
X83651691Y-112205145D01*
X83650966Y-112203441D01*
X83614972Y-112116544D01*
X83608283Y-112091581D01*
X83597927Y-112012923D01*
X83597927Y-111987077D01*
X83608283Y-111908419D01*
X83614972Y-111883457D01*
X83650484Y-111797723D01*
X83653571Y-111790993D01*
X83654632Y-111788890D01*
X83656021Y-111786485D01*
X83673930Y-111745437D01*
X83673967Y-111744937D01*
X83676236Y-111741297D01*
X83674290Y-111740636D01*
X83689387Y-111696159D01*
X83700000Y-111631874D01*
X83700000Y-103118126D01*
X83689387Y-103053841D01*
X83685636Y-103042788D01*
X83674238Y-103009212D01*
X83671072Y-102999884D01*
X83669728Y-103000340D01*
X83663757Y-102988594D01*
X83659990Y-102976382D01*
X83660002Y-102976377D01*
X83660381Y-102976260D01*
X83660366Y-102976226D01*
X83660398Y-102976213D01*
X83658596Y-102971862D01*
X83656021Y-102963515D01*
X83653245Y-102958707D01*
X83651691Y-102955145D01*
X83650966Y-102953441D01*
X83614972Y-102866544D01*
X83608283Y-102841581D01*
X83602902Y-102800708D01*
X83597927Y-102762920D01*
X83597927Y-102737077D01*
X83599546Y-102724784D01*
X83607072Y-102667616D01*
X83608283Y-102658419D01*
X83614972Y-102633457D01*
X83650484Y-102547723D01*
X83653571Y-102540993D01*
X83654632Y-102538890D01*
X83656021Y-102536485D01*
X83673930Y-102495437D01*
X83673967Y-102494937D01*
X83676236Y-102491297D01*
X83674290Y-102490636D01*
X83675152Y-102488097D01*
X83689387Y-102446159D01*
X83700000Y-102381874D01*
X83700000Y-101000000D01*
X89394500Y-101000000D01*
X89415132Y-101156715D01*
X89475622Y-101302750D01*
X89571847Y-101428153D01*
X89697250Y-101524378D01*
X89843285Y-101584868D01*
X90000000Y-101605500D01*
X90156715Y-101584868D01*
X90302750Y-101524378D01*
X90428153Y-101428153D01*
X90496385Y-101339231D01*
X90546809Y-101304577D01*
X90574926Y-101300500D01*
X92447892Y-101300500D01*
X92451024Y-101300730D01*
X92455372Y-101302223D01*
X92464508Y-101301880D01*
X92499401Y-101300570D01*
X92503115Y-101300500D01*
X92526846Y-101300500D01*
X92531330Y-101299665D01*
X92534004Y-101299418D01*
X92539389Y-101299069D01*
X92558029Y-101298369D01*
X92558030Y-101298369D01*
X92567162Y-101298026D01*
X92575557Y-101294420D01*
X92575559Y-101294419D01*
X92577730Y-101293486D01*
X92598674Y-101287123D01*
X92600168Y-101286844D01*
X92600992Y-101286691D01*
X92600993Y-101286691D01*
X92609979Y-101285017D01*
X92617761Y-101280220D01*
X92617764Y-101280219D01*
X92632636Y-101271052D01*
X92645499Y-101264370D01*
X92669948Y-101253866D01*
X92676426Y-101248545D01*
X92679929Y-101245042D01*
X92696604Y-101231861D01*
X92697429Y-101231113D01*
X92705211Y-101226316D01*
X92721957Y-101204294D01*
X92730756Y-101194215D01*
X93555952Y-100369019D01*
X93610469Y-100341242D01*
X93638875Y-100340870D01*
X93750000Y-100355500D01*
X93906715Y-100334868D01*
X94052750Y-100274378D01*
X94178153Y-100178153D01*
X94274378Y-100052750D01*
X94325988Y-99928153D01*
X94332384Y-99912712D01*
X94334868Y-99906715D01*
X94355500Y-99750000D01*
X94334868Y-99593285D01*
X94328123Y-99577000D01*
X94314451Y-99543995D01*
X94274378Y-99447250D01*
X94178153Y-99321847D01*
X94052750Y-99225622D01*
X93906715Y-99165132D01*
X93750000Y-99144500D01*
X93593285Y-99165132D01*
X93447250Y-99225622D01*
X93321847Y-99321847D01*
X93225622Y-99447250D01*
X93185549Y-99543995D01*
X93171878Y-99577000D01*
X93165132Y-99593285D01*
X93144500Y-99750000D01*
X93159130Y-99861123D01*
X93147980Y-99921282D01*
X93130981Y-99944048D01*
X92404524Y-100670504D01*
X92350007Y-100698281D01*
X92334520Y-100699500D01*
X90574926Y-100699500D01*
X90516735Y-100680593D01*
X90496384Y-100660768D01*
X90428153Y-100571847D01*
X90302750Y-100475622D01*
X90156715Y-100415132D01*
X90000000Y-100394500D01*
X89843285Y-100415132D01*
X89697250Y-100475622D01*
X89571847Y-100571847D01*
X89475622Y-100697250D01*
X89447054Y-100766218D01*
X89421878Y-100827000D01*
X89415132Y-100843285D01*
X89394500Y-101000000D01*
X83700000Y-101000000D01*
X83700000Y-99500000D01*
X89394500Y-99500000D01*
X89415132Y-99656715D01*
X89475622Y-99802750D01*
X89571847Y-99928153D01*
X89697250Y-100024378D01*
X89803497Y-100068387D01*
X89825459Y-100077484D01*
X89843285Y-100084868D01*
X90000000Y-100105500D01*
X90156715Y-100084868D01*
X90174542Y-100077484D01*
X90196503Y-100068387D01*
X90302750Y-100024378D01*
X90428153Y-99928153D01*
X90524378Y-99802750D01*
X90584868Y-99656715D01*
X90605500Y-99500000D01*
X90590870Y-99388877D01*
X90602020Y-99328718D01*
X90619019Y-99305952D01*
X93095475Y-96829496D01*
X93149992Y-96801719D01*
X93165479Y-96800500D01*
X93175074Y-96800500D01*
X93233265Y-96819407D01*
X93253614Y-96839230D01*
X93321847Y-96928153D01*
X93447250Y-97024378D01*
X93593285Y-97084868D01*
X93750000Y-97105500D01*
X93906715Y-97084868D01*
X93947023Y-97068172D01*
X94012614Y-97041003D01*
X94073611Y-97036202D01*
X94125780Y-97068172D01*
X94149195Y-97124699D01*
X94149500Y-97132467D01*
X94149500Y-97205533D01*
X94148653Y-97218454D01*
X94144500Y-97250000D01*
X94149500Y-97287979D01*
X94165132Y-97406715D01*
X94225622Y-97552750D01*
X94321847Y-97678153D01*
X94327000Y-97682107D01*
X94347084Y-97697518D01*
X94356821Y-97706056D01*
X97470208Y-100819443D01*
X97497985Y-100873960D01*
X97488414Y-100934392D01*
X97450607Y-100974232D01*
X97447250Y-100975622D01*
X97321847Y-101071847D01*
X97225622Y-101197250D01*
X97165132Y-101343285D01*
X97144500Y-101500000D01*
X97159130Y-101611123D01*
X97147980Y-101671282D01*
X97130981Y-101694048D01*
X96877778Y-101947250D01*
X96634035Y-102190993D01*
X96579518Y-102218770D01*
X96564031Y-102219989D01*
X96337565Y-102219989D01*
X96279374Y-102201082D01*
X96243410Y-102151582D01*
X96243410Y-102090396D01*
X96279374Y-102040896D01*
X96292924Y-102032625D01*
X96315565Y-102021188D01*
X96477893Y-101894363D01*
X96481055Y-101890700D01*
X96481060Y-101890695D01*
X96609332Y-101742089D01*
X96612496Y-101738424D01*
X96619855Y-101725471D01*
X96699247Y-101585715D01*
X96714247Y-101559311D01*
X96729355Y-101513897D01*
X96777743Y-101368435D01*
X96777743Y-101368433D01*
X96779270Y-101363844D01*
X96784154Y-101325187D01*
X96804596Y-101163366D01*
X96805088Y-101159471D01*
X96805500Y-101130000D01*
X96803584Y-101110455D01*
X96785870Y-100929796D01*
X96785869Y-100929792D01*
X96785398Y-100924986D01*
X96782493Y-100915362D01*
X96755814Y-100827000D01*
X96725858Y-100727780D01*
X96629148Y-100545895D01*
X96498952Y-100386259D01*
X96478175Y-100369071D01*
X96343955Y-100258034D01*
X96343953Y-100258033D01*
X96340228Y-100254951D01*
X96159023Y-100156973D01*
X96083388Y-100133560D01*
X95966859Y-100097488D01*
X95966855Y-100097487D01*
X95962238Y-100096058D01*
X95957431Y-100095553D01*
X95957427Y-100095552D01*
X95762185Y-100075032D01*
X95762183Y-100075032D01*
X95757369Y-100074526D01*
X95689372Y-100080714D01*
X95557039Y-100092757D01*
X95557036Y-100092758D01*
X95552219Y-100093196D01*
X95547577Y-100094562D01*
X95547573Y-100094563D01*
X95359250Y-100149989D01*
X95359247Y-100149990D01*
X95354603Y-100151357D01*
X95350309Y-100153602D01*
X95176344Y-100244548D01*
X95176340Y-100244551D01*
X95172047Y-100246795D01*
X95168271Y-100249831D01*
X95168268Y-100249833D01*
X95028000Y-100362612D01*
X95011505Y-100375874D01*
X94949199Y-100450128D01*
X94882202Y-100529971D01*
X94882199Y-100529975D01*
X94879093Y-100533677D01*
X94779853Y-100714194D01*
X94778389Y-100718808D01*
X94778388Y-100718811D01*
X94736861Y-100849721D01*
X94717565Y-100910549D01*
X94717025Y-100915361D01*
X94717025Y-100915362D01*
X94697321Y-101091035D01*
X94694603Y-101115263D01*
X94698587Y-101162712D01*
X94710779Y-101307899D01*
X94711840Y-101320538D01*
X94713173Y-101325186D01*
X94713173Y-101325187D01*
X94765145Y-101506432D01*
X94768621Y-101518555D01*
X94862782Y-101701773D01*
X94990737Y-101863212D01*
X94994417Y-101866344D01*
X94994419Y-101866346D01*
X95078150Y-101937606D01*
X95147612Y-101996723D01*
X95151835Y-101999083D01*
X95151839Y-101999086D01*
X95186055Y-102018208D01*
X95211848Y-102032623D01*
X95215949Y-102034915D01*
X95257521Y-102079808D01*
X95264766Y-102140563D01*
X95234916Y-102193973D01*
X95176752Y-102219915D01*
X95175950Y-102219989D01*
X95171388Y-102219989D01*
X95166904Y-102220824D01*
X95164230Y-102221071D01*
X95158845Y-102221420D01*
X95140205Y-102222120D01*
X95140204Y-102222120D01*
X95131072Y-102222463D01*
X95122677Y-102226069D01*
X95122675Y-102226070D01*
X95120504Y-102227003D01*
X95099560Y-102233366D01*
X95098066Y-102233645D01*
X95097242Y-102233798D01*
X95097241Y-102233798D01*
X95088255Y-102235472D01*
X95080473Y-102240269D01*
X95080470Y-102240270D01*
X95065598Y-102249437D01*
X95052735Y-102256119D01*
X95028286Y-102266623D01*
X95021808Y-102271944D01*
X95018305Y-102275447D01*
X95001630Y-102288628D01*
X95000805Y-102289376D01*
X94993023Y-102294173D01*
X94987491Y-102301448D01*
X94987490Y-102301449D01*
X94976278Y-102316194D01*
X94967478Y-102326274D01*
X94368766Y-102924985D01*
X93773867Y-103519884D01*
X93771493Y-103521933D01*
X93767364Y-103523951D01*
X93761147Y-103530653D01*
X93737411Y-103556241D01*
X93734834Y-103558917D01*
X93718042Y-103575709D01*
X93715463Y-103579468D01*
X93713734Y-103581549D01*
X93710171Y-103585606D01*
X93697501Y-103599264D01*
X93697499Y-103599267D01*
X93691284Y-103605967D01*
X93687023Y-103616648D01*
X93676708Y-103635965D01*
X93670207Y-103645441D01*
X93664060Y-103671343D01*
X93659694Y-103685146D01*
X93649829Y-103709873D01*
X93649011Y-103718216D01*
X93649011Y-103723166D01*
X93646540Y-103744285D01*
X93646486Y-103745395D01*
X93644375Y-103754289D01*
X93645608Y-103763346D01*
X93648107Y-103781712D01*
X93649011Y-103795062D01*
X93649011Y-107867330D01*
X93630104Y-107925521D01*
X93580604Y-107961485D01*
X93519418Y-107961485D01*
X93512126Y-107958794D01*
X93412715Y-107917617D01*
X93412713Y-107917616D01*
X93406715Y-107915132D01*
X93250000Y-107894500D01*
X93093285Y-107915132D01*
X92947250Y-107975622D01*
X92821847Y-108071847D01*
X92787550Y-108116544D01*
X92753616Y-108160768D01*
X92703191Y-108195423D01*
X92675074Y-108199500D01*
X90574926Y-108199500D01*
X90516735Y-108180593D01*
X90496384Y-108160768D01*
X90462450Y-108116544D01*
X90428153Y-108071847D01*
X90302750Y-107975622D01*
X90156715Y-107915132D01*
X90000000Y-107894500D01*
X89843285Y-107915132D01*
X89697250Y-107975622D01*
X89571847Y-108071847D01*
X89475622Y-108197250D01*
X89415132Y-108343285D01*
X89394500Y-108500000D01*
X89415132Y-108656715D01*
X89475622Y-108802750D01*
X89571847Y-108928153D01*
X89697250Y-109024378D01*
X89843285Y-109084868D01*
X90000000Y-109105500D01*
X90156715Y-109084868D01*
X90302750Y-109024378D01*
X90428153Y-108928153D01*
X90496385Y-108839231D01*
X90546809Y-108804577D01*
X90574926Y-108800500D01*
X92675074Y-108800500D01*
X92733265Y-108819407D01*
X92753614Y-108839230D01*
X92821847Y-108928153D01*
X92947250Y-109024378D01*
X93067837Y-109074327D01*
X93085200Y-109081519D01*
X93131725Y-109121256D01*
X93146009Y-109180751D01*
X93122594Y-109237278D01*
X93117318Y-109242987D01*
X92689801Y-109670504D01*
X92635284Y-109698281D01*
X92619797Y-109699500D01*
X90574926Y-109699500D01*
X90516735Y-109680593D01*
X90496384Y-109660768D01*
X90428153Y-109571847D01*
X90302750Y-109475622D01*
X90156715Y-109415132D01*
X90000000Y-109394500D01*
X89843285Y-109415132D01*
X89697250Y-109475622D01*
X89571847Y-109571847D01*
X89475622Y-109697250D01*
X89415132Y-109843285D01*
X89394500Y-110000000D01*
X89415132Y-110156715D01*
X89475622Y-110302750D01*
X89571847Y-110428153D01*
X89697250Y-110524378D01*
X89843285Y-110584868D01*
X90000000Y-110605500D01*
X90156715Y-110584868D01*
X90302750Y-110524378D01*
X90428153Y-110428153D01*
X90496385Y-110339231D01*
X90546809Y-110304577D01*
X90574926Y-110300500D01*
X92733169Y-110300500D01*
X92736301Y-110300730D01*
X92740649Y-110302223D01*
X92749785Y-110301880D01*
X92784678Y-110300570D01*
X92788392Y-110300500D01*
X92812123Y-110300500D01*
X92816607Y-110299665D01*
X92819281Y-110299418D01*
X92824666Y-110299069D01*
X92843306Y-110298369D01*
X92843307Y-110298369D01*
X92852439Y-110298026D01*
X92860834Y-110294420D01*
X92860836Y-110294419D01*
X92863007Y-110293486D01*
X92883951Y-110287123D01*
X92885445Y-110286844D01*
X92886269Y-110286691D01*
X92886270Y-110286691D01*
X92895256Y-110285017D01*
X92903038Y-110280220D01*
X92903041Y-110280219D01*
X92917913Y-110271052D01*
X92930776Y-110264370D01*
X92955225Y-110253866D01*
X92961703Y-110248545D01*
X92965206Y-110245042D01*
X92981881Y-110231861D01*
X92982706Y-110231113D01*
X92990488Y-110226316D01*
X93007234Y-110204294D01*
X93016033Y-110194215D01*
X94125150Y-109085098D01*
X94127528Y-109083046D01*
X94131658Y-109081027D01*
X94161623Y-109048724D01*
X94164200Y-109046048D01*
X94180980Y-109029268D01*
X94183558Y-109025511D01*
X94185290Y-109023426D01*
X94188851Y-109019372D01*
X94201521Y-109005714D01*
X94201523Y-109005711D01*
X94206821Y-109000000D01*
X101144500Y-109000000D01*
X101165132Y-109156715D01*
X101225622Y-109302750D01*
X101321847Y-109428153D01*
X101447250Y-109524378D01*
X101593285Y-109584868D01*
X101750000Y-109605500D01*
X101906715Y-109584868D01*
X102052750Y-109524378D01*
X102178153Y-109428153D01*
X102246385Y-109339231D01*
X102296809Y-109304577D01*
X102324926Y-109300500D01*
X133175074Y-109300500D01*
X133233265Y-109319407D01*
X133253614Y-109339230D01*
X133321847Y-109428153D01*
X133447250Y-109524378D01*
X133593285Y-109584868D01*
X133750000Y-109605500D01*
X133906715Y-109584868D01*
X134052750Y-109524378D01*
X134178153Y-109428153D01*
X134274378Y-109302750D01*
X134334868Y-109156715D01*
X134355500Y-109000000D01*
X134334868Y-108843285D01*
X134274378Y-108697250D01*
X134178153Y-108571847D01*
X134052750Y-108475622D01*
X133906715Y-108415132D01*
X133750000Y-108394500D01*
X133593285Y-108415132D01*
X133447250Y-108475622D01*
X133321847Y-108571847D01*
X133256726Y-108656715D01*
X133253616Y-108660768D01*
X133203191Y-108695423D01*
X133175074Y-108699500D01*
X102324926Y-108699500D01*
X102266735Y-108680593D01*
X102246384Y-108660768D01*
X102243274Y-108656715D01*
X102178153Y-108571847D01*
X102052750Y-108475622D01*
X101906715Y-108415132D01*
X101750000Y-108394500D01*
X101593285Y-108415132D01*
X101447250Y-108475622D01*
X101321847Y-108571847D01*
X101225622Y-108697250D01*
X101165132Y-108843285D01*
X101144500Y-109000000D01*
X94206821Y-109000000D01*
X94207738Y-108999011D01*
X94211126Y-108990519D01*
X94212001Y-108988327D01*
X94222313Y-108969016D01*
X94223643Y-108967077D01*
X94223644Y-108967076D01*
X94228816Y-108959536D01*
X94234960Y-108933646D01*
X94239334Y-108919817D01*
X94246604Y-108901595D01*
X94246604Y-108901593D01*
X94249193Y-108895105D01*
X94250011Y-108886762D01*
X94250011Y-108881812D01*
X94252482Y-108860693D01*
X94252536Y-108859583D01*
X94254647Y-108850689D01*
X94250915Y-108823266D01*
X94250011Y-108809916D01*
X94250011Y-103934691D01*
X94268918Y-103876500D01*
X94279007Y-103864687D01*
X94527821Y-103615873D01*
X94582338Y-103588096D01*
X94642770Y-103597667D01*
X94686035Y-103640932D01*
X94696478Y-103677593D01*
X94711346Y-103854653D01*
X94711840Y-103860538D01*
X94713173Y-103865186D01*
X94713173Y-103865187D01*
X94752275Y-104001549D01*
X94768621Y-104058555D01*
X94770836Y-104062865D01*
X94789567Y-104099311D01*
X94862782Y-104241773D01*
X94990737Y-104403212D01*
X94994417Y-104406344D01*
X94994419Y-104406346D01*
X95057674Y-104460180D01*
X95147612Y-104536723D01*
X95151835Y-104539083D01*
X95151839Y-104539086D01*
X95214948Y-104574356D01*
X95327432Y-104637221D01*
X95332030Y-104638715D01*
X95518742Y-104699382D01*
X95518745Y-104699383D01*
X95523347Y-104700878D01*
X95727895Y-104725269D01*
X95732717Y-104724898D01*
X95732720Y-104724898D01*
X95928458Y-104709837D01*
X95928463Y-104709836D01*
X95933286Y-104709465D01*
X96131695Y-104654068D01*
X96236757Y-104600997D01*
X96297222Y-104591636D01*
X96351641Y-104619604D01*
X96379229Y-104674217D01*
X96369446Y-104734615D01*
X96351398Y-104759367D01*
X95970715Y-105140050D01*
X95916198Y-105167827D01*
X95890363Y-105168504D01*
X95762185Y-105155032D01*
X95762183Y-105155032D01*
X95757369Y-105154526D01*
X95689372Y-105160714D01*
X95557039Y-105172757D01*
X95557036Y-105172758D01*
X95552219Y-105173196D01*
X95547577Y-105174562D01*
X95547573Y-105174563D01*
X95359250Y-105229989D01*
X95359247Y-105229990D01*
X95354603Y-105231357D01*
X95350309Y-105233602D01*
X95176344Y-105324548D01*
X95176340Y-105324551D01*
X95172047Y-105326795D01*
X95168271Y-105329831D01*
X95168268Y-105329833D01*
X95090533Y-105392334D01*
X95011505Y-105455874D01*
X94938736Y-105542597D01*
X94882202Y-105609971D01*
X94882199Y-105609975D01*
X94879093Y-105613677D01*
X94779853Y-105794194D01*
X94778389Y-105798808D01*
X94778388Y-105798811D01*
X94741489Y-105915132D01*
X94717565Y-105990549D01*
X94717025Y-105995361D01*
X94717025Y-105995362D01*
X94701801Y-106131093D01*
X94694603Y-106195263D01*
X94698916Y-106246622D01*
X94708581Y-106361723D01*
X94711840Y-106400538D01*
X94713173Y-106405186D01*
X94713173Y-106405187D01*
X94766399Y-106590805D01*
X94768621Y-106598555D01*
X94862782Y-106781773D01*
X94990737Y-106943212D01*
X94994417Y-106946344D01*
X94994419Y-106946346D01*
X95068262Y-107009191D01*
X95147612Y-107076723D01*
X95151835Y-107079083D01*
X95151839Y-107079086D01*
X95252915Y-107135575D01*
X95327432Y-107177221D01*
X95332030Y-107178715D01*
X95518742Y-107239382D01*
X95518745Y-107239383D01*
X95523347Y-107240878D01*
X95727895Y-107265269D01*
X95732717Y-107264898D01*
X95732720Y-107264898D01*
X95928458Y-107249837D01*
X95928463Y-107249836D01*
X95933286Y-107249465D01*
X96131695Y-107194068D01*
X96142302Y-107188710D01*
X96311244Y-107103371D01*
X96311246Y-107103370D01*
X96315565Y-107101188D01*
X96477893Y-106974363D01*
X96481055Y-106970700D01*
X96481060Y-106970695D01*
X96585481Y-106849721D01*
X96612496Y-106818424D01*
X96635766Y-106777463D01*
X96711858Y-106643517D01*
X96711859Y-106643514D01*
X96714247Y-106639311D01*
X96716264Y-106633250D01*
X96777743Y-106448435D01*
X96777743Y-106448433D01*
X96779270Y-106443844D01*
X96782584Y-106417616D01*
X96804740Y-106242225D01*
X96805088Y-106239471D01*
X96805500Y-106210000D01*
X96804471Y-106199500D01*
X96791648Y-106068729D01*
X96804786Y-106008971D01*
X96820171Y-105989064D01*
X97979361Y-104829875D01*
X99142694Y-103666542D01*
X99152431Y-103658004D01*
X99172511Y-103642596D01*
X99177664Y-103638642D01*
X99200980Y-103608256D01*
X99200984Y-103608252D01*
X99273889Y-103513239D01*
X99334379Y-103367204D01*
X99346826Y-103272662D01*
X99350011Y-103248468D01*
X99355011Y-103210489D01*
X99350858Y-103178943D01*
X99350011Y-103166022D01*
X99350011Y-101064694D01*
X99350858Y-101051772D01*
X99354163Y-101026667D01*
X99355010Y-101020234D01*
X99353708Y-101010340D01*
X99350011Y-100982261D01*
X99350011Y-100982255D01*
X99345402Y-100947250D01*
X99334379Y-100863519D01*
X99273889Y-100717484D01*
X99271970Y-100714983D01*
X99200984Y-100622471D01*
X99200980Y-100622467D01*
X99177664Y-100592081D01*
X99152427Y-100572716D01*
X99142691Y-100564178D01*
X98685826Y-100107314D01*
X98677287Y-100097577D01*
X98673925Y-100093196D01*
X98657919Y-100072336D01*
X98632395Y-100052750D01*
X98623934Y-100046258D01*
X98537665Y-99980062D01*
X98532516Y-99976111D01*
X98386481Y-99915621D01*
X98351199Y-99910976D01*
X98279735Y-99901568D01*
X98222654Y-99873419D01*
X95379496Y-97030261D01*
X95351719Y-96975744D01*
X95350500Y-96960257D01*
X95350500Y-88900000D01*
X98694500Y-88900000D01*
X98694500Y-90600000D01*
X98710143Y-90678641D01*
X98754690Y-90745310D01*
X98821359Y-90789857D01*
X98830922Y-90791759D01*
X98830924Y-90791760D01*
X98856200Y-90796787D01*
X98900000Y-90805500D01*
X100600000Y-90805500D01*
X100643800Y-90796787D01*
X100669076Y-90791760D01*
X100669078Y-90791759D01*
X100678641Y-90789857D01*
X100745310Y-90745310D01*
X100789857Y-90678641D01*
X100805500Y-90600000D01*
X100805500Y-88900000D01*
X100793890Y-88841634D01*
X100791760Y-88830924D01*
X100791759Y-88830922D01*
X100789857Y-88821359D01*
X100745310Y-88754690D01*
X100678641Y-88710143D01*
X100669078Y-88708241D01*
X100669076Y-88708240D01*
X100643800Y-88703213D01*
X100600000Y-88694500D01*
X98900000Y-88694500D01*
X98856200Y-88703213D01*
X98830924Y-88708240D01*
X98830922Y-88708241D01*
X98821359Y-88710143D01*
X98754690Y-88754690D01*
X98710143Y-88821359D01*
X98708241Y-88830922D01*
X98708240Y-88830924D01*
X98706110Y-88841634D01*
X98694500Y-88900000D01*
X95350500Y-88900000D01*
X95350500Y-88539743D01*
X95369407Y-88481552D01*
X95379496Y-88469739D01*
X97219739Y-86629496D01*
X97274256Y-86601719D01*
X97289743Y-86600500D01*
X104960257Y-86600500D01*
X105018448Y-86619407D01*
X105030261Y-86629496D01*
X106110504Y-87709740D01*
X106138281Y-87764257D01*
X106139500Y-87779744D01*
X106139500Y-88587490D01*
X106120593Y-88645681D01*
X106102534Y-88664644D01*
X106011730Y-88737653D01*
X106001505Y-88745874D01*
X105966868Y-88787153D01*
X105872202Y-88899971D01*
X105872199Y-88899975D01*
X105869093Y-88903677D01*
X105769853Y-89084194D01*
X105768389Y-89088808D01*
X105768388Y-89088811D01*
X105764074Y-89102412D01*
X105707565Y-89280549D01*
X105707025Y-89285361D01*
X105707025Y-89285362D01*
X105699319Y-89354068D01*
X105684603Y-89485263D01*
X105701840Y-89690538D01*
X105703173Y-89695186D01*
X105703173Y-89695187D01*
X105754846Y-89875389D01*
X105758621Y-89888555D01*
X105852782Y-90071773D01*
X105980737Y-90233212D01*
X105984417Y-90236344D01*
X105984419Y-90236346D01*
X106014633Y-90262060D01*
X106137612Y-90366723D01*
X106141835Y-90369083D01*
X106141839Y-90369086D01*
X106226772Y-90416553D01*
X106317432Y-90467221D01*
X106322030Y-90468715D01*
X106508742Y-90529382D01*
X106508745Y-90529383D01*
X106513347Y-90530878D01*
X106717895Y-90555269D01*
X106722717Y-90554898D01*
X106722720Y-90554898D01*
X106918458Y-90539837D01*
X106918463Y-90539836D01*
X106923286Y-90539465D01*
X107121695Y-90484068D01*
X107126678Y-90481551D01*
X107301244Y-90393371D01*
X107301246Y-90393370D01*
X107305565Y-90391188D01*
X107467893Y-90264363D01*
X107471055Y-90260700D01*
X107471060Y-90260695D01*
X107560894Y-90156620D01*
X107602496Y-90108424D01*
X107608460Y-90097927D01*
X107701858Y-89933517D01*
X107701859Y-89933514D01*
X107704247Y-89929311D01*
X107712945Y-89903166D01*
X107767743Y-89738435D01*
X107767743Y-89738433D01*
X107769270Y-89733844D01*
X107774154Y-89695187D01*
X107794740Y-89532225D01*
X107795088Y-89529471D01*
X107795500Y-89500000D01*
X107788588Y-89429507D01*
X107775870Y-89299796D01*
X107775869Y-89299792D01*
X107775398Y-89294986D01*
X107772493Y-89285362D01*
X107741668Y-89183267D01*
X107715858Y-89097780D01*
X107619148Y-88915895D01*
X107488952Y-88756259D01*
X107376395Y-88663144D01*
X107343610Y-88611483D01*
X107340500Y-88586863D01*
X107340500Y-88449500D01*
X107359407Y-88391309D01*
X107408907Y-88355345D01*
X107439500Y-88350500D01*
X108808367Y-88350500D01*
X108866558Y-88369407D01*
X108902522Y-88418907D01*
X108902522Y-88480093D01*
X108866558Y-88529593D01*
X108854233Y-88537234D01*
X108706344Y-88614548D01*
X108706340Y-88614551D01*
X108702047Y-88616795D01*
X108698271Y-88619831D01*
X108698268Y-88619833D01*
X108576263Y-88717928D01*
X108541505Y-88745874D01*
X108506868Y-88787153D01*
X108412202Y-88899971D01*
X108412199Y-88899975D01*
X108409093Y-88903677D01*
X108309853Y-89084194D01*
X108308389Y-89088808D01*
X108308388Y-89088811D01*
X108304074Y-89102412D01*
X108247565Y-89280549D01*
X108247025Y-89285361D01*
X108247025Y-89285362D01*
X108239319Y-89354068D01*
X108224603Y-89485263D01*
X108241840Y-89690538D01*
X108243173Y-89695186D01*
X108243173Y-89695187D01*
X108294846Y-89875389D01*
X108298621Y-89888555D01*
X108392782Y-90071773D01*
X108520737Y-90233212D01*
X108524417Y-90236344D01*
X108524419Y-90236346D01*
X108554633Y-90262060D01*
X108677612Y-90366723D01*
X108681835Y-90369083D01*
X108681839Y-90369086D01*
X108766772Y-90416553D01*
X108857432Y-90467221D01*
X108862030Y-90468715D01*
X109048742Y-90529382D01*
X109048745Y-90529383D01*
X109053347Y-90530878D01*
X109257895Y-90555269D01*
X109262717Y-90554898D01*
X109262720Y-90554898D01*
X109458458Y-90539837D01*
X109458463Y-90539836D01*
X109463286Y-90539465D01*
X109661695Y-90484068D01*
X109666678Y-90481551D01*
X109841244Y-90393371D01*
X109841246Y-90393370D01*
X109845565Y-90391188D01*
X110007893Y-90264363D01*
X110011055Y-90260700D01*
X110011060Y-90260695D01*
X110100894Y-90156620D01*
X110142496Y-90108424D01*
X110148460Y-90097927D01*
X110241858Y-89933517D01*
X110241859Y-89933514D01*
X110244247Y-89929311D01*
X110252945Y-89903166D01*
X110307743Y-89738435D01*
X110307743Y-89738433D01*
X110309270Y-89733844D01*
X110314154Y-89695187D01*
X110334740Y-89532225D01*
X110335088Y-89529471D01*
X110335500Y-89500000D01*
X110328588Y-89429507D01*
X110315870Y-89299796D01*
X110315869Y-89299792D01*
X110315398Y-89294986D01*
X110312493Y-89285362D01*
X110281668Y-89183267D01*
X110255858Y-89097780D01*
X110159148Y-88915895D01*
X110028952Y-88756259D01*
X110006461Y-88737653D01*
X109873955Y-88628034D01*
X109873953Y-88628033D01*
X109870228Y-88624951D01*
X109743412Y-88556381D01*
X109706800Y-88536585D01*
X109664605Y-88492276D01*
X109656513Y-88431628D01*
X109685615Y-88377807D01*
X109740794Y-88351370D01*
X109753887Y-88350500D01*
X111348367Y-88350500D01*
X111406558Y-88369407D01*
X111442522Y-88418907D01*
X111442522Y-88480093D01*
X111406558Y-88529593D01*
X111394233Y-88537234D01*
X111246344Y-88614548D01*
X111246340Y-88614551D01*
X111242047Y-88616795D01*
X111238271Y-88619831D01*
X111238268Y-88619833D01*
X111116263Y-88717928D01*
X111081505Y-88745874D01*
X111046868Y-88787153D01*
X110952202Y-88899971D01*
X110952199Y-88899975D01*
X110949093Y-88903677D01*
X110849853Y-89084194D01*
X110848389Y-89088808D01*
X110848388Y-89088811D01*
X110844074Y-89102412D01*
X110787565Y-89280549D01*
X110787025Y-89285361D01*
X110787025Y-89285362D01*
X110779319Y-89354068D01*
X110764603Y-89485263D01*
X110781840Y-89690538D01*
X110783173Y-89695186D01*
X110783173Y-89695187D01*
X110834846Y-89875389D01*
X110838621Y-89888555D01*
X110932782Y-90071773D01*
X111060737Y-90233212D01*
X111064417Y-90236344D01*
X111064419Y-90236346D01*
X111094633Y-90262060D01*
X111217612Y-90366723D01*
X111221835Y-90369083D01*
X111221839Y-90369086D01*
X111306772Y-90416553D01*
X111397432Y-90467221D01*
X111402030Y-90468715D01*
X111588742Y-90529382D01*
X111588745Y-90529383D01*
X111593347Y-90530878D01*
X111797895Y-90555269D01*
X111802717Y-90554898D01*
X111802720Y-90554898D01*
X111998458Y-90539837D01*
X111998463Y-90539836D01*
X112003286Y-90539465D01*
X112201695Y-90484068D01*
X112206678Y-90481551D01*
X112381244Y-90393371D01*
X112381246Y-90393370D01*
X112385565Y-90391188D01*
X112501640Y-90300500D01*
X113894997Y-90300500D01*
X113915629Y-90457215D01*
X113976119Y-90603250D01*
X114072344Y-90728653D01*
X114197747Y-90824878D01*
X114343782Y-90885368D01*
X114500497Y-90906000D01*
X114611620Y-90891370D01*
X114671779Y-90902520D01*
X114694545Y-90919519D01*
X115371464Y-91596439D01*
X115399241Y-91650956D01*
X115400460Y-91666443D01*
X115400460Y-100133560D01*
X115381553Y-100191751D01*
X115371464Y-100203564D01*
X114944048Y-100630980D01*
X114889531Y-100658757D01*
X114861122Y-100659129D01*
X114756434Y-100645347D01*
X114750000Y-100644500D01*
X114593285Y-100665132D01*
X114447250Y-100725622D01*
X114321847Y-100821847D01*
X114225622Y-100947250D01*
X114199489Y-101010340D01*
X114171878Y-101077000D01*
X114165132Y-101093285D01*
X114144500Y-101250000D01*
X114165132Y-101406715D01*
X114167616Y-101412712D01*
X114171879Y-101423003D01*
X114225622Y-101552750D01*
X114321847Y-101678153D01*
X114447250Y-101774378D01*
X114593285Y-101834868D01*
X114750000Y-101855500D01*
X114906715Y-101834868D01*
X115016119Y-101789551D01*
X115077116Y-101784750D01*
X115129285Y-101816719D01*
X115152700Y-101873247D01*
X115138417Y-101932742D01*
X115124009Y-101951019D01*
X114944048Y-102130980D01*
X114889531Y-102158757D01*
X114861122Y-102159129D01*
X114756434Y-102145347D01*
X114750000Y-102144500D01*
X114593285Y-102165132D01*
X114447250Y-102225622D01*
X114321847Y-102321847D01*
X114225622Y-102447250D01*
X114165132Y-102593285D01*
X114153438Y-102682107D01*
X114145879Y-102739529D01*
X114144500Y-102750000D01*
X114165132Y-102906715D01*
X114225622Y-103052750D01*
X114321847Y-103178153D01*
X114447250Y-103274378D01*
X114593285Y-103334868D01*
X114750000Y-103355500D01*
X114906715Y-103334868D01*
X115052750Y-103274378D01*
X115178153Y-103178153D01*
X115274378Y-103052750D01*
X115334868Y-102906715D01*
X115355500Y-102750000D01*
X115340870Y-102638877D01*
X115352020Y-102578718D01*
X115369019Y-102555952D01*
X116030496Y-101894475D01*
X116085013Y-101866698D01*
X116145445Y-101876269D01*
X116188710Y-101919534D01*
X116199500Y-101964479D01*
X116199500Y-102762898D01*
X116199270Y-102766030D01*
X116197777Y-102770378D01*
X116198120Y-102779514D01*
X116199430Y-102814407D01*
X116199500Y-102818121D01*
X116199500Y-102841852D01*
X116200335Y-102846336D01*
X116200582Y-102849010D01*
X116200931Y-102854395D01*
X116201387Y-102866544D01*
X116201974Y-102882168D01*
X116205580Y-102890563D01*
X116205581Y-102890565D01*
X116206514Y-102892736D01*
X116212877Y-102913680D01*
X116214983Y-102924985D01*
X116219780Y-102932767D01*
X116219781Y-102932770D01*
X116228948Y-102947642D01*
X116235630Y-102960505D01*
X116246134Y-102984954D01*
X116251455Y-102991432D01*
X116254958Y-102994935D01*
X116268139Y-103011610D01*
X116268887Y-103012435D01*
X116273684Y-103020217D01*
X116280959Y-103025749D01*
X116280960Y-103025750D01*
X116295705Y-103036962D01*
X116305785Y-103045762D01*
X116421261Y-103161238D01*
X116449038Y-103215755D01*
X116449500Y-103219443D01*
X116449500Y-103223043D01*
X116450335Y-103227526D01*
X116450582Y-103230202D01*
X116450931Y-103235586D01*
X116451974Y-103263359D01*
X116455580Y-103271754D01*
X116455581Y-103271756D01*
X116456514Y-103273927D01*
X116462877Y-103294871D01*
X116464983Y-103306176D01*
X116469780Y-103313958D01*
X116469781Y-103313961D01*
X116478948Y-103328833D01*
X116485630Y-103341696D01*
X116496134Y-103366145D01*
X116501455Y-103372623D01*
X116504958Y-103376126D01*
X116518139Y-103392801D01*
X116518887Y-103393626D01*
X116523684Y-103401408D01*
X116530959Y-103406940D01*
X116530960Y-103406941D01*
X116545705Y-103418153D01*
X116555785Y-103426953D01*
X117456760Y-104327928D01*
X117484537Y-104382445D01*
X117484909Y-104410851D01*
X117470279Y-104521976D01*
X117490911Y-104678691D01*
X117551401Y-104824726D01*
X117647626Y-104950129D01*
X117773029Y-105046354D01*
X117919064Y-105106844D01*
X118075779Y-105127476D01*
X118232494Y-105106844D01*
X118378529Y-105046354D01*
X118503932Y-104950129D01*
X118600157Y-104824726D01*
X118660647Y-104678691D01*
X118681279Y-104521976D01*
X118660647Y-104365261D01*
X118600157Y-104219226D01*
X118503932Y-104093823D01*
X118378529Y-103997598D01*
X118372538Y-103995116D01*
X118372532Y-103995113D01*
X118354262Y-103987546D01*
X118307736Y-103947810D01*
X118293452Y-103888315D01*
X118316867Y-103831787D01*
X118354262Y-103804618D01*
X118366057Y-103799733D01*
X118366063Y-103799730D01*
X118372054Y-103797248D01*
X118497457Y-103701023D01*
X118593682Y-103575620D01*
X118654172Y-103429585D01*
X118674804Y-103272870D01*
X118673572Y-103263508D01*
X118668244Y-103223043D01*
X118654172Y-103116155D01*
X118593682Y-102970120D01*
X118497457Y-102844717D01*
X118372054Y-102748492D01*
X118226019Y-102688002D01*
X118069304Y-102667370D01*
X117958181Y-102682000D01*
X117898022Y-102670850D01*
X117875256Y-102653851D01*
X117229016Y-102007610D01*
X117201239Y-101953093D01*
X117200020Y-101937606D01*
X117200020Y-99613999D01*
X117218927Y-99555808D01*
X117268427Y-99519844D01*
X117329613Y-99519844D01*
X117369024Y-99543995D01*
X117630981Y-99805952D01*
X117658758Y-99860469D01*
X117659130Y-99888875D01*
X117644500Y-100000000D01*
X117665132Y-100156715D01*
X117667616Y-100162712D01*
X117672527Y-100174568D01*
X117725622Y-100302750D01*
X117821847Y-100428153D01*
X117947250Y-100524378D01*
X118093285Y-100584868D01*
X118250000Y-100605500D01*
X118406715Y-100584868D01*
X118552750Y-100524378D01*
X118678153Y-100428153D01*
X118774378Y-100302750D01*
X118827473Y-100174568D01*
X118832384Y-100162712D01*
X118834868Y-100156715D01*
X118855500Y-100000000D01*
X118834868Y-99843285D01*
X118774378Y-99697250D01*
X118678153Y-99571847D01*
X118552750Y-99475622D01*
X118406715Y-99415132D01*
X118250000Y-99394500D01*
X118243566Y-99395347D01*
X118138878Y-99409129D01*
X118078717Y-99397979D01*
X118055952Y-99380980D01*
X117628536Y-98953564D01*
X117600759Y-98899047D01*
X117599540Y-98883560D01*
X117599540Y-91666442D01*
X117618447Y-91608251D01*
X117628536Y-91596438D01*
X118305455Y-90919519D01*
X118359972Y-90891742D01*
X118388378Y-90891370D01*
X118499503Y-90906000D01*
X118656218Y-90885368D01*
X118802253Y-90824878D01*
X118927656Y-90728653D01*
X119023881Y-90603250D01*
X119084371Y-90457215D01*
X119105003Y-90300500D01*
X119084371Y-90143785D01*
X119023881Y-89997750D01*
X118927656Y-89872347D01*
X118802253Y-89776122D01*
X118656218Y-89715632D01*
X118499503Y-89695000D01*
X118342788Y-89715632D01*
X118196753Y-89776122D01*
X118191604Y-89780073D01*
X118076497Y-89868397D01*
X118076495Y-89868399D01*
X118071350Y-89872347D01*
X118068854Y-89875600D01*
X118015234Y-89902918D01*
X117954802Y-89893344D01*
X117930988Y-89876042D01*
X117928153Y-89872347D01*
X117802750Y-89776122D01*
X117656715Y-89715632D01*
X117500000Y-89695000D01*
X117343285Y-89715632D01*
X117197250Y-89776122D01*
X117071847Y-89872347D01*
X117069197Y-89875800D01*
X117015487Y-89903166D01*
X116955055Y-89893595D01*
X116931106Y-89876195D01*
X116928153Y-89872347D01*
X116802750Y-89776122D01*
X116656715Y-89715632D01*
X116500000Y-89695000D01*
X116343285Y-89715632D01*
X116197250Y-89776122D01*
X116071847Y-89872347D01*
X116069197Y-89875800D01*
X116015487Y-89903166D01*
X115955055Y-89893595D01*
X115931106Y-89876195D01*
X115928153Y-89872347D01*
X115802750Y-89776122D01*
X115656715Y-89715632D01*
X115500000Y-89695000D01*
X115343285Y-89715632D01*
X115197250Y-89776122D01*
X115192101Y-89780073D01*
X115076994Y-89868397D01*
X115076992Y-89868399D01*
X115071847Y-89872347D01*
X115069351Y-89875600D01*
X115015731Y-89902918D01*
X114955299Y-89893344D01*
X114931485Y-89876042D01*
X114928650Y-89872347D01*
X114803247Y-89776122D01*
X114657212Y-89715632D01*
X114500497Y-89695000D01*
X114343782Y-89715632D01*
X114197747Y-89776122D01*
X114072344Y-89872347D01*
X113976119Y-89997750D01*
X113915629Y-90143785D01*
X113894997Y-90300500D01*
X112501640Y-90300500D01*
X112547893Y-90264363D01*
X112551055Y-90260700D01*
X112551060Y-90260695D01*
X112640894Y-90156620D01*
X112682496Y-90108424D01*
X112688460Y-90097927D01*
X112781858Y-89933517D01*
X112781859Y-89933514D01*
X112784247Y-89929311D01*
X112792945Y-89903166D01*
X112847743Y-89738435D01*
X112847743Y-89738433D01*
X112849270Y-89733844D01*
X112854154Y-89695187D01*
X112874740Y-89532225D01*
X112875088Y-89529471D01*
X112875500Y-89500000D01*
X112868588Y-89429507D01*
X112855870Y-89299796D01*
X112855869Y-89299792D01*
X112855398Y-89294986D01*
X112852493Y-89285362D01*
X112821668Y-89183267D01*
X112795858Y-89097780D01*
X112699148Y-88915895D01*
X112568952Y-88756259D01*
X112546461Y-88737653D01*
X112413955Y-88628034D01*
X112413953Y-88628033D01*
X112410228Y-88624951D01*
X112283412Y-88556381D01*
X112246800Y-88536585D01*
X112204605Y-88492276D01*
X112196513Y-88431628D01*
X112225615Y-88377807D01*
X112280794Y-88351370D01*
X112293887Y-88350500D01*
X118643033Y-88350500D01*
X118655954Y-88351347D01*
X118687500Y-88355500D01*
X118844215Y-88334868D01*
X118990250Y-88274378D01*
X119085262Y-88201473D01*
X119085263Y-88201472D01*
X119115653Y-88178153D01*
X119135018Y-88152916D01*
X119143556Y-88143179D01*
X121157239Y-86129496D01*
X121211756Y-86101719D01*
X121227243Y-86100500D01*
X125460257Y-86100500D01*
X125518448Y-86119407D01*
X125530261Y-86129496D01*
X126370993Y-86970228D01*
X126398770Y-87024745D01*
X126399989Y-87040232D01*
X126399989Y-87644491D01*
X126399142Y-87657412D01*
X126394989Y-87688958D01*
X126397282Y-87706372D01*
X126386133Y-87766531D01*
X126341752Y-87808649D01*
X126286207Y-87817447D01*
X126250500Y-87812746D01*
X126093785Y-87833378D01*
X125947750Y-87893868D01*
X125822347Y-87990093D01*
X125770318Y-88057899D01*
X125754116Y-88079014D01*
X125703691Y-88113669D01*
X125675574Y-88117746D01*
X125333725Y-88117746D01*
X125275534Y-88098839D01*
X125263721Y-88088749D01*
X124799817Y-87624844D01*
X124797767Y-87622470D01*
X124795750Y-87618342D01*
X124763460Y-87588389D01*
X124760784Y-87585812D01*
X124743992Y-87569020D01*
X124740233Y-87566441D01*
X124738152Y-87564712D01*
X124734095Y-87561149D01*
X124720437Y-87548479D01*
X124720434Y-87548477D01*
X124713734Y-87542262D01*
X124703053Y-87538001D01*
X124683736Y-87527686D01*
X124674260Y-87521185D01*
X124648358Y-87515038D01*
X124634555Y-87510672D01*
X124609828Y-87500807D01*
X124601485Y-87499989D01*
X124596535Y-87499989D01*
X124575416Y-87497518D01*
X124574306Y-87497464D01*
X124565412Y-87495353D01*
X124544014Y-87498265D01*
X124537989Y-87499085D01*
X124524639Y-87499989D01*
X122751619Y-87499989D01*
X122748487Y-87499759D01*
X122744139Y-87498266D01*
X122735004Y-87498609D01*
X122700120Y-87499919D01*
X122696405Y-87499989D01*
X122672665Y-87499989D01*
X122668183Y-87500824D01*
X122665485Y-87501073D01*
X122660099Y-87501422D01*
X122641481Y-87502121D01*
X122641480Y-87502121D01*
X122632348Y-87502464D01*
X122623955Y-87506070D01*
X122623950Y-87506071D01*
X122621789Y-87507000D01*
X122600834Y-87513367D01*
X122598520Y-87513798D01*
X122589532Y-87515472D01*
X122569721Y-87527684D01*
X122566882Y-87529434D01*
X122554010Y-87536120D01*
X122543310Y-87540717D01*
X122529563Y-87546623D01*
X122523085Y-87551944D01*
X122519582Y-87555447D01*
X122502907Y-87568628D01*
X122502082Y-87569376D01*
X122494300Y-87574173D01*
X122488768Y-87581448D01*
X122488767Y-87581449D01*
X122477555Y-87596194D01*
X122468755Y-87606274D01*
X118694048Y-91380980D01*
X118639531Y-91408757D01*
X118611122Y-91409129D01*
X118506434Y-91395347D01*
X118500000Y-91394500D01*
X118343285Y-91415132D01*
X118197250Y-91475622D01*
X118071847Y-91571847D01*
X117975622Y-91697250D01*
X117915132Y-91843285D01*
X117894500Y-92000000D01*
X117915132Y-92156715D01*
X117917616Y-92162712D01*
X117924012Y-92178153D01*
X117975622Y-92302750D01*
X118071847Y-92428153D01*
X118197250Y-92524378D01*
X118343285Y-92584868D01*
X118500000Y-92605500D01*
X118656715Y-92584868D01*
X118802750Y-92524378D01*
X118928153Y-92428153D01*
X119024378Y-92302750D01*
X119075988Y-92178153D01*
X119082384Y-92162712D01*
X119084868Y-92156715D01*
X119105500Y-92000000D01*
X119090870Y-91888877D01*
X119102020Y-91828718D01*
X119119019Y-91805952D01*
X122794986Y-88129985D01*
X122849503Y-88102208D01*
X122864990Y-88100989D01*
X124385010Y-88100989D01*
X124443201Y-88119896D01*
X124455014Y-88129985D01*
X124918914Y-88593885D01*
X124920966Y-88596263D01*
X124922985Y-88600393D01*
X124929685Y-88606608D01*
X124955288Y-88630358D01*
X124957964Y-88632935D01*
X124974743Y-88649714D01*
X124978495Y-88652287D01*
X124980567Y-88654009D01*
X124984628Y-88657574D01*
X124993813Y-88666094D01*
X125005001Y-88676473D01*
X125013488Y-88679859D01*
X125013491Y-88679861D01*
X125015680Y-88680734D01*
X125034999Y-88691049D01*
X125044475Y-88697550D01*
X125053369Y-88699661D01*
X125053370Y-88699661D01*
X125070361Y-88703693D01*
X125084190Y-88708067D01*
X125102417Y-88715339D01*
X125102419Y-88715339D01*
X125108907Y-88717928D01*
X125117250Y-88718746D01*
X125122204Y-88718746D01*
X125143309Y-88721216D01*
X125144430Y-88721271D01*
X125153322Y-88723381D01*
X125180736Y-88719650D01*
X125194087Y-88718746D01*
X125465435Y-88718746D01*
X125523626Y-88737653D01*
X125559590Y-88787153D01*
X125559590Y-88848339D01*
X125525702Y-88896288D01*
X125434480Y-88966284D01*
X125434476Y-88966288D01*
X125404090Y-88989604D01*
X125400136Y-88994757D01*
X125384728Y-89014837D01*
X125376190Y-89024574D01*
X124606821Y-89793944D01*
X124597084Y-89802482D01*
X124571847Y-89821847D01*
X124548528Y-89852237D01*
X124548527Y-89852238D01*
X124475622Y-89947250D01*
X124415132Y-90093285D01*
X124394500Y-90250000D01*
X124395347Y-90256434D01*
X124398653Y-90281545D01*
X124399500Y-90294467D01*
X124399500Y-91205533D01*
X124398653Y-91218452D01*
X124397189Y-91229573D01*
X124395164Y-91244955D01*
X124368822Y-91300179D01*
X124315051Y-91329374D01*
X124254389Y-91321386D01*
X124227007Y-91302035D01*
X123999328Y-91074356D01*
X123997279Y-91071982D01*
X123995261Y-91067853D01*
X123962971Y-91037900D01*
X123960295Y-91035323D01*
X123943503Y-91018531D01*
X123939744Y-91015952D01*
X123937663Y-91014223D01*
X123933606Y-91010660D01*
X123919948Y-90997990D01*
X123919945Y-90997988D01*
X123913245Y-90991773D01*
X123902564Y-90987512D01*
X123883247Y-90977197D01*
X123873771Y-90970696D01*
X123847869Y-90964549D01*
X123834066Y-90960183D01*
X123809339Y-90950318D01*
X123800996Y-90949500D01*
X123796046Y-90949500D01*
X123774927Y-90947029D01*
X123773817Y-90946975D01*
X123764923Y-90944864D01*
X123743525Y-90947776D01*
X123737500Y-90948596D01*
X123724150Y-90949500D01*
X121154539Y-90949500D01*
X121151407Y-90949270D01*
X121147059Y-90947777D01*
X121137923Y-90948120D01*
X121103030Y-90949430D01*
X121099316Y-90949500D01*
X121075585Y-90949500D01*
X121071101Y-90950335D01*
X121068427Y-90950582D01*
X121063042Y-90950931D01*
X121044402Y-90951631D01*
X121044401Y-90951631D01*
X121035269Y-90951974D01*
X121026874Y-90955580D01*
X121026872Y-90955581D01*
X121024701Y-90956514D01*
X121003757Y-90962877D01*
X121002263Y-90963156D01*
X121001439Y-90963309D01*
X121001438Y-90963309D01*
X120992452Y-90964983D01*
X120984670Y-90969780D01*
X120984667Y-90969781D01*
X120969795Y-90978948D01*
X120956932Y-90985630D01*
X120932483Y-90996134D01*
X120926005Y-91001455D01*
X120922502Y-91004958D01*
X120905826Y-91018139D01*
X120904999Y-91018889D01*
X120897220Y-91023684D01*
X120891689Y-91030958D01*
X120880472Y-91045709D01*
X120871671Y-91055789D01*
X120796479Y-91130981D01*
X120741962Y-91158758D01*
X120713556Y-91159130D01*
X120602431Y-91144500D01*
X120445716Y-91165132D01*
X120299681Y-91225622D01*
X120174278Y-91321847D01*
X120078053Y-91447250D01*
X120066301Y-91475622D01*
X120024309Y-91577000D01*
X120017563Y-91593285D01*
X119996931Y-91750000D01*
X120017563Y-91906715D01*
X120078053Y-92052750D01*
X120174278Y-92178153D01*
X120299681Y-92274378D01*
X120445716Y-92334868D01*
X120602431Y-92355500D01*
X120608865Y-92354653D01*
X120608866Y-92354653D01*
X120620549Y-92353115D01*
X120680709Y-92364265D01*
X120722826Y-92408648D01*
X120730812Y-92469310D01*
X120703474Y-92521271D01*
X119824356Y-93400389D01*
X119821982Y-93402438D01*
X119817853Y-93404456D01*
X119811636Y-93411158D01*
X119787900Y-93436746D01*
X119785323Y-93439422D01*
X119768531Y-93456214D01*
X119765952Y-93459973D01*
X119764223Y-93462054D01*
X119760660Y-93466111D01*
X119747990Y-93479769D01*
X119747988Y-93479772D01*
X119741773Y-93486472D01*
X119737512Y-93497153D01*
X119727197Y-93516470D01*
X119720696Y-93525946D01*
X119714549Y-93551848D01*
X119710183Y-93565651D01*
X119700318Y-93590378D01*
X119699500Y-93598721D01*
X119699500Y-93603671D01*
X119697029Y-93624790D01*
X119696975Y-93625900D01*
X119694864Y-93634794D01*
X119696097Y-93643851D01*
X119698596Y-93662217D01*
X119699500Y-93675567D01*
X119699500Y-97947892D01*
X119699270Y-97951024D01*
X119697777Y-97955372D01*
X119698120Y-97964508D01*
X119699430Y-97999401D01*
X119699500Y-98003115D01*
X119699500Y-98026846D01*
X119700335Y-98031330D01*
X119700582Y-98034004D01*
X119700931Y-98039389D01*
X119701974Y-98067162D01*
X119705580Y-98075557D01*
X119705581Y-98075559D01*
X119706514Y-98077730D01*
X119712877Y-98098674D01*
X119714983Y-98109979D01*
X119719780Y-98117761D01*
X119719781Y-98117764D01*
X119728948Y-98132636D01*
X119735630Y-98145499D01*
X119746134Y-98169948D01*
X119751455Y-98176426D01*
X119754958Y-98179929D01*
X119768139Y-98196604D01*
X119768887Y-98197429D01*
X119773684Y-98205211D01*
X119780959Y-98210743D01*
X119780960Y-98210744D01*
X119795705Y-98221956D01*
X119805785Y-98230756D01*
X119870015Y-98294986D01*
X119897792Y-98349503D01*
X119899011Y-98364990D01*
X119899011Y-100367330D01*
X119880104Y-100425521D01*
X119830604Y-100461485D01*
X119769418Y-100461485D01*
X119762126Y-100458794D01*
X119662715Y-100417617D01*
X119662713Y-100417616D01*
X119656715Y-100415132D01*
X119500000Y-100394500D01*
X119343285Y-100415132D01*
X119197250Y-100475622D01*
X119071847Y-100571847D01*
X118975622Y-100697250D01*
X118947054Y-100766218D01*
X118921878Y-100827000D01*
X118915132Y-100843285D01*
X118894500Y-101000000D01*
X118915132Y-101156715D01*
X118975622Y-101302750D01*
X119071847Y-101428153D01*
X119160769Y-101496385D01*
X119195423Y-101546809D01*
X119199500Y-101574926D01*
X119199500Y-105084521D01*
X119180593Y-105142712D01*
X119170504Y-105154525D01*
X118554044Y-105770984D01*
X118499527Y-105798761D01*
X118484040Y-105799980D01*
X107515959Y-105799980D01*
X107457768Y-105781073D01*
X107445955Y-105770984D01*
X102283314Y-100608342D01*
X102255537Y-100553825D01*
X102265108Y-100493393D01*
X102308373Y-100450128D01*
X102368805Y-100440557D01*
X102413585Y-100459796D01*
X102497750Y-100524378D01*
X102643785Y-100584868D01*
X102800500Y-100605500D01*
X102957215Y-100584868D01*
X103103250Y-100524378D01*
X103228653Y-100428153D01*
X103324878Y-100302750D01*
X103377973Y-100174568D01*
X103382884Y-100162712D01*
X103385368Y-100156715D01*
X103406000Y-100000000D01*
X103385368Y-99843285D01*
X103324878Y-99697250D01*
X103228653Y-99571847D01*
X103103250Y-99475622D01*
X102957215Y-99415132D01*
X102925884Y-99411007D01*
X102886577Y-99405832D01*
X102831352Y-99379491D01*
X102802158Y-99325720D01*
X102800500Y-99307679D01*
X102800500Y-88324926D01*
X102819407Y-88266735D01*
X102839230Y-88246386D01*
X102928153Y-88178153D01*
X103024378Y-88052750D01*
X103075988Y-87928153D01*
X103082384Y-87912712D01*
X103084868Y-87906715D01*
X103105500Y-87750000D01*
X103084868Y-87593285D01*
X103024378Y-87447250D01*
X102928153Y-87321847D01*
X102802750Y-87225622D01*
X102656715Y-87165132D01*
X102500000Y-87144500D01*
X102343285Y-87165132D01*
X102197250Y-87225622D01*
X102071847Y-87321847D01*
X102015880Y-87394785D01*
X102012662Y-87398979D01*
X101962237Y-87433634D01*
X101901073Y-87432032D01*
X101852531Y-87394785D01*
X101837615Y-87355927D01*
X101837394Y-87355986D01*
X101836830Y-87353882D01*
X101835967Y-87351633D01*
X101835715Y-87349721D01*
X101834868Y-87343285D01*
X101828123Y-87327000D01*
X101786130Y-87225622D01*
X101774378Y-87197250D01*
X101678153Y-87071847D01*
X101552750Y-86975622D01*
X101406715Y-86915132D01*
X101250000Y-86894500D01*
X101093285Y-86915132D01*
X100947250Y-86975622D01*
X100821847Y-87071847D01*
X100725622Y-87197250D01*
X100713870Y-87225622D01*
X100671878Y-87327000D01*
X100665132Y-87343285D01*
X100644500Y-87500000D01*
X100665132Y-87656715D01*
X100725622Y-87802750D01*
X100821847Y-87928153D01*
X100947250Y-88024378D01*
X101093285Y-88084868D01*
X101250000Y-88105500D01*
X101361123Y-88090870D01*
X101421282Y-88102020D01*
X101444048Y-88119019D01*
X101670504Y-88345475D01*
X101698281Y-88399992D01*
X101699500Y-88415479D01*
X101699500Y-97639853D01*
X101680593Y-97698044D01*
X101631093Y-97734008D01*
X101569907Y-97734008D01*
X101555067Y-97727400D01*
X101552750Y-97725622D01*
X101546762Y-97723142D01*
X101546759Y-97723140D01*
X101412712Y-97667616D01*
X101406715Y-97665132D01*
X101250000Y-97644500D01*
X101093285Y-97665132D01*
X100947250Y-97725622D01*
X100821847Y-97821847D01*
X100725622Y-97947250D01*
X100665132Y-98093285D01*
X100644500Y-98250000D01*
X100665132Y-98406715D01*
X100725622Y-98552750D01*
X100729573Y-98557899D01*
X100780528Y-98624305D01*
X100800986Y-98684572D01*
X100800986Y-100283658D01*
X100800756Y-100286790D01*
X100799263Y-100291138D01*
X100799606Y-100300274D01*
X100800916Y-100335167D01*
X100800986Y-100338881D01*
X100800986Y-100362612D01*
X100801821Y-100367096D01*
X100802068Y-100369770D01*
X100802417Y-100375155D01*
X100803460Y-100402928D01*
X100807066Y-100411323D01*
X100807067Y-100411325D01*
X100808000Y-100413496D01*
X100814363Y-100434440D01*
X100816469Y-100445745D01*
X100821266Y-100453527D01*
X100821267Y-100453530D01*
X100830434Y-100468402D01*
X100837116Y-100481265D01*
X100847620Y-100505714D01*
X100852941Y-100512192D01*
X100856444Y-100515695D01*
X100869625Y-100532370D01*
X100870373Y-100533195D01*
X100875170Y-100540977D01*
X100882445Y-100546509D01*
X100882446Y-100546510D01*
X100897191Y-100557722D01*
X100907271Y-100566522D01*
X101215899Y-100875150D01*
X101217951Y-100877528D01*
X101219970Y-100881658D01*
X101234314Y-100894964D01*
X101252273Y-100911623D01*
X101254949Y-100914200D01*
X101271728Y-100930979D01*
X101275480Y-100933552D01*
X101277552Y-100935274D01*
X101281613Y-100938839D01*
X101285130Y-100942101D01*
X101301986Y-100957738D01*
X101310473Y-100961124D01*
X101310476Y-100961126D01*
X101312665Y-100961999D01*
X101331984Y-100972314D01*
X101341460Y-100978815D01*
X101367360Y-100984962D01*
X101381168Y-100989329D01*
X101405892Y-100999193D01*
X101414235Y-101000011D01*
X101419187Y-101000011D01*
X101440293Y-101002481D01*
X101441411Y-101002536D01*
X101450307Y-101004647D01*
X101477727Y-101000915D01*
X101491078Y-101000011D01*
X101784032Y-101000011D01*
X101842223Y-101018918D01*
X101854036Y-101029007D01*
X106855525Y-106030496D01*
X106883302Y-106085013D01*
X106873731Y-106145445D01*
X106830466Y-106188710D01*
X106785521Y-106199500D01*
X105800258Y-106199500D01*
X105742067Y-106180593D01*
X105730254Y-106170504D01*
X100396886Y-100837134D01*
X100369109Y-100782617D01*
X100367890Y-100767130D01*
X100367890Y-99869498D01*
X100368120Y-99866366D01*
X100369613Y-99862018D01*
X100367960Y-99817999D01*
X100367890Y-99814284D01*
X100367890Y-99790544D01*
X100367055Y-99786062D01*
X100366806Y-99783364D01*
X100366457Y-99777978D01*
X100365758Y-99759360D01*
X100365758Y-99759359D01*
X100365415Y-99750227D01*
X100361809Y-99741834D01*
X100361808Y-99741829D01*
X100360879Y-99739668D01*
X100354512Y-99718713D01*
X100354081Y-99716399D01*
X100352407Y-99707411D01*
X100338444Y-99684759D01*
X100331759Y-99671889D01*
X100324016Y-99653866D01*
X100324015Y-99653865D01*
X100321256Y-99647442D01*
X100315935Y-99640964D01*
X100312432Y-99637461D01*
X100299251Y-99620786D01*
X100298503Y-99619961D01*
X100293706Y-99612179D01*
X100271684Y-99595433D01*
X100261605Y-99586634D01*
X98079496Y-97404524D01*
X98051719Y-97350007D01*
X98050500Y-97334520D01*
X98050500Y-97074926D01*
X98069407Y-97016735D01*
X98089230Y-96996386D01*
X98178153Y-96928153D01*
X98274378Y-96802750D01*
X98334868Y-96656715D01*
X98355500Y-96500000D01*
X98334868Y-96343285D01*
X98274378Y-96197250D01*
X98178153Y-96071847D01*
X98052750Y-95975622D01*
X97906715Y-95915132D01*
X97750000Y-95894500D01*
X97593285Y-95915132D01*
X97447250Y-95975622D01*
X97321847Y-96071847D01*
X97256726Y-96156715D01*
X97253616Y-96160768D01*
X97203191Y-96195423D01*
X97175074Y-96199500D01*
X96824926Y-96199500D01*
X96766735Y-96180593D01*
X96746384Y-96160768D01*
X96743274Y-96156715D01*
X96678153Y-96071847D01*
X96552750Y-95975622D01*
X96406715Y-95915132D01*
X96250000Y-95894500D01*
X96093285Y-95915132D01*
X95947250Y-95975622D01*
X95821847Y-96071847D01*
X95725622Y-96197250D01*
X95665132Y-96343285D01*
X95644500Y-96500000D01*
X95665132Y-96656715D01*
X95725622Y-96802750D01*
X95821847Y-96928153D01*
X95947250Y-97024378D01*
X96093285Y-97084868D01*
X96250000Y-97105500D01*
X96406715Y-97084868D01*
X96552750Y-97024378D01*
X96678153Y-96928153D01*
X96746385Y-96839231D01*
X96796809Y-96804577D01*
X96824926Y-96800500D01*
X97175074Y-96800500D01*
X97233265Y-96819407D01*
X97253614Y-96839230D01*
X97321847Y-96928153D01*
X97410769Y-96996385D01*
X97445423Y-97046809D01*
X97449500Y-97074926D01*
X97449500Y-97447892D01*
X97449270Y-97451024D01*
X97447777Y-97455372D01*
X97448120Y-97464508D01*
X97449430Y-97499401D01*
X97449500Y-97503115D01*
X97449500Y-97526846D01*
X97450335Y-97531330D01*
X97450582Y-97534004D01*
X97450931Y-97539389D01*
X97451974Y-97567162D01*
X97455580Y-97575557D01*
X97455581Y-97575559D01*
X97456514Y-97577730D01*
X97462877Y-97598674D01*
X97464983Y-97609979D01*
X97469780Y-97617761D01*
X97469781Y-97617764D01*
X97478948Y-97632636D01*
X97485630Y-97645499D01*
X97496134Y-97669948D01*
X97501455Y-97676426D01*
X97504958Y-97679929D01*
X97518139Y-97696604D01*
X97518887Y-97697429D01*
X97523684Y-97705211D01*
X97530959Y-97710743D01*
X97530960Y-97710744D01*
X97545705Y-97721956D01*
X97555785Y-97730756D01*
X99737894Y-99912865D01*
X99765671Y-99967382D01*
X99766890Y-99982869D01*
X99766890Y-100880502D01*
X99766660Y-100883634D01*
X99765167Y-100887982D01*
X99765510Y-100897118D01*
X99766820Y-100932011D01*
X99766890Y-100935725D01*
X99766890Y-100959456D01*
X99767725Y-100963940D01*
X99767972Y-100966614D01*
X99768321Y-100971999D01*
X99768808Y-100984957D01*
X99769364Y-100999772D01*
X99772970Y-101008167D01*
X99772971Y-101008169D01*
X99773904Y-101010340D01*
X99780267Y-101031284D01*
X99782373Y-101042589D01*
X99787170Y-101050371D01*
X99787171Y-101050374D01*
X99796338Y-101065246D01*
X99803020Y-101078109D01*
X99813524Y-101102558D01*
X99818845Y-101109036D01*
X99822348Y-101112539D01*
X99835529Y-101129214D01*
X99836277Y-101130039D01*
X99841074Y-101137821D01*
X99848349Y-101143353D01*
X99848350Y-101143354D01*
X99863095Y-101154566D01*
X99873175Y-101163366D01*
X101143388Y-102433580D01*
X101171165Y-102488097D01*
X101161594Y-102548529D01*
X101118329Y-102591794D01*
X101086306Y-102601737D01*
X101020646Y-102610382D01*
X100942787Y-102620632D01*
X100796752Y-102681122D01*
X100671349Y-102777347D01*
X100575124Y-102902750D01*
X100514634Y-103048785D01*
X100494002Y-103205500D01*
X100514634Y-103362215D01*
X100575124Y-103508250D01*
X100671349Y-103633653D01*
X100796752Y-103729878D01*
X100942787Y-103790368D01*
X101099502Y-103811000D01*
X101256217Y-103790368D01*
X101342662Y-103754561D01*
X101403659Y-103749760D01*
X101450552Y-103776021D01*
X104705027Y-107030496D01*
X104732804Y-107085013D01*
X104723233Y-107145445D01*
X104679968Y-107188710D01*
X104635023Y-107199500D01*
X103192123Y-107199500D01*
X103133932Y-107180593D01*
X103097968Y-107131093D01*
X103093970Y-107087578D01*
X103094450Y-107083936D01*
X103105500Y-107000000D01*
X103084868Y-106843285D01*
X103024378Y-106697250D01*
X102928153Y-106571847D01*
X102802750Y-106475622D01*
X102656715Y-106415132D01*
X102527737Y-106398152D01*
X102506434Y-106395347D01*
X102500000Y-106394500D01*
X102493566Y-106395347D01*
X102472263Y-106398152D01*
X102343285Y-106415132D01*
X102197250Y-106475622D01*
X102071847Y-106571847D01*
X101975622Y-106697250D01*
X101915132Y-106843285D01*
X101894500Y-107000000D01*
X101915132Y-107156715D01*
X101975622Y-107302750D01*
X102071847Y-107428153D01*
X102197250Y-107524378D01*
X102343285Y-107584868D01*
X102500000Y-107605500D01*
X102611123Y-107590870D01*
X102671282Y-107602020D01*
X102694048Y-107619019D01*
X102750668Y-107675639D01*
X102752720Y-107678017D01*
X102754739Y-107682147D01*
X102761439Y-107688362D01*
X102787042Y-107712112D01*
X102789718Y-107714689D01*
X102806498Y-107731469D01*
X102810255Y-107734047D01*
X102812340Y-107735779D01*
X102816394Y-107739340D01*
X102830052Y-107752010D01*
X102830055Y-107752012D01*
X102836755Y-107758227D01*
X102845246Y-107761615D01*
X102845247Y-107761615D01*
X102847439Y-107762490D01*
X102866750Y-107772802D01*
X102868689Y-107774132D01*
X102876230Y-107779305D01*
X102885124Y-107781416D01*
X102885125Y-107781416D01*
X102902120Y-107785449D01*
X102915949Y-107789823D01*
X102934171Y-107797093D01*
X102934173Y-107797093D01*
X102940661Y-107799682D01*
X102949004Y-107800500D01*
X102953954Y-107800500D01*
X102975073Y-107802971D01*
X102976183Y-107803025D01*
X102985077Y-107805136D01*
X103006481Y-107802223D01*
X103012500Y-107801404D01*
X103025850Y-107800500D01*
X131947892Y-107800500D01*
X131951024Y-107800730D01*
X131955372Y-107802223D01*
X131964508Y-107801880D01*
X131999401Y-107800570D01*
X132003115Y-107800500D01*
X132026846Y-107800500D01*
X132031330Y-107799665D01*
X132034004Y-107799418D01*
X132039389Y-107799069D01*
X132058029Y-107798369D01*
X132058030Y-107798369D01*
X132067162Y-107798026D01*
X132075557Y-107794420D01*
X132075559Y-107794419D01*
X132077730Y-107793486D01*
X132098674Y-107787123D01*
X132100168Y-107786844D01*
X132100992Y-107786691D01*
X132100993Y-107786691D01*
X132109979Y-107785017D01*
X132117761Y-107780220D01*
X132117764Y-107780219D01*
X132132636Y-107771052D01*
X132145499Y-107764370D01*
X132169948Y-107753866D01*
X132176426Y-107748545D01*
X132179929Y-107745042D01*
X132196604Y-107731861D01*
X132197429Y-107731113D01*
X132205211Y-107726316D01*
X132214205Y-107714489D01*
X132221956Y-107704295D01*
X132230756Y-107694215D01*
X132805952Y-107119019D01*
X132860469Y-107091242D01*
X132888875Y-107090870D01*
X133000000Y-107105500D01*
X133016172Y-107103371D01*
X133032753Y-107101188D01*
X133156715Y-107084868D01*
X133164738Y-107081545D01*
X133232463Y-107053492D01*
X133302750Y-107024378D01*
X133428153Y-106928153D01*
X133524378Y-106802750D01*
X133584868Y-106656715D01*
X133605500Y-106500000D01*
X133584868Y-106343285D01*
X133524378Y-106197250D01*
X133428153Y-106071847D01*
X133302750Y-105975622D01*
X133156715Y-105915132D01*
X133000000Y-105894500D01*
X132843285Y-105915132D01*
X132697250Y-105975622D01*
X132571847Y-106071847D01*
X132475622Y-106197250D01*
X132415132Y-106343285D01*
X132394500Y-106500000D01*
X132395347Y-106506434D01*
X132409129Y-106611122D01*
X132397979Y-106671283D01*
X132380980Y-106694048D01*
X131904524Y-107170504D01*
X131850007Y-107198281D01*
X131834520Y-107199500D01*
X120964479Y-107199500D01*
X120906288Y-107180593D01*
X120870324Y-107131093D01*
X120870324Y-107069907D01*
X120894475Y-107030496D01*
X121175639Y-106749332D01*
X121178017Y-106747280D01*
X121182147Y-106745261D01*
X121212112Y-106712958D01*
X121214689Y-106710282D01*
X121231469Y-106693502D01*
X121234047Y-106689745D01*
X121235779Y-106687660D01*
X121239340Y-106683606D01*
X121252010Y-106669948D01*
X121252012Y-106669945D01*
X121258227Y-106663245D01*
X121261615Y-106654753D01*
X121262490Y-106652561D01*
X121272802Y-106633250D01*
X121274132Y-106631311D01*
X121274133Y-106631310D01*
X121279305Y-106623770D01*
X121285449Y-106597880D01*
X121289823Y-106584051D01*
X121297093Y-106565829D01*
X121297093Y-106565827D01*
X121299682Y-106559339D01*
X121300500Y-106550996D01*
X121300500Y-106546046D01*
X121302971Y-106524927D01*
X121303025Y-106523817D01*
X121305136Y-106514923D01*
X121301404Y-106487500D01*
X121300500Y-106474150D01*
X121300500Y-102250000D01*
X122144500Y-102250000D01*
X122145347Y-102256434D01*
X122146688Y-102266623D01*
X122165132Y-102406715D01*
X122225622Y-102552750D01*
X122321847Y-102678153D01*
X122447250Y-102774378D01*
X122593285Y-102834868D01*
X122700704Y-102849010D01*
X122741607Y-102854395D01*
X122750000Y-102855500D01*
X122861123Y-102840870D01*
X122921282Y-102852020D01*
X122944048Y-102869019D01*
X123463168Y-103388139D01*
X123465220Y-103390517D01*
X123467239Y-103394647D01*
X123473939Y-103400862D01*
X123499542Y-103424612D01*
X123502218Y-103427189D01*
X123518998Y-103443969D01*
X123522755Y-103446547D01*
X123524840Y-103448279D01*
X123528894Y-103451840D01*
X123542552Y-103464510D01*
X123542555Y-103464512D01*
X123549255Y-103470727D01*
X123557746Y-103474115D01*
X123557747Y-103474115D01*
X123559939Y-103474990D01*
X123579250Y-103485302D01*
X123581189Y-103486632D01*
X123588730Y-103491805D01*
X123597624Y-103493916D01*
X123597625Y-103493916D01*
X123614620Y-103497949D01*
X123628449Y-103502323D01*
X123646671Y-103509593D01*
X123646673Y-103509593D01*
X123653161Y-103512182D01*
X123661504Y-103513000D01*
X123666454Y-103513000D01*
X123687573Y-103515471D01*
X123688683Y-103515525D01*
X123697577Y-103517636D01*
X123718975Y-103514724D01*
X123725000Y-103513904D01*
X123738350Y-103513000D01*
X133845993Y-103513000D01*
X133904184Y-103531907D01*
X133923837Y-103553736D01*
X133925122Y-103552750D01*
X134021347Y-103678153D01*
X134146750Y-103774378D01*
X134292785Y-103834868D01*
X134449500Y-103855500D01*
X134606215Y-103834868D01*
X134752250Y-103774378D01*
X134877653Y-103678153D01*
X134973878Y-103552750D01*
X135034368Y-103406715D01*
X135055000Y-103250000D01*
X135034368Y-103093285D01*
X134973878Y-102947250D01*
X134877653Y-102821847D01*
X134752250Y-102725622D01*
X134606215Y-102665132D01*
X134449500Y-102644500D01*
X134292785Y-102665132D01*
X134146750Y-102725622D01*
X134021347Y-102821847D01*
X134017393Y-102827000D01*
X133981891Y-102873267D01*
X133931466Y-102907923D01*
X133903349Y-102912000D01*
X123877980Y-102912000D01*
X123819789Y-102893093D01*
X123807976Y-102883004D01*
X123369020Y-102444048D01*
X123341243Y-102389531D01*
X123340871Y-102361122D01*
X123354653Y-102256434D01*
X123355500Y-102250000D01*
X123334868Y-102093285D01*
X123330996Y-102083936D01*
X123287369Y-101978614D01*
X123274378Y-101947250D01*
X123178153Y-101821847D01*
X123052750Y-101725622D01*
X122906715Y-101665132D01*
X122750000Y-101644500D01*
X122593285Y-101665132D01*
X122447250Y-101725622D01*
X122321847Y-101821847D01*
X122225622Y-101947250D01*
X122212631Y-101978614D01*
X122169005Y-102083936D01*
X122165132Y-102093285D01*
X122144500Y-102250000D01*
X121300500Y-102250000D01*
X121300500Y-98487102D01*
X121300730Y-98483970D01*
X121302223Y-98479622D01*
X121300570Y-98435593D01*
X121300500Y-98431879D01*
X121300500Y-98408148D01*
X121299665Y-98403664D01*
X121299418Y-98400990D01*
X121299069Y-98395605D01*
X121298369Y-98376965D01*
X121298369Y-98376964D01*
X121298026Y-98367832D01*
X121293486Y-98357264D01*
X121287122Y-98336318D01*
X121286691Y-98334002D01*
X121286691Y-98334001D01*
X121285017Y-98325015D01*
X121280220Y-98317233D01*
X121280219Y-98317230D01*
X121271052Y-98302358D01*
X121264368Y-98289491D01*
X121253866Y-98265046D01*
X121248545Y-98258568D01*
X121245042Y-98255065D01*
X121231861Y-98238389D01*
X121231111Y-98237562D01*
X121226316Y-98229783D01*
X121204291Y-98213035D01*
X121194211Y-98204233D01*
X120729016Y-97739037D01*
X120701239Y-97684521D01*
X120700020Y-97669034D01*
X120700020Y-94535424D01*
X120718927Y-94477233D01*
X120768427Y-94441269D01*
X120829613Y-94441269D01*
X120859287Y-94456882D01*
X120869072Y-94464390D01*
X120947250Y-94524378D01*
X121093285Y-94584868D01*
X121250000Y-94605500D01*
X121406715Y-94584868D01*
X121552750Y-94524378D01*
X121678153Y-94428153D01*
X121746385Y-94339231D01*
X121796809Y-94304577D01*
X121824926Y-94300500D01*
X122814328Y-94300500D01*
X122872519Y-94319407D01*
X122908483Y-94368907D01*
X122912481Y-94386579D01*
X122914285Y-94400279D01*
X122915132Y-94406715D01*
X122975622Y-94552750D01*
X123071847Y-94678153D01*
X123197250Y-94774378D01*
X123343285Y-94834868D01*
X123500000Y-94855500D01*
X123656715Y-94834868D01*
X123802750Y-94774378D01*
X123928153Y-94678153D01*
X124024378Y-94552750D01*
X124084868Y-94406715D01*
X124105500Y-94250000D01*
X124104308Y-94240942D01*
X124101848Y-94222263D01*
X124084868Y-94093285D01*
X124024378Y-93947250D01*
X123928153Y-93821847D01*
X123802750Y-93725622D01*
X123795907Y-93722788D01*
X123782296Y-93717149D01*
X123735772Y-93677412D01*
X123721489Y-93617916D01*
X123728720Y-93587800D01*
X123762031Y-93507382D01*
X123768216Y-93492449D01*
X123807953Y-93445923D01*
X123867448Y-93431640D01*
X123923976Y-93455055D01*
X123951144Y-93492449D01*
X123976122Y-93552750D01*
X124072347Y-93678153D01*
X124197750Y-93774378D01*
X124343785Y-93834868D01*
X124500500Y-93855500D01*
X124657215Y-93834868D01*
X124762614Y-93791210D01*
X124823611Y-93786409D01*
X124875780Y-93818378D01*
X124899195Y-93874906D01*
X124899500Y-93882674D01*
X124899500Y-95210257D01*
X124880593Y-95268448D01*
X124870504Y-95280261D01*
X124606821Y-95543944D01*
X124597084Y-95552482D01*
X124571847Y-95571847D01*
X124548528Y-95602237D01*
X124548527Y-95602238D01*
X124475622Y-95697250D01*
X124415132Y-95843285D01*
X124394500Y-96000000D01*
X124415132Y-96156715D01*
X124475622Y-96302750D01*
X124571847Y-96428153D01*
X124697250Y-96524378D01*
X124843285Y-96584868D01*
X125000000Y-96605500D01*
X125156715Y-96584868D01*
X125302750Y-96524378D01*
X125367101Y-96475000D01*
X125397762Y-96451473D01*
X125397763Y-96451472D01*
X125428153Y-96428153D01*
X125447518Y-96402916D01*
X125456056Y-96393179D01*
X125893179Y-95956056D01*
X125902916Y-95947518D01*
X125923005Y-95932103D01*
X125928153Y-95928153D01*
X125933238Y-95921527D01*
X125983902Y-95855500D01*
X126020428Y-95807899D01*
X126024379Y-95802750D01*
X126026862Y-95796756D01*
X126026864Y-95796752D01*
X126077444Y-95674639D01*
X126084868Y-95656715D01*
X126091642Y-95605262D01*
X126117983Y-95550037D01*
X126171754Y-95520842D01*
X126232416Y-95528828D01*
X126268336Y-95557916D01*
X126321847Y-95627653D01*
X126447250Y-95723878D01*
X126593285Y-95784368D01*
X126722263Y-95801348D01*
X126732910Y-95802750D01*
X126750000Y-95805000D01*
X126767091Y-95802750D01*
X126777737Y-95801348D01*
X126906715Y-95784368D01*
X127052750Y-95723878D01*
X127178153Y-95627653D01*
X127274378Y-95502250D01*
X127334868Y-95356215D01*
X127355500Y-95199500D01*
X127334868Y-95042785D01*
X127274378Y-94896750D01*
X127178153Y-94771347D01*
X127089231Y-94703115D01*
X127054577Y-94652691D01*
X127050500Y-94624574D01*
X127050500Y-92574926D01*
X127069407Y-92516735D01*
X127089230Y-92496386D01*
X127178153Y-92428153D01*
X127274378Y-92302750D01*
X127325988Y-92178153D01*
X127332384Y-92162712D01*
X127334868Y-92156715D01*
X127355500Y-92000000D01*
X132894500Y-92000000D01*
X132915132Y-92156715D01*
X132917616Y-92162712D01*
X132924012Y-92178153D01*
X132975622Y-92302750D01*
X133071847Y-92428153D01*
X133160769Y-92496385D01*
X133195423Y-92546809D01*
X133199500Y-92574926D01*
X133199500Y-94675074D01*
X133180593Y-94733265D01*
X133160770Y-94753614D01*
X133071847Y-94821847D01*
X132975622Y-94947250D01*
X132915132Y-95093285D01*
X132894500Y-95250000D01*
X132915132Y-95406715D01*
X132975622Y-95552750D01*
X133071847Y-95678153D01*
X133197250Y-95774378D01*
X133343285Y-95834868D01*
X133500000Y-95855500D01*
X133656715Y-95834868D01*
X133802750Y-95774378D01*
X133928153Y-95678153D01*
X134024378Y-95552750D01*
X134084868Y-95406715D01*
X134105500Y-95250000D01*
X134084868Y-95093285D01*
X134024378Y-94947250D01*
X133928153Y-94821847D01*
X133839231Y-94753615D01*
X133804577Y-94703191D01*
X133800500Y-94675074D01*
X133800500Y-92574926D01*
X133819407Y-92516735D01*
X133839230Y-92496386D01*
X133928153Y-92428153D01*
X134024378Y-92302750D01*
X134075988Y-92178153D01*
X134082384Y-92162712D01*
X134084868Y-92156715D01*
X134105500Y-92000000D01*
X139894500Y-92000000D01*
X139915132Y-92156715D01*
X139917616Y-92162712D01*
X139924012Y-92178153D01*
X139975622Y-92302750D01*
X140071847Y-92428153D01*
X140160769Y-92496385D01*
X140195423Y-92546809D01*
X140199500Y-92574926D01*
X140199500Y-94624574D01*
X140180593Y-94682765D01*
X140160770Y-94703114D01*
X140071847Y-94771347D01*
X139975622Y-94896750D01*
X139915132Y-95042785D01*
X139894500Y-95199500D01*
X139915132Y-95356215D01*
X139975622Y-95502250D01*
X140071847Y-95627653D01*
X140197250Y-95723878D01*
X140343285Y-95784368D01*
X140472263Y-95801348D01*
X140482910Y-95802750D01*
X140500000Y-95805000D01*
X140517091Y-95802750D01*
X140527737Y-95801348D01*
X140656715Y-95784368D01*
X140802750Y-95723878D01*
X140928153Y-95627653D01*
X141024378Y-95502250D01*
X141084868Y-95356215D01*
X141105500Y-95199500D01*
X141084868Y-95042785D01*
X141024378Y-94896750D01*
X140928153Y-94771347D01*
X140839231Y-94703115D01*
X140804577Y-94652691D01*
X140800500Y-94624574D01*
X140800500Y-92574926D01*
X140819407Y-92516735D01*
X140839230Y-92496386D01*
X140928153Y-92428153D01*
X141024378Y-92302750D01*
X141075988Y-92178153D01*
X141082384Y-92162712D01*
X141084868Y-92156715D01*
X141105500Y-92000000D01*
X141084868Y-91843285D01*
X141024378Y-91697250D01*
X140928153Y-91571847D01*
X140802750Y-91475622D01*
X140656715Y-91415132D01*
X140500000Y-91394500D01*
X140343285Y-91415132D01*
X140197250Y-91475622D01*
X140071847Y-91571847D01*
X139975622Y-91697250D01*
X139915132Y-91843285D01*
X139894500Y-92000000D01*
X134105500Y-92000000D01*
X134084868Y-91843285D01*
X134024378Y-91697250D01*
X133928153Y-91571847D01*
X133802750Y-91475622D01*
X133656715Y-91415132D01*
X133500000Y-91394500D01*
X133343285Y-91415132D01*
X133197250Y-91475622D01*
X133071847Y-91571847D01*
X132975622Y-91697250D01*
X132915132Y-91843285D01*
X132894500Y-92000000D01*
X127355500Y-92000000D01*
X127334868Y-91843285D01*
X127274378Y-91697250D01*
X127178153Y-91571847D01*
X127052750Y-91475622D01*
X126906715Y-91415132D01*
X126750000Y-91394500D01*
X126593285Y-91415132D01*
X126447250Y-91475622D01*
X126321847Y-91571847D01*
X126265880Y-91644785D01*
X126262662Y-91648979D01*
X126212237Y-91683634D01*
X126151073Y-91682032D01*
X126102531Y-91644785D01*
X126087616Y-91605928D01*
X126087395Y-91605987D01*
X126086832Y-91603888D01*
X126085967Y-91601633D01*
X126085715Y-91599716D01*
X126085714Y-91599714D01*
X126084868Y-91593285D01*
X126066435Y-91548783D01*
X126026864Y-91453248D01*
X126026862Y-91453244D01*
X126024379Y-91447250D01*
X125951473Y-91352238D01*
X125951472Y-91352237D01*
X125928153Y-91321847D01*
X125902916Y-91302482D01*
X125893179Y-91293944D01*
X125629496Y-91030261D01*
X125601719Y-90975744D01*
X125600500Y-90960257D01*
X125600500Y-90539742D01*
X125619407Y-90481551D01*
X125629497Y-90469738D01*
X126051983Y-90047253D01*
X126106499Y-90019476D01*
X126121986Y-90018257D01*
X126685799Y-90018257D01*
X126698720Y-90019104D01*
X126730266Y-90023257D01*
X126761812Y-90019104D01*
X126827545Y-90010450D01*
X126886981Y-90002625D01*
X127033016Y-89942135D01*
X127158419Y-89845910D01*
X127177787Y-89820669D01*
X127186326Y-89810932D01*
X127643191Y-89354068D01*
X127652927Y-89345530D01*
X127673011Y-89330119D01*
X127678164Y-89326165D01*
X127701480Y-89295779D01*
X127701484Y-89295775D01*
X127774389Y-89200762D01*
X127834879Y-89054727D01*
X127838958Y-89023746D01*
X127850511Y-88935991D01*
X127850511Y-88935985D01*
X127855510Y-88898012D01*
X127851358Y-88866472D01*
X127850511Y-88853552D01*
X127850511Y-87982940D01*
X127851358Y-87970018D01*
X127854663Y-87944913D01*
X127855510Y-87938480D01*
X127854151Y-87928153D01*
X127850511Y-87900507D01*
X127850511Y-87900501D01*
X127842637Y-87840696D01*
X127834879Y-87781765D01*
X127774389Y-87635730D01*
X127761047Y-87618342D01*
X127701484Y-87540717D01*
X127701471Y-87540701D01*
X127690463Y-87526356D01*
X127678164Y-87510327D01*
X127652925Y-87490961D01*
X127643197Y-87482431D01*
X127629984Y-87469217D01*
X127602208Y-87414703D01*
X127600989Y-87399216D01*
X127600989Y-86794956D01*
X127601836Y-86782034D01*
X127605142Y-86756923D01*
X127605989Y-86750489D01*
X127586901Y-86605500D01*
X127585357Y-86593774D01*
X127567638Y-86550996D01*
X127546515Y-86500000D01*
X127527353Y-86453737D01*
X127527351Y-86453733D01*
X127524868Y-86447739D01*
X127451962Y-86352727D01*
X127451961Y-86352726D01*
X127428642Y-86322336D01*
X127403405Y-86302971D01*
X127393668Y-86294433D01*
X126206056Y-85106821D01*
X126197518Y-85097084D01*
X126182107Y-85077000D01*
X126178153Y-85071847D01*
X126052750Y-84975622D01*
X125906715Y-84915132D01*
X125787979Y-84899500D01*
X125750000Y-84894500D01*
X125743566Y-84895347D01*
X125718455Y-84898653D01*
X125705533Y-84899500D01*
X120981967Y-84899500D01*
X120969045Y-84898653D01*
X120943934Y-84895347D01*
X120937500Y-84894500D01*
X120899522Y-84899500D01*
X120899518Y-84899500D01*
X120837603Y-84907652D01*
X120780785Y-84915132D01*
X120750139Y-84927826D01*
X120634750Y-84975621D01*
X120629608Y-84979567D01*
X120629604Y-84979569D01*
X120617538Y-84988828D01*
X120539738Y-85048527D01*
X120509347Y-85071847D01*
X120496108Y-85089100D01*
X120489982Y-85097084D01*
X120481444Y-85106821D01*
X118467761Y-87120504D01*
X118413244Y-87148281D01*
X118397757Y-87149500D01*
X107289743Y-87149500D01*
X107231552Y-87130593D01*
X107219739Y-87120504D01*
X107196056Y-87096821D01*
X107187518Y-87087084D01*
X107172107Y-87067000D01*
X107168153Y-87061847D01*
X107142920Y-87042485D01*
X107133183Y-87033947D01*
X105849235Y-85750000D01*
X114795480Y-85750000D01*
X114816112Y-85906715D01*
X114818596Y-85912712D01*
X114823717Y-85925074D01*
X114876602Y-86052750D01*
X114972827Y-86178153D01*
X115098230Y-86274378D01*
X115244265Y-86334868D01*
X115400980Y-86355500D01*
X115557695Y-86334868D01*
X115703730Y-86274378D01*
X115829133Y-86178153D01*
X115925358Y-86052750D01*
X115978243Y-85925074D01*
X115983364Y-85912712D01*
X115985848Y-85906715D01*
X116006480Y-85750000D01*
X116003370Y-85726379D01*
X116014520Y-85666218D01*
X116026438Y-85650257D01*
X116025820Y-85649744D01*
X116028736Y-85646235D01*
X116031958Y-85643013D01*
X116034536Y-85639255D01*
X116036268Y-85637171D01*
X116039829Y-85633117D01*
X116052499Y-85619459D01*
X116052501Y-85619456D01*
X116058716Y-85612756D01*
X116062913Y-85602237D01*
X116062979Y-85602072D01*
X116073291Y-85582761D01*
X116074621Y-85580822D01*
X116074622Y-85580821D01*
X116079794Y-85573281D01*
X116085938Y-85547391D01*
X116090312Y-85533562D01*
X116097582Y-85515340D01*
X116097582Y-85515338D01*
X116100171Y-85508850D01*
X116100989Y-85500507D01*
X116100989Y-85495557D01*
X116103460Y-85474438D01*
X116103514Y-85473328D01*
X116105625Y-85464434D01*
X116101893Y-85437011D01*
X116100989Y-85423661D01*
X116100989Y-85169808D01*
X116119896Y-85111617D01*
X116169396Y-85075653D01*
X116230582Y-85075653D01*
X116270963Y-85101777D01*
X116273684Y-85106191D01*
X116280959Y-85111723D01*
X116280960Y-85111724D01*
X116295705Y-85122936D01*
X116305785Y-85131736D01*
X117050113Y-85876064D01*
X117077890Y-85930581D01*
X117078262Y-85958987D01*
X117063632Y-86070112D01*
X117084264Y-86226827D01*
X117144754Y-86372862D01*
X117240979Y-86498265D01*
X117366382Y-86594490D01*
X117512417Y-86654980D01*
X117669132Y-86675612D01*
X117825847Y-86654980D01*
X117971882Y-86594490D01*
X118097285Y-86498265D01*
X118193510Y-86372862D01*
X118254000Y-86226827D01*
X118274632Y-86070112D01*
X118254000Y-85913397D01*
X118193510Y-85767362D01*
X118097285Y-85641959D01*
X117971882Y-85545734D01*
X117825847Y-85485244D01*
X117669132Y-85464612D01*
X117558009Y-85479242D01*
X117497850Y-85468092D01*
X117475084Y-85451093D01*
X116829496Y-84805504D01*
X116801719Y-84750987D01*
X116800500Y-84735500D01*
X116800500Y-83500000D01*
X148394500Y-83500000D01*
X148415132Y-83656715D01*
X148475622Y-83802750D01*
X148571847Y-83928153D01*
X148660769Y-83996385D01*
X148695423Y-84046809D01*
X148699500Y-84074926D01*
X148699500Y-85925074D01*
X148680593Y-85983265D01*
X148660770Y-86003614D01*
X148571847Y-86071847D01*
X148475622Y-86197250D01*
X148415132Y-86343285D01*
X148394500Y-86500000D01*
X148415132Y-86656715D01*
X148475622Y-86802750D01*
X148571847Y-86928153D01*
X148697250Y-87024378D01*
X148843285Y-87084868D01*
X149000000Y-87105500D01*
X149156715Y-87084868D01*
X149302750Y-87024378D01*
X149428153Y-86928153D01*
X149524378Y-86802750D01*
X149584868Y-86656715D01*
X149605500Y-86500000D01*
X149584868Y-86343285D01*
X149524378Y-86197250D01*
X149428153Y-86071847D01*
X149339231Y-86003615D01*
X149304577Y-85953191D01*
X149300500Y-85925074D01*
X149300500Y-84074926D01*
X149319407Y-84016735D01*
X149339230Y-83996386D01*
X149428153Y-83928153D01*
X149524378Y-83802750D01*
X149584868Y-83656715D01*
X149605500Y-83500000D01*
X149584868Y-83343285D01*
X149524378Y-83197250D01*
X149428153Y-83071847D01*
X149302750Y-82975622D01*
X149156715Y-82915132D01*
X149000000Y-82894500D01*
X148843285Y-82915132D01*
X148697250Y-82975622D01*
X148571847Y-83071847D01*
X148475622Y-83197250D01*
X148415132Y-83343285D01*
X148394500Y-83500000D01*
X116800500Y-83500000D01*
X116800500Y-77324926D01*
X116819407Y-77266735D01*
X116839230Y-77246386D01*
X116928153Y-77178153D01*
X117024378Y-77052750D01*
X117084868Y-76906715D01*
X117105500Y-76750000D01*
X117084868Y-76593285D01*
X117024378Y-76447250D01*
X116928153Y-76321847D01*
X116802750Y-76225622D01*
X116656715Y-76165132D01*
X116500000Y-76144500D01*
X116343285Y-76165132D01*
X116337287Y-76167616D01*
X116337285Y-76167617D01*
X116237874Y-76208794D01*
X116176878Y-76213595D01*
X116124709Y-76181625D01*
X116101294Y-76125097D01*
X116100989Y-76117330D01*
X116100989Y-74864990D01*
X116119896Y-74806799D01*
X116129985Y-74794986D01*
X116305952Y-74619019D01*
X116360469Y-74591242D01*
X116388875Y-74590870D01*
X116500000Y-74605500D01*
X116656715Y-74584868D01*
X116802750Y-74524378D01*
X116928153Y-74428153D01*
X117024378Y-74302750D01*
X117084868Y-74156715D01*
X117105500Y-74000000D01*
X117084868Y-73843285D01*
X117024378Y-73697250D01*
X116928153Y-73571847D01*
X116802750Y-73475622D01*
X116656715Y-73415132D01*
X116500000Y-73394500D01*
X116343285Y-73415132D01*
X116197250Y-73475622D01*
X116071847Y-73571847D01*
X115975622Y-73697250D01*
X115915132Y-73843285D01*
X115894500Y-74000000D01*
X115895347Y-74006433D01*
X115909130Y-74111123D01*
X115897980Y-74171283D01*
X115880980Y-74194049D01*
X115652028Y-74423000D01*
X115624848Y-74450180D01*
X115622470Y-74452232D01*
X115618342Y-74454250D01*
X115612127Y-74460949D01*
X115612128Y-74460949D01*
X115588389Y-74486540D01*
X115585812Y-74489216D01*
X115569020Y-74506008D01*
X115566441Y-74509767D01*
X115564712Y-74511848D01*
X115561149Y-74515905D01*
X115548479Y-74529563D01*
X115548477Y-74529566D01*
X115542262Y-74536266D01*
X115538001Y-74546947D01*
X115527686Y-74566264D01*
X115521185Y-74575740D01*
X115515038Y-74601642D01*
X115510672Y-74615445D01*
X115500807Y-74640172D01*
X115499989Y-74648515D01*
X115499989Y-74653465D01*
X115497518Y-74674584D01*
X115497464Y-74675694D01*
X115495353Y-74684588D01*
X115496586Y-74693645D01*
X115499085Y-74712011D01*
X115499989Y-74725361D01*
X115499989Y-85046347D01*
X115481082Y-85104538D01*
X115431582Y-85140502D01*
X115403905Y-85144885D01*
X115400980Y-85144500D01*
X115244265Y-85165132D01*
X115098230Y-85225622D01*
X114972827Y-85321847D01*
X114876602Y-85447250D01*
X114816112Y-85593285D01*
X114795480Y-85750000D01*
X105849235Y-85750000D01*
X105706056Y-85606821D01*
X105697518Y-85597084D01*
X105690001Y-85587288D01*
X105678153Y-85571847D01*
X105634016Y-85537979D01*
X105552750Y-85475622D01*
X105406715Y-85415132D01*
X105250000Y-85394500D01*
X105243566Y-85395347D01*
X105218455Y-85398653D01*
X105205533Y-85399500D01*
X97044467Y-85399500D01*
X97031545Y-85398653D01*
X97006434Y-85395347D01*
X97000000Y-85394500D01*
X96962021Y-85399500D01*
X96843285Y-85415132D01*
X96800513Y-85432849D01*
X96697250Y-85475621D01*
X96605878Y-85545734D01*
X96571847Y-85571847D01*
X96559999Y-85587288D01*
X96552482Y-85597084D01*
X96543944Y-85606821D01*
X94356821Y-87793944D01*
X94347084Y-87802482D01*
X94321847Y-87821847D01*
X94298528Y-87852237D01*
X94298527Y-87852238D01*
X94225622Y-87947250D01*
X94223139Y-87953245D01*
X94169005Y-88083936D01*
X94165132Y-88093285D01*
X94144500Y-88250000D01*
X94145347Y-88256434D01*
X94148653Y-88281545D01*
X94149500Y-88294467D01*
X94149500Y-95867533D01*
X94130593Y-95925724D01*
X94081093Y-95961688D01*
X94019907Y-95961688D01*
X94012614Y-95958997D01*
X93912712Y-95917616D01*
X93906715Y-95915132D01*
X93750000Y-95894500D01*
X93593285Y-95915132D01*
X93447250Y-95975622D01*
X93321847Y-96071847D01*
X93256726Y-96156715D01*
X93253616Y-96160768D01*
X93203191Y-96195423D01*
X93175074Y-96199500D01*
X93052109Y-96199500D01*
X93048977Y-96199270D01*
X93044629Y-96197777D01*
X93035493Y-96198120D01*
X93000600Y-96199430D01*
X92996886Y-96199500D01*
X92973154Y-96199500D01*
X92968670Y-96200335D01*
X92965996Y-96200582D01*
X92960611Y-96200931D01*
X92941971Y-96201631D01*
X92941970Y-96201631D01*
X92932838Y-96201974D01*
X92924443Y-96205580D01*
X92924441Y-96205581D01*
X92922270Y-96206514D01*
X92901326Y-96212877D01*
X92899832Y-96213156D01*
X92899008Y-96213309D01*
X92899007Y-96213309D01*
X92890021Y-96214983D01*
X92882239Y-96219780D01*
X92882236Y-96219781D01*
X92867364Y-96228948D01*
X92854501Y-96235630D01*
X92830052Y-96246134D01*
X92823574Y-96251455D01*
X92820071Y-96254958D01*
X92803396Y-96268139D01*
X92802571Y-96268887D01*
X92794789Y-96273684D01*
X92789257Y-96280959D01*
X92789256Y-96280960D01*
X92778044Y-96295705D01*
X92769244Y-96305785D01*
X90194048Y-98880980D01*
X90139531Y-98908757D01*
X90111122Y-98909129D01*
X90006434Y-98895347D01*
X90000000Y-98894500D01*
X89843285Y-98915132D01*
X89697250Y-98975622D01*
X89571847Y-99071847D01*
X89475622Y-99197250D01*
X89463870Y-99225622D01*
X89421878Y-99327000D01*
X89415132Y-99343285D01*
X89394500Y-99500000D01*
X83700000Y-99500000D01*
X83700000Y-88368126D01*
X83689387Y-88303841D01*
X83671072Y-88249884D01*
X83669728Y-88250340D01*
X83663757Y-88238594D01*
X83659990Y-88226382D01*
X83660002Y-88226377D01*
X83660381Y-88226260D01*
X83660366Y-88226226D01*
X83660398Y-88226213D01*
X83658596Y-88221862D01*
X83656021Y-88213515D01*
X83653245Y-88208707D01*
X83651691Y-88205145D01*
X83650966Y-88203441D01*
X83614972Y-88116544D01*
X83608283Y-88091581D01*
X83604370Y-88061862D01*
X83597927Y-88012920D01*
X83597927Y-87987077D01*
X83598051Y-87986139D01*
X83608283Y-87908419D01*
X83614972Y-87883457D01*
X83650484Y-87797723D01*
X83653571Y-87790993D01*
X83654632Y-87788890D01*
X83656021Y-87786485D01*
X83673930Y-87745437D01*
X83673967Y-87744937D01*
X83676236Y-87741297D01*
X83674290Y-87740636D01*
X83685921Y-87706370D01*
X83689387Y-87696159D01*
X83700000Y-87631874D01*
X83700000Y-83868126D01*
X83689387Y-83803841D01*
X83671072Y-83749884D01*
X83669728Y-83750340D01*
X83663757Y-83738594D01*
X83659990Y-83726382D01*
X83660002Y-83726377D01*
X83660381Y-83726260D01*
X83660366Y-83726226D01*
X83660398Y-83726213D01*
X83658596Y-83721862D01*
X83656021Y-83713515D01*
X83653245Y-83708707D01*
X83651691Y-83705145D01*
X83650966Y-83703441D01*
X83614972Y-83616544D01*
X83608283Y-83591581D01*
X83597927Y-83512923D01*
X83597927Y-83487077D01*
X83608283Y-83408419D01*
X83614972Y-83383457D01*
X83650484Y-83297723D01*
X83653571Y-83290993D01*
X83654632Y-83288890D01*
X83656021Y-83286485D01*
X83673930Y-83245437D01*
X83673967Y-83244937D01*
X83676236Y-83241297D01*
X83674290Y-83240636D01*
X83675012Y-83238509D01*
X83689387Y-83196159D01*
X83700000Y-83131874D01*
X83700000Y-78868126D01*
X83689387Y-78803841D01*
X83671072Y-78749884D01*
X83669728Y-78750340D01*
X83663757Y-78738594D01*
X83659990Y-78726382D01*
X83660002Y-78726377D01*
X83660381Y-78726260D01*
X83660366Y-78726226D01*
X83660398Y-78726213D01*
X83658596Y-78721862D01*
X83656021Y-78713515D01*
X83653245Y-78708707D01*
X83651691Y-78705145D01*
X83650966Y-78703441D01*
X83614972Y-78616544D01*
X83608283Y-78591581D01*
X83597927Y-78512923D01*
X83597927Y-78487077D01*
X83608283Y-78408419D01*
X83614972Y-78383457D01*
X83650484Y-78297723D01*
X83653571Y-78290993D01*
X83654632Y-78288890D01*
X83656021Y-78286485D01*
X83673930Y-78245437D01*
X83673967Y-78244937D01*
X83676236Y-78241297D01*
X83674290Y-78240636D01*
X83689387Y-78196159D01*
X83700000Y-78131874D01*
X83700000Y-69371594D01*
X112328919Y-69371594D01*
X112367834Y-69542191D01*
X112370368Y-69547352D01*
X112442420Y-69694105D01*
X112442422Y-69694108D01*
X112444952Y-69699261D01*
X112556135Y-69834376D01*
X112695419Y-69940291D01*
X112855333Y-70011322D01*
X113027299Y-70043660D01*
X113095566Y-70040500D01*
X113196347Y-70035835D01*
X113196348Y-70035835D01*
X113202092Y-70035569D01*
X113370335Y-69987485D01*
X113523004Y-69901986D01*
X113565402Y-69863068D01*
X113647672Y-69787549D01*
X113651910Y-69783659D01*
X113709160Y-69699261D01*
X113746905Y-69643616D01*
X113746906Y-69643615D01*
X113750137Y-69638851D01*
X113812416Y-69475330D01*
X113835407Y-69301867D01*
X113835500Y-69290000D01*
X113815237Y-69116197D01*
X113805419Y-69089147D01*
X113757497Y-68957126D01*
X113755534Y-68951718D01*
X113659593Y-68805385D01*
X113655424Y-68801436D01*
X113655421Y-68801432D01*
X113536738Y-68689003D01*
X113532562Y-68685047D01*
X113527592Y-68682160D01*
X113527589Y-68682158D01*
X113386229Y-68600050D01*
X113386228Y-68600050D01*
X113381255Y-68597161D01*
X113297522Y-68571801D01*
X113219293Y-68548107D01*
X113219290Y-68548107D01*
X113213788Y-68546440D01*
X113081962Y-68538262D01*
X113044883Y-68535962D01*
X113044882Y-68535962D01*
X113039143Y-68535606D01*
X112866691Y-68565238D01*
X112861400Y-68567490D01*
X112861398Y-68567490D01*
X112730940Y-68623001D01*
X112705681Y-68633749D01*
X112564750Y-68737462D01*
X112561028Y-68741844D01*
X112561025Y-68741846D01*
X112464470Y-68855500D01*
X112451459Y-68870815D01*
X112442949Y-68887481D01*
X112386885Y-68997275D01*
X112371883Y-69026654D01*
X112330293Y-69196619D01*
X112328919Y-69371594D01*
X83700000Y-69371594D01*
X83700000Y-68049000D01*
X83718907Y-67990809D01*
X83768407Y-67954845D01*
X83799000Y-67950000D01*
X107855099Y-67950000D01*
X107857992Y-67949658D01*
X107857996Y-67949658D01*
X107898819Y-67944835D01*
X107898824Y-67944834D01*
X107901703Y-67944494D01*
X107946571Y-67933743D01*
X107965859Y-67928083D01*
X108041266Y-67880793D01*
X108050766Y-67871310D01*
X108081814Y-67840315D01*
X108084568Y-67837566D01*
X108089073Y-67831377D01*
X108119100Y-67790124D01*
X108119103Y-67790119D01*
X108121390Y-67786977D01*
X108133729Y-67762814D01*
X108146448Y-67743742D01*
X108175382Y-67709684D01*
X108186495Y-67696603D01*
X108214600Y-67663520D01*
X108231368Y-67647884D01*
X108316152Y-67585491D01*
X108336066Y-67574132D01*
X108383186Y-67554082D01*
X108432923Y-67532918D01*
X108454916Y-67526446D01*
X108523784Y-67514612D01*
X108558657Y-67508620D01*
X108581554Y-67507380D01*
X108589579Y-67507878D01*
X108686613Y-67513898D01*
X108709173Y-67517957D01*
X108759547Y-67533214D01*
X108759549Y-67533215D01*
X108759566Y-67533220D01*
X108809919Y-67548470D01*
X108830949Y-67557614D01*
X108921966Y-67610482D01*
X108940325Y-67624216D01*
X109016739Y-67696603D01*
X109031446Y-67714192D01*
X109091430Y-67805682D01*
X109097496Y-67814934D01*
X109119980Y-67843265D01*
X109121520Y-67844881D01*
X109121528Y-67844890D01*
X109144158Y-67868634D01*
X109144190Y-67868667D01*
X109144581Y-67869077D01*
X109151146Y-67875653D01*
X109227556Y-67921305D01*
X109232835Y-67923020D01*
X109232839Y-67923022D01*
X109279228Y-67938094D01*
X109285747Y-67940212D01*
X109289591Y-67940821D01*
X109289596Y-67940822D01*
X109343701Y-67949391D01*
X109343706Y-67949391D01*
X109347549Y-67950000D01*
X116126150Y-67950000D01*
X116184341Y-67968907D01*
X116196154Y-67978996D01*
X116656112Y-68438954D01*
X116683889Y-68493471D01*
X116674318Y-68553903D01*
X116631053Y-68597168D01*
X116624883Y-68600048D01*
X116545681Y-68633749D01*
X116404750Y-68737462D01*
X116401028Y-68741844D01*
X116401025Y-68741846D01*
X116304470Y-68855500D01*
X116291459Y-68870815D01*
X116282949Y-68887481D01*
X116226885Y-68997275D01*
X116211883Y-69026654D01*
X116170293Y-69196619D01*
X116168919Y-69371594D01*
X116207834Y-69542191D01*
X116210368Y-69547352D01*
X116282420Y-69694105D01*
X116282422Y-69694108D01*
X116284952Y-69699261D01*
X116396135Y-69834376D01*
X116535419Y-69940291D01*
X116695333Y-70011322D01*
X116867299Y-70043660D01*
X116935566Y-70040500D01*
X117036347Y-70035835D01*
X117036348Y-70035835D01*
X117042092Y-70035569D01*
X117210335Y-69987485D01*
X117363004Y-69901986D01*
X117405402Y-69863068D01*
X117487672Y-69787549D01*
X117491910Y-69783659D01*
X117549160Y-69699261D01*
X117586905Y-69643616D01*
X117586906Y-69643615D01*
X117590137Y-69638851D01*
X117609054Y-69589183D01*
X117647433Y-69541533D01*
X117706492Y-69525542D01*
X117763671Y-69547319D01*
X117771574Y-69554416D01*
X118079583Y-69862425D01*
X118080265Y-69863055D01*
X118080278Y-69863068D01*
X118082050Y-69864706D01*
X118091116Y-69873087D01*
X118102929Y-69883176D01*
X118171015Y-69921305D01*
X118229206Y-69940212D01*
X118233050Y-69940821D01*
X118233055Y-69940822D01*
X118287160Y-69949391D01*
X118287165Y-69949391D01*
X118291008Y-69950000D01*
X118468610Y-69950000D01*
X118513632Y-69960830D01*
X118581530Y-69995501D01*
X118581533Y-69995502D01*
X118586654Y-69998117D01*
X118592239Y-69999484D01*
X118592240Y-69999484D01*
X118752339Y-70038660D01*
X118752342Y-70038661D01*
X118756619Y-70039707D01*
X118761017Y-70039980D01*
X118761018Y-70039980D01*
X118767886Y-70040406D01*
X118767887Y-70040406D01*
X118769402Y-70040500D01*
X119692887Y-70040500D01*
X119823803Y-70025237D01*
X119829209Y-70023275D01*
X119829212Y-70023274D01*
X119927808Y-69987485D01*
X119988282Y-69965534D01*
X119993099Y-69962376D01*
X119996887Y-69960479D01*
X120041217Y-69950000D01*
X120208992Y-69950000D01*
X120209924Y-69949963D01*
X120209943Y-69949963D01*
X120223731Y-69949421D01*
X120223754Y-69949420D01*
X120224686Y-69949383D01*
X120225626Y-69949309D01*
X120225643Y-69949308D01*
X120229409Y-69949011D01*
X120240173Y-69948164D01*
X120266206Y-69940822D01*
X120310596Y-69928303D01*
X120310599Y-69928302D01*
X120315275Y-69926983D01*
X120369792Y-69899206D01*
X120396201Y-69880019D01*
X120417278Y-69864706D01*
X120417281Y-69864703D01*
X120420417Y-69862425D01*
X120879138Y-69403704D01*
X120886645Y-69395777D01*
X120893850Y-69387739D01*
X120903671Y-69371594D01*
X141328919Y-69371594D01*
X141367834Y-69542191D01*
X141370368Y-69547352D01*
X141442420Y-69694105D01*
X141442422Y-69694108D01*
X141444952Y-69699261D01*
X141556135Y-69834376D01*
X141695419Y-69940291D01*
X141855333Y-70011322D01*
X142027299Y-70043660D01*
X142095566Y-70040500D01*
X142196347Y-70035835D01*
X142196348Y-70035835D01*
X142202092Y-70035569D01*
X142370335Y-69987485D01*
X142523004Y-69901986D01*
X142565402Y-69863068D01*
X142647672Y-69787549D01*
X142651910Y-69783659D01*
X142709160Y-69699261D01*
X142746905Y-69643616D01*
X142746906Y-69643615D01*
X142750137Y-69638851D01*
X142812416Y-69475330D01*
X142835407Y-69301867D01*
X142835500Y-69290000D01*
X142815237Y-69116197D01*
X142805419Y-69089147D01*
X142757497Y-68957126D01*
X142755534Y-68951718D01*
X142659593Y-68805385D01*
X142655424Y-68801436D01*
X142655421Y-68801432D01*
X142536738Y-68689003D01*
X142532562Y-68685047D01*
X142527592Y-68682160D01*
X142527589Y-68682158D01*
X142386229Y-68600050D01*
X142386228Y-68600050D01*
X142381255Y-68597161D01*
X142297522Y-68571801D01*
X142219293Y-68548107D01*
X142219290Y-68548107D01*
X142213788Y-68546440D01*
X142081962Y-68538262D01*
X142044883Y-68535962D01*
X142044882Y-68535962D01*
X142039143Y-68535606D01*
X141866691Y-68565238D01*
X141861400Y-68567490D01*
X141861398Y-68567490D01*
X141730940Y-68623001D01*
X141705681Y-68633749D01*
X141564750Y-68737462D01*
X141561028Y-68741844D01*
X141561025Y-68741846D01*
X141464470Y-68855500D01*
X141451459Y-68870815D01*
X141442949Y-68887481D01*
X141386885Y-68997275D01*
X141371883Y-69026654D01*
X141330293Y-69196619D01*
X141328919Y-69371594D01*
X120903671Y-69371594D01*
X120929579Y-69328999D01*
X120931949Y-69325103D01*
X120953626Y-69267887D01*
X120954223Y-69265750D01*
X120961177Y-69240858D01*
X120961177Y-69240855D01*
X120963273Y-69233353D01*
X120959556Y-69144422D01*
X120943462Y-69085391D01*
X120917761Y-69028337D01*
X120910833Y-69017771D01*
X120900570Y-68997275D01*
X120890575Y-68969739D01*
X120885638Y-68956138D01*
X120864654Y-68898327D01*
X120859380Y-68876016D01*
X120859372Y-68875941D01*
X120851159Y-68805500D01*
X120850166Y-68796983D01*
X120849500Y-68785519D01*
X120849500Y-68005910D01*
X120852337Y-67982378D01*
X120853843Y-67976226D01*
X120857160Y-67962670D01*
X120857161Y-67962668D01*
X120877866Y-67878052D01*
X120885859Y-67856561D01*
X120933729Y-67762814D01*
X120946451Y-67743738D01*
X120975382Y-67709684D01*
X120986495Y-67696603D01*
X121014600Y-67663520D01*
X121031368Y-67647884D01*
X121116152Y-67585491D01*
X121136066Y-67574132D01*
X121183186Y-67554082D01*
X121232923Y-67532918D01*
X121254916Y-67526446D01*
X121323784Y-67514612D01*
X121358657Y-67508620D01*
X121381554Y-67507380D01*
X121389579Y-67507878D01*
X121486613Y-67513898D01*
X121509173Y-67517957D01*
X121559547Y-67533214D01*
X121559549Y-67533215D01*
X121559566Y-67533220D01*
X121609919Y-67548470D01*
X121630949Y-67557614D01*
X121721966Y-67610482D01*
X121740325Y-67624216D01*
X121816741Y-67696605D01*
X121831445Y-67714191D01*
X121893024Y-67808112D01*
X121893025Y-67808114D01*
X121898751Y-67816847D01*
X121897730Y-67817516D01*
X121899198Y-67820449D01*
X121900537Y-67819571D01*
X121908277Y-67831377D01*
X121908732Y-67831078D01*
X121908755Y-67831103D01*
X121937261Y-67872993D01*
X121937269Y-67873002D01*
X121939883Y-67876844D01*
X121983148Y-67920109D01*
X121984848Y-67921529D01*
X121984851Y-67921531D01*
X121999831Y-67934037D01*
X122010673Y-67943089D01*
X122039981Y-67954845D01*
X122088125Y-67974157D01*
X122088128Y-67974158D01*
X122093284Y-67976226D01*
X122098774Y-67977096D01*
X122098776Y-67977096D01*
X122151512Y-67985448D01*
X122153716Y-67985797D01*
X122155929Y-67985946D01*
X122155936Y-67985947D01*
X122181715Y-67987685D01*
X122189486Y-67988209D01*
X122275797Y-67966461D01*
X122286927Y-67960790D01*
X122331872Y-67950000D01*
X126300500Y-67950000D01*
X126358691Y-67968907D01*
X126394655Y-68018407D01*
X126399500Y-68049000D01*
X126399500Y-68205533D01*
X126398653Y-68218454D01*
X126394500Y-68250000D01*
X126399500Y-68287979D01*
X126415132Y-68406715D01*
X126475622Y-68552750D01*
X126571847Y-68678153D01*
X126697250Y-68774378D01*
X126843285Y-68834868D01*
X127000000Y-68855500D01*
X127031546Y-68851347D01*
X127044467Y-68850500D01*
X127855533Y-68850500D01*
X127868454Y-68851347D01*
X127900000Y-68855500D01*
X128056715Y-68834868D01*
X128202750Y-68774378D01*
X128297762Y-68701473D01*
X128297763Y-68701472D01*
X128328153Y-68678153D01*
X128341930Y-68660199D01*
X128360199Y-68641930D01*
X128378153Y-68628153D01*
X128382107Y-68623001D01*
X128411367Y-68584868D01*
X128470428Y-68507899D01*
X128474379Y-68502750D01*
X128534868Y-68356714D01*
X128535716Y-68350279D01*
X128554653Y-68206434D01*
X128555500Y-68200000D01*
X128551347Y-68168454D01*
X128550500Y-68155533D01*
X128550500Y-68049000D01*
X128569407Y-67990809D01*
X128618907Y-67954845D01*
X128649500Y-67950000D01*
X130350500Y-67950000D01*
X130408691Y-67968907D01*
X130444655Y-68018407D01*
X130449500Y-68049000D01*
X130449500Y-68155533D01*
X130448653Y-68168454D01*
X130444500Y-68200000D01*
X130449500Y-68237979D01*
X130465132Y-68356715D01*
X130525622Y-68502750D01*
X130621847Y-68628153D01*
X130747250Y-68724378D01*
X130793574Y-68743566D01*
X130885263Y-68781545D01*
X130893285Y-68784868D01*
X131050000Y-68805500D01*
X131081546Y-68801347D01*
X131094467Y-68800500D01*
X131955533Y-68800500D01*
X131968454Y-68801347D01*
X132000000Y-68805500D01*
X132156715Y-68784868D01*
X132164738Y-68781545D01*
X132256426Y-68743566D01*
X132302750Y-68724378D01*
X132428153Y-68628153D01*
X132524378Y-68502750D01*
X132584868Y-68356715D01*
X132600500Y-68237979D01*
X132605500Y-68200000D01*
X132601347Y-68168454D01*
X132600500Y-68155533D01*
X132600500Y-68049000D01*
X132619407Y-67990809D01*
X132668907Y-67954845D01*
X132699500Y-67950000D01*
X136855099Y-67950000D01*
X136857992Y-67949658D01*
X136857996Y-67949658D01*
X136898819Y-67944835D01*
X136898824Y-67944834D01*
X136901703Y-67944494D01*
X136946571Y-67933743D01*
X136965859Y-67928083D01*
X137041266Y-67880793D01*
X137050766Y-67871310D01*
X137081814Y-67840315D01*
X137084568Y-67837566D01*
X137089073Y-67831377D01*
X137119100Y-67790124D01*
X137119103Y-67790119D01*
X137121390Y-67786977D01*
X137133729Y-67762814D01*
X137146448Y-67743742D01*
X137175382Y-67709684D01*
X137186495Y-67696603D01*
X137214600Y-67663520D01*
X137231368Y-67647884D01*
X137316152Y-67585491D01*
X137336066Y-67574132D01*
X137383186Y-67554082D01*
X137432923Y-67532918D01*
X137454916Y-67526446D01*
X137523784Y-67514612D01*
X137558657Y-67508620D01*
X137581554Y-67507380D01*
X137589579Y-67507878D01*
X137686613Y-67513898D01*
X137709173Y-67517957D01*
X137759547Y-67533214D01*
X137759549Y-67533215D01*
X137759566Y-67533220D01*
X137809919Y-67548470D01*
X137830949Y-67557614D01*
X137921966Y-67610482D01*
X137940325Y-67624216D01*
X138016739Y-67696603D01*
X138031446Y-67714192D01*
X138091430Y-67805682D01*
X138097496Y-67814934D01*
X138119980Y-67843265D01*
X138121520Y-67844881D01*
X138121528Y-67844890D01*
X138144158Y-67868634D01*
X138144190Y-67868667D01*
X138144581Y-67869077D01*
X138151146Y-67875653D01*
X138227556Y-67921305D01*
X138232835Y-67923020D01*
X138232839Y-67923022D01*
X138279228Y-67938094D01*
X138285747Y-67940212D01*
X138289591Y-67940821D01*
X138289596Y-67940822D01*
X138343701Y-67949391D01*
X138343706Y-67949391D01*
X138347549Y-67950000D01*
X145126150Y-67950000D01*
X145184341Y-67968907D01*
X145196154Y-67978996D01*
X145656112Y-68438954D01*
X145683889Y-68493471D01*
X145674318Y-68553903D01*
X145631053Y-68597168D01*
X145624883Y-68600048D01*
X145545681Y-68633749D01*
X145404750Y-68737462D01*
X145401028Y-68741844D01*
X145401025Y-68741846D01*
X145304470Y-68855500D01*
X145291459Y-68870815D01*
X145282949Y-68887481D01*
X145226885Y-68997275D01*
X145211883Y-69026654D01*
X145170293Y-69196619D01*
X145168919Y-69371594D01*
X145207834Y-69542191D01*
X145210368Y-69547352D01*
X145282420Y-69694105D01*
X145282422Y-69694108D01*
X145284952Y-69699261D01*
X145396135Y-69834376D01*
X145535419Y-69940291D01*
X145695333Y-70011322D01*
X145867299Y-70043660D01*
X145935566Y-70040500D01*
X146036347Y-70035835D01*
X146036348Y-70035835D01*
X146042092Y-70035569D01*
X146210335Y-69987485D01*
X146363004Y-69901986D01*
X146405402Y-69863068D01*
X146487672Y-69787549D01*
X146491910Y-69783659D01*
X146549160Y-69699261D01*
X146586905Y-69643616D01*
X146586906Y-69643615D01*
X146590137Y-69638851D01*
X146609054Y-69589183D01*
X146647433Y-69541533D01*
X146706492Y-69525542D01*
X146763671Y-69547319D01*
X146771574Y-69554416D01*
X147079583Y-69862425D01*
X147080265Y-69863055D01*
X147080278Y-69863068D01*
X147082050Y-69864706D01*
X147091116Y-69873087D01*
X147102929Y-69883176D01*
X147171015Y-69921305D01*
X147229206Y-69940212D01*
X147233050Y-69940821D01*
X147233055Y-69940822D01*
X147287160Y-69949391D01*
X147287165Y-69949391D01*
X147291008Y-69950000D01*
X147468610Y-69950000D01*
X147513632Y-69960830D01*
X147581530Y-69995501D01*
X147581533Y-69995502D01*
X147586654Y-69998117D01*
X147592239Y-69999484D01*
X147592240Y-69999484D01*
X147752339Y-70038660D01*
X147752342Y-70038661D01*
X147756619Y-70039707D01*
X147761017Y-70039980D01*
X147761018Y-70039980D01*
X147767886Y-70040406D01*
X147767887Y-70040406D01*
X147769402Y-70040500D01*
X148692887Y-70040500D01*
X148823803Y-70025237D01*
X148829209Y-70023275D01*
X148829212Y-70023274D01*
X148927808Y-69987485D01*
X148988282Y-69965534D01*
X148993099Y-69962376D01*
X148996887Y-69960479D01*
X149041217Y-69950000D01*
X149208992Y-69950000D01*
X149209924Y-69949963D01*
X149209943Y-69949963D01*
X149223731Y-69949421D01*
X149223754Y-69949420D01*
X149224686Y-69949383D01*
X149225626Y-69949309D01*
X149225643Y-69949308D01*
X149229409Y-69949011D01*
X149240173Y-69948164D01*
X149266206Y-69940822D01*
X149310596Y-69928303D01*
X149310599Y-69928302D01*
X149315275Y-69926983D01*
X149369792Y-69899206D01*
X149396201Y-69880019D01*
X149417278Y-69864706D01*
X149417281Y-69864703D01*
X149420417Y-69862425D01*
X149879138Y-69403704D01*
X149886645Y-69395777D01*
X149893850Y-69387739D01*
X149903671Y-69371594D01*
X149929579Y-69328999D01*
X149931949Y-69325103D01*
X149953626Y-69267887D01*
X149954223Y-69265750D01*
X149961177Y-69240858D01*
X149961177Y-69240855D01*
X149963273Y-69233353D01*
X149959556Y-69144422D01*
X149943462Y-69085391D01*
X149917761Y-69028337D01*
X149910833Y-69017771D01*
X149900570Y-68997275D01*
X149890575Y-68969739D01*
X149885638Y-68956138D01*
X149864654Y-68898327D01*
X149859380Y-68876016D01*
X149859372Y-68875941D01*
X149851159Y-68805500D01*
X149850166Y-68796983D01*
X149849500Y-68785519D01*
X149849500Y-68005910D01*
X149852337Y-67982378D01*
X149853843Y-67976226D01*
X149857160Y-67962670D01*
X149857161Y-67962668D01*
X149877866Y-67878052D01*
X149885859Y-67856561D01*
X149933729Y-67762814D01*
X149946451Y-67743738D01*
X149975382Y-67709684D01*
X149986495Y-67696603D01*
X150014600Y-67663520D01*
X150031368Y-67647884D01*
X150116152Y-67585491D01*
X150136066Y-67574132D01*
X150183186Y-67554082D01*
X150232923Y-67532918D01*
X150254916Y-67526446D01*
X150323784Y-67514612D01*
X150358657Y-67508620D01*
X150381554Y-67507380D01*
X150389579Y-67507878D01*
X150486613Y-67513898D01*
X150509173Y-67517957D01*
X150559547Y-67533214D01*
X150559549Y-67533215D01*
X150559566Y-67533220D01*
X150609919Y-67548470D01*
X150630949Y-67557614D01*
X150721966Y-67610482D01*
X150740325Y-67624216D01*
X150816741Y-67696605D01*
X150831445Y-67714191D01*
X150893024Y-67808112D01*
X150893025Y-67808114D01*
X150898751Y-67816847D01*
X150897730Y-67817516D01*
X150899198Y-67820449D01*
X150900537Y-67819571D01*
X150908277Y-67831377D01*
X150908732Y-67831078D01*
X150908755Y-67831103D01*
X150937261Y-67872993D01*
X150937269Y-67873002D01*
X150939883Y-67876844D01*
X150983148Y-67920109D01*
X150984848Y-67921529D01*
X150984851Y-67921531D01*
X150999831Y-67934037D01*
X151010673Y-67943089D01*
X151039981Y-67954845D01*
X151088125Y-67974157D01*
X151088128Y-67974158D01*
X151093284Y-67976226D01*
X151098774Y-67977096D01*
X151098776Y-67977096D01*
X151151512Y-67985448D01*
X151153716Y-67985797D01*
X151155929Y-67985946D01*
X151155936Y-67985947D01*
X151181715Y-67987685D01*
X151189486Y-67988209D01*
X151275797Y-67966461D01*
X151286927Y-67960790D01*
X151331872Y-67950000D01*
X155300500Y-67950000D01*
X155358691Y-67968907D01*
X155394655Y-68018407D01*
X155399500Y-68049000D01*
X155399500Y-68205533D01*
X155398653Y-68218454D01*
X155394500Y-68250000D01*
X155415132Y-68406715D01*
X155475622Y-68552750D01*
X155571847Y-68678153D01*
X155697250Y-68774378D01*
X155843285Y-68834868D01*
X156000000Y-68855500D01*
X156031546Y-68851347D01*
X156044467Y-68850500D01*
X156710257Y-68850500D01*
X156768448Y-68869407D01*
X156780261Y-68879496D01*
X156870504Y-68969739D01*
X156898281Y-69024256D01*
X156899500Y-69039743D01*
X156899500Y-85455533D01*
X156898653Y-85468455D01*
X156896611Y-85483969D01*
X156894500Y-85500000D01*
X156899500Y-85537979D01*
X156915132Y-85656715D01*
X156975622Y-85802750D01*
X157071847Y-85928153D01*
X157197250Y-86024378D01*
X157343285Y-86084868D01*
X157500000Y-86105500D01*
X157656715Y-86084868D01*
X157802750Y-86024378D01*
X157928153Y-85928153D01*
X158024378Y-85802750D01*
X158084868Y-85656715D01*
X158105500Y-85500000D01*
X158103390Y-85483969D01*
X158101347Y-85468455D01*
X158100500Y-85455533D01*
X158100500Y-68794467D01*
X158101347Y-68781545D01*
X158104653Y-68756434D01*
X158105500Y-68750000D01*
X158100288Y-68710407D01*
X158084868Y-68593285D01*
X158078600Y-68578153D01*
X158024379Y-68447250D01*
X157951473Y-68352238D01*
X157951472Y-68352237D01*
X157928153Y-68321847D01*
X157902916Y-68302482D01*
X157893179Y-68293944D01*
X157718239Y-68119004D01*
X157690462Y-68064487D01*
X157700033Y-68004055D01*
X157743298Y-67960790D01*
X157788243Y-67950000D01*
X159300500Y-67950000D01*
X159358691Y-67968907D01*
X159394655Y-68018407D01*
X159399500Y-68049000D01*
X159399500Y-68105533D01*
X159398653Y-68118454D01*
X159394500Y-68150000D01*
X159415132Y-68306715D01*
X159475622Y-68452750D01*
X159479568Y-68457892D01*
X159479570Y-68457896D01*
X159539200Y-68535606D01*
X159542188Y-68539500D01*
X159571847Y-68578153D01*
X159589801Y-68591930D01*
X159608070Y-68610199D01*
X159621847Y-68628153D01*
X159652237Y-68651472D01*
X159652238Y-68651473D01*
X159747250Y-68724379D01*
X159753244Y-68726862D01*
X159753248Y-68726864D01*
X159850512Y-68767151D01*
X159887285Y-68782383D01*
X159887287Y-68782384D01*
X159893285Y-68784868D01*
X160050000Y-68805500D01*
X160081546Y-68801347D01*
X160094467Y-68800500D01*
X160740622Y-68800500D01*
X160778506Y-68808036D01*
X160800513Y-68817151D01*
X160843285Y-68834868D01*
X161000000Y-68855500D01*
X161006434Y-68854653D01*
X161150284Y-68835715D01*
X161150286Y-68835714D01*
X161156715Y-68834868D01*
X161201217Y-68816435D01*
X161296752Y-68776864D01*
X161296756Y-68776862D01*
X161302750Y-68774379D01*
X161428153Y-68678153D01*
X161524379Y-68552750D01*
X161526862Y-68546755D01*
X161526864Y-68546752D01*
X161582385Y-68412709D01*
X161584868Y-68406715D01*
X161585716Y-68400279D01*
X161604653Y-68256434D01*
X161605500Y-68250000D01*
X161601347Y-68218455D01*
X161600500Y-68205533D01*
X161600500Y-68049000D01*
X161619407Y-67990809D01*
X161668907Y-67954845D01*
X161699500Y-67950000D01*
X164951000Y-67950000D01*
X165009191Y-67968907D01*
X165045155Y-68018407D01*
X165050000Y-68049000D01*
X165050000Y-82950500D01*
X165052462Y-82981784D01*
X165057307Y-83012377D01*
X165059540Y-83017767D01*
X165059541Y-83017772D01*
X165080302Y-83067893D01*
X165093042Y-83098650D01*
X165129006Y-83148150D01*
X165152597Y-83175153D01*
X165229007Y-83220805D01*
X165234286Y-83222520D01*
X165234290Y-83222522D01*
X165283495Y-83238509D01*
X165287198Y-83239712D01*
X165291042Y-83240321D01*
X165291047Y-83240322D01*
X165345152Y-83248891D01*
X165345157Y-83248891D01*
X165349000Y-83249500D01*
X166340696Y-83249500D01*
X166353361Y-83250313D01*
X166547714Y-83275383D01*
X166562420Y-83278429D01*
X166606092Y-83290993D01*
X166767342Y-83337383D01*
X166781412Y-83342616D01*
X166870003Y-83383457D01*
X166975058Y-83431888D01*
X166988181Y-83439192D01*
X167166094Y-83556728D01*
X167177960Y-83565932D01*
X167295867Y-83672655D01*
X167295868Y-83672656D01*
X167336051Y-83709029D01*
X167346388Y-83719922D01*
X167481011Y-83885280D01*
X167489582Y-83897612D01*
X167597644Y-84081431D01*
X167604251Y-84094918D01*
X167683267Y-84292973D01*
X167687758Y-84307304D01*
X167735905Y-84515026D01*
X167738177Y-84529871D01*
X167750215Y-84688122D01*
X167750500Y-84695631D01*
X167750500Y-87840696D01*
X167749687Y-87853361D01*
X167730928Y-87998791D01*
X167724617Y-88047715D01*
X167721571Y-88062421D01*
X167713182Y-88091581D01*
X167667640Y-88249884D01*
X167662618Y-88267339D01*
X167657384Y-88281412D01*
X167616818Y-88369407D01*
X167568112Y-88475058D01*
X167560808Y-88488181D01*
X167443272Y-88666094D01*
X167434068Y-88677960D01*
X167335232Y-88787153D01*
X167332860Y-88789774D01*
X167295613Y-88830924D01*
X167290972Y-88836051D01*
X167280082Y-88846386D01*
X167214227Y-88900000D01*
X167114720Y-88981011D01*
X167102388Y-88989582D01*
X166918569Y-89097644D01*
X166905082Y-89104251D01*
X166707023Y-89183268D01*
X166692701Y-89187757D01*
X166484971Y-89235906D01*
X166470127Y-89238178D01*
X166377599Y-89245216D01*
X166311879Y-89250215D01*
X166304370Y-89250500D01*
X165349000Y-89250500D01*
X165317716Y-89252962D01*
X165287123Y-89257807D01*
X165281733Y-89260040D01*
X165281728Y-89260041D01*
X165243360Y-89275934D01*
X165200850Y-89293542D01*
X165151350Y-89329506D01*
X165124347Y-89353097D01*
X165078695Y-89429507D01*
X165059788Y-89487698D01*
X165059179Y-89491542D01*
X165059178Y-89491547D01*
X165053612Y-89526696D01*
X165050000Y-89549500D01*
X165050000Y-90156620D01*
X165031093Y-90214811D01*
X164981593Y-90250775D01*
X164944786Y-90255425D01*
X164772378Y-90244578D01*
X164769617Y-90244713D01*
X164769613Y-90244713D01*
X164465016Y-90259611D01*
X164414934Y-90262060D01*
X164061666Y-90319277D01*
X163716977Y-90415516D01*
X163585305Y-90468715D01*
X163387725Y-90548542D01*
X163387721Y-90548544D01*
X163385164Y-90549577D01*
X163382740Y-90550888D01*
X163382735Y-90550890D01*
X163072792Y-90718475D01*
X163072783Y-90718480D01*
X163070363Y-90719789D01*
X162776497Y-90924032D01*
X162507229Y-91159758D01*
X162265915Y-91424030D01*
X162055564Y-91713554D01*
X162054197Y-91715961D01*
X162054196Y-91715962D01*
X161880164Y-92022313D01*
X161880161Y-92022320D01*
X161878796Y-92024722D01*
X161737815Y-92353654D01*
X161737019Y-92356289D01*
X161737018Y-92356293D01*
X161694722Y-92496384D01*
X161634379Y-92696252D01*
X161633882Y-92698960D01*
X161633881Y-92698964D01*
X161579321Y-92996240D01*
X161569776Y-93048244D01*
X161544812Y-93405244D01*
X161552922Y-93598721D01*
X161558241Y-93725622D01*
X161559799Y-93762802D01*
X161560220Y-93765524D01*
X161560221Y-93765530D01*
X161578356Y-93882674D01*
X161614548Y-94116461D01*
X161648369Y-94240942D01*
X161697834Y-94423003D01*
X161708378Y-94461813D01*
X161709396Y-94464385D01*
X161709398Y-94464390D01*
X161829366Y-94767396D01*
X161840119Y-94794554D01*
X161841408Y-94796979D01*
X161841413Y-94796989D01*
X162006834Y-95108099D01*
X162008130Y-95110536D01*
X162009692Y-95112817D01*
X162208755Y-95403541D01*
X162208760Y-95403547D01*
X162210316Y-95405820D01*
X162444156Y-95676727D01*
X162706737Y-95919880D01*
X162994786Y-96132248D01*
X163304712Y-96311184D01*
X163632652Y-96454457D01*
X163635286Y-96455272D01*
X163635285Y-96455272D01*
X163971878Y-96559466D01*
X163971887Y-96559468D01*
X163974519Y-96560283D01*
X164326052Y-96627341D01*
X164682869Y-96654797D01*
X164685621Y-96654701D01*
X164685626Y-96654701D01*
X164947545Y-96645554D01*
X165006360Y-96662419D01*
X165044030Y-96710634D01*
X165050000Y-96744494D01*
X165050000Y-106951000D01*
X165031093Y-107009191D01*
X164981593Y-107045155D01*
X164951000Y-107050000D01*
X157220766Y-107050000D01*
X157162575Y-107031093D01*
X157126611Y-106981593D01*
X157126611Y-106920407D01*
X157129302Y-106913115D01*
X157162761Y-106832337D01*
X157162762Y-106832335D01*
X157165246Y-106826337D01*
X157185878Y-106669622D01*
X157165246Y-106512907D01*
X157104756Y-106366872D01*
X157008531Y-106241469D01*
X156883128Y-106145244D01*
X156737093Y-106084754D01*
X156580378Y-106064122D01*
X156469255Y-106078752D01*
X156409096Y-106067602D01*
X156386330Y-106050603D01*
X155662523Y-105326795D01*
X154910084Y-104574356D01*
X154908035Y-104571982D01*
X154906017Y-104567853D01*
X154873727Y-104537900D01*
X154871051Y-104535323D01*
X154854259Y-104518531D01*
X154850500Y-104515952D01*
X154848419Y-104514223D01*
X154844362Y-104510660D01*
X154830704Y-104497990D01*
X154830701Y-104497988D01*
X154824001Y-104491773D01*
X154813320Y-104487512D01*
X154794003Y-104477197D01*
X154784527Y-104470696D01*
X154758625Y-104464549D01*
X154744822Y-104460183D01*
X154720095Y-104450318D01*
X154711752Y-104449500D01*
X154706802Y-104449500D01*
X154685683Y-104447029D01*
X154684573Y-104446975D01*
X154675679Y-104444864D01*
X154654281Y-104447776D01*
X154648256Y-104448596D01*
X154634906Y-104449500D01*
X150324926Y-104449500D01*
X150266735Y-104430593D01*
X150246384Y-104410768D01*
X150240586Y-104403212D01*
X150178153Y-104321847D01*
X150052750Y-104225622D01*
X149906715Y-104165132D01*
X149750000Y-104144500D01*
X149593285Y-104165132D01*
X149447250Y-104225622D01*
X149321847Y-104321847D01*
X149225622Y-104447250D01*
X149165132Y-104593285D01*
X149144500Y-104750000D01*
X149165132Y-104906715D01*
X149225622Y-105052750D01*
X149321847Y-105178153D01*
X149447250Y-105274378D01*
X149593285Y-105334868D01*
X149750000Y-105355500D01*
X149906715Y-105334868D01*
X150052750Y-105274378D01*
X150178153Y-105178153D01*
X150246385Y-105089231D01*
X150296809Y-105054577D01*
X150324926Y-105050500D01*
X154495277Y-105050500D01*
X154553468Y-105069407D01*
X154565281Y-105079496D01*
X155961359Y-106475574D01*
X155989136Y-106530091D01*
X155989508Y-106558497D01*
X155974878Y-106669622D01*
X155995510Y-106826337D01*
X155997994Y-106832335D01*
X155997995Y-106832337D01*
X156031454Y-106913115D01*
X156036255Y-106974111D01*
X156004285Y-107026280D01*
X155947757Y-107049695D01*
X155939990Y-107050000D01*
X149755758Y-107050000D01*
X149754307Y-107050086D01*
X149754292Y-107050086D01*
X149743239Y-107050738D01*
X149732254Y-107051386D01*
X149724446Y-107052310D01*
X149714455Y-107053492D01*
X149714452Y-107053493D01*
X149709143Y-107054121D01*
X149689331Y-107060991D01*
X149643228Y-107076978D01*
X149628148Y-107082207D01*
X149575979Y-107114176D01*
X149574194Y-107115503D01*
X149574192Y-107115505D01*
X149559582Y-107126372D01*
X149501607Y-107145931D01*
X149443684Y-107127826D01*
X149440645Y-107124347D01*
X149433956Y-107120350D01*
X149433954Y-107120349D01*
X149369005Y-107081545D01*
X149369006Y-107081545D01*
X149364235Y-107078695D01*
X149358956Y-107076980D01*
X149358952Y-107076978D01*
X149309747Y-107060991D01*
X149309745Y-107060991D01*
X149306044Y-107059788D01*
X149302200Y-107059179D01*
X149302195Y-107059178D01*
X149248090Y-107050609D01*
X149248085Y-107050609D01*
X149244242Y-107050000D01*
X135849000Y-107050000D01*
X135817716Y-107052462D01*
X135787123Y-107057307D01*
X135781733Y-107059540D01*
X135781728Y-107059541D01*
X135730572Y-107080731D01*
X135700850Y-107093042D01*
X135651350Y-107129006D01*
X135624347Y-107152597D01*
X135620352Y-107159284D01*
X135620351Y-107159285D01*
X135607620Y-107180593D01*
X135578695Y-107229007D01*
X135576980Y-107234286D01*
X135576978Y-107234290D01*
X135566913Y-107265269D01*
X135559788Y-107287198D01*
X135550000Y-107349000D01*
X135550000Y-114901000D01*
X135552462Y-114932284D01*
X135557307Y-114962877D01*
X135559540Y-114968267D01*
X135559541Y-114968272D01*
X135580731Y-115019428D01*
X135593042Y-115049150D01*
X135629006Y-115098650D01*
X135652597Y-115125653D01*
X135659284Y-115129648D01*
X135659285Y-115129649D01*
X135699534Y-115153696D01*
X135729007Y-115171305D01*
X135734286Y-115173020D01*
X135734290Y-115173022D01*
X135783495Y-115189009D01*
X135787198Y-115190212D01*
X135791042Y-115190821D01*
X135791047Y-115190822D01*
X135845152Y-115199391D01*
X135845157Y-115199391D01*
X135849000Y-115200000D01*
X149244242Y-115200000D01*
X149245693Y-115199914D01*
X149245708Y-115199914D01*
X149256761Y-115199262D01*
X149267746Y-115198614D01*
X149276838Y-115197538D01*
X149285545Y-115196508D01*
X149285548Y-115196507D01*
X149290857Y-115195879D01*
X149344389Y-115177316D01*
X149366797Y-115169546D01*
X149366798Y-115169546D01*
X149371852Y-115167793D01*
X149424021Y-115135824D01*
X149437696Y-115125653D01*
X149440418Y-115123628D01*
X149498393Y-115104069D01*
X149556316Y-115122174D01*
X149559355Y-115125653D01*
X149566044Y-115129650D01*
X149566046Y-115129651D01*
X149616576Y-115159840D01*
X149635765Y-115171305D01*
X149641044Y-115173020D01*
X149641048Y-115173022D01*
X149690253Y-115189009D01*
X149693956Y-115190212D01*
X149697800Y-115190821D01*
X149697805Y-115190822D01*
X149751910Y-115199391D01*
X149751915Y-115199391D01*
X149755758Y-115200000D01*
X170201000Y-115200000D01*
X170259191Y-115218907D01*
X170295155Y-115268407D01*
X170300000Y-115299000D01*
X170300000Y-117701000D01*
X170281093Y-117759191D01*
X170231593Y-117795155D01*
X170201000Y-117800000D01*
X122349000Y-117800000D01*
X122290809Y-117781093D01*
X122254845Y-117731593D01*
X122250000Y-117701000D01*
X122250000Y-111750000D01*
X93750000Y-111750000D01*
X93750000Y-117701000D01*
X93731093Y-117759191D01*
X93681593Y-117795155D01*
X93651000Y-117800000D01*
X63299000Y-117800000D01*
X63240809Y-117781093D01*
X63204845Y-117731593D01*
X63200000Y-117701000D01*
X63200000Y-58299000D01*
X63218907Y-58240809D01*
X63268407Y-58204845D01*
X63299000Y-58200000D01*
X170201000Y-58200000D01*
X170259191Y-58218907D01*
G37*
%TD.AperFunction*%
%TA.AperFunction,Conductor*%
G36*
X149561862Y-113854370D02*
G01*
X149591581Y-113858283D01*
X149616544Y-113864972D01*
X149689847Y-113895335D01*
X149712223Y-113908253D01*
X149775179Y-113956561D01*
X149793439Y-113974821D01*
X149841747Y-114037777D01*
X149854665Y-114060153D01*
X149885028Y-114133456D01*
X149891717Y-114158419D01*
X149902073Y-114237077D01*
X149902073Y-114262923D01*
X149891717Y-114341581D01*
X149885028Y-114366544D01*
X149854665Y-114439847D01*
X149841743Y-114462228D01*
X149793447Y-114525169D01*
X149775173Y-114543443D01*
X149712231Y-114591741D01*
X149689843Y-114604666D01*
X149678021Y-114609562D01*
X149677984Y-114609578D01*
X149677973Y-114609583D01*
X149677971Y-114609584D01*
X149677958Y-114609590D01*
X149641332Y-114624762D01*
X149620150Y-114635036D01*
X149612305Y-114639429D01*
X149604510Y-114643794D01*
X149604506Y-114643797D01*
X149599845Y-114646407D01*
X149595851Y-114649956D01*
X149595847Y-114649959D01*
X149565925Y-114676549D01*
X149509868Y-114701069D01*
X149450104Y-114687957D01*
X149435876Y-114677832D01*
X149412018Y-114657455D01*
X149358668Y-114624762D01*
X149322042Y-114609590D01*
X149322029Y-114609584D01*
X149322027Y-114609583D01*
X149322016Y-114609578D01*
X149321979Y-114609562D01*
X149310157Y-114604666D01*
X149287769Y-114591741D01*
X149224827Y-114543443D01*
X149206553Y-114525169D01*
X149158257Y-114462228D01*
X149145335Y-114439847D01*
X149114972Y-114366544D01*
X149108283Y-114341581D01*
X149097927Y-114262923D01*
X149097927Y-114237077D01*
X149108283Y-114158419D01*
X149114972Y-114133456D01*
X149145335Y-114060153D01*
X149158253Y-114037777D01*
X149206561Y-113974821D01*
X149224821Y-113956561D01*
X149287777Y-113908253D01*
X149310153Y-113895335D01*
X149383456Y-113864972D01*
X149408419Y-113858283D01*
X149438138Y-113854370D01*
X149487080Y-113847927D01*
X149512920Y-113847927D01*
X149561862Y-113854370D01*
G37*
%TD.AperFunction*%
%TA.AperFunction,Conductor*%
G36*
X149549896Y-107562043D02*
G01*
X149564124Y-107572168D01*
X149587982Y-107592545D01*
X149610275Y-107606206D01*
X149638020Y-107623209D01*
X149638024Y-107623211D01*
X149641335Y-107625240D01*
X149644920Y-107626725D01*
X149644922Y-107626726D01*
X149689848Y-107645335D01*
X149712223Y-107658253D01*
X149775179Y-107706561D01*
X149793439Y-107724821D01*
X149841747Y-107787777D01*
X149854665Y-107810153D01*
X149885028Y-107883456D01*
X149891717Y-107908419D01*
X149898704Y-107961485D01*
X149902073Y-107987077D01*
X149902073Y-108012923D01*
X149891717Y-108091581D01*
X149885028Y-108116544D01*
X149854665Y-108189847D01*
X149841747Y-108212223D01*
X149793439Y-108275179D01*
X149775179Y-108293439D01*
X149712223Y-108341747D01*
X149689847Y-108354665D01*
X149616544Y-108385028D01*
X149591581Y-108391717D01*
X149570443Y-108394500D01*
X149512920Y-108402073D01*
X149487080Y-108402073D01*
X149429557Y-108394500D01*
X149408419Y-108391717D01*
X149383456Y-108385028D01*
X149310153Y-108354665D01*
X149287777Y-108341747D01*
X149224821Y-108293439D01*
X149206561Y-108275179D01*
X149158253Y-108212223D01*
X149145335Y-108189847D01*
X149114972Y-108116544D01*
X149108283Y-108091581D01*
X149097927Y-108012923D01*
X149097927Y-107987077D01*
X149101297Y-107961485D01*
X149108283Y-107908419D01*
X149114972Y-107883456D01*
X149145335Y-107810153D01*
X149158253Y-107787777D01*
X149206561Y-107724821D01*
X149224821Y-107706561D01*
X149287777Y-107658253D01*
X149310152Y-107645335D01*
X149358665Y-107625240D01*
X149379850Y-107614964D01*
X149381103Y-107614262D01*
X149381117Y-107614255D01*
X149395490Y-107606206D01*
X149395494Y-107606203D01*
X149400155Y-107603593D01*
X149404149Y-107600044D01*
X149404153Y-107600041D01*
X149434075Y-107573451D01*
X149490132Y-107548931D01*
X149549896Y-107562043D01*
G37*
%TD.AperFunction*%
%TA.AperFunction,Conductor*%
G36*
X81560675Y-90104214D02*
G01*
X81591581Y-90108283D01*
X81616544Y-90114972D01*
X81689847Y-90145335D01*
X81712223Y-90158253D01*
X81775179Y-90206561D01*
X81793439Y-90224821D01*
X81841747Y-90287777D01*
X81854665Y-90310153D01*
X81885028Y-90383456D01*
X81891717Y-90408419D01*
X81892788Y-90416553D01*
X81901390Y-90481887D01*
X81902073Y-90487077D01*
X81902073Y-90512920D01*
X81897383Y-90548542D01*
X81891717Y-90591581D01*
X81885028Y-90616544D01*
X81854665Y-90689847D01*
X81841747Y-90712223D01*
X81793439Y-90775179D01*
X81775179Y-90793439D01*
X81712223Y-90841747D01*
X81689847Y-90854665D01*
X81616544Y-90885028D01*
X81591581Y-90891717D01*
X81561862Y-90895630D01*
X81512920Y-90902073D01*
X81487080Y-90902073D01*
X81438138Y-90895630D01*
X81408419Y-90891717D01*
X81383456Y-90885028D01*
X81310153Y-90854665D01*
X81287777Y-90841747D01*
X81224821Y-90793439D01*
X81206561Y-90775179D01*
X81158253Y-90712223D01*
X81145335Y-90689847D01*
X81114972Y-90616544D01*
X81108283Y-90591581D01*
X81102617Y-90548542D01*
X81097927Y-90512920D01*
X81097927Y-90487077D01*
X81098611Y-90481887D01*
X81107212Y-90416553D01*
X81108283Y-90408419D01*
X81114972Y-90383456D01*
X81145335Y-90310153D01*
X81158253Y-90287777D01*
X81206561Y-90224821D01*
X81224821Y-90206561D01*
X81287777Y-90158253D01*
X81310153Y-90145335D01*
X81383456Y-90114972D01*
X81408419Y-90108283D01*
X81439325Y-90104214D01*
X81487080Y-90097927D01*
X81512920Y-90097927D01*
X81560675Y-90104214D01*
G37*
%TD.AperFunction*%
%TA.AperFunction,Conductor*%
G36*
X125181683Y-62649612D02*
G01*
X125181688Y-62649612D01*
X125231199Y-62649870D01*
X125254794Y-62652851D01*
X125290155Y-62661734D01*
X125349010Y-62676517D01*
X125371219Y-62685042D01*
X125436535Y-62719626D01*
X125436537Y-62719627D01*
X125457073Y-62730500D01*
X125476607Y-62744076D01*
X125544817Y-62804849D01*
X125549141Y-62808702D01*
X125564871Y-62826544D01*
X125619897Y-62906606D01*
X125630918Y-62927687D01*
X125665257Y-63018564D01*
X125670931Y-63041664D01*
X125679783Y-63114811D01*
X125680500Y-63126705D01*
X125680500Y-63875473D01*
X125679653Y-63888395D01*
X125669769Y-63963471D01*
X125663854Y-63986510D01*
X125628565Y-64077023D01*
X125617324Y-64097987D01*
X125561465Y-64177467D01*
X125545547Y-64195145D01*
X125472338Y-64259008D01*
X125452667Y-64272377D01*
X125412444Y-64293138D01*
X125366343Y-64316932D01*
X125344047Y-64325224D01*
X125249579Y-64347903D01*
X125225952Y-64350637D01*
X125178317Y-64350388D01*
X125178312Y-64350388D01*
X125128801Y-64350130D01*
X125105206Y-64347149D01*
X125058097Y-64335315D01*
X125010988Y-64323482D01*
X124988781Y-64314958D01*
X124902924Y-64269498D01*
X124883396Y-64255926D01*
X124810854Y-64191294D01*
X124795125Y-64173452D01*
X124740104Y-64093396D01*
X124729083Y-64072316D01*
X124694743Y-63981437D01*
X124689069Y-63958337D01*
X124680217Y-63885189D01*
X124679500Y-63873295D01*
X124679500Y-63124527D01*
X124680347Y-63111605D01*
X124690231Y-63036526D01*
X124696147Y-63013486D01*
X124712088Y-62972600D01*
X124712090Y-62972596D01*
X124731433Y-62922980D01*
X124742675Y-62902014D01*
X124798538Y-62822530D01*
X124814455Y-62804853D01*
X124838033Y-62784285D01*
X124838035Y-62784283D01*
X124887661Y-62740992D01*
X124907334Y-62727622D01*
X124922826Y-62719626D01*
X124947556Y-62706862D01*
X124993657Y-62683068D01*
X125015953Y-62674776D01*
X125110421Y-62652097D01*
X125134048Y-62649363D01*
X125181683Y-62649612D01*
G37*
%TD.AperFunction*%
%TA.AperFunction,Conductor*%
G36*
X162821683Y-62649612D02*
G01*
X162821688Y-62649612D01*
X162871199Y-62649870D01*
X162894794Y-62652851D01*
X162941903Y-62664685D01*
X162941906Y-62664686D01*
X162941914Y-62664689D01*
X162989013Y-62676519D01*
X163011217Y-62685041D01*
X163076537Y-62719627D01*
X163097073Y-62730500D01*
X163116607Y-62744076D01*
X163184817Y-62804849D01*
X163189141Y-62808702D01*
X163204871Y-62826544D01*
X163259897Y-62906606D01*
X163270918Y-62927687D01*
X163305257Y-63018563D01*
X163310931Y-63041663D01*
X163319783Y-63114811D01*
X163320500Y-63126705D01*
X163320500Y-63875473D01*
X163319653Y-63888395D01*
X163309769Y-63963471D01*
X163303854Y-63986510D01*
X163268565Y-64077023D01*
X163257324Y-64097987D01*
X163201465Y-64177467D01*
X163185547Y-64195145D01*
X163112338Y-64259008D01*
X163092667Y-64272377D01*
X163052444Y-64293138D01*
X163006343Y-64316932D01*
X162984047Y-64325224D01*
X162889579Y-64347903D01*
X162865952Y-64350637D01*
X162818317Y-64350388D01*
X162818312Y-64350388D01*
X162768801Y-64350130D01*
X162745206Y-64347149D01*
X162698097Y-64335315D01*
X162650988Y-64323482D01*
X162628781Y-64314958D01*
X162542924Y-64269498D01*
X162523396Y-64255926D01*
X162487125Y-64223610D01*
X162450858Y-64191297D01*
X162435128Y-64173455D01*
X162414834Y-64143928D01*
X162414833Y-64143927D01*
X162414825Y-64143915D01*
X162414824Y-64143914D01*
X162380100Y-64093390D01*
X162369083Y-64072316D01*
X162334743Y-63981437D01*
X162329069Y-63958337D01*
X162320217Y-63885189D01*
X162319500Y-63873295D01*
X162319500Y-63124527D01*
X162320347Y-63111605D01*
X162330231Y-63036526D01*
X162336147Y-63013486D01*
X162352088Y-62972600D01*
X162352090Y-62972596D01*
X162371433Y-62922980D01*
X162382674Y-62902014D01*
X162438536Y-62822530D01*
X162454459Y-62804849D01*
X162459044Y-62800850D01*
X162459050Y-62800845D01*
X162527661Y-62740992D01*
X162547334Y-62727622D01*
X162562826Y-62719626D01*
X162587556Y-62706862D01*
X162633657Y-62683068D01*
X162655953Y-62674776D01*
X162750421Y-62652097D01*
X162774048Y-62649363D01*
X162821683Y-62649612D01*
G37*
%TD.AperFunction*%
%TA.AperFunction,Conductor*%
G36*
X133821683Y-62649612D02*
G01*
X133821688Y-62649612D01*
X133871199Y-62649870D01*
X133894794Y-62652851D01*
X133930155Y-62661734D01*
X133989010Y-62676517D01*
X134011219Y-62685042D01*
X134076535Y-62719626D01*
X134076537Y-62719627D01*
X134097073Y-62730500D01*
X134116607Y-62744076D01*
X134184817Y-62804849D01*
X134189141Y-62808702D01*
X134204871Y-62826544D01*
X134259897Y-62906606D01*
X134270918Y-62927687D01*
X134305257Y-63018564D01*
X134310931Y-63041664D01*
X134319783Y-63114811D01*
X134320500Y-63126705D01*
X134320500Y-63875473D01*
X134319653Y-63888395D01*
X134309769Y-63963471D01*
X134303854Y-63986510D01*
X134268565Y-64077023D01*
X134257324Y-64097987D01*
X134201465Y-64177467D01*
X134185547Y-64195145D01*
X134112338Y-64259008D01*
X134092667Y-64272377D01*
X134052444Y-64293138D01*
X134006343Y-64316932D01*
X133984047Y-64325224D01*
X133889579Y-64347903D01*
X133865952Y-64350637D01*
X133818317Y-64350388D01*
X133818312Y-64350388D01*
X133768801Y-64350130D01*
X133745206Y-64347149D01*
X133698097Y-64335315D01*
X133650988Y-64323482D01*
X133628781Y-64314958D01*
X133542924Y-64269498D01*
X133523396Y-64255926D01*
X133450854Y-64191294D01*
X133435125Y-64173452D01*
X133380104Y-64093396D01*
X133369083Y-64072316D01*
X133334743Y-63981437D01*
X133329069Y-63958337D01*
X133320217Y-63885189D01*
X133319500Y-63873295D01*
X133319500Y-63124527D01*
X133320347Y-63111605D01*
X133330231Y-63036526D01*
X133336147Y-63013486D01*
X133352088Y-62972600D01*
X133352090Y-62972596D01*
X133371433Y-62922980D01*
X133382675Y-62902014D01*
X133438538Y-62822530D01*
X133454455Y-62804853D01*
X133478033Y-62784285D01*
X133478035Y-62784283D01*
X133527661Y-62740992D01*
X133547334Y-62727622D01*
X133562826Y-62719626D01*
X133587556Y-62706862D01*
X133633657Y-62683068D01*
X133655953Y-62674776D01*
X133750421Y-62652097D01*
X133774048Y-62649363D01*
X133821683Y-62649612D01*
G37*
%TD.AperFunction*%
%TA.AperFunction,Conductor*%
G36*
X154181683Y-62649612D02*
G01*
X154181688Y-62649612D01*
X154231199Y-62649870D01*
X154254794Y-62652851D01*
X154290155Y-62661734D01*
X154349010Y-62676517D01*
X154371219Y-62685042D01*
X154436535Y-62719626D01*
X154436537Y-62719627D01*
X154457073Y-62730500D01*
X154476607Y-62744076D01*
X154544817Y-62804849D01*
X154549141Y-62808702D01*
X154564871Y-62826544D01*
X154619897Y-62906606D01*
X154630918Y-62927687D01*
X154665257Y-63018564D01*
X154670931Y-63041664D01*
X154679783Y-63114811D01*
X154680500Y-63126705D01*
X154680500Y-63875473D01*
X154679653Y-63888395D01*
X154669769Y-63963471D01*
X154663854Y-63986510D01*
X154628565Y-64077023D01*
X154617324Y-64097987D01*
X154561465Y-64177467D01*
X154545547Y-64195145D01*
X154472338Y-64259008D01*
X154452667Y-64272377D01*
X154412444Y-64293138D01*
X154366343Y-64316932D01*
X154344047Y-64325224D01*
X154249579Y-64347903D01*
X154225952Y-64350637D01*
X154178317Y-64350388D01*
X154178312Y-64350388D01*
X154128801Y-64350130D01*
X154105206Y-64347149D01*
X154058097Y-64335315D01*
X154010988Y-64323482D01*
X153988781Y-64314958D01*
X153902924Y-64269498D01*
X153883396Y-64255926D01*
X153810854Y-64191294D01*
X153795125Y-64173452D01*
X153740104Y-64093396D01*
X153729083Y-64072316D01*
X153694743Y-63981437D01*
X153689069Y-63958337D01*
X153680217Y-63885189D01*
X153679500Y-63873295D01*
X153679500Y-63124527D01*
X153680347Y-63111605D01*
X153690231Y-63036526D01*
X153696147Y-63013486D01*
X153712088Y-62972600D01*
X153712090Y-62972596D01*
X153731433Y-62922980D01*
X153742675Y-62902014D01*
X153798538Y-62822530D01*
X153814455Y-62804853D01*
X153838033Y-62784285D01*
X153838035Y-62784283D01*
X153887661Y-62740992D01*
X153907334Y-62727622D01*
X153922826Y-62719626D01*
X153947556Y-62706862D01*
X153993657Y-62683068D01*
X154015953Y-62674776D01*
X154110421Y-62652097D01*
X154134048Y-62649363D01*
X154181683Y-62649612D01*
G37*
%TD.AperFunction*%
%TD*%
%TA.AperFunction,Conductor*%
%TO.N,+5V*%
G36*
X170259191Y-61018907D02*
G01*
X170295155Y-61068407D01*
X170300000Y-61099000D01*
X170300000Y-114901000D01*
X170281093Y-114959191D01*
X170231593Y-114995155D01*
X170201000Y-115000000D01*
X149755758Y-115000000D01*
X149697567Y-114981093D01*
X149661603Y-114931593D01*
X149661603Y-114870407D01*
X149697567Y-114820907D01*
X149717872Y-114809536D01*
X149754508Y-114794360D01*
X149802750Y-114774378D01*
X149928153Y-114678153D01*
X150024378Y-114552750D01*
X150084868Y-114406715D01*
X150105500Y-114250000D01*
X150084868Y-114093285D01*
X150024378Y-113947250D01*
X149928153Y-113821847D01*
X149802750Y-113725622D01*
X149656715Y-113665132D01*
X149500000Y-113644500D01*
X149343285Y-113665132D01*
X149197250Y-113725622D01*
X149071847Y-113821847D01*
X148975622Y-113947250D01*
X148915132Y-114093285D01*
X148894500Y-114250000D01*
X148915132Y-114406715D01*
X148975622Y-114552750D01*
X149071847Y-114678153D01*
X149197250Y-114774378D01*
X149245492Y-114794360D01*
X149282128Y-114809536D01*
X149328654Y-114849273D01*
X149342937Y-114908768D01*
X149319522Y-114965296D01*
X149267353Y-114997265D01*
X149244242Y-115000000D01*
X135849000Y-115000000D01*
X135790809Y-114981093D01*
X135754845Y-114931593D01*
X135750000Y-114901000D01*
X135750000Y-107349000D01*
X135768907Y-107290809D01*
X135818407Y-107254845D01*
X135849000Y-107250000D01*
X149244242Y-107250000D01*
X149302433Y-107268907D01*
X149338397Y-107318407D01*
X149338397Y-107379593D01*
X149302433Y-107429093D01*
X149282128Y-107440464D01*
X149197250Y-107475622D01*
X149071847Y-107571847D01*
X148975622Y-107697250D01*
X148915132Y-107843285D01*
X148894500Y-108000000D01*
X148915132Y-108156715D01*
X148975622Y-108302750D01*
X149071847Y-108428153D01*
X149197250Y-108524378D01*
X149343285Y-108584868D01*
X149500000Y-108605500D01*
X149656715Y-108584868D01*
X149802750Y-108524378D01*
X149928153Y-108428153D01*
X150024378Y-108302750D01*
X150084868Y-108156715D01*
X150105500Y-108000000D01*
X150084868Y-107843285D01*
X150024378Y-107697250D01*
X149928153Y-107571847D01*
X149802750Y-107475622D01*
X149717872Y-107440464D01*
X149671346Y-107400727D01*
X149657063Y-107341232D01*
X149680478Y-107284704D01*
X149732647Y-107252735D01*
X149755758Y-107250000D01*
X165250000Y-107250000D01*
X165250000Y-96696829D01*
X165268907Y-96638638D01*
X165318407Y-96602674D01*
X165334537Y-96598891D01*
X165371228Y-96593473D01*
X165394555Y-96590028D01*
X165397224Y-96589323D01*
X165397228Y-96589322D01*
X165737894Y-96499315D01*
X165737897Y-96499314D01*
X165740554Y-96498612D01*
X166074206Y-96369196D01*
X166391353Y-96203396D01*
X166688042Y-96003277D01*
X166690155Y-96001479D01*
X166958471Y-95773124D01*
X166958474Y-95773121D01*
X166960575Y-95771333D01*
X167205555Y-95510456D01*
X167213378Y-95500000D01*
X167418269Y-95226116D01*
X167419929Y-95223897D01*
X167421325Y-95221517D01*
X167421330Y-95221510D01*
X167551288Y-95000000D01*
X167601024Y-94915227D01*
X167746584Y-94588295D01*
X167854793Y-94247175D01*
X167908562Y-93975622D01*
X167923768Y-93898828D01*
X167923769Y-93898821D01*
X167924304Y-93896119D01*
X167954250Y-93539503D01*
X167955500Y-93450000D01*
X167935523Y-93092686D01*
X167875841Y-92739826D01*
X167777198Y-92395818D01*
X167640824Y-92064949D01*
X167468418Y-91751344D01*
X167341797Y-91571847D01*
X167263718Y-91461163D01*
X167263714Y-91461159D01*
X167262129Y-91458911D01*
X167024529Y-91191295D01*
X167022480Y-91189450D01*
X167022476Y-91189446D01*
X166760642Y-90953689D01*
X166760636Y-90953685D01*
X166758579Y-90951832D01*
X166595205Y-90834868D01*
X166469848Y-90745121D01*
X166469843Y-90745118D01*
X166467593Y-90743507D01*
X166465176Y-90742156D01*
X166465171Y-90742153D01*
X166157619Y-90570268D01*
X166157612Y-90570265D01*
X166155199Y-90568916D01*
X166152651Y-90567845D01*
X166152643Y-90567841D01*
X165950950Y-90483058D01*
X165825290Y-90430235D01*
X165481979Y-90329193D01*
X165331809Y-90302714D01*
X165277785Y-90273989D01*
X165250963Y-90218996D01*
X165250000Y-90205218D01*
X165250000Y-89549500D01*
X165268907Y-89491309D01*
X165318407Y-89455345D01*
X165349000Y-89450500D01*
X166315729Y-89450500D01*
X166392768Y-89444640D01*
X166504221Y-89436162D01*
X166504227Y-89436161D01*
X166507975Y-89435876D01*
X166760014Y-89377457D01*
X167000316Y-89281586D01*
X167223352Y-89150470D01*
X167423989Y-88987126D01*
X167481138Y-88923989D01*
X167595086Y-88798101D01*
X167595089Y-88798097D01*
X167597609Y-88795313D01*
X167740219Y-88579445D01*
X167848534Y-88344490D01*
X167920065Y-88095854D01*
X167929285Y-88024378D01*
X167950094Y-87863054D01*
X167950094Y-87863049D01*
X167950500Y-87859904D01*
X167950500Y-84684271D01*
X167935876Y-84492025D01*
X167877457Y-84239986D01*
X167781586Y-83999684D01*
X167650470Y-83776648D01*
X167487126Y-83576011D01*
X167430083Y-83524378D01*
X167298101Y-83404914D01*
X167298097Y-83404911D01*
X167295313Y-83402391D01*
X167079445Y-83259781D01*
X166844490Y-83151466D01*
X166595854Y-83079935D01*
X166592136Y-83079455D01*
X166592134Y-83079455D01*
X166363054Y-83049906D01*
X166363049Y-83049906D01*
X166359904Y-83049500D01*
X165349000Y-83049500D01*
X165290809Y-83030593D01*
X165254845Y-82981093D01*
X165250000Y-82950500D01*
X165250000Y-67750000D01*
X162250000Y-67750000D01*
X162250000Y-64257196D01*
X162290797Y-64316556D01*
X162417362Y-64429321D01*
X162422632Y-64432111D01*
X162422633Y-64432112D01*
X162561897Y-64505849D01*
X162561900Y-64505850D01*
X162567171Y-64508641D01*
X162649374Y-64529289D01*
X162725787Y-64548483D01*
X162725790Y-64548483D01*
X162731577Y-64549937D01*
X162817266Y-64550385D01*
X162895122Y-64550793D01*
X162895124Y-64550793D01*
X162901088Y-64550824D01*
X163065918Y-64511252D01*
X163144173Y-64470862D01*
X163211244Y-64436244D01*
X163211246Y-64436242D01*
X163216550Y-64433505D01*
X163221045Y-64429583D01*
X163221049Y-64429581D01*
X163339794Y-64325993D01*
X163344289Y-64322072D01*
X163441760Y-64183385D01*
X163503335Y-64025451D01*
X163520500Y-63895070D01*
X163520500Y-63108683D01*
X163505135Y-62981715D01*
X163445217Y-62823145D01*
X163349203Y-62683444D01*
X163222638Y-62570679D01*
X163180338Y-62548282D01*
X163078103Y-62494151D01*
X163078100Y-62494150D01*
X163072829Y-62491359D01*
X162990626Y-62470711D01*
X162914213Y-62451517D01*
X162914210Y-62451517D01*
X162908423Y-62450063D01*
X162822734Y-62449615D01*
X162744878Y-62449207D01*
X162744876Y-62449207D01*
X162738912Y-62449176D01*
X162574082Y-62488748D01*
X162495827Y-62529138D01*
X162428756Y-62563756D01*
X162428754Y-62563758D01*
X162423450Y-62566495D01*
X162418955Y-62570417D01*
X162418951Y-62570419D01*
X162327567Y-62650139D01*
X162295711Y-62677928D01*
X162250000Y-62742968D01*
X162250000Y-61000000D01*
X170201000Y-61000000D01*
X170259191Y-61018907D01*
G37*
%TD.AperFunction*%
%TD*%
%TA.AperFunction,Conductor*%
%TO.N,+5V*%
G36*
X107914311Y-61018907D02*
G01*
X107950275Y-61068407D01*
X107950275Y-61129593D01*
X107944290Y-61144022D01*
X107930148Y-61171718D01*
X107891883Y-61246654D01*
X107890516Y-61252239D01*
X107890516Y-61252240D01*
X107871296Y-61330788D01*
X107850293Y-61416619D01*
X107849500Y-61429402D01*
X107849500Y-62252887D01*
X107864763Y-62383803D01*
X107866725Y-62389209D01*
X107866726Y-62389212D01*
X107902856Y-62488748D01*
X107924466Y-62548282D01*
X108020407Y-62694615D01*
X108024576Y-62698564D01*
X108024579Y-62698568D01*
X108095706Y-62765947D01*
X108147438Y-62814953D01*
X108152408Y-62817840D01*
X108152411Y-62817842D01*
X108229888Y-62862844D01*
X108298745Y-62902839D01*
X108382478Y-62928199D01*
X108460707Y-62951893D01*
X108460710Y-62951893D01*
X108466212Y-62953560D01*
X108598038Y-62961738D01*
X108635117Y-62964038D01*
X108635118Y-62964038D01*
X108640857Y-62964394D01*
X108813309Y-62934762D01*
X108888333Y-62902839D01*
X108969029Y-62868502D01*
X108974319Y-62866251D01*
X109115250Y-62762538D01*
X109118972Y-62758156D01*
X109118975Y-62758154D01*
X109224815Y-62633571D01*
X109224816Y-62633570D01*
X109228541Y-62629185D01*
X109272614Y-62542874D01*
X109305501Y-62478470D01*
X109305502Y-62478467D01*
X109308117Y-62473346D01*
X109313459Y-62451517D01*
X109348660Y-62307661D01*
X109348661Y-62307658D01*
X109349707Y-62303381D01*
X109350500Y-62290598D01*
X109350500Y-61467113D01*
X109335237Y-61336197D01*
X109323097Y-61302750D01*
X109277497Y-61177126D01*
X109275534Y-61171718D01*
X109263445Y-61153280D01*
X109247352Y-61094251D01*
X109269029Y-61037034D01*
X109320197Y-61003486D01*
X109346238Y-61000000D01*
X120656120Y-61000000D01*
X120714311Y-61018907D01*
X120750275Y-61068407D01*
X120750275Y-61129593D01*
X120744290Y-61144022D01*
X120730148Y-61171718D01*
X120691883Y-61246654D01*
X120690516Y-61252239D01*
X120690516Y-61252240D01*
X120671296Y-61330788D01*
X120650293Y-61416619D01*
X120649500Y-61429402D01*
X120649500Y-62252887D01*
X120664763Y-62383803D01*
X120666725Y-62389209D01*
X120666726Y-62389212D01*
X120702856Y-62488748D01*
X120724466Y-62548282D01*
X120820407Y-62694615D01*
X120824576Y-62698564D01*
X120824579Y-62698568D01*
X120895706Y-62765947D01*
X120947438Y-62814953D01*
X120952408Y-62817840D01*
X120952411Y-62817842D01*
X121029888Y-62862844D01*
X121098745Y-62902839D01*
X121182478Y-62928199D01*
X121260707Y-62951893D01*
X121260710Y-62951893D01*
X121266212Y-62953560D01*
X121398038Y-62961738D01*
X121435117Y-62964038D01*
X121435118Y-62964038D01*
X121440857Y-62964394D01*
X121613309Y-62934762D01*
X121688333Y-62902839D01*
X121769029Y-62868502D01*
X121774319Y-62866251D01*
X121915250Y-62762538D01*
X121918972Y-62758156D01*
X121918975Y-62758154D01*
X122024815Y-62633571D01*
X122024816Y-62633570D01*
X122028541Y-62629185D01*
X122072614Y-62542874D01*
X122105501Y-62478470D01*
X122105502Y-62478467D01*
X122108117Y-62473346D01*
X122113459Y-62451517D01*
X122148660Y-62307661D01*
X122148661Y-62307658D01*
X122149707Y-62303381D01*
X122150500Y-62290598D01*
X122150500Y-61467113D01*
X122135237Y-61336197D01*
X122123097Y-61302750D01*
X122077497Y-61177126D01*
X122075534Y-61171718D01*
X122063445Y-61153280D01*
X122047352Y-61094251D01*
X122069029Y-61037034D01*
X122120197Y-61003486D01*
X122146238Y-61000000D01*
X136856120Y-61000000D01*
X136914311Y-61018907D01*
X136950275Y-61068407D01*
X136950275Y-61129593D01*
X136944290Y-61144022D01*
X136930148Y-61171718D01*
X136891883Y-61246654D01*
X136890516Y-61252239D01*
X136890516Y-61252240D01*
X136871296Y-61330788D01*
X136850293Y-61416619D01*
X136849500Y-61429402D01*
X136849500Y-62252887D01*
X136864763Y-62383803D01*
X136866725Y-62389209D01*
X136866726Y-62389212D01*
X136902856Y-62488748D01*
X136924466Y-62548282D01*
X137020407Y-62694615D01*
X137024576Y-62698564D01*
X137024579Y-62698568D01*
X137095706Y-62765947D01*
X137147438Y-62814953D01*
X137152408Y-62817840D01*
X137152411Y-62817842D01*
X137229888Y-62862844D01*
X137298745Y-62902839D01*
X137382478Y-62928199D01*
X137460707Y-62951893D01*
X137460710Y-62951893D01*
X137466212Y-62953560D01*
X137598038Y-62961738D01*
X137635117Y-62964038D01*
X137635118Y-62964038D01*
X137640857Y-62964394D01*
X137813309Y-62934762D01*
X137888333Y-62902839D01*
X137969029Y-62868502D01*
X137974319Y-62866251D01*
X138115250Y-62762538D01*
X138118972Y-62758156D01*
X138118975Y-62758154D01*
X138224815Y-62633571D01*
X138224816Y-62633570D01*
X138228541Y-62629185D01*
X138272614Y-62542874D01*
X138305501Y-62478470D01*
X138305502Y-62478467D01*
X138308117Y-62473346D01*
X138313459Y-62451517D01*
X138348660Y-62307661D01*
X138348661Y-62307658D01*
X138349707Y-62303381D01*
X138350500Y-62290598D01*
X138350500Y-61467113D01*
X138335237Y-61336197D01*
X138323097Y-61302750D01*
X138277497Y-61177126D01*
X138275534Y-61171718D01*
X138263445Y-61153280D01*
X138247352Y-61094251D01*
X138269029Y-61037034D01*
X138320197Y-61003486D01*
X138346238Y-61000000D01*
X149656120Y-61000000D01*
X149714311Y-61018907D01*
X149750275Y-61068407D01*
X149750275Y-61129593D01*
X149744290Y-61144022D01*
X149730148Y-61171718D01*
X149691883Y-61246654D01*
X149690516Y-61252239D01*
X149690516Y-61252240D01*
X149671296Y-61330788D01*
X149650293Y-61416619D01*
X149649500Y-61429402D01*
X149649500Y-62252887D01*
X149664763Y-62383803D01*
X149666725Y-62389209D01*
X149666726Y-62389212D01*
X149702856Y-62488748D01*
X149724466Y-62548282D01*
X149820407Y-62694615D01*
X149824576Y-62698564D01*
X149824579Y-62698568D01*
X149895706Y-62765947D01*
X149947438Y-62814953D01*
X149952408Y-62817840D01*
X149952411Y-62817842D01*
X150029888Y-62862844D01*
X150098745Y-62902839D01*
X150182478Y-62928199D01*
X150260707Y-62951893D01*
X150260710Y-62951893D01*
X150266212Y-62953560D01*
X150398038Y-62961738D01*
X150435117Y-62964038D01*
X150435118Y-62964038D01*
X150440857Y-62964394D01*
X150613309Y-62934762D01*
X150688333Y-62902839D01*
X150769029Y-62868502D01*
X150774319Y-62866251D01*
X150915250Y-62762538D01*
X150918972Y-62758156D01*
X150918975Y-62758154D01*
X151024815Y-62633571D01*
X151024816Y-62633570D01*
X151028541Y-62629185D01*
X151072614Y-62542874D01*
X151105501Y-62478470D01*
X151105502Y-62478467D01*
X151108117Y-62473346D01*
X151113459Y-62451517D01*
X151148660Y-62307661D01*
X151148661Y-62307658D01*
X151149707Y-62303381D01*
X151150500Y-62290598D01*
X151150500Y-61467113D01*
X151135237Y-61336197D01*
X151123097Y-61302750D01*
X151077497Y-61177126D01*
X151075534Y-61171718D01*
X151063445Y-61153280D01*
X151047352Y-61094251D01*
X151069029Y-61037034D01*
X151120197Y-61003486D01*
X151146238Y-61000000D01*
X162750000Y-61000000D01*
X163750000Y-62000000D01*
X163750000Y-66750000D01*
X162750000Y-67750000D01*
X151250000Y-67750000D01*
X151239518Y-67760482D01*
X151185001Y-67788259D01*
X151124569Y-67778688D01*
X151081304Y-67735423D01*
X151079038Y-67730204D01*
X151077498Y-67727128D01*
X151075534Y-67721718D01*
X150979593Y-67575385D01*
X150975424Y-67571436D01*
X150975421Y-67571432D01*
X150856738Y-67459003D01*
X150852562Y-67455047D01*
X150847592Y-67452160D01*
X150847589Y-67452158D01*
X150706229Y-67370050D01*
X150706228Y-67370050D01*
X150701255Y-67367161D01*
X150617522Y-67341801D01*
X150539293Y-67318107D01*
X150539290Y-67318107D01*
X150533788Y-67316440D01*
X150401962Y-67308262D01*
X150364883Y-67305962D01*
X150364882Y-67305962D01*
X150359143Y-67305606D01*
X150186691Y-67335238D01*
X150181400Y-67337490D01*
X150181398Y-67337490D01*
X150104878Y-67370050D01*
X150025681Y-67403749D01*
X149884750Y-67507462D01*
X149881028Y-67511844D01*
X149881025Y-67511846D01*
X149822961Y-67580193D01*
X149771459Y-67640815D01*
X149768842Y-67645941D01*
X149696170Y-67788259D01*
X149691883Y-67796654D01*
X149690516Y-67802239D01*
X149690516Y-67802240D01*
X149662892Y-67915132D01*
X149650293Y-67966619D01*
X149649500Y-67979402D01*
X149649500Y-68802887D01*
X149664763Y-68933803D01*
X149666725Y-68939209D01*
X149666726Y-68939212D01*
X149697640Y-69024378D01*
X149724466Y-69098282D01*
X149727619Y-69103091D01*
X149727621Y-69103095D01*
X149750505Y-69137998D01*
X149766599Y-69197029D01*
X149744922Y-69254245D01*
X149737717Y-69262283D01*
X149278996Y-69721004D01*
X149224479Y-69748781D01*
X149208992Y-69750000D01*
X147291008Y-69750000D01*
X147232817Y-69731093D01*
X147221004Y-69721004D01*
X146684732Y-69184732D01*
X146656402Y-69126190D01*
X146655904Y-69121914D01*
X146655903Y-69121910D01*
X146655237Y-69116197D01*
X146651355Y-69105500D01*
X146597497Y-68957126D01*
X146595534Y-68951718D01*
X146499593Y-68805385D01*
X146495424Y-68801436D01*
X146495421Y-68801432D01*
X146376738Y-68689003D01*
X146372562Y-68685047D01*
X146367592Y-68682160D01*
X146367589Y-68682158D01*
X146226229Y-68600050D01*
X146226228Y-68600050D01*
X146221255Y-68597161D01*
X146067003Y-68550442D01*
X146025697Y-68525697D01*
X145250000Y-67750000D01*
X138347549Y-67750000D01*
X138289358Y-67731093D01*
X138264757Y-67705281D01*
X138258687Y-67696022D01*
X138179593Y-67575385D01*
X138175424Y-67571436D01*
X138175421Y-67571432D01*
X138056738Y-67459003D01*
X138052562Y-67455047D01*
X138047592Y-67452160D01*
X138047589Y-67452158D01*
X137906229Y-67370050D01*
X137906228Y-67370050D01*
X137901255Y-67367161D01*
X137817522Y-67341801D01*
X137739293Y-67318107D01*
X137739290Y-67318107D01*
X137733788Y-67316440D01*
X137601962Y-67308262D01*
X137564883Y-67305962D01*
X137564882Y-67305962D01*
X137559143Y-67305606D01*
X137386691Y-67335238D01*
X137381400Y-67337490D01*
X137381398Y-67337490D01*
X137304878Y-67370050D01*
X137225681Y-67403749D01*
X137084750Y-67507462D01*
X137081028Y-67511844D01*
X137081025Y-67511846D01*
X137022961Y-67580193D01*
X136971459Y-67640815D01*
X136968842Y-67645941D01*
X136943269Y-67696022D01*
X136899967Y-67739249D01*
X136855099Y-67750000D01*
X122250000Y-67750000D01*
X122239518Y-67760482D01*
X122185001Y-67788259D01*
X122124569Y-67778688D01*
X122081304Y-67735423D01*
X122079038Y-67730204D01*
X122077498Y-67727128D01*
X122075534Y-67721718D01*
X121979593Y-67575385D01*
X121975424Y-67571436D01*
X121975421Y-67571432D01*
X121856738Y-67459003D01*
X121852562Y-67455047D01*
X121847592Y-67452160D01*
X121847589Y-67452158D01*
X121706229Y-67370050D01*
X121706228Y-67370050D01*
X121701255Y-67367161D01*
X121617522Y-67341801D01*
X121539293Y-67318107D01*
X121539290Y-67318107D01*
X121533788Y-67316440D01*
X121401962Y-67308262D01*
X121364883Y-67305962D01*
X121364882Y-67305962D01*
X121359143Y-67305606D01*
X121186691Y-67335238D01*
X121181400Y-67337490D01*
X121181398Y-67337490D01*
X121104878Y-67370050D01*
X121025681Y-67403749D01*
X120884750Y-67507462D01*
X120881028Y-67511844D01*
X120881025Y-67511846D01*
X120822961Y-67580193D01*
X120771459Y-67640815D01*
X120768842Y-67645941D01*
X120696170Y-67788259D01*
X120691883Y-67796654D01*
X120690516Y-67802239D01*
X120690516Y-67802240D01*
X120662892Y-67915132D01*
X120650293Y-67966619D01*
X120649500Y-67979402D01*
X120649500Y-68802887D01*
X120664763Y-68933803D01*
X120666725Y-68939209D01*
X120666726Y-68939212D01*
X120697640Y-69024378D01*
X120724466Y-69098282D01*
X120727619Y-69103091D01*
X120727621Y-69103095D01*
X120750505Y-69137998D01*
X120766599Y-69197029D01*
X120744922Y-69254245D01*
X120737717Y-69262283D01*
X120278996Y-69721004D01*
X120224479Y-69748781D01*
X120208992Y-69750000D01*
X118291008Y-69750000D01*
X118232817Y-69731093D01*
X118221004Y-69721004D01*
X117684732Y-69184732D01*
X117656402Y-69126190D01*
X117655904Y-69121914D01*
X117655903Y-69121910D01*
X117655237Y-69116197D01*
X117651355Y-69105500D01*
X117597497Y-68957126D01*
X117595534Y-68951718D01*
X117499593Y-68805385D01*
X117495424Y-68801436D01*
X117495421Y-68801432D01*
X117376738Y-68689003D01*
X117372562Y-68685047D01*
X117367592Y-68682160D01*
X117367589Y-68682158D01*
X117226229Y-68600050D01*
X117226228Y-68600050D01*
X117221255Y-68597161D01*
X117067003Y-68550442D01*
X117025697Y-68525697D01*
X116250000Y-67750000D01*
X109347549Y-67750000D01*
X109289358Y-67731093D01*
X109264757Y-67705281D01*
X109258687Y-67696022D01*
X109179593Y-67575385D01*
X109175424Y-67571436D01*
X109175421Y-67571432D01*
X109056738Y-67459003D01*
X109052562Y-67455047D01*
X109047592Y-67452160D01*
X109047589Y-67452158D01*
X108906229Y-67370050D01*
X108906228Y-67370050D01*
X108901255Y-67367161D01*
X108817522Y-67341801D01*
X108739293Y-67318107D01*
X108739290Y-67318107D01*
X108733788Y-67316440D01*
X108601962Y-67308262D01*
X108564883Y-67305962D01*
X108564882Y-67305962D01*
X108559143Y-67305606D01*
X108386691Y-67335238D01*
X108381400Y-67337490D01*
X108381398Y-67337490D01*
X108304878Y-67370050D01*
X108225681Y-67403749D01*
X108084750Y-67507462D01*
X108081028Y-67511844D01*
X108081025Y-67511846D01*
X108022961Y-67580193D01*
X107971459Y-67640815D01*
X107968842Y-67645941D01*
X107943269Y-67696022D01*
X107899967Y-67739249D01*
X107855099Y-67750000D01*
X83500000Y-67750000D01*
X83500000Y-78131874D01*
X83481685Y-78185831D01*
X83482816Y-78186484D01*
X83479573Y-78192101D01*
X83475622Y-78197250D01*
X83415132Y-78343285D01*
X83394500Y-78500000D01*
X83415132Y-78656715D01*
X83475622Y-78802750D01*
X83479573Y-78807899D01*
X83482816Y-78813516D01*
X83481685Y-78814169D01*
X83500000Y-78868126D01*
X83500000Y-83131874D01*
X83481685Y-83185831D01*
X83482816Y-83186484D01*
X83479573Y-83192101D01*
X83475622Y-83197250D01*
X83415132Y-83343285D01*
X83394500Y-83500000D01*
X83415132Y-83656715D01*
X83475622Y-83802750D01*
X83479573Y-83807899D01*
X83482816Y-83813516D01*
X83481685Y-83814169D01*
X83500000Y-83868126D01*
X83500000Y-87631874D01*
X83481685Y-87685831D01*
X83482816Y-87686484D01*
X83479573Y-87692101D01*
X83475622Y-87697250D01*
X83415132Y-87843285D01*
X83394500Y-88000000D01*
X83415132Y-88156715D01*
X83475622Y-88302750D01*
X83479573Y-88307899D01*
X83482816Y-88313516D01*
X83481685Y-88314169D01*
X83500000Y-88368126D01*
X83500000Y-102381874D01*
X83481685Y-102435831D01*
X83482816Y-102436484D01*
X83479573Y-102442101D01*
X83475622Y-102447250D01*
X83415132Y-102593285D01*
X83394500Y-102750000D01*
X83415132Y-102906715D01*
X83475622Y-103052750D01*
X83479573Y-103057899D01*
X83482816Y-103063516D01*
X83481685Y-103064169D01*
X83500000Y-103118126D01*
X83500000Y-111631874D01*
X83481685Y-111685831D01*
X83482816Y-111686484D01*
X83479573Y-111692101D01*
X83475622Y-111697250D01*
X83415132Y-111843285D01*
X83394500Y-112000000D01*
X83415132Y-112156715D01*
X83475622Y-112302750D01*
X83479573Y-112307899D01*
X83482816Y-112313516D01*
X83481685Y-112314169D01*
X83500000Y-112368126D01*
X83500000Y-116708992D01*
X83481093Y-116767183D01*
X83471004Y-116778996D01*
X83278996Y-116971004D01*
X83224479Y-116998781D01*
X83208992Y-117000000D01*
X79041008Y-117000000D01*
X78982817Y-116981093D01*
X78971004Y-116971004D01*
X78778996Y-116778996D01*
X78751219Y-116724479D01*
X78750000Y-116708992D01*
X78750000Y-90500000D01*
X80894500Y-90500000D01*
X80915132Y-90656715D01*
X80975622Y-90802750D01*
X81071847Y-90928153D01*
X81197250Y-91024378D01*
X81343285Y-91084868D01*
X81500000Y-91105500D01*
X81656715Y-91084868D01*
X81802750Y-91024378D01*
X81928153Y-90928153D01*
X82024378Y-90802750D01*
X82084868Y-90656715D01*
X82105500Y-90500000D01*
X82084868Y-90343285D01*
X82024378Y-90197250D01*
X81928153Y-90071847D01*
X81802750Y-89975622D01*
X81656715Y-89915132D01*
X81500000Y-89894500D01*
X81343285Y-89915132D01*
X81197250Y-89975622D01*
X81071847Y-90071847D01*
X80975622Y-90197250D01*
X80915132Y-90343285D01*
X80894500Y-90500000D01*
X78750000Y-90500000D01*
X78750000Y-63104930D01*
X124479500Y-63104930D01*
X124479500Y-63891317D01*
X124494865Y-64018285D01*
X124554783Y-64176855D01*
X124650797Y-64316556D01*
X124777362Y-64429321D01*
X124782632Y-64432111D01*
X124782633Y-64432112D01*
X124921897Y-64505849D01*
X124921900Y-64505850D01*
X124927171Y-64508641D01*
X125009374Y-64529289D01*
X125085787Y-64548483D01*
X125085790Y-64548483D01*
X125091577Y-64549937D01*
X125177266Y-64550385D01*
X125255122Y-64550793D01*
X125255124Y-64550793D01*
X125261088Y-64550824D01*
X125425918Y-64511252D01*
X125504173Y-64470862D01*
X125571244Y-64436244D01*
X125571246Y-64436242D01*
X125576550Y-64433505D01*
X125581045Y-64429583D01*
X125581049Y-64429581D01*
X125699794Y-64325993D01*
X125704289Y-64322072D01*
X125801760Y-64183385D01*
X125863335Y-64025451D01*
X125880500Y-63895070D01*
X125880500Y-63108683D01*
X125880046Y-63104930D01*
X133119500Y-63104930D01*
X133119500Y-63891317D01*
X133134865Y-64018285D01*
X133194783Y-64176855D01*
X133290797Y-64316556D01*
X133417362Y-64429321D01*
X133422632Y-64432111D01*
X133422633Y-64432112D01*
X133561897Y-64505849D01*
X133561900Y-64505850D01*
X133567171Y-64508641D01*
X133649374Y-64529289D01*
X133725787Y-64548483D01*
X133725790Y-64548483D01*
X133731577Y-64549937D01*
X133817266Y-64550385D01*
X133895122Y-64550793D01*
X133895124Y-64550793D01*
X133901088Y-64550824D01*
X134065918Y-64511252D01*
X134144173Y-64470862D01*
X134211244Y-64436244D01*
X134211246Y-64436242D01*
X134216550Y-64433505D01*
X134221045Y-64429583D01*
X134221049Y-64429581D01*
X134339794Y-64325993D01*
X134344289Y-64322072D01*
X134441760Y-64183385D01*
X134503335Y-64025451D01*
X134520500Y-63895070D01*
X134520500Y-63108683D01*
X134520046Y-63104930D01*
X153479500Y-63104930D01*
X153479500Y-63891317D01*
X153494865Y-64018285D01*
X153554783Y-64176855D01*
X153650797Y-64316556D01*
X153777362Y-64429321D01*
X153782632Y-64432111D01*
X153782633Y-64432112D01*
X153921897Y-64505849D01*
X153921900Y-64505850D01*
X153927171Y-64508641D01*
X154009374Y-64529289D01*
X154085787Y-64548483D01*
X154085790Y-64548483D01*
X154091577Y-64549937D01*
X154177266Y-64550385D01*
X154255122Y-64550793D01*
X154255124Y-64550793D01*
X154261088Y-64550824D01*
X154425918Y-64511252D01*
X154504173Y-64470862D01*
X154571244Y-64436244D01*
X154571246Y-64436242D01*
X154576550Y-64433505D01*
X154581045Y-64429583D01*
X154581049Y-64429581D01*
X154699794Y-64325993D01*
X154704289Y-64322072D01*
X154801760Y-64183385D01*
X154863335Y-64025451D01*
X154880500Y-63895070D01*
X154880500Y-63108683D01*
X154880046Y-63104930D01*
X162119500Y-63104930D01*
X162119500Y-63891317D01*
X162134865Y-64018285D01*
X162194783Y-64176855D01*
X162290797Y-64316556D01*
X162417362Y-64429321D01*
X162422632Y-64432111D01*
X162422633Y-64432112D01*
X162561897Y-64505849D01*
X162561900Y-64505850D01*
X162567171Y-64508641D01*
X162649374Y-64529289D01*
X162725787Y-64548483D01*
X162725790Y-64548483D01*
X162731577Y-64549937D01*
X162817266Y-64550385D01*
X162895122Y-64550793D01*
X162895124Y-64550793D01*
X162901088Y-64550824D01*
X163065918Y-64511252D01*
X163144173Y-64470862D01*
X163211244Y-64436244D01*
X163211246Y-64436242D01*
X163216550Y-64433505D01*
X163221045Y-64429583D01*
X163221049Y-64429581D01*
X163339794Y-64325993D01*
X163344289Y-64322072D01*
X163441760Y-64183385D01*
X163503335Y-64025451D01*
X163520500Y-63895070D01*
X163520500Y-63108683D01*
X163505135Y-62981715D01*
X163445217Y-62823145D01*
X163441573Y-62817842D01*
X163352583Y-62688362D01*
X163349203Y-62683444D01*
X163222638Y-62570679D01*
X163170124Y-62542874D01*
X163078103Y-62494151D01*
X163078100Y-62494150D01*
X163072829Y-62491359D01*
X162978878Y-62467760D01*
X162914213Y-62451517D01*
X162914210Y-62451517D01*
X162908423Y-62450063D01*
X162822734Y-62449615D01*
X162744878Y-62449207D01*
X162744876Y-62449207D01*
X162738912Y-62449176D01*
X162574082Y-62488748D01*
X162495827Y-62529138D01*
X162428756Y-62563756D01*
X162428754Y-62563758D01*
X162423450Y-62566495D01*
X162418955Y-62570417D01*
X162418951Y-62570419D01*
X162346559Y-62633571D01*
X162295711Y-62677928D01*
X162198240Y-62816615D01*
X162196073Y-62822173D01*
X162196072Y-62822175D01*
X162165750Y-62899950D01*
X162136665Y-62974549D01*
X162119500Y-63104930D01*
X154880046Y-63104930D01*
X154865135Y-62981715D01*
X154805217Y-62823145D01*
X154801573Y-62817842D01*
X154712583Y-62688362D01*
X154709203Y-62683444D01*
X154582638Y-62570679D01*
X154530124Y-62542874D01*
X154438103Y-62494151D01*
X154438100Y-62494150D01*
X154432829Y-62491359D01*
X154338878Y-62467760D01*
X154274213Y-62451517D01*
X154274210Y-62451517D01*
X154268423Y-62450063D01*
X154182734Y-62449615D01*
X154104878Y-62449207D01*
X154104876Y-62449207D01*
X154098912Y-62449176D01*
X153934082Y-62488748D01*
X153855827Y-62529138D01*
X153788756Y-62563756D01*
X153788754Y-62563758D01*
X153783450Y-62566495D01*
X153778955Y-62570417D01*
X153778951Y-62570419D01*
X153706559Y-62633571D01*
X153655711Y-62677928D01*
X153558240Y-62816615D01*
X153556073Y-62822173D01*
X153556072Y-62822175D01*
X153525750Y-62899950D01*
X153496665Y-62974549D01*
X153479500Y-63104930D01*
X134520046Y-63104930D01*
X134505135Y-62981715D01*
X134445217Y-62823145D01*
X134441573Y-62817842D01*
X134352583Y-62688362D01*
X134349203Y-62683444D01*
X134222638Y-62570679D01*
X134170124Y-62542874D01*
X134078103Y-62494151D01*
X134078100Y-62494150D01*
X134072829Y-62491359D01*
X133978878Y-62467760D01*
X133914213Y-62451517D01*
X133914210Y-62451517D01*
X133908423Y-62450063D01*
X133822734Y-62449615D01*
X133744878Y-62449207D01*
X133744876Y-62449207D01*
X133738912Y-62449176D01*
X133574082Y-62488748D01*
X133495827Y-62529138D01*
X133428756Y-62563756D01*
X133428754Y-62563758D01*
X133423450Y-62566495D01*
X133418955Y-62570417D01*
X133418951Y-62570419D01*
X133346559Y-62633571D01*
X133295711Y-62677928D01*
X133198240Y-62816615D01*
X133196073Y-62822173D01*
X133196072Y-62822175D01*
X133165750Y-62899950D01*
X133136665Y-62974549D01*
X133119500Y-63104930D01*
X125880046Y-63104930D01*
X125865135Y-62981715D01*
X125805217Y-62823145D01*
X125801573Y-62817842D01*
X125712583Y-62688362D01*
X125709203Y-62683444D01*
X125582638Y-62570679D01*
X125530124Y-62542874D01*
X125438103Y-62494151D01*
X125438100Y-62494150D01*
X125432829Y-62491359D01*
X125338878Y-62467760D01*
X125274213Y-62451517D01*
X125274210Y-62451517D01*
X125268423Y-62450063D01*
X125182734Y-62449615D01*
X125104878Y-62449207D01*
X125104876Y-62449207D01*
X125098912Y-62449176D01*
X124934082Y-62488748D01*
X124855827Y-62529138D01*
X124788756Y-62563756D01*
X124788754Y-62563758D01*
X124783450Y-62566495D01*
X124778955Y-62570417D01*
X124778951Y-62570419D01*
X124706559Y-62633571D01*
X124655711Y-62677928D01*
X124558240Y-62816615D01*
X124556073Y-62822173D01*
X124556072Y-62822175D01*
X124525750Y-62899950D01*
X124496665Y-62974549D01*
X124479500Y-63104930D01*
X78750000Y-63104930D01*
X78750000Y-62041008D01*
X78768907Y-61982817D01*
X78778996Y-61971004D01*
X79721004Y-61028996D01*
X79775521Y-61001219D01*
X79791008Y-61000000D01*
X107856120Y-61000000D01*
X107914311Y-61018907D01*
G37*
%TD.AperFunction*%
%TD*%
M02*
