M48
; DRILL file {KiCad (5.99.0-10506-gb986797469)} date Tue Nov 30 23:31:38 2021
; FORMAT={-:-/ absolute / inch / decimal}
; #@! TF.CreationDate,2021-11-30T23:31:38+01:00
; #@! TF.GenerationSoftware,Kicad,Pcbnew,(5.99.0-10506-gb986797469)
; #@! TF.FileFunction,MixedPlating,1,2
FMAT,2
INCH
; #@! TA.AperFunction,Plated,PTH,ViaDrill
T1C0.0157
; #@! TA.AperFunction,Plated,PTH,ViaDrill
T2C0.0197
; #@! TA.AperFunction,Plated,PTH,ComponentDrill
T3C0.0197
; #@! TA.AperFunction,Plated,PTH,ComponentDrill
T4C0.0276
; #@! TA.AperFunction,Plated,PTH,ComponentDrill
T5C0.0394
; #@! TA.AperFunction,Plated,PTH,ComponentDrill
T6C0.1772
%
G90
G05
T1
X3.1693Y-3.0512
X3.1693Y-3.4252
X3.1693Y-4.1732
X3.1693Y-4.5472
X3.1703Y-3.7982
X3.1781Y-3.0915
X3.1781Y-3.4656
X3.1781Y-4.2136
X3.1781Y-4.5876
X3.1791Y-3.8386
X3.2274Y-3.0915
X3.2274Y-3.4656
X3.2274Y-4.2136
X3.2274Y-4.5876
X3.2283Y-3.8386
X3.2372Y-3.0522
X3.2372Y-3.4262
X3.2372Y-4.1742
X3.2372Y-4.5482
X3.2382Y-3.7992
X5.0Y-2.5689
X5.0Y-2.687
X5.0374Y-2.685
X5.0394Y-2.5689
X5.1575Y-2.5689
X5.1594Y-2.685
X5.1969Y-2.5689
X5.1969Y-2.685
X6.1417Y-2.5689
X6.1417Y-2.687
X6.1811Y-2.5689
X6.1811Y-2.687
X6.2992Y-2.5689
X6.3012Y-2.685
X6.3386Y-2.5689
X6.3386Y-2.687
T2
X2.5197Y-4.5276
X2.7362Y-4.6161
X2.7953Y-2.628
X2.8248Y-2.8051
X2.9134Y-3.9272
X2.9134Y-4.311
X2.9429Y-4.2323
X2.9528Y-3.8484
X2.9921Y-2.7756
X3.002Y-4.4193
X3.0709Y-4.6161
X3.0906Y-2.4016
X3.2087Y-3.563
X3.3071Y-3.0906
X3.3071Y-3.2874
X3.3071Y-3.4646
X3.3071Y-4.0453
X3.3071Y-4.4094
X3.3169Y-2.6969
X3.4744Y-3.248
X3.4744Y-3.9567
X3.4744Y-4.2028
X3.4843Y-4.3406
X3.4843Y-4.5472
X3.5138Y-3.5827
X3.5433Y-3.9173
X3.5433Y-3.9764
X3.5433Y-4.2717
X3.5433Y-4.3307
X3.5531Y-2.9035
X3.5531Y-3.8484
X3.5728Y-4.0846
X3.5925Y-3.1004
X3.5925Y-3.5433
X3.5925Y-4.3012
X3.5925Y-4.3701
X3.6024Y-4.1929
X3.6713Y-3.0709
X3.6713Y-4.2717
X3.6713Y-4.3799
X3.6713Y-4.6161
X3.6909Y-3.7303
X3.6909Y-3.7992
X3.6909Y-3.9272
X3.7008Y-3.4252
X3.7106Y-4.0157
X3.7894Y-3.7992
X3.8091Y-2.372
X3.8091Y-3.7205
X3.8189Y-3.3858
X3.8484Y-3.7992
X3.8484Y-3.9961
X3.878Y-3.6417
X3.8878Y-3.435
X3.9469Y-2.6969
X3.9803Y-4.0632
X3.9862Y-3.4449
X3.9862Y-3.8681
X4.0059Y-4.2913
X4.0079Y-3.937
X4.0256Y-4.3701
X4.0354Y-3.4547
X4.0354Y-4.2126
X4.0473Y-3.937
X4.0846Y-3.7303
X4.1437Y-4.1339
X4.3209Y-3.061
X4.4291Y-4.2618
X4.4685Y-3.5236
X4.4783Y-4.0157
X4.498Y-3.7402
X4.498Y-4.3701
X4.5079Y-3.3563
X4.5079Y-3.5551
X4.5177Y-3.9862
X4.5177Y-4.0453
X4.5276Y-3.622
X4.5433Y-3.376
X4.5472Y-3.5551
X4.5866Y-2.9134
X4.5866Y-3.0217
X4.5866Y-3.5551
X4.626Y-3.5551
X4.6326Y-3.3886
X4.6358Y-2.3622
X4.6484Y-4.0659
X4.6487Y-4.115
X4.6555Y-3.937
X4.6555Y-4.3701
X4.6653Y-3.5551
X4.6654Y-3.622
X4.6654Y-3.6614
X4.6654Y-4.0256
X4.685Y-3.3858
X4.685Y-3.8386
X4.7047Y-3.5236
X4.7047Y-3.9272
X4.7047Y-3.9764
X4.7343Y-4.3209
X4.7481Y-3.6122
X4.7539Y-2.9232
X4.7539Y-3.0217
X4.7736Y-3.7008
X4.7736Y-3.7598
X4.7835Y-3.3071
X4.7835Y-3.4154
X4.7933Y-3.8287
X4.8327Y-4.0256
X4.8504Y-3.6731
X4.8504Y-3.6319
X4.8524Y-4.4291
X4.8524Y-4.6161
X4.8622Y-3.4843
X4.8622Y-3.7106
X4.8622Y-3.8878
X4.8622Y-4.1437
X4.8819Y-2.6969
X4.9016Y-3.6713
X4.9114Y-3.3071
X4.9213Y-3.5925
X4.9213Y-3.7795
X4.9606Y-3.435
X4.9705Y-3.481
X4.9803Y-3.8878
X4.9902Y-3.622
X4.9902Y-3.748
X5.0197Y-2.3622
X5.0394Y-3.4055
X5.0492Y-3.5335
X5.0492Y-3.6122
X5.0492Y-3.8386
X5.0787Y-2.7264
X5.1181Y-3.2677
X5.1772Y-2.3622
X5.1969Y-3.6024
X5.2362Y-4.1929
X5.2559Y-3.622
X5.2559Y-3.75
X5.2657Y-4.2913
X5.2933Y-4.065
X5.315Y-3.6024
X5.3248Y-3.061
X5.3445Y-2.6969
X5.3543Y-3.8189
X5.374Y-4.252
X5.374Y-4.3012
X5.374Y-4.3504
X5.374Y-4.3996
X5.374Y-4.4488
X5.374Y-4.498
X5.4724Y-3.4154
X5.4823Y-3.6024
X5.5315Y-3.2283
X5.5315Y-3.622
X5.5315Y-3.748
X5.6004Y-3.7598
X5.6496Y-3.5531
X5.6594Y-3.6417
X5.6988Y-3.7205
X5.7087Y-3.9075
X5.7776Y-3.7303
X5.7874Y-3.8287
X5.8366Y-3.061
X5.8366Y-3.2185
X5.8366Y-3.622
X5.8465Y-4.0453
X5.8661Y-3.2874
X5.8661Y-3.4055
X5.8858Y-4.252
X5.8858Y-4.498
X5.8957Y-3.2283
X5.8957Y-3.9272
X5.8957Y-4.124
X5.9154Y-3.7303
X5.9213Y-3.6693
X5.9634Y-3.3366
X5.9646Y-3.2677
X6.0531Y-3.1496
X6.063Y-2.7756
X6.122Y-3.7402
X6.1614Y-2.3622
X6.1646Y-4.1996
X6.2008Y-3.3661
X6.2106Y-3.7402
X6.2402Y-2.6969
X6.25Y-2.7953
X6.2697Y-4.1732
X6.3091Y-3.3268
X6.3189Y-3.4449
X6.3287Y-3.5335
X6.3386Y-2.3622
X6.3484Y-4.1732
X6.3681Y-3.248
X6.4075Y-3.5531
X6.4665Y-2.7067
X6.4665Y-3.1594
X6.4764Y-4.1732
X6.5354Y-2.3622
X6.6535Y-2.3622
T4
X4.452Y-2.728
X4.5276Y-2.728
X4.6031Y-2.728
X5.5937Y-2.728
X5.6693Y-2.728
X5.7449Y-2.728
T5
X3.7697Y-3.9815
X3.7697Y-4.0815
X3.7697Y-4.1815
X3.7697Y-4.2815
X3.9272Y-3.5335
X4.1024Y-3.5236
X4.2024Y-3.5236
X4.3024Y-3.5236
X4.4024Y-3.5236
T6
X6.4862Y-3.3957
X6.4862Y-3.6791
T3
G00X2.5533Y-2.3496
M15
G01X2.5258Y-2.3496
M16
G05
G00X2.5533Y-2.6898
M15
G01X2.5258Y-2.6898
M16
G05
G00X2.5533Y-2.822
M15
G01X2.5258Y-2.822
M16
G05
G00X2.5533Y-3.1622
M15
G01X2.5258Y-3.1622
M16
G05
G00X2.5533Y-3.2945
M15
G01X2.5258Y-3.2945
M16
G05
G00X2.5533Y-3.6346
M15
G01X2.5258Y-3.6346
M16
G05
G00X2.5533Y-3.7669
M15
G01X2.5258Y-3.7669
M16
G05
G00X2.5533Y-4.1071
M15
G01X2.5258Y-4.1071
M16
G05
G00X2.5533Y-4.2394
M15
G01X2.5258Y-4.2394
M16
G05
G00X2.5533Y-4.5795
M15
G01X2.5258Y-4.5795
M16
G05
G00X2.703Y-2.3496
M15
G01X2.6754Y-2.3496
M16
G05
G00X2.703Y-2.6898
M15
G01X2.6754Y-2.6898
M16
G05
G00X2.703Y-2.822
M15
G01X2.6754Y-2.822
M16
G05
G00X2.703Y-3.1622
M15
G01X2.6754Y-3.1622
M16
G05
G00X2.703Y-3.2945
M15
G01X2.6754Y-3.2945
M16
G05
G00X2.703Y-3.6346
M15
G01X2.6754Y-3.6346
M16
G05
G00X2.703Y-3.7669
M15
G01X2.6754Y-3.7669
M16
G05
G00X2.703Y-4.1071
M15
G01X2.6754Y-4.1071
M16
G05
G00X2.703Y-4.2394
M15
G01X2.6754Y-4.2394
M16
G05
G00X2.703Y-4.5795
M15
G01X2.6754Y-4.5795
M16
G05
G00X4.9283Y-2.3642
M15
G01X4.9283Y-2.3366
M16
G05
G00X4.9283Y-2.5138
M15
G01X4.9283Y-2.4862
M16
G05
G00X5.2685Y-2.3642
M15
G01X5.2685Y-2.3366
M16
G05
G00X5.2685Y-2.5138
M15
G01X5.2685Y-2.4862
M16
G05
G00X6.0701Y-2.3642
M15
G01X6.0701Y-2.3366
M16
G05
G00X6.0701Y-2.5138
M15
G01X6.0701Y-2.4862
M16
G05
G00X6.4102Y-2.3642
M15
G01X6.4102Y-2.3366
M16
G05
G00X6.4102Y-2.5138
M15
G01X6.4102Y-2.4862
M16
G05
T4
G00X4.2756Y-2.4217
M15
G01X4.2756Y-2.4492
M16
G05
G00X4.2756Y-2.6795
M15
G01X4.2756Y-2.7071
M16
G05
G00X4.376Y-2.728
M15
G01X4.3445Y-2.728
M16
G05
G00X4.7106Y-2.728
M15
G01X4.6791Y-2.728
M16
G05
G00X4.7795Y-2.4217
M15
G01X4.7795Y-2.4492
M16
G05
G00X4.7795Y-2.6795
M15
G01X4.7795Y-2.7071
M16
G05
G00X5.4173Y-2.4217
M15
G01X5.4173Y-2.4492
M16
G05
G00X5.4173Y-2.6795
M15
G01X5.4173Y-2.7071
M16
G05
G00X5.5177Y-2.728
M15
G01X5.4862Y-2.728
M16
G05
G00X5.8524Y-2.728
M15
G01X5.8209Y-2.728
M16
G05
G00X5.9213Y-2.4217
M15
G01X5.9213Y-2.4492
M16
G05
G00X5.9213Y-2.6795
M15
G01X5.9213Y-2.7071
M16
G05
T0
M30
